<svg width="493" height="565" viewBox="0 0 493 565" fill="none" xmlns="http://www.w3.org/2000/svg">
<path d="M489.13 140.641L244.565 0.010498L0 140.641V266.886L56.586 234.182V173.183L244.565 65.0925L432.544 173.183V197.397L489.13 164.687V140.641Z" fill="url(#paint0_linear_0_347)"/>
<path d="M432.544 389.352L244.565 497.442L56.5859 389.352V335.543L139.105 287.847L207.564 327.424L269.694 291.506L201.229 251.936L139.098 216.011L76.9675 251.936L56.6065 263.707L0.0201111 296.416V421.887L244.585 562.518L489.15 421.887V295.643L432.564 328.352L432.544 389.352Z" fill="url(#paint1_linear_0_347)"/>
<path d="M432.544 226.969L295.283 306.337L233.152 342.255L295.283 378.18L357.413 342.255L432.524 298.838L489.11 266.128V194.266L432.544 226.969Z" fill="url(#paint2_linear_0_347)"/>
<defs>
<linearGradient id="paint0_linear_0_347" x1="244.565" y1="79.35" x2="244.565" y2="266.886" gradientUnits="userSpaceOnUse">
<stop stop-color="#FBFAFF"/>
<stop offset="1" stop-color="white"/>
</linearGradient>
<linearGradient id="paint1_linear_0_347" x1="244.585" y1="319.025" x2="244.585" y2="562.518" gradientUnits="userSpaceOnUse">
<stop stop-color="#FBFAFF"/>
<stop offset="1" stop-color="white"/>
</linearGradient>
<linearGradient id="paint2_linear_0_347" x1="361.131" y1="248.942" x2="361.131" y2="378.18" gradientUnits="userSpaceOnUse">
<stop stop-color="#FBFAFF"/>
<stop offset="1" stop-color="white"/>
</linearGradient>
</defs>
</svg>
