<svg width="32" height="32" viewBox="0 0 32 32" fill="none" xmlns="http://www.w3.org/2000/svg">
<path d="M16.0289 0.119873C7.20981 0.119873 0.0584717 7.39181 0.0584717 16.3629C0.0584717 23.5396 4.63447 29.6283 10.98 31.7761C11.7781 31.9265 12.0712 31.4238 12.0712 30.9947C12.0712 30.6074 12.0564 29.3279 12.0495 27.9706C7.6065 28.9532 6.66898 26.0541 6.66898 26.0541C5.9425 24.1766 4.89576 23.6773 4.89576 23.6773C3.44677 22.6692 5.00498 22.6899 5.00498 22.6899C6.60869 22.8042 7.45312 24.3638 7.45312 24.3638C8.87751 26.847 11.1892 26.1291 12.1005 25.7141C12.2439 24.6645 12.6577 23.9474 13.1145 23.542C9.56723 23.1313 5.83831 21.7385 5.83831 15.5145C5.83831 13.7411 6.46217 12.2921 7.48379 11.1546C7.31798 10.7452 6.77133 9.09339 7.6385 6.856C7.6385 6.856 8.9796 6.41944 12.0315 8.521C13.3054 8.1611 14.6716 7.98061 16.0289 7.97442C17.3861 7.98061 18.7533 8.1611 20.0296 8.521C23.0778 6.41944 24.4171 6.856 24.4171 6.856C25.2864 9.09339 24.7395 10.7452 24.5736 11.1546C25.5976 12.2921 26.2173 13.7411 26.2173 15.5145C26.2173 21.7533 22.4812 23.127 18.925 23.5291C19.4978 24.0332 20.0082 25.0217 20.0082 26.5372C20.0082 28.7103 19.9897 30.4595 19.9897 30.9947C19.9897 31.427 20.2772 31.9335 21.0867 31.774C27.4288 29.6237 31.999 23.5372 31.999 16.3629C31.999 7.39181 24.8487 0.119873 16.0289 0.119873Z" fill="#D4CDEF"/>
<path d="M6.10727 23.4414C6.0721 23.5224 5.94727 23.5463 5.83355 23.4909C5.71772 23.4379 5.65266 23.3279 5.69022 23.2469C5.7246 23.1638 5.84969 23.1409 5.96526 23.1961C6.08136 23.2493 6.14747 23.3604 6.10727 23.4414Z" fill="#D4CDEF"/>
<path d="M6.75411 24.1752C6.67795 24.2471 6.52906 24.2137 6.42803 24.1002C6.32357 23.987 6.304 23.8355 6.38122 23.7626C6.45977 23.6908 6.60416 23.7244 6.70889 23.8377C6.81335 23.9523 6.83372 24.1026 6.75411 24.1752Z" fill="#D4CDEF"/>
<path d="M7.38387 25.1108C7.28601 25.1799 7.12601 25.1151 7.02711 24.9707C6.92925 24.8262 6.92925 24.653 7.02922 24.5836C7.12839 24.5142 7.28601 24.5766 7.38625 24.72C7.48383 24.8666 7.48383 25.04 7.38387 25.1108Z" fill="#D4CDEF"/>
<path d="M8.24655 26.0146C8.15901 26.1128 7.97256 26.0864 7.8361 25.9525C7.69647 25.8215 7.65759 25.6356 7.74539 25.5374C7.83399 25.439 8.02149 25.4667 8.15901 25.5996C8.29759 25.7303 8.3399 25.9175 8.24655 26.0146Z" fill="#D4CDEF"/>
<path d="M9.43659 26.5393C9.39798 26.6666 9.21841 26.7244 9.03752 26.6703C8.85689 26.6147 8.73868 26.4656 8.77517 26.3371C8.81273 26.209 8.99309 26.1488 9.1753 26.2066C9.35567 26.262 9.47415 26.41 9.43659 26.5393Z" fill="#D4CDEF"/>
<path d="M10.7435 26.6367C10.748 26.7707 10.5946 26.8818 10.4048 26.8839C10.2138 26.8885 10.0594 26.7801 10.0573 26.6483C10.0573 26.513 10.2072 26.403 10.3981 26.3998C10.588 26.396 10.7435 26.5036 10.7435 26.6367Z" fill="#D4CDEF"/>
<path d="M11.9598 26.426C11.9826 26.5567 11.8506 26.6909 11.6621 26.7264C11.4767 26.7611 11.305 26.6804 11.2815 26.5508C11.2585 26.4168 11.3928 26.2826 11.578 26.2479C11.7668 26.2145 11.9358 26.2931 11.9598 26.426Z" fill="#D4CDEF"/>
</svg>
