<svg width="104" height="120" viewBox="0 0 104 120" fill="none" xmlns="http://www.w3.org/2000/svg">
<g clip-path="url(#clip0_0_359)">
<path d="M103.184 30.1218L51.5918 0.502197L0 30.1218V56.7113L11.937 49.8234V36.9757L51.5918 14.2097L91.2467 36.9757V42.0756L103.184 35.1863V30.1218Z" fill="#23155B"/>
<path d="M91.2467 82.5051L51.5919 105.271L11.937 82.5051V71.1718L29.3447 61.1261L43.7863 69.4618L56.8929 61.8969L42.45 53.5626L29.3433 45.9962L16.2366 53.5626L11.9414 56.0417L0.00427246 62.931V89.3576L51.5961 118.977L103.188 89.3576V62.7681L91.251 69.6574L91.2467 82.5051Z" fill="#23155B"/>
<path d="M91.2466 48.3041L62.2909 65.0206L49.1842 72.5856L62.2909 80.1521L75.3975 72.5856L91.2423 63.4411L103.179 56.5518V41.4161L91.2466 48.3041Z" fill="#8053FF"/>
</g>
<defs>
<clipPath id="clip0_0_359">
<rect width="104" height="119" fill="white" transform="translate(0 0.5)"/>
</clipPath>
</defs>
</svg>
