<svg width="203" height="68" viewBox="0 0 203 68" fill="none" xmlns="http://www.w3.org/2000/svg">
<g clip-path="url(#clip0_201_126)">
<path d="M56.0254 18.9355L30.0127 4.00122L4 18.9355V32.3419L10.0187 28.869V22.3912L30.0127 10.9126L50.0067 22.3912V24.9626L56.0254 21.489V18.9355Z" fill="#23155B"/>
<path d="M50.0067 45.3473L30.0127 56.8258L10.0186 45.3473V39.633L18.7957 34.568L26.0771 38.7709L32.6855 34.9566L25.4033 30.7544L18.7949 26.9395L12.1865 30.7544L10.0208 32.0044L4.00214 35.478V48.8023L30.0148 63.7366L56.0275 48.8023V35.3959L50.0089 38.8695L50.0067 45.3473Z" fill="#23155B"/>
<path d="M50.0067 28.103L35.4072 36.5315L28.7988 40.3458L35.4072 44.1609L42.0156 40.3458L50.0045 35.7351L56.0232 32.2615V24.6301L50.0067 28.103Z" fill="#8053FF"/>
</g>
<path d="M81.415 27.364L76.933 40H73.081L68.599 27.364H71.875L75.007 36.904L78.157 27.364H81.415ZM84.2494 28.912C83.7094 28.912 83.2654 28.756 82.9174 28.444C82.5814 28.12 82.4134 27.724 82.4134 27.256C82.4134 26.776 82.5814 26.38 82.9174 26.068C83.2654 25.744 83.7094 25.582 84.2494 25.582C84.7774 25.582 85.2094 25.744 85.5454 26.068C85.8934 26.38 86.0674 26.776 86.0674 27.256C86.0674 27.724 85.8934 28.12 85.5454 28.444C85.2094 28.756 84.7774 28.912 84.2494 28.912ZM85.7794 29.956V40H82.7014V29.956H85.7794ZM92.096 40.144C91.22 40.144 90.44 39.994 89.756 39.694C89.072 39.394 88.532 38.986 88.136 38.47C87.74 37.942 87.518 37.354 87.47 36.706H90.512C90.548 37.054 90.71 37.336 90.998 37.552C91.286 37.768 91.64 37.876 92.06 37.876C92.444 37.876 92.738 37.804 92.942 37.66C93.158 37.504 93.266 37.306 93.266 37.066C93.266 36.778 93.116 36.568 92.816 36.436C92.516 36.292 92.03 36.136 91.358 35.968C90.638 35.8 90.038 35.626 89.558 35.446C89.078 35.254 88.664 34.96 88.316 34.564C87.968 34.156 87.794 33.61 87.794 32.926C87.794 32.35 87.95 31.828 88.262 31.36C88.586 30.88 89.054 30.502 89.666 30.226C90.29 29.95 91.028 29.812 91.88 29.812C93.14 29.812 94.13 30.124 94.85 30.748C95.582 31.372 96.002 32.2 96.11 33.232H93.266C93.218 32.884 93.062 32.608 92.798 32.404C92.546 32.2 92.21 32.098 91.79 32.098C91.43 32.098 91.154 32.17 90.962 32.314C90.77 32.446 90.674 32.632 90.674 32.872C90.674 33.16 90.824 33.376 91.124 33.52C91.436 33.664 91.916 33.808 92.564 33.952C93.308 34.144 93.914 34.336 94.382 34.528C94.85 34.708 95.258 35.008 95.606 35.428C95.966 35.836 96.152 36.388 96.164 37.084C96.164 37.672 95.996 38.2 95.66 38.668C95.336 39.124 94.862 39.484 94.238 39.748C93.626 40.012 92.912 40.144 92.096 40.144ZM99.5951 28.912C99.0551 28.912 98.6111 28.756 98.2631 28.444C97.9271 28.12 97.7591 27.724 97.7591 27.256C97.7591 26.776 97.9271 26.38 98.2631 26.068C98.6111 25.744 99.0551 25.582 99.5951 25.582C100.123 25.582 100.555 25.744 100.891 26.068C101.239 26.38 101.413 26.776 101.413 27.256C101.413 27.724 101.239 28.12 100.891 28.444C100.555 28.756 100.123 28.912 99.5951 28.912ZM101.125 29.956V40H98.0471V29.956H101.125ZM107.928 40.144C106.944 40.144 106.056 39.934 105.264 39.514C104.484 39.094 103.866 38.494 103.41 37.714C102.966 36.934 102.744 36.022 102.744 34.978C102.744 33.946 102.972 33.04 103.428 32.26C103.884 31.468 104.508 30.862 105.3 30.442C106.092 30.022 106.98 29.812 107.964 29.812C108.948 29.812 109.836 30.022 110.628 30.442C111.42 30.862 112.044 31.468 112.5 32.26C112.956 33.04 113.184 33.946 113.184 34.978C113.184 36.01 112.95 36.922 112.482 37.714C112.026 38.494 111.396 39.094 110.592 39.514C109.8 39.934 108.912 40.144 107.928 40.144ZM107.928 37.48C108.516 37.48 109.014 37.264 109.422 36.832C109.842 36.4 110.052 35.782 110.052 34.978C110.052 34.174 109.848 33.556 109.44 33.124C109.044 32.692 108.552 32.476 107.964 32.476C107.364 32.476 106.866 32.692 106.47 33.124C106.074 33.544 105.876 34.162 105.876 34.978C105.876 35.782 106.068 36.4 106.452 36.832C106.848 37.264 107.34 37.48 107.928 37.48ZM120.937 29.848C122.113 29.848 123.049 30.232 123.745 31C124.453 31.756 124.807 32.8 124.807 34.132V40H121.747V34.546C121.747 33.874 121.573 33.352 121.225 32.98C120.877 32.608 120.409 32.422 119.821 32.422C119.233 32.422 118.765 32.608 118.417 32.98C118.069 33.352 117.895 33.874 117.895 34.546V40H114.817V29.956H117.895V31.288C118.207 30.844 118.627 30.496 119.155 30.244C119.683 29.98 120.277 29.848 120.937 29.848ZM130.238 33.664C130.238 32.416 130.508 31.306 131.048 30.334C131.588 29.35 132.338 28.588 133.298 28.048C134.27 27.496 135.368 27.22 136.592 27.22C138.092 27.22 139.376 27.616 140.444 28.408C141.512 29.2 142.226 30.28 142.586 31.648H139.202C138.95 31.12 138.59 30.718 138.122 30.442C137.666 30.166 137.144 30.028 136.556 30.028C135.608 30.028 134.84 30.358 134.252 31.018C133.664 31.678 133.37 32.56 133.37 33.664C133.37 34.768 133.664 35.65 134.252 36.31C134.84 36.97 135.608 37.3 136.556 37.3C137.144 37.3 137.666 37.162 138.122 36.886C138.59 36.61 138.95 36.208 139.202 35.68H142.586C142.226 37.048 141.512 38.128 140.444 38.92C139.376 39.7 138.092 40.09 136.592 40.09C135.368 40.09 134.27 39.82 133.298 39.28C132.338 38.728 131.588 37.966 131.048 36.994C130.508 36.022 130.238 34.912 130.238 33.664ZM143.859 34.96C143.859 33.928 144.051 33.022 144.435 32.242C144.831 31.462 145.365 30.862 146.037 30.442C146.709 30.022 147.459 29.812 148.287 29.812C148.995 29.812 149.613 29.956 150.141 30.244C150.681 30.532 151.095 30.91 151.383 31.378V29.956H154.461V40H151.383V38.578C151.083 39.046 150.663 39.424 150.123 39.712C149.595 40 148.977 40.144 148.269 40.144C147.453 40.144 146.709 39.934 146.037 39.514C145.365 39.082 144.831 38.476 144.435 37.696C144.051 36.904 143.859 35.992 143.859 34.96ZM151.383 34.978C151.383 34.21 151.167 33.604 150.735 33.16C150.315 32.716 149.799 32.494 149.187 32.494C148.575 32.494 148.053 32.716 147.621 33.16C147.201 33.592 146.991 34.192 146.991 34.96C146.991 35.728 147.201 36.34 147.621 36.796C148.053 37.24 148.575 37.462 149.187 37.462C149.799 37.462 150.315 37.24 150.735 36.796C151.167 36.352 151.383 35.746 151.383 34.978ZM159.766 31.378C160.066 30.91 160.48 30.532 161.008 30.244C161.536 29.956 162.154 29.812 162.862 29.812C163.69 29.812 164.44 30.022 165.112 30.442C165.784 30.862 166.312 31.462 166.696 32.242C167.092 33.022 167.29 33.928 167.29 34.96C167.29 35.992 167.092 36.904 166.696 37.696C166.312 38.476 165.784 39.082 165.112 39.514C164.44 39.934 163.69 40.144 162.862 40.144C162.166 40.144 161.548 40 161.008 39.712C160.48 39.424 160.066 39.052 159.766 38.596V44.788H156.688V29.956H159.766V31.378ZM164.158 34.96C164.158 34.192 163.942 33.592 163.51 33.16C163.09 32.716 162.568 32.494 161.944 32.494C161.332 32.494 160.81 32.716 160.378 33.16C159.958 33.604 159.748 34.21 159.748 34.978C159.748 35.746 159.958 36.352 160.378 36.796C160.81 37.24 161.332 37.462 161.944 37.462C162.556 37.462 163.078 37.24 163.51 36.796C163.942 36.34 164.158 35.728 164.158 34.96ZM170.453 28.912C169.913 28.912 169.469 28.756 169.121 28.444C168.785 28.12 168.617 27.724 168.617 27.256C168.617 26.776 168.785 26.38 169.121 26.068C169.469 25.744 169.913 25.582 170.453 25.582C170.981 25.582 171.413 25.744 171.749 26.068C172.097 26.38 172.271 26.776 172.271 27.256C172.271 27.724 172.097 28.12 171.749 28.444C171.413 28.756 170.981 28.912 170.453 28.912ZM171.983 29.956V40H168.905V29.956H171.983ZM179.811 37.39V40H178.245C177.129 40 176.259 39.73 175.635 39.19C175.011 38.638 174.699 37.744 174.699 36.508V32.512H173.475V29.956H174.699V27.508H177.777V29.956H179.793V32.512H177.777V36.544C177.777 36.844 177.849 37.06 177.993 37.192C178.137 37.324 178.377 37.39 178.713 37.39H179.811ZM180.914 34.96C180.914 33.928 181.106 33.022 181.49 32.242C181.886 31.462 182.42 30.862 183.092 30.442C183.764 30.022 184.514 29.812 185.342 29.812C186.05 29.812 186.668 29.956 187.196 30.244C187.736 30.532 188.15 30.91 188.438 31.378V29.956H191.516V40H188.438V38.578C188.138 39.046 187.718 39.424 187.178 39.712C186.65 40 186.032 40.144 185.324 40.144C184.508 40.144 183.764 39.934 183.092 39.514C182.42 39.082 181.886 38.476 181.49 37.696C181.106 36.904 180.914 35.992 180.914 34.96ZM188.438 34.978C188.438 34.21 188.222 33.604 187.79 33.16C187.37 32.716 186.854 32.494 186.242 32.494C185.63 32.494 185.108 32.716 184.676 33.16C184.256 33.592 184.046 34.192 184.046 34.96C184.046 35.728 184.256 36.34 184.676 36.796C185.108 37.24 185.63 37.462 186.242 37.462C186.854 37.462 187.37 37.24 187.79 36.796C188.222 36.352 188.438 35.746 188.438 34.978ZM196.82 26.68V40H193.742V26.68H196.82Z" fill="#23155B"/>
<defs>
<clipPath id="clip0_201_126">
<rect width="52.437" height="60" fill="white" transform="translate(4 4)"/>
</clipPath>
</defs>
</svg>
