<svg width="1666" height="918" viewBox="0 0 1666 918" fill="none" xmlns="http://www.w3.org/2000/svg">
<g style="mix-blend-mode:soft-light" opacity="0.2">
<path d="M-234.207 -406.463C-234.207 -454.75 -229.865 -489.436 -220.124 -518.927C-180.792 -631.297 -23.4007 -714.935 180.853 -731.995C283.029 -739.742 378.848 -726.138 457.943 -692.652C526.873 -662.897 593.305 -612.69 667.007 -534.645C717.341 -480.705 761.348 -417.941 805.499 -337.124C849.867 -255.15 870.839 -189.684 873.496 -124.859C873.587 -121.913 873.635 -118.967 873.635 -115.852C873.635 -42.0675 847.595 75.0491 803.975 197.434C759.642 321.824 705.119 427.907 658.125 481.207C574.644 625.532 492.964 607.059 369.325 579.108C314.482 566.705 252.321 552.656 177.208 548.928C123.003 546.25 74.6007 544.609 31.8921 543.16C-173.196 536.213 -266.8 533.048 -370.192 434.583C-394.189 410.619 -406.358 378.484 -406.358 339.092C-406.358 308.04 -398.81 272.21 -383.919 232.591C-370.264 196.652 -353.216 159.549 -335.164 120.269C-311.421 68.6058 -286.868 15.1867 -266.435 -43.1108C-242.446 -112.494 -230.786 -188.39 -230.786 -275.141C-230.786 -288.017 -231.044 -301.52 -231.551 -315.271C-231.782 -321.451 -232.022 -327.581 -232.258 -333.654C-233.261 -359.147 -234.207 -383.226 -234.207 -406.463ZM874.782 -115.852C874.782 -118.982 874.737 -121.945 874.648 -124.914C871.981 -189.982 850.954 -255.642 806.475 -337.822C762.269 -418.741 718.2 -481.589 667.794 -535.614C593.975 -613.778 527.424 -664.07 458.348 -693.889C379.091 -727.442 283.108 -741.071 180.771 -733.309C-23.9197 -716.215 -181.701 -632.253 -221.196 -519.406C-230.994 -489.749 -235.36 -454.917 -235.36 -406.463C-235.36 -383.196 -234.414 -359.105 -233.41 -333.595C-233.17 -327.522 -232.929 -321.396 -232.7 -315.216C-232.196 -301.483 -231.938 -288 -231.938 -275.141C-231.938 -188.559 -243.571 -112.822 -267.503 -43.5926C-287.916 14.6303 -312.451 68.0172 -336.182 119.655C-354.246 158.956 -371.305 196.075 -384.974 232.065C-399.929 271.855 -407.51 307.862 -407.51 339.092C-407.51 378.884 -395.207 411.346 -370.937 435.587C-320.663 483.467 -272.074 510.042 -208.456 524.444C-146.687 538.433 -71.7955 540.97 31.8573 544.482C74.561 545.93 122.963 547.567 177.161 550.252C252.179 553.968 314.3 568.014 369.104 580.404C432.919 594.831 483.327 606.232 529.636 596.214C579.707 585.392 619.605 550.177 659.011 482.034C706.035 428.729 760.653 322.479 805.045 197.933C848.712 75.3969 874.782 -41.9061 874.782 -115.852Z" fill="#EDE9F6"/>
<path d="M861.02 -116.717C861.052 -114.968 861.065 -113.233 861.065 -111.446C861.065 -40.9343 835.656 71.898 793.086 190.364C749.773 310.93 696.512 414.122 650.613 466.408C569.18 606.607 489.481 590.263 368.841 565.518C316.673 554.82 257.544 542.696 186.545 540.008C134.789 537.9 88.4461 536.739 47.5594 535.711C-150.784 530.732 -241.309 528.459 -341.996 434.311C-368.033 409.508 -381.236 375.411 -381.236 332.948C-381.236 304.472 -375.282 272.062 -363.54 236.622C-350.885 192.913 -333.114 147.242 -314.298 98.8924C-296.616 53.4616 -278.334 6.47716 -262.371 -43.6272C-229.951 -147.621 -225.508 -247.998 -224.987 -314.454L-225.126 -326.174C-225.292 -340.401 -225.451 -353.841 -225.451 -367.214C-225.451 -424.099 -222.401 -470.359 -207.509 -511.23C-167.608 -619.243 -15.0272 -701.107 181.205 -719.781C281.616 -729.95 375.358 -719.062 452.293 -688.297C520.505 -660.667 586.057 -612.499 658.584 -536.706C711.675 -481.476 756.702 -416.596 800.276 -332.523C842.288 -250.619 861.022 -184.288 861.02 -117.45V-116.717ZM862.22 -111.446C862.22 -113.24 862.207 -114.985 862.167 -116.73L862.172 -117.45C862.172 -184.536 843.388 -251.076 801.265 -333.196C757.631 -417.383 712.54 -482.362 659.364 -537.681C586.718 -613.594 521.042 -661.851 452.675 -689.543C375.586 -720.37 281.68 -731.28 181.108 -721.097C-15.5463 -702.382 -168.505 -620.206 -208.574 -511.739C-223.536 -470.664 -226.606 -424.258 -226.606 -367.214C-226.606 -353.831 -226.444 -340.389 -226.278 -326.154L-226.141 -314.452C-226.663 -248.105 -231.096 -147.877 -263.452 -44.0764C-279.404 5.98077 -297.677 52.9429 -315.348 98.3587C-334.177 146.736 -351.961 192.434 -364.622 236.172C-376.408 271.742 -382.386 304.308 -382.386 332.948C-382.386 375.813 -369.046 410.263 -342.726 435.321C-241.732 529.769 -151.082 532.045 47.5346 537.032C88.4188 538.059 134.755 539.221 186.51 541.326C257.424 544.009 316.512 556.128 368.637 566.818C430.906 579.591 480.088 589.678 525.279 579.251C574.131 567.98 613.06 533.43 651.5 467.242C697.426 414.942 750.783 311.578 794.151 190.871C836.777 72.2479 862.22 -40.7705 862.22 -111.446Z" fill="#EDE9F6"/>
<path d="M-356.11 326.381C-356.11 300.723 -351.626 271.964 -342.79 240.91C-332.034 187.7 -313.659 131.312 -294.204 71.6138C-282.063 34.3544 -269.508 -4.17207 -257.998 -44.3281C-230.481 -143.336 -222.412 -236.339 -218.146 -314.261L-218.067 -318.822C-216.85 -389.998 -215.798 -451.47 -194.627 -504.479C-154.18 -608.323 -6.50872 -688.543 181.595 -708.853C281.589 -721.662 370.713 -713.697 446.508 -685.177C513.019 -660.008 579.543 -612.437 649.893 -539.756C704.963 -483.938 752.328 -414.864 794.689 -328.58C834.441 -246.715 851.254 -177.56 848.153 -108.878L848.156 -107.341C848.156 -39.9982 823.38 68.7173 781.888 183.462C739.603 300.392 687.624 400.873 642.842 452.257C563.487 588.587 485.791 574.363 368.181 552.83C318.754 543.783 262.732 533.531 195.913 531.839C146.704 530.306 102.51 529.618 63.5182 529.007C-128.059 526.009 -215.495 524.642 -313.448 434.613C-341.754 408.875 -356.11 372.46 -356.11 326.381ZM849.658 -124.702C849.658 -188.418 832.509 -253.408 795.694 -329.223C753.266 -415.641 705.825 -484.827 650.665 -540.737C580.196 -613.545 513.533 -661.2 446.868 -686.432C370.917 -715.012 281.624 -722.996 181.48 -710.167C88.6962 -700.149 4.24918 -675.596 -62.729 -639.171C-129.712 -602.739 -175.686 -556.35 -195.675 -505.023C-216.945 -451.768 -217.997 -390.172 -219.219 -318.847L-219.296 -314.316C-223.556 -236.506 -231.616 -143.599 -259.093 -44.733C-270.595 -4.61672 -283.146 33.9047 -295.287 71.1543C-314.752 130.893 -333.142 187.322 -343.897 240.555C-352.761 271.693 -357.262 300.581 -357.262 326.381C-357.262 372.889 -342.762 409.65 -314.166 435.646C-215.907 525.954 -128.347 527.323 63.5008 530.321C102.491 530.935 146.682 531.623 195.886 533.161C262.628 534.847 318.61 545.089 367.997 554.139C428.701 565.248 476.641 574.025 520.694 563.149C568.323 551.399 606.265 517.453 643.728 453.09C688.537 401.693 740.611 301.048 782.95 183.961C824.502 69.0675 849.308 -39.8343 849.308 -107.341L849.305 -108.848C849.539 -114.083 849.658 -119.428 849.658 -124.702Z" fill="#EDE9F6"/>
<path d="M-330.987 318.104C-330.987 295.701 -327.828 270.999 -321.597 244.695C-313.939 180.014 -294.994 110.372 -274.936 36.6388C-267.743 10.204 -260.306 -17.1316 -253.184 -44.9882C-228.246 -146.541 -218.206 -243.039 -210.871 -313.5C-207.685 -380.293 -204.682 -443.341 -181.317 -496.789C-161.133 -545.798 -116.443 -590.411 -52.0696 -625.829C12.435 -661.314 93.4932 -685.783 182.346 -696.595C280.476 -711.905 367.514 -706.583 441.041 -680.768C506.759 -657.755 572.329 -612.295 641.498 -541.795C699.273 -484.752 747.641 -413.524 789.366 -324.039C821.804 -253.663 836.908 -192.699 836.908 -132.181C836.908 -121.806 836.451 -111.272 835.543 -100.873C834.977 -36.2312 810.607 67.9472 770.344 177.887C728.604 291.855 679.407 386.366 635.359 437.186C558.063 569.419 482.355 557.379 367.758 539.153C321.109 531.733 268.235 523.324 205.629 522.607C159.062 521.642 117.084 521.423 80.0464 521.225C-104.845 520.247 -189.23 519.803 -284.465 434.039C-315.339 407.326 -330.987 368.318 -330.987 318.104ZM838.062 -132.181C838.062 -192.922 822.91 -254.079 790.389 -324.657C748.589 -414.294 700.137 -485.643 642.255 -542.788C572.966 -613.409 507.256 -658.959 441.379 -682.029C367.688 -707.898 280.488 -713.238 182.209 -697.903C93.2426 -687.079 12.0529 -662.567 -52.5683 -627.015C-117.182 -591.466 -162.059 -546.636 -182.352 -497.367C-205.819 -443.689 -208.829 -380.506 -212.017 -313.614C-219.342 -243.238 -229.382 -146.799 -254.291 -45.3505C-261.407 -17.5162 -268.844 9.8144 -276.035 36.2492C-296.108 110.032 -315.066 179.731 -322.723 244.43C-328.964 270.768 -332.138 295.582 -332.138 318.104C-332.138 368.752 -316.336 408.113 -285.17 435.086C-189.63 521.113 -105.12 521.565 80.0414 522.545C117.077 522.738 159.047 522.959 205.611 523.922C268.151 524.644 320.983 533.046 367.599 540.458C426.741 549.86 473.459 557.295 516.382 545.979C562.79 533.748 599.758 500.447 636.243 438.019C680.323 387.18 729.611 292.51 771.408 178.391C811.719 68.3169 836.124 -36.0625 836.692 -100.801C837.595 -111.183 838.062 -121.762 838.062 -132.181Z" fill="#EDE9F6"/>
<path d="M-307.794 309.078C-307.794 290.389 -305.777 270.151 -301.798 248.905C-298.813 170.025 -279.092 83.605 -258.214 -7.87153C-255.378 -20.2942 -252.517 -32.8235 -249.668 -45.4769C-233.159 -122.578 -222.471 -194.688 -213.043 -258.307C-210.209 -277.446 -207.527 -295.523 -204.829 -312.813C-199.224 -382.305 -193.049 -439.394 -169.198 -489.36C-148.678 -536.379 -105.007 -579.492 -42.9044 -614.056C19.3496 -648.701 97.2708 -673.159 182.442 -684.783C278.862 -702.637 363.929 -699.947 435.303 -676.784C500.297 -655.926 565.005 -612.532 633.113 -544.12C692.861 -486.624 743.712 -411.083 784.278 -319.586C812.933 -254.173 826.278 -197 826.278 -139.67C826.278 -124.164 825.247 -108.379 823.23 -92.7534C821.723 -30.4268 797.561 69.2124 758.584 173.858C718.045 282.7 670.408 373.425 627.882 422.76C552.502 551.066 478.639 541.236 366.83 526.345C322.93 520.497 273.177 513.872 214.723 514.081C170.821 513.684 131.072 513.917 96.0017 514.133C-82.599 515.202 -164.109 515.688 -256.821 434.094C-290.649 406.264 -307.794 364.21 -307.794 309.078ZM827.433 -139.67C827.433 -197.216 814.045 -254.57 785.304 -320.182C744.673 -411.84 693.715 -487.519 633.863 -545.119C565.633 -613.656 500.783 -657.142 435.613 -678.052C364.08 -701.265 278.847 -703.972 182.283 -686.088C97.01 -674.452 18.9572 -649.949 -43.4061 -615.239C-105.742 -580.546 -149.594 -537.23 -170.217 -489.971C-194.164 -439.804 -200.361 -382.578 -205.97 -312.989C-208.662 -295.751 -211.344 -277.671 -214.181 -258.528C-223.604 -194.931 -234.289 -122.846 -250.785 -45.7969C-253.634 -33.1584 -256.493 -20.6266 -259.327 -8.2089C-280.222 83.3421 -299.958 169.824 -302.936 248.742C-306.922 269.957 -308.946 290.299 -308.946 309.078C-308.946 364.657 -291.64 407.07 -257.509 435.151C-164.502 517.013 -82.8647 516.52 96.0066 515.443C131.074 515.237 170.818 514.994 214.718 515.398C273.112 515.195 322.831 521.809 366.693 527.657C424.4 535.338 469.978 541.405 511.856 529.615C557.131 516.867 593.192 484.174 628.769 423.592C671.327 374.231 719.049 283.367 759.642 174.377C798.671 69.5845 822.87 -30.2308 824.378 -92.6392C826.402 -108.25 827.433 -124.101 827.433 -139.67Z" fill="#EDE9F6"/>
<path d="M-280.873 229.779C-280.873 146.73 -264.476 55.8407 -244.667 -45.8001C-237.057 -87.41 -230.411 -126.889 -223.985 -165.068C-214.981 -218.564 -206.471 -269.095 -197.397 -312.214C-190.058 -375.438 -181.866 -431.819 -155.755 -482.177C-134.939 -527.253 -92.3779 -568.902 -32.6607 -602.646C27.2153 -636.484 101.849 -660.949 183.171 -673.401C277.686 -693.851 360.621 -693.789 429.697 -673.222C493.828 -654.528 557.54 -613.159 624.47 -546.752C686.884 -487.96 738.746 -410.069 778.637 -315.229C803.542 -255.26 815.65 -200.187 815.65 -146.875C815.65 -126.348 813.846 -105.367 810.288 -84.5099C805.326 37.1165 710.424 303.27 620.16 408.921C546.809 533.47 474.887 525.877 366.017 514.388C325.005 510.053 278.522 505.146 224.382 506.236C183.333 506.38 145.975 507.073 113.016 507.676C-59.0843 510.85 -137.633 512.302 -227.679 434.741C-264.821 405.673 -283.64 360.004 -283.64 299.002C-283.64 284.625 -282.553 269.335 -280.417 253.556C-280.717 245.754 -280.873 237.796 -280.873 229.779ZM816.803 -146.875C816.803 -200.388 804.656 -255.644 779.671 -315.8C739.711 -410.816 687.742 -488.859 625.211 -547.76C558.155 -614.296 494.295 -655.757 429.985 -674.499C360.74 -695.117 277.639 -695.184 182.988 -674.702C101.573 -662.238 26.8183 -637.731 -33.1718 -603.831C-93.1049 -569.963 -135.842 -528.117 -156.76 -482.822C-182.967 -432.276 -191.182 -375.759 -198.529 -312.455C-207.597 -269.373 -216.105 -218.827 -225.116 -165.319C-231.542 -127.14 -238.189 -87.6707 -245.793 -46.0807C-265.612 55.6297 -282.022 146.596 -282.022 229.779C-282.022 237.813 -281.866 245.791 -281.558 253.486C-283.702 269.201 -284.789 284.561 -284.789 299.002C-284.789 360.47 -265.803 406.5 -228.351 435.816C-184.736 473.381 -142.568 493.409 -87.3662 502.763C-34.5364 511.719 27.3617 510.581 113.034 509C145.99 508.391 183.345 507.704 224.395 507.552C278.477 506.472 324.928 511.374 365.916 515.699C422.102 521.626 466.482 526.316 507.246 514.013C551.327 500.707 586.42 468.555 621.046 409.755C661.996 361.831 708.067 274.678 747.373 170.716C785.031 71.1334 808.976 -24.2231 811.432 -84.356C814.99 -105.198 816.803 -126.261 816.803 -146.875Z" fill="#EDE9F6"/>
<path d="M-264.311 183.296C-264.311 105.36 -252.474 23.3482 -240.895 -46.5961C-226.548 -140.341 -210.89 -238.024 -191.128 -311.67C-180.76 -378.528 -169.173 -429.095 -143.416 -474.787C-100.13 -562.945 25.06 -634.484 183.309 -661.516C276.07 -684.57 356.992 -687.14 423.866 -669.162C487.223 -652.69 550.029 -613.41 615.9 -549.08C680.166 -489.939 734.584 -407.586 773.288 -310.923C795.292 -255.258 805.988 -203.892 805.988 -153.898C805.988 -128.254 803.275 -102.994 797.695 -76.6793C794.282 -18.9444 770.593 71.6326 734.306 165.733C696.275 264.361 651.877 347.529 612.497 393.913C541.024 514.578 470.886 509.293 364.714 501.299C326.581 498.421 283.362 495.164 233.513 497.067C195.368 497.744 160.441 498.865 129.628 499.865C-31.3642 505.028 -112.173 507.624 -199.758 434.186C-240.187 404.202 -261.541 352.985 -261.541 286.065C-261.541 276.781 -261.134 267.102 -260.325 257.28C-262.971 234.121 -264.311 209.281 -264.311 183.296ZM807.14 -153.898C807.14 -204.085 796.409 -255.625 774.338 -311.472C735.557 -408.323 681.022 -490.839 616.633 -550.095C550.635 -614.554 487.658 -653.928 424.132 -670.447C357.084 -688.468 275.995 -685.902 183.101 -662.813C24.5437 -635.727 -100.961 -563.937 -144.404 -475.466C-173.043 -424.661 -183.741 -366.845 -192.242 -311.98C-212.007 -238.337 -227.675 -140.612 -242.029 -46.8293C-253.616 23.1646 -265.463 105.246 -265.463 183.296C-265.463 209.33 -264.118 234.235 -261.467 257.302C-262.283 267.018 -262.695 276.736 -262.695 286.065C-262.695 353.461 -241.158 405.056 -200.411 435.273C-112.533 508.951 -31.5925 506.353 129.66 501.175C160.471 500.185 195.392 499.066 233.543 498.389C283.337 496.483 326.532 499.739 364.637 502.609C419.436 506.738 462.715 510 502.464 497.173C545.437 483.304 579.644 451.712 613.388 394.739C652.795 348.34 697.277 265.028 735.361 166.264C771.695 72.0345 795.427 -18.7088 798.83 -76.4783C804.417 -102.785 807.14 -128.147 807.14 -153.898Z" fill="#EDE9F6"/>
<path d="M-250.782 133.111C-250.782 80.7147 -246.203 21.6959 -236.778 -47.312C-222.732 -160.789 -205.634 -247.126 -184.503 -311.268C-172.518 -371.967 -158.797 -421.746 -130.713 -467.672C-86.8488 -551.586 33.6649 -621.458 183.823 -650.055C274.834 -675.77 353.751 -680.973 418.426 -665.528C480.975 -651.281 542.896 -614.056 607.724 -551.735C692.39 -475.482 741.807 -376.428 768.355 -306.757C787.825 -254.991 797.291 -207.063 797.291 -160.241C797.291 -130.043 793.437 -100.133 785.507 -68.8012C776.592 44.0882 687.583 281.603 605.236 379.332C535.572 496.298 467.142 493.38 363.565 488.959C328.388 487.458 288.517 485.756 243.024 488.411C207.919 489.589 175.543 491.118 146.979 492.47C-8.31175 499.819 -86.2603 503.506 -171.463 434.086C-216.318 402.588 -240.012 346.279 -240.012 271.217C-240.012 267.959 -239.964 264.622 -239.875 261.297C-247.218 221.996 -250.782 180.114 -250.782 133.111ZM798.443 -160.241C798.443 -207.249 788.947 -255.346 769.41 -307.283C742.808 -377.095 693.287 -476.346 608.447 -552.755C543.484 -615.213 481.402 -652.529 418.657 -666.818C353.818 -682.305 274.722 -677.1 183.589 -651.348C33.1509 -622.696 -87.6708 -552.584 -131.679 -468.389C-159.848 -422.326 -173.611 -372.411 -185.606 -311.645C-206.742 -247.498 -223.86 -161.07 -237.916 -47.5131C-247.348 21.5569 -251.934 80.6428 -251.934 133.111C-251.934 180.211 -248.361 222.179 -241.015 261.419C-241.117 264.592 -241.164 267.944 -241.164 271.217C-241.164 346.76 -217.281 403.461 -172.098 435.18C-86.6054 504.841 -8.52785 501.149 147.026 493.79C175.585 492.44 207.954 490.904 243.069 489.721C288.525 487.076 328.368 488.775 363.523 490.276C467.483 494.713 536.166 497.638 606.123 380.161C688.559 282.345 777.725 44.4132 786.64 -68.563C794.569 -99.8849 798.443 -129.917 798.443 -160.241Z" fill="#EDE9F6"/>
<path d="M-239.19 83.7621C-239.19 42.6764 -236.707 -0.341604 -231.601 -47.7306C-221.298 -156.183 -202.897 -244.693 -176.904 -310.811C-165.018 -359.65 -149.57 -411.532 -117.117 -460.644C-72.7413 -540.414 42.9233 -608.685 184.766 -638.856C275.151 -667.7 349.808 -675.324 413.064 -662.171C474.712 -650.166 535.64 -614.964 599.347 -554.561C668.031 -493.818 726.136 -404.315 762.973 -302.528C780.217 -254.262 788.598 -209.471 788.598 -165.598C788.598 -131.124 783.45 -96.7912 772.859 -60.6303C761.96 47.7603 677.352 270.013 597.767 365.456C529.954 478.928 463.252 478.454 362.28 477.734C330.209 477.505 293.854 477.247 252.875 480.56C221.005 482.207 191.373 484.107 165.224 485.793C15.6482 495.434 -59.4313 500.27 -142.219 434.743C-202.158 394.887 -216.708 320.946 -218.373 265.932L-218.395 265.766C-232.387 211.224 -239.19 151.688 -239.19 83.7621ZM789.747 -165.598C789.747 -209.647 781.339 -254.6 764.042 -303.032C727.121 -405.03 668.892 -494.724 600.067 -555.591C536.213 -616.136 475.111 -651.425 413.267 -663.473C349.843 -676.656 275.009 -669.026 184.508 -640.14C42.4122 -609.917 -73.5427 -541.423 -118.062 -461.399C-150.602 -412.153 -166.095 -360.132 -177.984 -311.258C-203.996 -245.105 -222.431 -156.464 -232.745 -47.8871C-237.855 -0.45083 -240.339 42.6118 -240.339 83.7621C-240.339 151.787 -233.529 211.418 -219.519 266.061C-217.837 321.4 -203.157 395.744 -142.837 435.861C-59.7612 501.611 15.4498 496.765 165.289 487.114C191.43 485.43 221.062 483.518 252.937 481.881C293.894 478.563 330.219 478.824 362.275 479.057C463.612 479.77 530.559 480.25 598.66 366.283C678.322 270.75 763.079 48.1054 773.978 -60.3447C784.579 -96.5055 789.747 -130.982 789.747 -165.598Z" fill="#EDE9F6"/>
<path d="M-231.458 38.7003C-231.458 10.634 -230.246 -18.7433 -227.863 -48.6246C-220.763 -154.276 -200.975 -244.826 -170.642 -310.5C-152.729 -371.273 -133.029 -414.033 -104.741 -453.573C-82.6006 -490.756 -44.2551 -526.42 6.18355 -556.751C56.9252 -587.263 118.784 -611.687 185.073 -627.378C273.723 -659.005 346.463 -669.187 407.513 -658.518C468.349 -648.791 528.412 -615.659 591.135 -557.232C662.589 -495.317 721.868 -403.421 758.073 -298.453C773.407 -253.411 780.864 -211.548 780.864 -170.469C780.864 -132.061 774.271 -93.6117 760.708 -52.915C747.631 51.939 666.53 258.623 590.465 350.566C524.273 460.534 459.052 462.608 360.325 465.744C331.418 466.665 298.652 467.702 262.214 471.558C233.709 473.604 208.082 475.744 183.307 477.815C38.8922 489.869 -33.5948 495.923 -114.249 434.318C-174.904 396.303 -193.423 323.808 -198.288 269.689L-198.32 269.523C-220.309 201.693 -231.458 124.034 -231.458 38.7003ZM782.016 -170.469C782.016 -211.714 774.534 -253.737 759.146 -298.935C722.866 -404.129 663.451 -496.226 591.848 -558.27C528.971 -616.839 468.724 -650.062 407.682 -659.824C346.461 -670.523 273.549 -660.328 184.785 -628.657C118.446 -612.953 56.4832 -588.487 5.64968 -557.915C-44.9554 -527.488 -83.4449 -491.677 -105.662 -454.36C-134.015 -414.736 -153.774 -371.854 -171.698 -311.019C-202.067 -245.282 -221.898 -154.554 -229.012 -48.7338C-231.396 -18.8277 -232.608 10.5942 -232.608 38.7003C-232.608 124.156 -221.444 201.944 -199.428 269.907C-194.523 324.332 -175.867 397.199 -114.845 435.44C-33.9051 497.268 38.7159 491.208 183.389 479.131C208.167 477.06 233.783 474.92 262.303 472.872C298.722 469.018 331.467 467.981 360.362 467.064C459.434 463.916 524.888 461.835 591.356 351.395C626.106 309.402 665.78 237.382 700.15 153.888C732.427 75.479 755.478 -1.7083 761.815 -52.5922C775.401 -93.2938 782.016 -131.897 782.016 -170.469Z" fill="#EDE9F6"/>
<path d="M-224.692 1.88458C-224.692 -14.7457 -224.24 -31.7881 -223.356 -48.7735C-219.138 -154.182 -198.499 -244.354 -163.672 -309.559C-144.401 -364.441 -122.225 -406.469 -91.7251 -445.928C-45.4845 -518.412 58.2086 -581.754 185.694 -615.414C272.502 -649.884 343.239 -662.626 402.01 -654.384C461.958 -646.952 521.081 -615.874 582.767 -559.378C656.92 -496.276 717.31 -401.943 752.835 -293.743C766.495 -251.597 773.131 -212.379 773.131 -173.847C773.131 -131.763 764.981 -89.4415 748.21 -44.4551C733.227 54.6064 654.083 249.802 583.012 336.601C518.39 443.291 454.567 448.046 357.967 455.225C332.425 457.127 303.474 459.275 271.774 463.537C246.88 465.896 224.233 468.282 202.333 470.591C67.3276 484.801 -7.03963 492.63 -85.6151 434.843C-146.886 398.677 -169.374 327.594 -177.456 274.324C-208.812 193.688 -224.692 102.078 -224.692 1.88458ZM774.286 -173.847C774.286 -212.536 767.622 -251.908 753.913 -294.202C718.313 -402.64 657.784 -497.182 583.472 -560.421C521.625 -617.066 462.305 -648.235 402.144 -655.693C343.207 -663.962 272.296 -651.2 185.371 -616.678C57.6872 -582.968 -46.2591 -519.44 -92.6213 -446.755C-123.181 -407.227 -145.419 -365.079 -164.7 -310.15C-199.584 -244.858 -220.28 -154.465 -224.506 -48.848C-225.392 -31.8378 -225.844 -14.7631 -225.844 1.88458C-225.844 102.265 -209.932 194.05 -178.551 274.708C-170.462 328.113 -147.834 399.601 -86.1911 435.985C-7.32762 493.984 67.1787 486.142 202.437 471.905C224.337 469.598 246.979 467.214 271.893 464.843C303.575 460.587 332.509 458.438 358.041 456.544C454.976 449.332 519.016 444.567 583.906 337.428C617.577 296.31 654.659 229.819 688.265 150.271C719.147 77.1665 741.966 4.50691 749.307 -44.0876C766.103 -89.0914 774.286 -131.582 774.286 -173.847Z" fill="#EDE9F6"/>
<path d="M-218.897 -28.3534C-218.897 -35.4733 -218.806 -42.7026 -218.627 -49.8375C-217.203 -155.449 -195.729 -245.183 -156.519 -309.337C-136.245 -358.324 -111.491 -399.463 -78.5699 -438.908C-31.7561 -507.169 67.2501 -568.845 186.307 -603.934C272.417 -641.802 339.157 -656.658 396.396 -650.704C455.406 -645.597 513.557 -616.595 574.187 -562.047C649.898 -498.742 712.983 -399.503 747.291 -289.762C759.48 -250.27 765.401 -213.484 765.401 -177.306C765.401 -131.183 755.873 -86.5768 735.413 -36.9203C718.459 56.866 643.308 237.522 575.348 321.419C512.148 425.013 449.553 432.594 354.799 444.072C332.866 446.733 308.01 449.745 281.286 454.198C260.273 456.759 240.883 459.28 222.133 461.727C91.6643 478.727 19.7987 488.098 -56.8599 434.081C-118.666 399.813 -145.124 330.179 -156.447 277.795C-197.319 187.317 -218.897 81.4921 -218.897 -28.3534ZM766.555 -177.306C766.555 -213.638 760.611 -250.568 748.375 -290.203C713.993 -400.19 650.751 -499.655 574.874 -563.1C514.083 -617.799 455.728 -646.89 396.493 -652.017C339.08 -657.99 272.174 -643.11 185.957 -605.187C66.7291 -570.051 -32.5102 -508.204 -79.4382 -439.769C-112.411 -400.272 -137.23 -359.021 -157.508 -310C-196.8 -245.721 -218.352 -155.735 -219.778 -49.8698C-219.957 -42.7299 -220.046 -35.4883 -220.046 -28.3534C-220.046 81.708 -198.425 187.729 -157.513 278.252C-146.183 330.772 -119.569 400.779 -57.4131 435.24C19.5332 489.455 91.5402 480.074 222.262 463.037C241.01 460.593 260.397 458.064 281.425 455.508C308.152 451.056 333 448.043 354.918 445.385C403.898 439.451 442.582 434.768 477.924 418.449C516.082 400.828 546.409 371.162 576.243 322.248C608.308 282.664 643.795 219.904 676.11 145.585C705.566 77.8414 728.139 9.7731 736.497 -36.5008C756.989 -86.1946 766.555 -130.982 766.555 -177.306Z" fill="#EDE9F6"/>
<path d="M-215.026 -59.0139C-215.026 -161.34 -192.655 -247.66 -150.324 -308.641C-128.855 -352.932 -102.937 -390.784 -66.2342 -431.456C-18.7156 -495.596 75.7777 -555.629 186.58 -592.099C270.933 -632.955 335.811 -650.288 390.815 -646.681C448.166 -643.949 507.081 -616.245 565.956 -564.333C644.439 -499.891 708.746 -398.192 742.399 -285.299C753.326 -248.196 758.634 -213.605 758.634 -179.551C758.634 -130.167 747.393 -82.2643 723.252 -28.8062C703.632 62.8288 633.109 225.808 568.03 306.978C505.909 407.868 447.426 417.946 350.533 434.646C331.634 437.906 312.099 441.273 290.617 445.643C273.779 448.213 257.967 450.736 242.674 453.163C116.022 473.339 46.2593 484.45 -28.8779 434.083C-91.2824 401.714 -121.784 333.494 -136.397 281.958C-187.611 182.17 -214.763 67.3096 -214.974 -50.3299C-215.006 -53.2477 -215.026 -56.1332 -215.026 -59.0139ZM759.791 -179.551C759.791 -213.751 754.459 -248.482 743.492 -285.721C709.762 -398.872 645.301 -500.806 566.642 -565.389C507.595 -617.456 448.454 -645.254 390.872 -647.996C335.695 -651.616 270.655 -634.25 186.195 -593.339C75.2512 -556.83 -19.4532 -496.638 -67.0736 -432.357C-103.824 -391.637 -129.806 -353.691 -151.28 -309.373C-193.72 -248.246 -216.181 -161.643 -216.181 -59.0139C-216.181 -56.1283 -216.161 -53.2377 -216.124 -50.32C-215.915 67.5479 -188.706 182.637 -137.44 282.497C-122.808 334.159 -92.1417 402.714 -29.4094 435.249C46.0209 485.817 115.928 474.679 242.833 454.475C258.126 452.036 273.933 449.52 290.791 446.945C312.286 442.571 331.815 439.211 350.702 435.951C399.115 427.607 437.35 421.015 472.186 403.694C509.756 385.021 539.59 355.449 568.929 307.799C599.448 269.741 633.402 210.678 664.485 141.557C692.544 79.1645 714.915 15.6454 724.322 -28.3472C748.504 -81.8525 759.791 -129.949 759.791 -179.551Z" fill="#EDE9F6"/>
<path d="M-211.165 -73.7005C-211.165 -170.469 -187.798 -251.524 -143.593 -308.103C-121.766 -346.832 -93.972 -382.646 -53.418 -424.307C-5.16112 -484.483 84.7403 -542.949 187.109 -580.745C270.758 -625.309 331.86 -644.565 385.311 -643.212C441.755 -642.805 499.732 -617.188 557.654 -567.076C638.859 -501.428 704.335 -397.15 737.303 -280.958C747.11 -245.991 751.874 -213.358 751.874 -181.205C751.874 -128.655 738.848 -77.5921 710.886 -20.5096C689.327 65.3041 622.355 215.109 560.638 293.1C499.268 391.947 441.109 405.259 344.757 427.324C330.556 430.583 315.858 433.94 300.122 437.817C287.908 440.136 276.158 442.416 264.856 444.607C141.463 468.54 73.4952 481.72 -0.434034 434.804C-63.3218 404.32 -97.8769 337.428 -115.802 286.683C-174.608 183.823 -207.412 67.214 -210.726 -50.6688C-211.019 -58.3924 -211.165 -66.1408 -211.165 -73.7005ZM753.027 -181.205C753.027 -213.497 748.243 -246.259 738.398 -281.366C705.351 -397.823 639.724 -502.347 558.332 -568.142C500.234 -618.414 442.016 -644.121 385.331 -644.531C331.703 -645.887 270.44 -626.592 186.687 -581.972C84.2063 -544.136 -5.88147 -485.536 -54.2253 -425.243C-94.8216 -383.548 -122.675 -347.652 -144.504 -308.9C-188.849 -252.158 -212.315 -170.799 -212.315 -73.7005C-212.315 -66.121 -212.169 -58.3552 -211.876 -50.6117C-208.56 67.4946 -175.686 184.347 -116.815 287.286C-98.863 338.158 -64.1341 405.353 -0.935793 435.989C73.289 483.103 141.401 469.891 265.047 445.91C276.352 443.72 288.097 441.44 300.338 439.113C316.094 435.232 330.782 431.869 344.985 428.621C393.21 417.572 431.295 408.857 465.833 390.316C503.033 370.336 532.551 340.611 561.534 293.922C623.309 215.864 690.397 65.8083 711.944 -20.0055C739.956 -77.1525 753.027 -128.421 753.027 -181.205Z" fill="#EDE9F6"/>
<path d="M-207.298 -85.2514C-207.298 -177.833 -182.864 -254.69 -136.631 -307.517C-110.973 -346.787 -79.6202 -379.664 -40.4176 -416.965C9.42885 -474.095 92.5649 -529.502 187.711 -569.023C242.76 -601.167 314.276 -638.17 379.785 -639.3C435.281 -641.239 492.295 -617.745 549.244 -569.472C631.908 -503.682 700.228 -394.201 732.008 -276.599C740.826 -243.613 745.11 -212.808 745.11 -182.426C745.11 -126.143 730.692 -73.7306 698.338 -12.4889C674.453 68.8721 610.442 205.166 553.143 278.561C491.947 376.141 433.359 393.166 336.289 421.378C327.709 423.878 318.838 426.453 309.65 429.174C302.632 430.82 295.755 432.449 289.033 434.028C172.018 461.641 101.388 478.301 28.1709 434.718C-35.1106 406.162 -73.7271 340.677 -94.9898 290.762C-160.447 186.67 -199.928 65.2371 -206.218 -51.255C-206.936 -62.7212 -207.298 -74.1602 -207.298 -85.2514ZM746.263 -182.426C746.263 -212.942 741.964 -243.874 733.113 -276.987C718.208 -332.125 694.693 -387.199 665.093 -436.267C632.295 -490.644 593.55 -535.821 549.919 -570.542C492.767 -618.987 435.512 -642.567 379.763 -640.621C314.02 -639.486 242.348 -602.408 187.251 -570.232C92.0186 -530.679 8.73103 -475.158 -41.1924 -417.941C-80.4198 -380.617 -111.83 -347.681 -137.498 -308.378C-183.897 -255.37 -208.45 -178.19 -208.45 -85.2514C-208.45 -74.1304 -208.085 -62.6592 -207.368 -51.1656C-204.234 6.92023 -193.15 65.7535 -174.423 123.693C-155.453 182.402 -129.057 238.837 -95.9757 291.438C-74.6758 341.464 -35.8754 407.235 27.6941 435.915C101.22 479.689 172.001 462.992 289.266 435.327C295.986 433.733 302.86 432.114 309.905 430.463C319.124 427.726 327.994 425.154 336.569 422.659C433.893 394.376 492.64 377.303 554.042 279.386C611.393 205.915 675.506 69.4184 699.381 -11.9377C731.784 -73.2688 746.263 -125.887 746.263 -182.426Z" fill="#EDE9F6"/>
<path d="M-203.433 -95.0989C-203.433 -184.477 -177.876 -257.921 -129.527 -307.486C-100.983 -345.259 -65.2004 -376.802 -27.3152 -410.196C23.6789 -463.648 102.271 -517.465 188.346 -557.882C245.416 -594.341 312.08 -632.101 374.225 -635.971C428.736 -640.274 484.763 -618.901 540.744 -572.442C626.037 -505.542 695.493 -393.527 726.556 -272.795C734.488 -241.628 738.344 -212.498 738.344 -183.732C738.344 -124.545 722.093 -69.4215 685.65 -5.00845C659.509 71.4253 599.992 192.694 545.548 263.512C483.465 361.423 422.983 382.994 322.774 418.736L319.141 420.034L316.16 420.896C200.167 454.408 130.152 474.641 56.8362 434.115C-6.74088 407.51 -49.4383 343.417 -74.073 294.331C-146.999 187.675 -192.25 64.5708 -201.545 -52.381C-202.798 -66.867 -203.433 -81.2361 -203.433 -95.0989ZM739.498 -183.732C739.498 -212.624 735.624 -241.876 727.658 -273.167C696.526 -394.183 626.898 -506.465 541.409 -573.522C485.208 -620.152 428.937 -641.609 374.156 -637.29C311.777 -633.404 244.971 -595.565 187.842 -559.068C101.713 -518.63 22.9989 -464.72 -28.0573 -411.203C-65.9499 -377.805 -101.778 -346.224 -130.346 -308.412C-178.898 -258.646 -204.585 -184.864 -204.585 -95.0989C-204.585 -81.1939 -203.947 -66.7801 -202.689 -52.2545C-193.38 64.9432 -148.036 188.293 -75.0235 295.066C-50.3417 344.261 -7.46308 408.609 56.387 435.332C130.028 476.036 200.197 455.761 316.441 422.172L319.451 421.3L323.119 419.992C423.556 384.171 484.173 362.55 546.444 264.339C600.938 193.449 660.546 72.0136 686.67 -4.41269C723.185 -68.9275 739.498 -124.272 739.498 -183.732Z" fill="#EDE9F6"/>
<path d="M-200.537 -102.338C-200.537 -189.152 -173.8 -259.688 -123.216 -306.329C-97.8392 -335.332 -66.8524 -360.319 -34.0511 -386.774C-27.7862 -391.825 -21.4121 -396.969 -14.9363 -402.246C37.9653 -452.581 112.077 -504.787 188.422 -545.496C244.138 -584.317 309.021 -624.844 368.249 -631.357C421.804 -638.031 476.882 -618.788 531.953 -574.152C619.939 -506.176 690.59 -391.681 720.944 -267.878C728.1 -238.398 731.583 -210.816 731.583 -183.562C731.583 -121.576 713.446 -63.8941 672.776 3.45618C644.599 74.1757 589.176 181.28 537.664 249.339C477.644 342.701 418.48 372.95 328.17 411.686C223.497 449.038 155.722 470.122 84.8352 434.306C20.9801 409.657 -25.8551 346.983 -53.9106 298.744C-134.369 189.7 -185.423 64.9884 -197.715 -52.4962C-199.589 -69.4814 -200.537 -86.2507 -200.537 -102.338ZM732.734 -183.562C732.734 -210.938 729.242 -238.631 722.059 -268.232C691.623 -392.334 620.803 -507.097 532.608 -575.234C477.309 -620.054 421.967 -639.381 368.133 -632.67C308.678 -626.132 243.652 -585.52 187.878 -546.659C111.503 -505.936 37.3025 -453.668 -15.6412 -403.288C-22.0773 -398.043 -28.4514 -392.902 -34.7138 -387.853C-67.5598 -361.363 -98.5789 -336.344 -123.986 -307.311C-148.393 -284.808 -167.495 -256.291 -180.715 -222.594C-194.63 -187.122 -201.686 -146.662 -201.686 -102.338C-201.686 -86.1961 -200.733 -69.3747 -198.857 -52.3349C-186.543 65.3978 -135.391 190.358 -54.8315 299.536C-26.7164 347.881 20.305 410.783 84.4158 435.534C155.633 471.521 223.581 450.388 328.543 412.932C419.083 374.106 478.381 343.778 538.565 250.158C590.119 182.049 645.617 74.8083 673.774 4.10368C714.533 -63.3806 732.734 -121.29 732.734 -183.562Z" fill="#EDE9F6"/>
<path d="M-196.669 -109.271C-196.669 -194.131 -168.729 -262.269 -115.868 -306.31C-92.6879 -329.191 -65.3604 -348.987 -36.4271 -369.947C-25.1198 -378.138 -13.4254 -386.611 -1.54238 -395.575C39.5469 -430.865 106.011 -483.608 189.472 -534.601C246.537 -577.976 307.044 -619.33 363.203 -628.353C415.771 -637.434 469.89 -620.286 524.049 -577.388C614.72 -508.243 686.545 -391.11 716.178 -264.04C722.551 -236.467 725.785 -209.531 725.785 -183.987C725.785 -119.186 705.729 -58.9777 660.761 11.237C633.165 70.7421 582.575 164.934 530.67 234.83C473.888 321.913 419.201 361.201 338.129 403.247C240.025 446.922 178.388 463.738 113.818 434.427C49.787 411.699 -1.2148 350.364 -32.7292 302.905C-120.698 191.423 -177.544 64.9142 -192.828 -53.3709C-195.379 -72.5206 -196.669 -91.3276 -196.669 -109.271ZM726.936 -183.987C726.936 -209.645 723.69 -236.693 717.29 -264.378C703.543 -323.324 679.638 -382.603 648.161 -435.811C613.943 -493.645 571.246 -542.979 524.699 -578.478C470.295 -621.569 415.903 -638.792 363.035 -629.659C306.66 -620.598 246.018 -579.163 188.887 -535.733C105.405 -484.733 38.8892 -431.947 -2.20503 -396.652C-14.0508 -387.718 -25.7403 -379.251 -37.0426 -371.059C-66.0106 -350.077 -93.3728 -330.257 -116.583 -307.345C-142.089 -286.095 -162.053 -258.803 -175.877 -226.254C-190.438 -191.973 -197.821 -152.616 -197.821 -109.271C-197.821 -91.2606 -196.523 -72.389 -193.967 -53.1773C-178.651 65.3636 -121.703 192.116 -33.6152 303.746C-2.02635 351.313 49.1566 412.856 113.436 435.664C145.467 450.215 178.443 453.751 217.167 446.781C256.067 439.773 298.504 422.302 338.574 404.464C419.849 362.31 474.66 322.928 531.569 235.647C583.509 165.711 634.155 71.4199 661.729 11.9347C706.814 -58.4364 726.936 -118.888 726.936 -183.987Z" fill="#EDE9F6"/>
<path d="M-193.771 -114.856C-193.771 -198.006 -164.609 -263.933 -109.432 -305.512C-87.8793 -323.812 -63.0761 -339.693 -36.8191 -356.507C-21.3397 -366.421 -5.32696 -376.671 10.9091 -387.984C21.6769 -396.245 32.8913 -404.925 44.5324 -413.935C87.8443 -447.459 136.935 -485.452 189.555 -522.579C253.788 -575.714 306.855 -613.295 357.151 -624.082C408.71 -635.563 461.857 -620.543 515.108 -579.431C607.056 -510.276 681.86 -387.679 710.34 -259.481C716.096 -233.339 719.019 -207.776 719.019 -183.505C719.019 -115.127 697.681 -54.4683 647.681 19.3243C633.122 46.1857 581.186 139.882 522.633 220.287C471.171 297.807 420.314 348.279 347.075 394.53C281.531 431.409 211.285 461.752 141.827 434.216C91.0697 417.774 37.7194 373.766 -12.4873 306.934C-107.944 193.267 -170.568 65.1413 -188.841 -53.8505C-192.111 -74.8508 -193.771 -95.3746 -193.771 -114.856ZM720.172 -183.505C720.172 -207.882 717.237 -233.555 711.451 -259.804C698.086 -319.978 674.054 -380.614 641.952 -435.166C607.115 -494.368 563.473 -544.631 515.745 -580.528C462.236 -621.838 408.802 -636.928 356.935 -625.374C306.431 -614.548 253.244 -576.887 188.915 -523.676C136.309 -486.561 87.2091 -448.558 43.8874 -415.027C32.2487 -406.019 21.0343 -397.342 10.2913 -389.096C-5.90751 -377.813 -21.9079 -367.567 -37.3798 -357.659C-63.6716 -340.82 -88.5045 -324.919 -110.092 -306.591C-136.719 -286.529 -157.55 -260.377 -171.992 -228.875C-187.208 -195.689 -194.922 -157.328 -194.922 -114.856C-194.922 -95.2977 -193.257 -74.6944 -189.975 -53.6197C-171.662 65.6252 -108.931 193.992 -13.3383 307.817C36.995 374.818 90.5387 418.977 141.482 435.474C171.989 447.568 204.022 449.573 239.373 441.571C269.85 434.677 304.242 420.104 347.606 395.699C421.023 349.336 471.984 298.762 523.541 221.106C582.116 140.663 634.087 46.8978 648.621 20.0761C698.761 -53.9076 720.172 -114.812 720.172 -183.505Z" fill="#EDE9F6"/>
<path d="M-190.869 -119.893C-190.869 -200.527 -159.616 -266.277 -102.868 -305.032C-82.5684 -319.782 -59.6248 -332.608 -35.3308 -346.189C-16.1682 -356.903 3.65225 -367.982 23.6068 -380.798C71.5444 -413.317 123.36 -456.083 178.219 -501.354L190.038 -511.107C242.784 -558.559 298.701 -606.077 351.648 -620.462C402.229 -634.375 454.452 -621.462 506.86 -582.077C601.529 -511.809 677.591 -386.555 705.366 -255.191C710.581 -230.353 713.223 -206.043 713.223 -182.935C713.223 -93.5405 673.89 -26.4228 635.413 27.4368C613.341 62.1302 568.419 131.418 515.301 205.985C473.041 268.314 424.572 333.28 356.563 386.241C285.68 437.864 226.459 453.19 170.202 434.461C118.663 419.333 64.0894 377.893 7.97931 311.286C-95.048 195.393 -163.506 65.5311 -184.794 -54.3789C-188.825 -77.0353 -190.869 -99.0761 -190.869 -119.893ZM714.375 -182.935C714.375 -206.145 711.721 -230.561 706.488 -255.502C678.641 -387.18 602.393 -512.74 507.488 -583.182C454.809 -622.773 402.281 -635.748 351.382 -621.748C298.206 -607.298 242.176 -559.689 189.345 -512.164L177.543 -502.426C122.709 -457.168 70.9138 -414.424 23.0309 -381.943C3.11604 -369.149 -16.6871 -358.08 -35.8373 -347.376C-60.1586 -333.775 -83.1319 -320.934 -103.471 -306.154C-131.253 -287.181 -152.99 -262.045 -168.074 -231.448C-183.965 -199.204 -192.023 -161.674 -192.023 -119.893C-192.023 -98.9918 -189.97 -76.8591 -185.923 -54.1183C-164.586 66.045 -96.0137 196.15 7.16006 312.217C63.4116 378.988 118.169 420.552 169.897 435.739C226.476 454.568 285.997 439.194 357.196 387.341C425.352 334.268 473.897 269.213 516.202 206.807C569.326 132.224 614.262 62.9171 636.322 28.2461C674.913 -25.7674 714.375 -93.121 714.375 -182.935Z" fill="#EDE9F6"/>
<path d="M-187.972 -124.299C-187.972 -203.793 -155.406 -267.745 -96.272 -304.375C-77.0185 -316.258 -55.5521 -326.6 -32.829 -337.55C-10.2649 -348.418 13.0667 -359.658 36.3214 -373.408C81.4398 -400.089 127.554 -437.767 190.51 -499.392C243.949 -551.637 296.061 -599.907 346.105 -616.556C395.691 -632.906 446.979 -622.105 498.553 -584.449C595.937 -513.095 673.242 -385.224 700.304 -250.738C705.03 -227.133 707.422 -204.004 707.422 -181.99C707.422 -89.2353 664.775 -19.9367 623.059 35.6145C616.261 44.6504 609.27 53.8849 602.099 63.3478C573.535 101.073 541.155 143.827 507.899 191.67C500.023 203.003 491.986 214.789 484.212 226.191C447.901 279.438 410.357 334.495 366.016 377.895C313.725 429.04 254.264 449.19 198.59 434.63C147.063 421.037 89.8296 380.996 28.4755 315.614C-82.1026 197.576 -156.394 66.0238 -180.712 -54.8218C-185.53 -78.9557 -187.972 -102.332 -187.972 -124.299ZM708.577 -181.99C708.577 -204.101 706.173 -227.331 701.431 -251.033C674.3 -385.845 596.802 -514.028 499.171 -585.561C447.309 -623.43 395.704 -634.283 345.787 -617.822C295.525 -601.099 243.298 -552.734 189.763 -500.395C126.874 -438.839 80.8288 -401.211 35.7923 -374.582C12.5775 -360.854 -10.7318 -349.624 -33.2761 -338.764C-56.0265 -327.804 -77.5152 -317.45 -96.8208 -305.532C-125.773 -287.596 -148.424 -263.413 -164.153 -233.641C-180.719 -202.269 -189.124 -165.482 -189.124 -124.299C-189.124 -102.233 -186.67 -78.7572 -181.837 -54.5264C-169.727 5.64688 -145.161 68.7024 -108.817 132.897C-72.764 196.576 -26.8359 258.37 27.6906 316.58C89.1938 382.118 146.606 422.268 198.331 435.919C254.368 450.572 314.192 430.323 366.769 378.895C411.192 335.414 448.777 280.3 485.123 227.002C492.892 215.603 500.927 203.822 508.803 192.5C542.039 144.666 574.409 101.927 602.971 64.2091C610.137 54.7537 617.133 45.5093 623.933 36.4758C665.793 -19.2639 708.577 -88.8034 708.577 -181.99Z" fill="#EDE9F6"/>
<path d="M-173.477 -126.024C-173.477 -205.168 -142.401 -268.126 -85.9711 -303.298C-65.9894 -315.768 -43.9409 -326.309 -20.6007 -337.465C0.175963 -347.397 21.6606 -357.667 43.2942 -370.075C53.4167 -375.927 63.9342 -382.567 74.5561 -389.808C109.777 -413.819 146.733 -444.705 194.384 -489.951C246.709 -539.478 297.729 -585.221 346.727 -600.779C395.193 -616.052 445.162 -605.351 495.249 -568.974C553.01 -527.08 602.053 -465.955 637.078 -392.211C659.929 -345.13 676.997 -293.158 686.449 -241.9C690.751 -219.337 692.932 -197.161 692.932 -175.995C692.932 -119.124 677.769 -66.4459 645.213 -10.2248C636.243 5.16508 625.825 21.0641 613.365 38.3709C603.653 52.0401 593.605 65.9774 582.97 80.7366C559.138 113.823 532.122 151.312 504.452 191.997C499.948 198.664 495.432 205.388 490.891 212.152C460.002 258.145 428.062 305.71 391.629 346.194C382.979 355.813 374.28 364.809 365.769 372.924C314.665 421.842 256.521 441.063 202.053 427.054C151.231 413.914 95.1787 375.374 35.452 312.524C-4.93125 270.679 -41.4469 223.174 -73.0838 171.328C-95.3136 135.329 -114.724 97.6833 -130.774 59.442C-146.853 21.0343 -158.135 -15.8538 -166.276 -56.6577C-171.053 -80.6587 -173.477 -103.999 -173.477 -126.024ZM694.082 -175.995C694.082 -197.255 691.896 -219.525 687.574 -242.178C678.105 -293.557 660.987 -345.659 638.087 -392.844C602.969 -466.782 553.79 -528.076 495.867 -570.089C445.498 -606.674 395.215 -617.426 346.421 -602.051C297.2 -586.422 246.073 -540.59 193.649 -490.967C146.042 -445.765 109.132 -414.916 73.9674 -390.94C63.3679 -383.717 52.8752 -377.092 42.7775 -371.252C21.1787 -358.866 -0.286066 -348.606 -21.0428 -338.684C-44.4153 -327.513 -66.4862 -316.96 -86.5226 -304.455C-143.338 -269.042 -174.63 -205.673 -174.63 -126.024C-174.63 -103.9 -172.195 -80.4651 -167.401 -56.3696C-159.238 -15.4665 -147.928 21.5185 -131.812 60.0131C-115.735 98.3215 -96.2923 136.026 -74.0253 172.088C-42.3411 224.008 -5.7684 271.591 34.6745 313.502C94.5478 376.507 150.779 415.145 201.802 428.343C256.627 442.439 315.125 423.123 366.51 373.939C375.04 365.8 383.762 356.784 392.426 347.142C428.924 306.594 460.889 258.994 491.805 212.956C496.344 206.192 500.86 199.466 505.366 192.806C533.024 152.137 558.868 116.266 583.86 81.5733C594.497 66.8166 604.544 52.8793 614.257 39.2077C626.742 21.8636 637.18 5.93485 646.167 -9.49226C678.86 -65.9417 694.082 -118.848 694.082 -175.995Z" fill="#EDE9F6"/>
<path d="M-158.984 -128.292C-158.984 -206.945 -129.428 -268.812 -75.7619 -302.494C-55.021 -315.585 -32.3966 -326.297 -8.44205 -337.64C10.5072 -346.612 30.1016 -355.887 50.0286 -366.952C59.8605 -372.497 70.1267 -378.802 80.5493 -385.696C115.117 -408.554 151.296 -437.826 197.848 -480.609C248.988 -527.375 298.855 -570.548 346.761 -585.002C394.062 -599.177 442.656 -588.59 491.201 -553.521C548.47 -512.403 595.474 -452.424 627.136 -380.073C648.018 -334.481 662.987 -285.137 671.62 -233.399C675.501 -211.918 677.467 -190.749 677.467 -170.482C677.467 -114.868 663.213 -62.9804 632.613 -7.18011C624.2 7.97836 614.445 23.5835 602.789 40.5335C589.436 60.5009 575.222 81.2399 560.171 103.19C541.026 131.115 521.23 159.985 500.241 191.582L498.023 194.96C464.864 245.539 430.574 297.833 390.318 341.448C381.856 350.634 373.307 359.251 364.921 367.04C315.057 413.679 258.301 431.962 205.104 418.511C155.038 405.833 100.231 368.847 42.1992 308.587C2.54386 268.692 -32.0864 222.701 -63.6866 167.985C-84.4945 132.79 -102.429 96.2569 -118.524 56.3049C-133.059 20.0476 -143.025 -14.4405 -151.842 -59.0053C-156.581 -82.8757 -158.984 -106.185 -158.984 -128.292ZM678.621 -170.482C678.621 -190.839 676.645 -212.094 672.754 -233.657C664.096 -285.512 649.09 -334.98 628.156 -380.673C596.409 -453.23 549.264 -513.393 491.814 -554.64C442.991 -589.905 394.092 -600.552 346.469 -586.277C298.351 -571.759 248.372 -528.494 197.128 -481.637C150.624 -438.898 114.49 -409.66 79.9736 -386.837C69.5733 -379.959 59.327 -373.669 49.5198 -368.135C29.6276 -357.091 10.0506 -347.821 -8.88125 -338.858C-32.8631 -327.506 -55.5198 -316.776 -76.3153 -303.65C-102.704 -287.087 -123.413 -263.606 -137.865 -233.855C-152.643 -203.436 -160.135 -167.919 -160.135 -128.292C-160.135 -106.089 -157.72 -82.6797 -152.963 -58.7125C-144.126 -14.0509 -134.141 20.5142 -119.566 56.8558C-103.446 96.8748 -85.4821 133.467 -64.6445 168.719C-32.9921 223.53 1.70756 269.606 41.4324 309.57C99.6077 369.983 154.592 407.074 204.853 419.798C258.403 433.339 315.509 414.967 365.649 368.063C374.061 360.251 382.62 351.616 391.109 342.403C431.432 298.717 465.752 246.373 498.946 195.746L501.157 192.381C522.138 160.799 541.936 131.926 561.077 104.004C576.13 82.0488 590.347 61.3122 603.702 41.3399C615.371 24.3676 625.148 8.72774 633.585 -6.4729C664.31 -62.4941 678.621 -114.61 678.621 -170.482Z" fill="#EDE9F6"/>
<path d="M-144.486 -130.76C-144.486 -207.872 -115.677 -270.324 -65.4451 -302.106C-43.8606 -315.902 -20.6134 -326.781 3.99894 -338.301C21.1285 -346.318 38.8339 -354.603 57.0108 -364.362C66.5733 -369.624 76.6049 -375.609 86.8251 -382.152C120.779 -403.896 156.217 -431.609 201.729 -472.012C251.738 -516.104 300.503 -556.791 347.382 -570.172C393.572 -583.279 440.848 -572.775 487.896 -538.96C544.738 -498.54 589.756 -439.596 618.091 -368.493C636.734 -325.044 650.074 -276.83 657.76 -225.175C661.225 -204.766 662.975 -184.598 662.975 -165.22C662.975 -110.743 649.612 -59.5106 620.927 -3.98005C613.05 10.9832 603.949 26.3317 593.099 42.9372C574.75 72.2601 554.327 103.496 532.711 136.565C521.14 154.257 509.18 172.549 496.786 191.696C464.989 241.816 430.531 294.355 389.648 337.506C381.336 346.31 372.938 354.556 364.676 362.024C316.002 406.474 260.563 423.845 208.576 410.929C159.208 398.691 105.583 363.182 49.1856 305.395C9.89329 266.99 -22.9463 222.425 -54.1677 165.128C-73.2406 131.311 -90.261 94.7834 -106.212 53.4311C-121.08 14.6428 -128.901 -18.0067 -137.388 -61.2993C-142.099 -85.1193 -144.486 -108.487 -144.486 -130.76ZM664.126 -165.22C664.126 -184.68 662.364 -204.933 658.889 -225.416C651.188 -277.176 637.811 -325.511 619.131 -369.06C590.711 -440.383 545.539 -499.526 488.504 -540.081C441.186 -574.092 393.609 -584.648 347.105 -571.449C300.012 -558.013 251.132 -517.242 201.026 -473.06C155.557 -432.694 120.164 -405.014 86.2667 -383.305C76.0639 -376.774 66.0547 -370.804 56.517 -365.552C38.3698 -355.816 20.6769 -347.53 3.56711 -339.523C-21.0824 -327.988 -44.362 -317.092 -66.0035 -303.261C-116.613 -271.24 -145.641 -208.366 -145.641 -130.76C-145.641 -108.39 -143.241 -84.9231 -138.513 -61.0086C-130.01 -17.6416 -122.17 15.0775 -107.266 53.9653C-91.2884 95.3796 -74.2407 131.972 -55.1381 165.831C-23.8596 223.24 9.05197 267.901 48.4287 306.387C104.962 364.325 158.766 399.93 208.333 412.218C260.667 425.214 316.446 407.761 365.396 363.057C373.673 355.575 382.096 347.302 390.427 338.477C431.387 295.242 465.887 242.645 497.714 192.476C510.104 173.339 522.064 155.044 533.629 137.353C555.256 104.281 575.679 73.0402 594.022 43.7173C604.895 27.082 614.016 11.6963 621.915 -3.3018C650.714 -59.0484 664.126 -110.497 664.126 -165.22Z" fill="#EDE9F6"/>
<path d="M-130.959 -133.265C-130.959 -209.742 -103.64 -270.981 -55.999 -301.283C-33.481 -315.806 -9.56385 -326.804 15.7574 -338.449C31.061 -345.487 46.889 -352.766 63.2712 -361.214C72.5632 -366.172 82.3671 -371.822 92.4146 -378.018C125.788 -398.596 160.528 -424.695 205.062 -462.648C252.041 -502.334 301.742 -542.109 347.628 -554.368C392.766 -566.381 438.779 -555.991 484.389 -523.49C540.866 -483.851 583.954 -426.053 608.995 -356.346C625.419 -315.232 637.154 -268.245 643.886 -216.666C646.933 -197.404 648.479 -178.313 648.479 -159.912C648.479 -106.649 635.993 -56.1273 609.188 -0.920604C601.85 13.8083 593.385 28.8624 583.315 45.1131C557.035 90.1091 526 139.251 493.141 191.28C464.88 237.279 430.366 290.053 388.655 332.747C380.494 341.143 372.231 349.008 364.082 356.135C316.544 398.316 262.357 414.743 211.506 402.383C162.774 390.615 110.268 356.654 55.4429 301.448C16.242 264.358 -14.887 221.287 -45.5042 161.783C-63.0767 129.157 -78.7457 93.7311 -94.8197 50.3041C-109.455 10.4271 -115.601 -21.121 -123.387 -61.07L-123.884 -63.6345C-128.581 -87.3924 -130.959 -110.818 -130.959 -133.265ZM649.632 -159.912C649.632 -178.392 648.084 -197.56 645.022 -216.882C638.277 -268.563 626.51 -315.669 610.051 -356.87C584.931 -426.818 541.682 -484.827 484.993 -524.612C439.119 -557.305 392.813 -567.751 347.369 -555.654C301.27 -543.335 251.45 -503.476 204.376 -463.708C159.887 -425.792 125.191 -399.726 91.8704 -379.178C81.8378 -372.996 72.0562 -367.353 62.7916 -362.413C46.4392 -353.977 30.6237 -346.706 15.3275 -339.673C-10.0286 -328.012 -33.983 -316.997 -56.5607 -302.435C-104.576 -271.895 -132.112 -210.233 -132.112 -133.265C-132.112 -110.721 -129.726 -87.1963 -125.009 -63.3441L-124.512 -60.7821C-116.714 -20.7735 -110.556 10.8242 -95.8808 50.8179C-79.7845 94.312 -64.0907 129.785 -46.4908 162.46C-15.809 222.098 15.402 265.27 54.6949 302.451C109.657 357.796 162.339 391.852 211.27 403.674C262.457 416.114 316.976 399.6 364.788 357.183C372.954 350.036 381.245 342.139 389.428 333.728C431.224 290.949 465.782 238.103 494.078 192.045C526.94 140.016 557.982 90.8588 584.262 45.8479C594.344 29.5897 602.834 14.5009 610.195 -0.272709C637.104 -55.6929 649.632 -106.419 649.632 -159.912Z" fill="#EDE9F6"/>
<path d="M-116.466 -135.493C-116.466 -211.313 -90.6947 -271.34 -45.7579 -300.19C-22.3054 -315.51 2.23196 -326.595 28.2115 -338.331C41.6506 -344.399 55.5439 -350.672 70.0255 -357.858C79.1678 -362.588 88.4539 -367.768 98.4253 -373.688C131.122 -393.111 165.082 -417.627 208.529 -453.173C254.347 -490.251 302.836 -527.387 347.661 -538.556C391.63 -549.481 436.266 -539.194 480.319 -507.973C536.294 -469.078 577.344 -412.375 599.029 -343.99C613.419 -304.749 623.236 -260.211 629.05 -207.805C631.686 -189.722 633.017 -171.747 633.017 -154.355C633.017 -102.222 621.439 -52.3156 596.579 2.69332C589.795 17.2123 581.988 31.9894 572.724 47.8764C551.111 87.9344 525.266 132.261 488.913 191.613C453.366 251.71 421.094 295.328 387.343 328.88C379.352 336.879 371.24 344.37 363.227 351.162C316.948 391.108 264.155 406.605 214.564 394.808C167.261 383.646 114.577 350.298 62.2138 298.368C12.7097 252.869 -16.3181 200.078 -36.0746 159.173C-56.5062 119.175 -71.6382 78.6351 -82.5354 47.7871C-94.6192 13.2268 -99.8071 -14.413 -105.809 -46.4131C-106.959 -52.539 -108.145 -58.8611 -109.421 -65.4637C-114.095 -89.2348 -116.466 -112.795 -116.466 -135.493ZM634.171 -154.355C634.171 -171.819 632.833 -189.866 630.192 -207.996C624.363 -260.499 614.519 -305.146 600.104 -344.469C578.337 -413.11 537.121 -470.048 480.925 -509.098C436.606 -540.5 391.682 -550.847 347.415 -539.842C302.379 -528.621 253.781 -491.403 207.864 -454.251C164.456 -418.739 130.543 -394.253 97.8965 -374.86C87.9451 -368.95 78.6763 -363.78 69.5588 -359.065C55.1045 -351.893 41.2187 -345.621 27.792 -339.557C1.77028 -327.805 -22.8068 -316.707 -46.3264 -301.337C-91.6305 -272.254 -117.617 -211.805 -117.617 -135.493C-117.617 -112.698 -115.239 -89.0387 -110.543 -65.1782C-109.27 -58.5781 -108.086 -52.2585 -106.934 -46.14C-100.919 -14.0778 -95.7262 13.6117 -83.6028 48.2762C-72.6882 79.1714 -57.5389 119.768 -37.0774 159.826C-17.2738 200.823 11.8284 253.746 61.474 299.381C113.972 351.447 166.832 384.893 214.33 396.096C264.247 407.981 317.375 392.397 363.915 352.22C371.945 345.408 380.085 337.897 388.1 329.879C421.923 296.242 454.263 252.554 489.859 192.358C526.226 132.993 552.079 88.657 573.693 48.5892C582.969 32.6896 590.793 17.8727 597.597 3.31415C622.549 -51.9058 634.171 -102.003 634.171 -154.355Z" fill="#EDE9F6"/>
<path d="M-101.971 -138.317C-101.971 -212.18 -77.0846 -272.367 -35.4051 -299.327C-10.946 -315.489 14.2479 -326.587 40.9189 -338.338C52.5042 -343.441 64.4818 -348.721 77.0329 -354.668C85.8826 -359.092 94.936 -363.948 104.724 -369.513C136.35 -387.514 170.572 -411.109 212.423 -443.773C257.126 -478.206 304.448 -512.664 348.287 -522.727C391.146 -532.557 434.457 -522.38 477.015 -492.477C532.546 -454.367 571.609 -398.815 589.979 -331.825C602.307 -294.739 610.308 -252.635 615.166 -199.281C617.395 -182.459 618.522 -165.684 618.522 -149.395C618.522 -98.3985 607.828 -49.0987 584.88 5.76388C578.644 20.0527 571.495 34.5449 563.01 50.0569C541.696 93.0498 516.329 139.211 485.453 191.2C453.807 246.802 420.58 291.522 386.678 324.124C378.853 331.709 370.882 338.827 362.991 345.28C317.915 382.954 266.448 397.508 218.051 386.263C171.429 375.57 119.966 343.814 69.2257 294.427C20.5234 251.055 -6.50744 200.031 -26.5231 155.842C-44.3839 118.953 -58.067 80.6094 -70.191 44.6754C-80.5079 13.7308 -84.6907 -10.2269 -89.5364 -37.9634C-91.1772 -47.3743 -92.8801 -57.1027 -94.9256 -67.7666C-99.6 -91.5828 -101.971 -115.317 -101.971 -138.317ZM619.676 -149.395C619.676 -165.753 618.544 -182.593 616.308 -199.447C611.445 -252.888 603.419 -295.099 591.064 -332.254C572.627 -399.525 533.388 -455.33 477.613 -493.606C434.804 -523.685 391.218 -533.917 348.062 -524.02C304.016 -513.907 256.583 -479.372 211.778 -444.865C169.969 -412.235 135.789 -388.667 104.21 -370.694C94.4419 -365.136 85.4035 -360.291 76.5836 -355.882C64.0574 -349.944 52.0847 -344.67 40.5068 -339.568C13.7912 -327.8 -11.4425 -316.682 -35.976 -300.471C-57.491 -286.557 -74.3466 -264.74 -86.0709 -235.637C-97.2269 -207.95 -103.123 -174.296 -103.123 -138.317C-103.123 -115.22 -100.744 -91.3868 -96.0502 -67.4837C-94.0047 -56.8248 -92.3067 -47.1038 -90.6659 -37.7028C-85.8103 -9.90681 -81.62 14.1005 -71.2659 45.1467C-59.1245 81.1329 -45.4241 119.518 -27.5383 156.465C-7.4706 200.765 19.6422 251.936 68.5009 295.445C119.368 344.96 171.009 376.815 217.822 387.554C266.542 398.875 318.335 384.241 363.661 346.347C371.575 339.877 379.573 332.733 387.418 325.131C421.402 292.45 454.713 247.628 486.411 191.937C517.302 139.918 542.682 93.7295 564.001 50.7342C572.488 35.2098 579.657 20.6754 585.911 6.34449C608.947 -48.7165 619.676 -98.195 619.676 -149.395Z" fill="#EDE9F6"/>
<path d="M-87.4762 -140.947C-87.4762 -213.901 -64.1361 -272.688 -25.0422 -298.206C0.465169 -315.267 25.1061 -325.809 53.6396 -338.019C63.3858 -342.188 73.4671 -346.498 84.0473 -351.283C92.6391 -355.415 101.459 -359.954 111.029 -365.155C142.01 -382.003 175.467 -403.965 216.321 -434.265C259.903 -466.09 306.042 -497.911 348.914 -506.877C390.672 -515.618 432.658 -505.545 473.708 -476.929C528.796 -439.569 565.869 -385.11 580.915 -319.444C594.043 -275.068 598.692 -227.173 601.282 -190.4C603.106 -174.908 604.035 -159.415 604.035 -144.309C604.035 -94.3347 594.224 -45.4941 573.17 9.40153C567.49 23.4772 560.989 37.6968 553.298 52.8496C532.877 98.1215 509.557 143.48 481.994 191.547C453.399 243.978 420.213 288.478 386.015 320.258C378.349 327.442 370.521 334.185 362.751 340.312C318.901 375.747 268.75 389.373 221.544 378.675C163.491 365.741 110.491 324.037 76.2499 291.345C28.0851 249.753 2.98735 200.384 -16.9642 153.233C-33.1474 117.786 -45.0459 81.9638 -57.8306 42.1737C-66.8444 13.7444 -70.2081 -7.62482 -74.1056 -32.3714C-75.9228 -43.9183 -77.8045 -55.8623 -80.4186 -69.5806C-85.103 -93.5281 -87.4762 -117.54 -87.4762 -140.947ZM605.182 -144.309C605.182 -159.474 604.256 -175.027 602.428 -190.539C599.837 -227.354 595.175 -275.353 582.018 -319.829C566.902 -385.787 529.65 -440.522 474.301 -478.061C433.008 -506.845 390.749 -516.977 348.706 -508.173C305.632 -499.164 259.376 -467.273 215.697 -435.377C174.886 -405.104 141.469 -383.169 110.538 -366.346C100.98 -361.152 92.1749 -356.623 83.6154 -352.504C73.055 -347.729 62.9786 -343.419 53.2374 -339.252C24.6543 -327.023 -0.031331 -316.466 -25.6156 -299.345C-65.0719 -273.599 -88.6281 -214.382 -88.6281 -140.947C-88.6281 -117.441 -86.2449 -93.3346 -81.5431 -69.2953C-78.934 -55.6017 -77.0573 -43.6726 -75.2401 -32.1356C-71.3327 -7.32699 -67.959 14.0943 -58.9129 42.6228C-46.1133 82.4675 -34.1975 118.327 -17.992 153.826C2.0167 201.108 27.1964 250.634 75.5349 292.377C109.858 325.156 163.032 366.977 221.323 379.975C268.842 390.74 319.303 377.039 363.409 341.396C371.207 335.252 379.056 328.479 386.744 321.28C421.035 289.414 454.307 244.797 482.962 192.254C510.542 144.168 533.88 98.7717 554.308 53.4824C562.001 38.3222 568.52 24.0703 574.223 9.94499C595.346 -45.1343 605.182 -94.1485 605.182 -144.309Z" fill="#EDE9F6"/>
<path d="M-73.9479 -144.417C-73.9479 -216.373 -52.1451 -273.721 -15.6269 -297.816C10.9321 -315.831 36.1456 -326.247 65.3359 -338.306C73.2795 -341.589 81.4912 -344.983 90.1075 -348.683C98.4235 -352.524 107.013 -356.749 116.381 -361.599C146.696 -377.303 179.384 -397.649 219.258 -425.628C261.697 -454.88 306.64 -484.094 348.565 -491.966C389.219 -499.627 429.886 -489.64 469.425 -462.289C524.062 -425.638 559.141 -372.222 570.872 -307.81C580.516 -270.16 584.059 -230.34 586.409 -182.122C587.844 -168.073 588.572 -153.969 588.572 -140.168C588.572 -91.0878 579.645 -42.5293 560.483 12.6464C555.36 26.5416 549.506 40.499 542.598 55.3011C523.66 102.043 502.388 146.646 477.552 191.693C451.351 242.071 419.137 285.165 384.379 316.335C376.872 323.129 369.196 329.505 361.548 335.297C318.921 368.542 270.102 381.256 224.077 371.091C166.873 358.716 115.415 319.17 82.3178 288.172C37.146 250.308 13.407 205.705 -8.34855 150.386C-22.9722 116.242 -33.5943 81.3869 -44.8395 44.4846L-46.4158 39.3087C-54.419 12.6862 -57.0925 -6.78748 -60.1855 -29.3398C-61.9679 -42.3255 -63.8074 -55.751 -66.8557 -71.8776C-71.5623 -96.0675 -73.9479 -120.471 -73.9479 -144.417ZM589.721 -140.168C589.721 -154.019 588.994 -168.172 587.556 -182.236C585.206 -230.507 581.653 -270.411 571.992 -308.128C560.198 -372.865 524.933 -426.582 470.013 -463.423C430.238 -490.937 389.311 -500.983 348.382 -493.27C306.253 -485.359 261.198 -456.075 218.66 -426.756C178.825 -398.804 146.175 -378.484 115.907 -362.802C106.553 -357.956 97.9792 -353.745 89.693 -349.915C81.0965 -346.223 72.8848 -342.826 64.9461 -339.549C35.6988 -327.465 10.4406 -317.031 -16.2078 -298.956C-53.081 -274.627 -75.0997 -216.853 -75.0997 -144.417C-75.0997 -120.377 -72.7042 -95.8761 -67.9827 -71.5943C-64.9418 -55.5125 -63.1023 -42.1068 -61.3249 -29.1385C-58.222 -6.52402 -55.541 13.0117 -47.508 39.7386L-45.9243 44.9219C-34.6692 81.8639 -24.0347 116.756 -9.38864 150.942C12.4315 206.443 36.2598 251.208 81.6129 289.216C114.787 320.289 166.423 359.959 223.861 372.39C270.187 382.616 319.313 369.834 362.189 336.393C369.857 330.586 377.564 324.187 385.089 317.371C419.956 286.11 452.267 242.889 478.538 192.384C503.389 147.304 524.683 102.652 543.631 55.89C550.537 41.0829 556.402 27.0907 561.551 13.1508C580.767 -42.2062 589.721 -90.9164 589.721 -140.168Z" fill="#EDE9F6"/>
<path d="M-59.4533 -148.012C-59.4533 -218.611 -39.182 -274.266 -5.21934 -296.881C22.3544 -315.81 48.064 -325.963 77.8319 -337.723C84.0322 -340.173 90.4535 -342.71 97.1551 -345.424C105.202 -348.971 113.557 -352.868 122.713 -357.352C152.335 -371.867 184.255 -390.55 223.164 -416.157C264.447 -442.766 308.186 -469.316 349.188 -476.071C388.741 -482.63 428.074 -472.757 466.093 -446.728C520.275 -410.869 553.361 -358.613 561.783 -295.603C569.684 -258.755 571.252 -220.173 572.488 -173.559C573.543 -161.159 574.069 -148.677 574.069 -136.412C574.069 -88.2218 566.025 -39.873 548.745 15.7444C544.175 29.4277 538.977 43.0937 532.857 57.502C515.728 105.126 496.499 148.882 474.07 191.288C450.436 239.031 418.345 281.739 383.702 311.573C376.36 317.961 368.824 323.961 361.306 329.405C319.922 360.381 272.429 372.148 227.58 362.546C171.221 350.762 121.311 313.453 89.3663 284.229C44.4576 247.781 21.6669 203.04 1.2565 147.072C-10.9654 116.568 -19.8762 85.4894 -29.3082 52.5843C-30.8595 47.1774 -32.4207 41.7308 -34.0142 36.2297C-41.2024 11.0028 -43.3693 -7.85163 -45.6603 -27.8082C-47.2588 -41.7175 -48.9094 -56.0985 -52.2999 -74.1387C-57.0457 -98.6208 -59.4533 -123.473 -59.4533 -148.012ZM575.226 -136.412C575.226 -148.717 574.687 -161.244 573.635 -173.644C572.401 -220.292 570.83 -258.944 562.912 -295.858C554.443 -359.221 521.163 -411.805 466.679 -447.863C428.429 -474.05 388.842 -483.98 349.022 -477.379C307.826 -470.59 263.98 -443.98 222.593 -417.304C183.724 -391.722 151.838 -373.056 122.259 -358.563C113.118 -354.09 104.775 -350.195 96.753 -346.662C90.0737 -343.954 83.6549 -341.422 77.4546 -338.972C47.6272 -327.19 21.8679 -317.012 -5.80509 -298.021C-40.1177 -275.167 -60.605 -219.088 -60.605 -148.012C-60.605 -123.379 -58.1899 -98.4272 -53.4268 -73.8582C-50.0486 -55.8751 -48.398 -41.519 -46.802 -27.6394C-44.5036 -7.61825 -42.3293 11.2957 -35.1064 36.6393C-33.5153 42.1454 -31.9516 47.587 -30.4028 52.9938C-20.9584 85.9363 -12.0402 117.057 0.1991 147.601C20.6814 203.762 43.569 248.677 88.6763 285.276C120.695 314.575 170.777 352.008 227.369 363.844C272.511 373.509 320.299 361.675 361.926 330.517C369.469 325.061 377.03 319.036 384.394 312.621C419.159 282.687 451.359 239.837 475.066 191.95C497.516 149.503 516.768 105.692 533.904 58.0456C540.025 43.6349 545.24 29.9366 549.824 16.1986C567.157 -39.5777 575.226 -88.0679 575.226 -136.412Z" fill="#EDE9F6"/>
<path d="M-44.9591 -151.591C-44.9591 -221.7 -26.6726 -274.232 5.21276 -295.71C33.7183 -315.535 58.5635 -324.846 90.022 -336.634C94.6005 -338.347 99.3179 -340.118 104.214 -341.977C112.013 -345.24 120.136 -348.822 129.054 -352.929C157.957 -366.259 189.103 -383.303 227.075 -406.58C265.413 -429.533 309.686 -454.503 349.798 -460.141C388.247 -465.603 426.249 -455.831 462.748 -431.1C516.461 -395.998 547.547 -344.845 552.661 -283.165C558.354 -249.518 558.433 -213.328 558.51 -175.016L558.535 -164.628C559.228 -154.141 559.58 -143.559 559.58 -133.129C559.58 -85.5981 552.401 -37.1239 536.978 19.4219C532.97 32.9134 528.424 46.3082 523.081 60.3286C507.76 109.27 491.079 150.988 470.564 191.654C448.987 237.712 417.899 278.922 383.02 307.71C375.841 313.701 368.456 319.334 361.051 324.439C320.92 353.18 274.766 364.02 231.085 354.965C175.571 343.763 127.22 308.644 96.4393 281.151C46.7538 242.082 26.9337 192.215 10.888 144.491C0.616913 116.899 -6.85005 88.8386 -14.7563 59.1393C-16.9772 50.7871 -19.228 42.3307 -21.5755 33.7502C-28.0921 9.55779 -29.6852 -8.07513 -31.3751 -26.7433C-32.6854 -41.2603 -34.0453 -56.2713 -37.7105 -75.9152C-42.4528 -100.488 -44.9591 -126.656 -44.9591 -151.591ZM560.731 -133.129C560.731 -143.591 560.381 -154.208 559.684 -164.683L559.662 -175.019C559.58 -213.398 559.505 -249.647 553.798 -283.356C548.659 -345.416 517.371 -396.922 463.323 -432.242C426.611 -457.12 388.368 -466.949 349.659 -461.45C309.358 -455.784 264.973 -430.76 226.534 -407.744C188.594 -384.49 157.485 -367.463 128.625 -354.158C119.719 -350.049 111.609 -346.474 103.837 -343.226C98.9581 -341.369 94.2406 -339.601 89.6647 -337.888C58.1391 -326.072 33.2344 -316.742 4.62464 -296.845C-27.6156 -275.123 -46.1106 -222.182 -46.1106 -151.591C-46.1106 -126.562 -43.5943 -100.294 -38.8372 -75.6346C-35.1843 -56.0677 -33.8294 -41.0889 -32.5191 -26.6018C-30.8267 -7.86904 -29.2236 9.82342 -22.6749 34.1424C-20.3273 42.728 -18.0766 51.1769 -15.8581 59.5216C-7.94193 89.2631 -0.46504 117.356 9.81848 144.977C25.9262 192.883 45.8307 242.956 95.7593 282.217C126.617 309.776 175.136 345.012 230.884 356.261C274.842 365.376 321.285 354.471 361.657 325.566C369.079 320.439 376.496 314.793 383.693 308.778C418.71 279.88 449.92 238.512 471.574 192.299C492.109 151.576 508.822 109.793 524.153 60.8202C529.486 46.7973 534.047 33.3777 538.07 19.829C553.532 -36.8632 560.731 -85.4566 560.731 -133.129Z" fill="#EDE9F6"/>
<path d="M-31.4292 -155.972C-31.4292 -224.147 -14.5781 -274.709 14.8027 -294.688C44.1412 -315.312 67.9977 -323.682 101.019 -335.263C104.125 -336.354 107.309 -337.47 110.587 -338.628C118.163 -341.604 126.061 -344.861 134.749 -348.593C162.924 -360.7 193.344 -376.086 230.493 -397.017C276.707 -422.385 314.746 -440.117 350.113 -444.172C387.538 -448.522 424.265 -438.867 459.282 -415.469C512.611 -381.168 541.758 -331.181 543.575 -270.91C545.262 -256.905 546.05 -241.534 546.05 -222.465C546.05 -208.654 545.652 -194.635 545.227 -179.79C545.008 -171.985 544.785 -164.067 544.613 -156.022C544.989 -147.922 545.177 -139.733 545.177 -131.646C545.177 -83.9206 539.019 -36.3717 525.21 22.5406C521.81 35.6647 517.797 49.1311 513.287 62.5602C500.133 111.895 485.417 152.777 466.96 191.255C447.299 235.718 417.162 275.374 382.093 302.944C375.048 308.548 367.789 313.796 360.526 318.54C321.597 345.019 276.707 354.914 234.109 346.418C179.326 335.811 132.467 302.924 102.806 277.206C53.2166 239.533 35.1901 191.376 19.6784 141.193C11.0155 116.061 4.77054 90.5346 -1.84467 63.5027C-4.449 52.8684 -7.14029 41.8622 -10.0304 30.7122C-15.9796 7.33825 -17.0507 -9.28024 -18.1839 -26.8684C-19.1431 -41.7533 -20.1321 -57.1367 -24.0362 -78.115C-28.8721 -103.255 -31.4292 -130.172 -31.4292 -155.972ZM547.203 -222.465C547.203 -241.596 546.413 -257.024 544.723 -271.024C542.891 -331.709 513.55 -382.078 459.856 -416.609C424.63 -440.147 387.667 -449.864 350.001 -445.481C314.46 -441.404 276.322 -423.635 229.988 -398.203C192.869 -377.287 162.482 -361.916 134.346 -349.828C125.668 -346.101 117.778 -342.844 110.229 -339.881C106.973 -338.733 103.785 -337.612 100.679 -336.523C67.5777 -324.912 43.6616 -316.519 14.2063 -295.814C-15.5249 -275.597 -32.5823 -224.623 -32.5823 -155.972C-32.5823 -130.078 -30.0152 -103.061 -25.1619 -77.8372C-21.2778 -56.9507 -20.2887 -41.6119 -19.332 -26.7741C-18.1938 -9.11161 -17.1203 7.57135 -11.1338 31.0842C-8.24862 42.2317 -5.55731 53.228 -2.95546 63.8573C3.6672 90.924 9.92207 116.485 18.5999 141.657C34.1687 192.036 52.2823 240.41 102.137 278.285C131.876 304.06 178.903 337.061 233.912 347.715C276.777 356.263 321.95 346.314 361.107 319.681C368.393 314.922 375.677 309.654 382.749 304.025C417.973 276.336 448.24 236.504 467.979 191.862C486.466 153.325 501.214 112.368 514.378 62.9893C518.886 49.575 522.906 36.0789 526.321 22.9027C540.158 -36.141 546.328 -83.7991 546.328 -131.646C546.328 -139.758 546.139 -147.966 545.764 -156.041C545.935 -164.029 546.157 -171.948 546.38 -179.748C546.803 -194.603 547.203 -208.632 547.203 -222.465Z" fill="#EDE9F6"/>
<path d="M533.779 -259.173C534.235 -252.468 534.454 -245.518 534.454 -237.867C534.454 -220.145 533.26 -201.708 532 -182.189C531.28 -171.032 530.531 -159.492 529.988 -147.679C530.102 -142.803 530.159 -137.902 530.159 -133.051C530.159 -85.2166 524.805 -36.22 512.803 25.8034C509.96 38.7905 506.626 51.9862 502.887 65.0155C491.885 115.427 479.554 154.383 462.876 191.369C445.104 234.456 416.011 272.648 380.948 298.935C374.075 304.159 366.974 309.037 359.846 313.447C321.707 338.063 279.354 346.807 237.354 338.723C183.457 328.695 138.237 297.972 109.788 273.966C60.3872 237.542 44.126 190.981 29.3361 138.31C22.0516 115.184 16.8761 91.7196 11.3928 66.8875C8.60408 54.2529 5.71855 41.1938 2.47327 27.8293C-2.97026 5.03291 -3.54587 -10.7746 -4.15622 -27.5032C-4.70454 -42.6081 -5.27271 -58.2269 -9.36405 -80.41C-14.3163 -106.357 -16.9364 -134.283 -16.9364 -161.166C-16.9364 -227.211 -1.55108 -275.711 25.2721 -294.237C55.152 -315.583 77.7549 -322.96 111.969 -334.124L117.552 -335.947C124.903 -338.65 132.555 -341.592 140.966 -344.949C168.63 -355.987 197.364 -369.344 234.141 -388.258C278.838 -410.58 315.702 -426.069 350.306 -429.103C386.592 -432.358 421.938 -422.792 455.366 -400.676C506.707 -368.018 533.836 -320.675 533.836 -263.749C533.836 -262.23 533.821 -260.7 533.779 -259.173ZM535.607 -237.867C535.607 -245.553 535.384 -252.535 534.93 -259.206C534.965 -260.678 534.987 -262.217 534.987 -263.749C534.987 -321.182 507.655 -368.927 455.937 -401.823C422.31 -424.068 386.744 -433.694 350.219 -430.419C315.452 -427.37 278.488 -411.843 233.675 -389.464C196.925 -370.563 168.218 -357.221 140.589 -346.193C132.185 -342.841 124.543 -339.902 117.217 -337.208L111.652 -335.393C77.3455 -324.198 54.6806 -316.802 24.6717 -295.362C-2.50132 -276.597 -18.0876 -227.683 -18.0876 -161.166C-18.0876 -134.188 -15.4601 -106.168 -10.488 -80.1294C-6.41899 -58.0605 -5.85329 -42.4988 -5.30496 -27.4511C-4.69213 -10.6381 -4.11406 5.2365 1.36421 28.1793C4.60701 41.5289 7.48759 54.5805 10.2763 67.2126C15.767 92.0796 20.955 115.574 28.2495 138.735C42.5555 189.678 59.5088 238.458 109.138 275.051C137.656 299.114 183.045 329.952 237.168 340.029C279.426 348.157 322.042 339.359 360.399 314.603C367.55 310.182 374.681 305.281 381.581 300.042C416.815 273.621 446.054 235.236 463.908 191.952C480.619 154.897 492.982 115.847 503.986 65.3879C507.73 52.3685 511.072 39.1405 513.92 26.1112C525.948 -36.0338 531.31 -85.1148 531.31 -133.051C531.31 -137.912 531.251 -142.828 531.139 -147.662C531.68 -159.41 532.427 -170.94 533.149 -182.09C534.414 -201.636 535.602 -220.095 535.607 -237.867Z" fill="#EDE9F6"/>
<path d="M-3.40754 -166.303C-3.40754 -229.714 10.5667 -275.867 34.9286 -292.924C65.1681 -314.818 86.3703 -321.148 121.487 -331.632L123.892 -332.349C131.061 -334.785 138.485 -337.409 146.606 -340.375C173.309 -350.137 201.312 -361.901 237.399 -378.514C274.807 -395.182 314.382 -410.896 350.348 -412.999C385.586 -415.139 419.621 -405.678 451.523 -384.879C499.458 -354.831 524.793 -311.754 524.793 -260.294C524.793 -255.808 524.601 -251.203 524.217 -246.605C524.227 -245.598 524.229 -244.664 524.229 -243.718C524.229 -224.223 522.02 -203.559 519.677 -181.685C518.198 -167.857 516.666 -153.563 515.589 -138.638C515.515 -76.811 507.954 -18.9211 500.58 29.5575C498.301 42.412 495.635 55.326 492.644 67.9198C486.849 102.032 477.786 146.904 458.878 191.778C443.109 232.928 414.257 270.575 379.716 295.095C372.997 299.924 366.039 304.43 359.035 308.483C322.2 330.841 281.119 338.671 240.221 331.149C187.082 321.705 143.412 293.176 116.136 270.906C66.8659 235.778 51.6903 188.925 38.1926 135.77C32.0792 114.398 27.8223 92.7352 23.3148 69.8017C20.5026 55.4924 17.5936 40.6991 14.1136 25.4241C9.11716 3.09881 9.01045 -11.9999 8.89627 -27.9848C8.78954 -43.163 8.68031 -58.8674 4.42597 -82.0914C-0.62512 -108.692 -3.40754 -138.596 -3.40754 -166.303ZM525.944 -260.294C525.944 -312.266 500.401 -355.745 452.082 -386.029C420.003 -406.951 385.75 -416.472 350.286 -414.317C314.161 -412.2 274.482 -396.45 236.977 -379.743C200.91 -363.135 172.929 -351.383 146.254 -341.631C138.145 -338.667 130.728 -336.046 123.585 -333.623L121.199 -332.91C85.9707 -322.392 64.7065 -316.044 34.323 -294.041C9.61606 -276.746 -4.55925 -230.184 -4.55925 -166.303C-4.55925 -138.504 -1.76936 -108.5 3.29911 -81.8158C7.5311 -58.7283 7.6403 -43.0935 7.74703 -27.9749C7.85872 -11.9056 7.96797 3.26758 12.9992 25.7592C16.4766 41.0118 19.3832 55.7903 22.1904 70.0897C26.7054 93.0529 30.9672 114.743 37.0905 136.159C50.6503 189.556 65.9128 236.649 115.495 272.008C142.843 294.338 186.68 322.969 240.043 332.445C281.184 340.017 322.516 332.135 359.566 309.66C366.588 305.586 373.58 301.063 380.326 296.207C415.061 271.563 444.072 233.698 459.923 192.329C478.881 147.343 487.966 102.365 493.766 68.2153C496.752 55.6463 499.425 42.7074 501.709 29.8033C509.098 -18.7474 516.664 -76.7092 516.741 -138.581C517.815 -153.429 519.342 -167.711 520.821 -181.524C523.281 -204.499 525.594 -226.14 525.366 -246.553C525.746 -251.119 525.944 -255.766 525.944 -260.294Z" fill="#EDE9F6"/>
<path d="M11.0871 -173.064C11.0871 -208.501 15.5748 -271.135 45.621 -292.487C75.9502 -314.752 95.5466 -320.026 131.125 -329.602C138.286 -331.811 145.475 -334.114 153.231 -336.675C185.849 -347.457 217.595 -359.961 241.615 -369.643C277.68 -383.668 315.94 -396.785 351.285 -397.763C385.482 -398.783 418.199 -389.428 448.535 -369.953C493.368 -342.267 517.06 -303.013 517.06 -256.43C517.06 -249.448 516.536 -242.216 515.491 -234.931C514.615 -217.717 511.79 -199.569 508.799 -180.354C506.324 -164.465 503.77 -148.034 502.02 -130.504C500.531 -78.8383 495.817 -28.0284 489.198 32.3816C487.492 45.1436 485.489 57.7691 483.248 69.8833C478.862 106.258 472.158 149.074 455.736 191.229C441.667 231.154 413.835 267.246 379.381 290.273C372.823 294.711 366.009 298.846 359.124 302.556C323.637 322.632 283.846 329.559 244.035 322.588C191.65 313.747 149.563 287.416 123.478 266.881C74.2648 232.943 60.7 187.79 48.0783 132.289C42.985 112.426 39.5398 92.3299 35.8911 71.0474C33.1955 55.3096 30.4056 39.0381 26.8015 22.094C23.2074 4.92656 22.7283 -7.49047 22.7283 -17.371C22.7283 -21.5307 22.8202 -25.4869 22.9194 -29.6838C23.0187 -33.8311 23.123 -38.1348 23.123 -42.5973C23.123 -52.3214 22.6836 -65.8951 19.2608 -84.6882C13.9887 -112.617 11.0871 -144.004 11.0871 -173.064ZM518.214 -256.43C518.214 -303.529 494.313 -343.18 449.086 -371.107C419.008 -390.419 385.176 -400.093 351.258 -399.083C315.756 -398.1 277.4 -384.951 241.238 -370.888C217.228 -361.206 185.506 -348.715 152.911 -337.943C145.164 -335.382 137.981 -333.079 130.947 -330.91C95.1594 -321.28 75.4935 -315.986 45.0079 -293.604C14.4926 -271.919 9.93541 -208.774 9.93541 -173.064C9.93541 -143.912 12.847 -112.429 18.1339 -84.4127C21.5369 -65.7412 21.9738 -52.2619 21.9738 -42.5973C21.9738 -38.1497 21.867 -33.8659 21.7678 -29.7161C21.6734 -25.7028 21.5741 -21.5481 21.5741 -17.371C21.5741 -7.41108 22.0606 5.09533 25.6821 22.4042C29.2836 39.3186 32.0711 55.58 34.7642 71.308C38.4129 92.6103 41.8631 112.741 46.9713 132.639C59.65 188.417 73.3017 233.814 122.855 267.995C149.009 288.585 191.267 315.013 243.866 323.893C283.906 330.905 323.937 323.94 359.628 303.742C366.536 300.024 373.376 295.87 379.964 291.41C414.637 268.239 442.643 231.913 456.788 191.743C473.272 149.456 479.989 106.526 484.382 70.1142C486.626 58.0124 488.622 45.367 490.337 32.5652C496.964 -27.9018 501.678 -78.7464 503.172 -130.408C504.909 -147.843 507.464 -164.251 509.933 -180.123C512.929 -199.378 515.764 -217.565 516.635 -234.787C517.678 -242.072 518.214 -249.376 518.214 -256.43Z" fill="#EDE9F6"/>
<path d="M24.6163 -180.207C24.6163 -237.781 35.5772 -277.408 55.4793 -291.791C85.6518 -314.266 104.178 -318.678 137.801 -326.687C144.844 -328.629 151.807 -330.617 159.111 -332.763C189.038 -341.552 218.15 -351.33 245.152 -360.588C278.196 -371.469 316.704 -382.563 351.656 -382.372C384.385 -382.268 416.681 -372.748 445.063 -354.842C487.709 -328.9 509.328 -294.005 509.328 -251.121C509.328 -242.043 508.319 -232.556 506.332 -222.92C504.617 -208.442 501.418 -193.267 498.029 -177.199C494.345 -159.725 490.536 -141.655 488.007 -121.916C486.176 -91.3805 484.062 -61.2026 481.821 -29.2511C480.333 -8.08097 478.8 13.8071 477.352 35.8467C476.234 48.6005 474.9 60.9468 473.392 72.5405C470.674 110.889 466.217 151.803 452.106 191.5C439.682 230.313 412.848 264.89 378.494 286.381C372.085 290.445 365.412 294.209 358.652 297.567C324.519 315.396 285.972 321.425 247.187 314.999C195.477 306.736 154.948 282.58 130.052 263.763C80.8296 230.942 68.783 187.431 57.1339 129.552C52.9254 111.015 50.2001 92.2624 47.3158 72.4138C44.8438 55.417 42.2899 37.839 38.6379 19.3766C36.4119 7.95435 35.3785 -2.39721 35.3785 -13.1835C35.3785 -19.3989 35.6965 -25.0603 36.0343 -31.0497C36.3747 -37.039 36.725 -43.2421 36.725 -50.0512C36.725 -61.9852 35.6195 -73.6584 33.2394 -86.7798C27.759 -116.043 24.6163 -150.094 24.6163 -180.207ZM510.483 -251.121C510.483 -294.534 488.653 -329.819 445.604 -356C417.071 -374.01 384.579 -383.584 351.661 -383.691C316.56 -383.887 277.958 -372.763 244.822 -361.855C217.832 -352.599 188.732 -342.824 158.826 -334.04C151.527 -331.896 144.566 -329.911 137.552 -327.974C103.802 -319.937 85.2046 -315.508 54.8582 -292.902C34.6158 -278.278 23.4635 -238.25 23.4635 -180.207C23.4635 -150.007 26.6162 -115.855 32.114 -86.5065C34.4717 -73.4795 35.5747 -61.8958 35.5747 -50.0512C35.5747 -43.2893 35.2244 -37.1086 34.8866 -31.1341C34.5462 -25.1249 34.2232 -19.4411 34.2232 -13.1835C34.2232 -2.29537 35.2691 8.14066 37.515 19.6648C41.1571 38.0924 43.711 55.6505 46.1779 72.6249C49.0672 92.5108 51.7975 111.289 56.011 129.868C67.7247 188.052 79.8483 231.811 129.446 264.885C154.414 283.753 195.105 308.008 247.025 316.298C286.032 322.764 324.793 316.703 359.121 298.772C365.904 295.401 372.609 291.62 379.051 287.546C413.643 265.894 440.665 231.066 453.186 191.98C467.34 152.136 471.814 111.1 474.539 72.692C476.045 61.1232 477.379 48.7545 478.502 35.9635C479.948 13.9064 481.486 -7.98665 482.969 -29.1419C485.21 -61.1009 487.329 -91.2811 489.152 -121.777C491.669 -141.404 495.473 -159.442 499.147 -176.888C502.543 -192.991 505.75 -208.199 507.464 -222.679C509.464 -232.35 510.483 -241.939 510.483 -251.121Z" fill="#EDE9F6"/>
</g>
</svg>
