<svg width="1663" height="918" viewBox="0 0 1663 918" fill="none" xmlns="http://www.w3.org/2000/svg">
<g style="mix-blend-mode:soft-light" opacity="0.2">
<path d="M663.508 1584.24C618.011 1568.06 586.785 1552.35 562.261 1533.3C469.56 1458.59 443.48 1282.28 495.832 1084.11C522.761 985.243 567.679 899.518 625.726 836.211C676.853 781.232 746.414 735.458 844.64 692.16C912.326 662.804 986.205 642.365 1077.14 627.839C1169.24 613.497 1237.95 615.668 1299.92 634.881C1302.73 635.781 1305.52 636.723 1308.45 637.767C1377.98 662.485 1479.6 726.254 1580.3 808.353C1682.65 891.794 1764.34 978.705 1798.82 1040.84C1906.84 1167.85 1862.07 1238.62 1794.31 1345.75C1764.26 1393.27 1730.19 1447.13 1701.52 1516.65C1680.84 1566.83 1663.08 1611.89 1647.4 1651.64C1572.15 1842.55 1537.81 1929.69 1410.4 1994.12C1379.78 2008.7 1345.43 2009.4 1308.31 1996.21C1279.06 1985.8 1247.82 1966.69 1215.48 1939.39C1186.19 1914.48 1156.95 1885.99 1125.98 1855.82C1085.26 1816.14 1043.15 1775.11 995.069 1736.33C937.731 1690.48 870.127 1654.07 788.389 1625.01C776.256 1620.7 763.447 1616.42 750.321 1612.29C744.421 1610.43 738.564 1608.61 732.763 1606.8C708.407 1599.2 685.403 1592.03 663.508 1584.24ZM1308.84 636.686C1305.89 635.638 1303.08 634.687 1300.26 633.777C1238.05 614.492 1169.14 612.307 1076.81 626.686C985.76 641.23 911.78 661.698 843.991 691.093C745.614 734.462 675.933 780.32 624.696 835.415C566.531 898.852 521.535 984.723 494.566 1083.75C442.101 1282.34 468.354 1459.13 561.45 1534.15C586.111 1553.31 617.468 1569.09 663.122 1585.33C685.045 1593.12 708.061 1600.3 732.433 1607.9C738.236 1609.71 744.088 1611.53 749.987 1613.39C763.096 1617.51 775.886 1621.79 788.003 1626.1C869.582 1655.1 937.045 1691.43 994.257 1737.17C1042.28 1775.91 1084.36 1816.91 1125.06 1856.57C1156.04 1886.76 1185.3 1915.27 1214.63 1940.2C1247.11 1967.62 1278.5 1986.83 1307.93 1997.29C1345.42 2010.62 1380.13 2009.9 1411.1 1995.16C1473.05 1963.83 1514.37 1926.95 1549.25 1871.83C1583.13 1818.32 1610.6 1748.6 1648.64 1652.12C1664.31 1612.37 1682.06 1567.31 1702.75 1517.14C1731.38 1447.7 1765.43 1393.88 1795.46 1346.39C1830.43 1291.1 1858.06 1247.42 1864.14 1200.43C1870.71 1149.63 1850.9 1100.24 1799.89 1040.28C1765.42 978.117 1683.61 891.062 1581.13 807.512C1480.3 725.318 1378.51 661.458 1308.84 636.686Z" fill="#EDE9F6"/>
<path d="M1303.41 649.363C1305.07 649.919 1306.71 650.488 1308.4 651.087C1374.83 674.708 1472.63 736.447 1569.99 816.244C1669.08 897.445 1748.47 982.197 1782.36 1042.96C1887.18 1166.65 1845.08 1236.27 1781.35 1341.65C1753.79 1387.22 1722.56 1438.87 1696.24 1504.87C1676.92 1552.93 1660.3 1596.2 1645.63 1634.38C1574.5 1819.6 1542.03 1904.13 1419.59 1967.46C1387.5 1983.68 1350.95 1984.7 1310.94 1970.48C1284.11 1960.94 1255.57 1944.47 1226.11 1921.53C1189.16 1894.97 1152.08 1862.92 1112.83 1829C1075.95 1797.12 1037.81 1764.15 995.944 1732.33C908.819 1666.94 815.731 1629.13 753.289 1606.38L742.2 1602.58C728.739 1597.97 716.023 1593.62 703.422 1589.14C649.824 1570.08 607.259 1551.71 573.738 1523.99C485.334 1450.21 459.315 1279.02 507.457 1087.87C531.514 989.855 573.177 905.177 627.937 842.994C676.821 787.979 744.166 742.351 839.876 699.406C909.7 667.884 985.915 647.194 1079.73 634.302C1170.97 622.156 1239.75 626.725 1302.72 649.118L1303.41 649.363ZM1308.78 649.999C1307.09 649.398 1305.44 648.825 1303.79 648.278L1303.11 648.032C1239.9 625.558 1170.91 620.966 1079.43 633.145C985.485 646.055 909.155 666.773 839.219 698.344C743.356 741.362 675.885 787.077 626.891 842.216C572.021 904.524 530.282 989.348 506.185 1087.52C457.939 1279.08 484.126 1450.73 572.902 1524.82C606.591 1552.68 649.287 1571.12 703.035 1590.23C715.645 1594.71 728.365 1599.06 741.833 1603.67L752.905 1607.46C815.243 1630.18 908.195 1667.94 995.158 1733.2C1036.98 1765 1075.11 1797.94 1111.98 1829.81C1151.25 1863.76 1188.35 1895.82 1225.32 1922.4C1254.89 1945.42 1283.57 1961.97 1310.55 1971.56C1350.94 1985.92 1387.87 1984.89 1420.3 1968.49C1543.12 1904.97 1575.63 1820.32 1646.87 1634.85C1661.53 1596.67 1678.15 1553.4 1697.47 1505.34C1723.76 1439.43 1754.97 1387.81 1782.5 1342.28C1815.4 1287.89 1841.38 1244.93 1846.69 1198.85C1852.44 1149.05 1832.93 1100.8 1783.44 1042.4C1749.55 981.61 1670.03 896.709 1570.83 815.41C1473.34 735.509 1375.37 673.675 1308.78 649.999Z" fill="#EDE9F6"/>
<path d="M1313.17 1944.6C1288.99 1936.01 1263.4 1922.15 1237.1 1903.42C1190.57 1875.46 1143.59 1839.26 1093.86 1800.93C1062.82 1777.01 1030.73 1752.27 996.748 1727.97C912.68 1668.88 827.753 1630.12 755.763 1600L751.492 1598.39C684.837 1573.4 627.269 1551.82 584.415 1514.11C500.121 1441.21 474.006 1275.2 517.884 1091.16C539.314 992.657 576.675 911.35 628.939 849.489C674.935 795.253 742.043 748.509 834.091 706.573C905.133 673.383 986.082 651.896 1081.57 640.887C1172.02 630.857 1242.82 638.182 1306.49 664.112L1307.94 664.625C1371.39 687.185 1465.52 746.949 1559.74 824.483C1655.75 903.496 1733.01 986.133 1766.42 1045.54C1868.29 1165.98 1828.86 1234.42 1769.17 1338.02C1744.09 1381.56 1715.66 1430.91 1691.68 1493.31C1673.75 1539.16 1658.3 1580.57 1644.66 1617.1C1577.66 1796.6 1547.08 1878.53 1429.44 1940.66C1395.71 1958.71 1356.59 1960.04 1313.17 1944.6ZM1292.08 657.394C1232.05 636.049 1165.07 630.435 1081.3 639.724C985.664 650.751 904.584 672.274 833.425 705.516C741.218 747.523 673.984 794.369 627.877 848.73C575.505 910.718 538.069 992.177 516.608 1090.83C494.965 1181.61 489.809 1269.4 501.692 1344.71C513.58 1420.03 541.887 1478.89 583.552 1514.92C626.604 1552.8 684.289 1574.43 751.082 1599.47L755.326 1601.06C827.213 1631.14 912.052 1669.86 996 1728.87C1029.94 1753.15 1062.04 1777.88 1093.07 1801.79C1142.83 1840.15 1189.84 1876.38 1236.39 1904.34C1262.76 1923.13 1288.47 1937.05 1312.78 1945.69C1356.6 1961.27 1396.1 1959.92 1430.17 1941.69C1548.18 1879.36 1578.8 1797.32 1645.9 1617.56C1659.54 1581.03 1674.99 1539.62 1692.92 1493.77C1716.87 1431.45 1745.27 1382.14 1770.34 1338.64C1801.15 1285.16 1825.48 1242.93 1829.99 1197.78C1834.87 1148.97 1815.6 1101.85 1767.5 1044.99C1734.09 985.547 1656.7 902.766 1560.56 823.649C1466.23 746.009 1371.93 686.154 1308.32 663.54L1306.9 663.037C1302.05 661.064 1297.05 659.161 1292.08 657.394Z" fill="#EDE9F6"/>
<path d="M1313.79 1918.16C1292.68 1910.65 1270.46 1899.4 1247.77 1884.72C1189.39 1855.84 1130.12 1814.65 1067.36 1771.06C1044.86 1755.42 1021.6 1739.26 997.739 1723.22C910.408 1665.7 822.849 1623.91 758.917 1593.4C697.051 1568.02 638.652 1544.07 596.119 1504.15C556.704 1468.71 529.64 1411.66 517.834 1339.14C506.009 1266.47 510.107 1181.9 529.686 1094.56C548.134 996.974 582.307 916.748 631.261 856.117C674.96 801.906 739.759 755.354 829.358 713.799C902.46 678.472 985.775 656.76 1084.07 647.423C1161.24 640.437 1223.75 646.628 1280.77 666.901C1290.54 670.377 1300.31 674.336 1309.81 678.675C1370.52 700.863 1460.52 758.725 1550.62 833.492C1644.02 911 1716.59 989.015 1749.71 1047.54C1848.41 1164.67 1811.71 1231.97 1756.14 1333.84C1733.53 1375.31 1707.89 1422.31 1686.24 1481.06C1669.73 1524.61 1655.46 1564.09 1642.87 1598.92C1580.01 1772.8 1551.32 1852.16 1438.61 1913.16C1403.1 1933.3 1361.1 1934.98 1313.79 1918.16ZM1281.15 665.814C1223.92 645.466 1161.22 639.254 1083.83 646.253C985.367 655.609 901.909 677.36 828.676 712.753C738.923 754.38 673.993 801.035 630.187 855.377C581.126 916.143 546.883 996.515 528.408 1094.25C508.803 1181.71 504.7 1266.42 516.549 1339.21C528.398 1412 555.604 1469.3 595.228 1504.93C637.944 1545.02 696.467 1569.02 758.426 1594.44C822.281 1624.92 909.784 1666.68 997.027 1724.14C1020.87 1740.17 1044.13 1756.33 1066.63 1771.96C1129.42 1815.59 1188.74 1856.8 1247.14 1885.69C1269.86 1900.4 1292.18 1911.7 1313.4 1919.24C1361.12 1936.21 1403.5 1934.51 1439.36 1914.18C1552.42 1852.98 1581.16 1773.5 1644.11 1599.37C1656.7 1564.54 1670.97 1525.07 1687.47 1481.52C1709.1 1422.83 1734.72 1375.87 1757.32 1334.43C1785.99 1281.85 1808.65 1240.32 1812.36 1196.09C1816.39 1148.27 1797.39 1102.28 1750.8 1046.99C1717.66 988.425 1644.97 910.27 1551.45 832.658C1461.24 757.802 1371.07 699.84 1310.26 677.617C1300.78 673.288 1290.97 669.305 1281.15 665.814Z" fill="#EDE9F6"/>
<path d="M1313.05 1893.28C1295.44 1887.02 1277.05 1878.34 1258.36 1867.48C1185.04 1838.24 1110.22 1790.71 1031.03 1740.39C1020.27 1733.55 1009.42 1726.66 998.456 1719.74C931.341 1678.35 866.978 1644.13 810.194 1613.93C793.11 1604.85 776.976 1596.27 761.588 1587.93C697.99 1559.37 646.268 1534.43 607.179 1495.22C569.752 1460.13 543.759 1404.54 531.997 1334.45C520.209 1264.19 523.267 1182.57 540.848 1098.43C556.326 1001.6 587.358 922.349 633.093 862.859C674.519 808.608 737.082 762.176 824.358 720.922C898.548 683.887 986.759 661.28 1086.56 653.709C1157.79 648.624 1216.13 655.203 1270.15 674.409C1284.76 679.603 1299.29 685.862 1313.33 692.997C1371.55 715.297 1457.34 771.442 1542.88 843.223C1631.85 917.881 1701.38 993.159 1733.62 1049.76C1829.26 1163.76 1795.25 1230.06 1743.76 1330.42C1723.55 1369.83 1700.64 1414.49 1681.25 1469.63C1666.17 1510.87 1653.08 1548.4 1641.53 1581.51C1582.71 1750.15 1555.86 1827.11 1447.92 1887.13C1410.37 1909.69 1365 1911.75 1313.05 1893.28ZM1270.54 673.321C1216.31 654.043 1157.79 647.443 1086.34 652.543C986.368 660.121 897.99 682.782 823.667 719.88C736.234 761.207 673.536 807.742 632.002 862.141C586.167 921.765 555.064 1001.17 539.565 1098.14C521.962 1182.39 518.901 1264.14 530.714 1334.52C542.519 1404.88 568.643 1460.71 606.263 1495.97C645.508 1535.34 697.351 1560.35 761.04 1588.95C776.381 1597.26 792.517 1605.84 809.604 1614.93C866.37 1645.11 930.71 1679.33 997.78 1720.68C1008.73 1727.6 1019.58 1734.49 1030.34 1741.32C1109.6 1791.68 1184.47 1839.25 1257.83 1868.49C1276.48 1879.36 1294.97 1888.08 1312.67 1894.37C1365.03 1912.99 1410.79 1910.89 1448.69 1888.14C1556.98 1827.93 1583.86 1750.84 1642.77 1581.95C1654.32 1548.84 1667.41 1511.31 1682.49 1470.08C1701.86 1414.99 1724.75 1370.36 1744.95 1330.99C1771.52 1279.19 1792.51 1238.28 1795.43 1194.87C1798.58 1147.94 1779.86 1103.01 1734.7 1049.2C1702.45 992.563 1632.82 917.159 1543.73 842.4C1458.06 770.52 1372.12 714.282 1313.82 691.954C1299.79 684.818 1285.2 678.536 1270.54 673.321Z" fill="#EDE9F6"/>
<path d="M1247.35 1841.35C1169.1 1813.53 1088.96 1767.63 999.827 1714.92C963.171 1693.81 928.199 1674.32 894.38 1655.48C846.991 1629.07 802.231 1604.13 764.642 1581.13C707.53 1553.04 657.151 1526.43 618.451 1484.96C582.953 1450.24 557.968 1396.19 546.179 1328.62C534.355 1260.87 536.306 1182.35 551.816 1101.55C564.21 1005.65 592.052 927.528 634.571 869.334C673.669 815.171 733.991 768.999 818.983 728.183C895.287 689.071 986.051 666.299 1088.77 660.484C1153.62 657.108 1209.57 664.149 1259.8 682.009C1279.14 688.885 1298.3 697.614 1316.76 707.953C1429.7 753.373 1648.68 931.953 1717.99 1052.39C1810.77 1163.23 1779.52 1228.45 1732.23 1327.18C1714.4 1364.37 1694.21 1406.53 1677.1 1457.9C1663.48 1496.63 1651.62 1532.06 1641.15 1563.32C1586.48 1726.54 1561.54 1801.03 1458.29 1859.89C1418.46 1885.15 1369.13 1887.58 1311.65 1867.15C1298.1 1862.33 1284.06 1856.19 1269.91 1848.89C1262.46 1846.56 1254.91 1844.04 1247.35 1841.35ZM1260.19 680.922C1209.76 662.995 1153.63 655.929 1088.58 659.318C985.67 665.139 894.727 687.961 818.281 727.147C733.126 768.038 672.667 814.32 633.465 868.635C590.841 926.971 562.938 1005.25 550.529 1101.29C534.999 1182.18 533.047 1260.82 544.892 1328.7C556.725 1396.52 581.836 1450.8 617.506 1485.69C656.352 1527.31 706.852 1553.99 764.036 1582.12C801.591 1605.09 846.367 1630.04 893.764 1656.46C927.584 1675.3 962.546 1694.79 999.185 1715.89C1088.38 1768.63 1168.59 1814.57 1246.97 1842.43C1254.54 1845.13 1262.11 1847.65 1269.46 1849.94C1283.55 1857.22 1297.66 1863.39 1311.26 1868.23C1369.18 1888.82 1418.91 1886.35 1459.08 1860.89C1509.09 1832.38 1542.08 1799.35 1569.39 1750.48C1595.53 1703.7 1615.19 1645 1642.4 1563.74C1652.87 1532.49 1664.73 1497.06 1678.34 1458.33C1695.44 1407.01 1715.62 1364.89 1733.43 1327.72C1757.83 1276.76 1777.12 1236.52 1779.18 1193.99C1781.41 1148 1762.88 1104.16 1719.07 1051.84C1687.64 997.201 1620.95 924.595 1536.17 852.734C1454.95 783.892 1373.13 729.386 1317.29 706.927C1298.85 696.592 1279.61 687.827 1260.19 680.922Z" fill="#EDE9F6"/>
<path d="M1209.11 1810.17C1135.67 1784.07 1062.36 1745.44 1000.34 1711.1C916.819 1666.17 830.025 1618.7 767.255 1575.41C707.734 1543.24 663.97 1515.38 629.548 1475.81C560.985 1405.49 535.517 1263.57 563.061 1105.41C572.414 1010.28 597.101 933.175 636.443 876.188C673.188 822.01 731.239 775.992 813.918 735.477C891.171 694.738 986.995 671.052 1091.04 666.966C1150.86 664.882 1202.84 672.012 1249.95 688.76C1274.11 697.35 1297 708.369 1319.92 722.442C1373.18 744.999 1450.59 797.663 1527.09 863.376C1607.28 932.25 1670.77 1001.94 1701.28 1054.59C1791.03 1162.35 1762.56 1226.67 1719.46 1324.03C1703.97 1358.99 1686.42 1398.62 1671.52 1446.23C1659.38 1482.4 1648.73 1515.68 1639.35 1545.05C1590.28 1698.47 1565.66 1775.48 1467.12 1833.4C1425.33 1861.45 1369.92 1864.41 1306.86 1841.99C1298.12 1838.88 1289.13 1835.26 1280.15 1831.2C1257.44 1825.94 1233.59 1818.88 1209.11 1810.17ZM1250.33 687.674C1203.04 670.862 1150.89 663.706 1090.87 665.793C986.627 669.888 890.61 693.629 813.207 734.448C730.364 775.038 672.167 821.186 635.321 875.507C595.881 932.644 571.134 1009.91 561.769 1105.17C534.173 1263.64 559.771 1405.94 628.576 1476.51C666.852 1520.51 717.744 1549.96 766.59 1576.35C829.357 1619.65 916.186 1667.15 999.741 1712.09C1061.81 1746.45 1135.18 1785.11 1208.72 1811.26C1233.25 1819.98 1257.17 1827.06 1279.79 1832.29C1288.67 1836.31 1297.69 1839.95 1306.48 1843.08C1369.98 1865.66 1425.81 1862.65 1467.93 1834.38C1566.79 1776.26 1591.46 1699.13 1640.6 1545.46C1649.99 1516.1 1660.63 1482.82 1672.77 1446.64C1687.66 1399.09 1705.2 1359.48 1720.67 1324.54C1742.91 1274.29 1760.49 1234.6 1761.72 1192.85C1763.04 1147.72 1744.74 1104.91 1702.36 1054.02C1671.84 1001.35 1608.25 931.529 1527.95 862.56C1451.33 796.759 1373.79 743.999 1320.49 721.44C1297.58 707.363 1274.59 696.301 1250.33 687.674Z" fill="#EDE9F6"/>
<path d="M1166.35 1780.62C1116.98 1763.06 1062.91 1738.98 1001.05 1706.98C898.83 1655.73 823.211 1610.7 769.853 1569.3C716.677 1537.67 674.371 1508.07 640.507 1466.22C576.136 1396.78 550.674 1259.82 574.031 1108.76C580.291 1014.4 601.826 938.295 638.045 882.532C672.423 828.369 728.24 782.497 808.678 742.292C908.888 688.062 1018.77 674.684 1093.31 673.01C1148.61 672.007 1196.94 679.144 1241.06 694.829C1269.51 704.945 1296.4 718.597 1323.26 736.564C1426.64 782.782 1620.62 946.216 1685.11 1056.54C1771.98 1161.37 1746.31 1224.86 1707.44 1320.98C1694.25 1353.62 1679.29 1390.61 1666.55 1434.37C1655.9 1467.84 1646.49 1498.86 1638.2 1526.22C1593.1 1675 1570.46 1749.68 1476.51 1806.71C1431.8 1838.42 1370.81 1841.88 1300.09 1816.73C1297.02 1815.64 1293.89 1814.48 1290.78 1813.28C1251.29 1807.03 1210.64 1796.36 1166.35 1780.62ZM1241.44 693.743C1197.15 677.996 1148.65 670.831 1093.17 671.84C1018.48 673.518 908.374 686.928 807.959 741.269C727.347 781.555 671.39 827.549 636.907 881.882C600.593 937.786 579.001 1014.05 572.735 1108.55C549.335 1259.89 574.92 1397.22 639.508 1466.89C673.472 1508.86 715.893 1538.55 769.129 1570.21C822.489 1611.62 898.188 1656.7 1000.47 1707.98C1062.39 1740.01 1116.53 1764.12 1165.97 1781.7C1210.34 1797.48 1251.08 1808.17 1290.52 1814.4C1293.47 1815.55 1296.62 1816.72 1299.7 1817.82C1370.88 1843.13 1432.3 1839.62 1477.33 1807.67C1571.6 1750.46 1594.28 1675.65 1639.46 1526.62C1647.75 1499.26 1657.15 1468.25 1667.8 1434.76C1680.53 1391.05 1695.48 1354.08 1708.67 1321.46C1747.68 1224.99 1773.44 1161.26 1686.19 1055.99C1621.64 945.545 1427.33 781.824 1323.87 735.577C1297.01 717.613 1270.01 703.902 1241.44 693.743Z" fill="#EDE9F6"/>
<path d="M1123.74 1753.16C1085.03 1739.4 1045.33 1722.65 1002.39 1701.96C903.651 1655.92 826.42 1608.93 772.83 1562.29C730.794 1534.73 687.086 1502.8 651.683 1455.77C591.388 1387.23 565.81 1255.38 584.9 1111.62C588.001 1016.8 605.828 943.902 639.411 888.708C671.375 834.644 724.954 789.029 803.209 749.238C883.451 704.872 987.248 680.108 1095.49 679.498C1146.75 679.419 1191.76 686.528 1233.1 701.225C1265.58 712.774 1296.2 729.126 1326.73 751.219C1425.2 797.799 1606.27 951.973 1669.54 1058.93C1753.73 1160.84 1730.94 1223.53 1696.44 1318.43C1685.48 1348.57 1673.06 1382.74 1662.45 1422.46C1653.32 1453.04 1645.19 1481.59 1638.02 1506.8C1596.99 1650.96 1576.4 1723.32 1486.92 1779.37C1429.29 1822.5 1354.75 1811.44 1302.36 1794.57L1302.19 1794.54C1246.11 1789.45 1187.74 1775.92 1123.74 1753.16ZM1233.48 700.143C1191.98 685.387 1146.8 678.249 1095.38 678.322C986.904 678.94 882.886 703.757 802.479 748.215C724.042 788.096 670.323 833.846 638.253 888.08C604.585 943.423 586.704 1016.49 583.604 1111.44C564.478 1255.45 590.169 1387.65 650.655 1456.4C686.155 1503.56 729.98 1535.59 772.047 1563.16C825.663 1609.83 903.007 1656.9 1001.85 1702.99C1044.84 1723.69 1084.58 1740.46 1123.35 1754.24C1187.45 1777.03 1245.91 1790.59 1302.09 1795.7C1354.8 1812.65 1429.76 1823.72 1487.77 1780.33C1577.55 1724.08 1598.18 1651.59 1639.28 1507.18C1646.45 1481.98 1654.58 1453.42 1663.72 1422.84C1674.31 1383.14 1686.72 1349 1697.68 1318.87C1732.3 1223.63 1755.18 1160.71 1670.61 1058.37C1607.29 951.306 1425.9 796.86 1327.37 750.26C1296.85 728.158 1266.1 711.739 1233.48 700.143Z" fill="#EDE9F6"/>
<path d="M1083.87 1730.78C1057.43 1721.38 1030.15 1710.4 1002.8 1698.14C905.627 1656.06 826.939 1607.08 775.221 1556.5C723.96 1519.26 690.27 1486.37 662.492 1446.47C634.874 1413.16 614.117 1365.08 602.435 1307.39C590.685 1249.36 588.395 1182.9 595.817 1115.18C595.715 1021.06 610.49 949.11 640.994 895.162C670.539 841.1 721.878 795.606 797.941 756.081C880.215 709.497 986.66 684.428 1097.69 685.48C1145.27 686.121 1187.21 693.119 1225.92 706.881C1262.1 719.747 1296.12 738.84 1329.92 765.253C1424.34 812.7 1591.91 958.354 1653.06 1060.83C1734.5 1160.03 1714.6 1222.18 1684.49 1316.25C1675.67 1343.8 1665.67 1375.02 1657.1 1410.64C1649.48 1438.18 1642.91 1463.05 1636.56 1487.08C1599.54 1627.19 1580.96 1697.52 1495.89 1752.88C1439.76 1797.29 1365.25 1790.45 1312.62 1776.91L1312.46 1776.88C1241.18 1774.88 1164.27 1759.37 1083.87 1730.78ZM1226.3 705.795C1187.44 691.978 1145.34 684.95 1097.6 684.308C986.327 683.251 879.648 708.381 797.202 755.061C720.954 794.685 669.467 840.321 639.82 894.565C609.23 948.665 594.41 1020.78 594.516 1115.02C587.089 1182.79 589.384 1249.37 601.159 1307.51C612.876 1365.38 633.723 1413.64 661.442 1447.08C689.278 1487.07 723.062 1520.05 774.378 1557.32C826.142 1607.95 904.985 1657.03 1002.31 1699.19C1029.69 1711.45 1057 1722.45 1083.48 1731.86C1164 1760.49 1241.04 1776.03 1312.45 1778.06C1365.37 1791.67 1440.28 1798.5 1496.75 1753.81C1582.12 1698.26 1600.74 1627.81 1637.83 1487.45C1644.18 1463.41 1650.74 1438.56 1658.36 1411C1666.93 1375.39 1676.93 1344.19 1685.74 1316.66C1715.97 1222.26 1735.93 1159.89 1654.14 1060.26C1626.21 1013.45 1571.65 951.945 1504.49 891.59C1441.43 834.912 1376.42 787.335 1330.6 764.317C1296.8 737.882 1262.64 718.717 1226.3 705.795Z" fill="#EDE9F6"/>
<path d="M1051.45 1712.07C1035.78 1706.5 1019.87 1700.37 1004.16 1693.84C906.26 1654.56 828.213 1604.9 778.443 1550.24C733.188 1513.7 701.016 1478.73 674.055 1436.77C621.25 1368.92 596.305 1250 607.297 1118.6C603.9 1025.26 615.592 954.346 643.046 901.732C670.131 847.738 719.22 802.442 793.116 763.247C877.413 714.517 986.526 689.218 1100.37 691.993C1144.66 693.241 1183.84 700.126 1220.14 713.035C1259.79 727.133 1296.94 748.99 1333.71 779.863C1422.03 827.166 1579.43 967.127 1637.41 1063.17C1716.28 1159.8 1699.38 1221.53 1673.78 1314.95C1667.02 1339.65 1659.35 1367.65 1652.74 1398.95C1646.62 1423.19 1641.29 1445.33 1636.13 1466.74C1604.29 1598.7 1586.75 1671.4 1505.98 1726.07C1451.38 1771.69 1376.87 1769.06 1323.97 1758.83C1237.49 1761.36 1145.85 1745.64 1051.45 1712.07ZM1220.53 711.947C1184.08 698.986 1144.75 692.075 1100.3 690.824C986.205 688.04 876.848 713.399 792.37 762.233C718.279 801.53 669.038 846.98 641.858 901.167C614.322 953.928 602.591 1025.02 605.998 1118.48C594.986 1250.08 620.022 1369.31 672.976 1437.34C699.982 1479.37 732.245 1514.45 777.542 1551.01C827.374 1605.76 905.611 1655.54 1003.71 1694.9C1019.44 1701.43 1035.38 1707.58 1051.06 1713.16C1145.64 1746.78 1237.45 1762.54 1323.97 1759.99C1376.99 1770.26 1451.93 1772.89 1506.86 1727C1587.93 1672.12 1605.5 1599.29 1637.4 1467.08C1642.56 1445.67 1647.9 1423.54 1654.01 1399.27C1660.62 1367.99 1668.28 1340.01 1675.05 1315.32C1700.73 1221.57 1717.69 1159.64 1638.48 1062.6C1611.02 1017.1 1560.79 959.89 1497.1 901.577C1438.57 847.989 1377.75 802.148 1334.42 778.952C1297.65 748.05 1260.35 726.106 1220.53 711.947Z" fill="#EDE9F6"/>
<path d="M1024.9 1696.48C1018.19 1694.1 1011.41 1691.59 1004.75 1689.03C905.714 1652.31 828.36 1602.01 781.047 1543.58C741.683 1508.07 711.213 1470.96 685.077 1426.73C636.442 1359.75 611.497 1245.8 618.32 1121.87C611.487 1028.05 619.848 960.191 644.632 908.254C669.213 854.365 716.019 809.289 787.726 770.437C872.737 720.308 987.375 694.112 1102.27 698.55C1143.56 700.296 1180.21 707.039 1214.29 719.159C1257.75 734.61 1296.59 758.532 1336.52 794.444C1419.21 841.837 1564.25 973.165 1620.53 1065.3C1696.97 1159.56 1683.14 1221.07 1662.22 1314.2C1657.37 1335.76 1651.89 1360.18 1647.13 1386.86C1642.5 1407.51 1638.38 1426.63 1634.41 1445.11C1606.72 1573.74 1591.47 1644.59 1514.9 1698.72C1461.9 1745.48 1387.43 1747.08 1334.28 1740.2C1235.34 1748.4 1128.4 1733.28 1024.9 1696.48ZM1214.68 718.072C1180.45 705.901 1143.66 699.13 1102.22 697.381C987.066 692.931 872.163 719.198 786.965 769.437C715.061 808.391 668.102 853.628 643.428 907.723C618.566 959.817 610.173 1027.84 617.022 1121.78C610.186 1245.89 635.214 1360.11 683.975 1427.26C710.143 1471.56 740.696 1508.76 780.091 1544.29C827.493 1602.84 905.061 1653.3 1004.33 1690.1C1011 1692.66 1017.79 1695.17 1024.51 1697.56C1128.22 1734.44 1235.35 1749.58 1334.35 1741.36C1387.63 1748.28 1462.51 1746.65 1515.8 1699.63C1592.66 1645.29 1607.95 1574.31 1635.68 1445.43C1639.66 1426.95 1643.77 1407.83 1648.41 1387.16C1653.17 1360.49 1658.65 1336.07 1663.49 1314.53C1674.31 1266.39 1682.86 1228.37 1679.32 1189.6C1675.5 1147.75 1657.71 1109.24 1621.61 1064.74C1595.06 1021.27 1547.81 966.805 1488.61 911.459C1434.65 861.012 1378.08 816.94 1337.28 793.563C1297.32 757.608 1258.33 733.591 1214.68 718.072Z" fill="#EDE9F6"/>
<path d="M997.307 1682.56C900.893 1648.28 827.055 1598.29 783.778 1537.98C749.239 1502.91 722.257 1465.81 696.23 1417.6C651.716 1351.34 626.807 1242.2 629.563 1125.58C619.326 1032.41 624.728 965.477 646.554 914.86C668.34 861.739 714.18 815.509 782.816 777.426C869.826 725.066 987.191 698.544 1104.83 704.655C1143.45 706.788 1177.82 713.376 1209.91 724.784C1256.44 741.327 1297.81 767.966 1340.09 808.621C1419.86 857.804 1549.8 978.851 1604.47 1067.36C1678.72 1159.69 1668.63 1218.17 1651.9 1315.06C1648.65 1333.96 1645.27 1353.49 1642.19 1375.2C1638.97 1391.92 1636.06 1407.67 1633.22 1422.89C1609.8 1548.98 1596.9 1618.44 1524.27 1672.36C1472.87 1720.31 1398.37 1726.2 1344.92 1722.7C1233.74 1737.53 1116.42 1724.63 1005.51 1685.42C1002.75 1684.48 1000.02 1683.53 997.307 1682.56ZM1210.3 723.693C1178.07 712.236 1143.56 705.626 1104.8 703.484C986.891 697.359 869.252 723.948 782.05 776.426C713.211 814.619 667.207 861.03 645.334 914.366C623.438 965.143 618.012 1032.24 628.265 1125.53C625.499 1242.29 650.487 1351.69 695.1 1418.09C721.156 1466.36 748.205 1503.55 782.768 1538.63C826.146 1599.1 900.221 1649.27 996.92 1683.65C999.639 1684.62 1002.37 1685.57 1005.13 1686.51C1116.26 1725.8 1233.81 1738.72 1345.08 1723.87C1398.65 1727.39 1473.52 1721.46 1525.19 1673.25C1598.11 1619.12 1611.03 1549.52 1634.51 1423.18C1637.33 1407.95 1640.26 1392.22 1643.48 1375.47C1646.56 1353.75 1649.94 1334.23 1653.19 1315.34C1661.55 1266.93 1668.14 1228.69 1663.49 1190.07C1658.49 1148.41 1640.62 1110.4 1605.55 1066.79C1579.92 1025.28 1535.64 973.506 1480.92 921.063C1431.54 873.725 1379.18 831.368 1340.88 807.766C1298.57 767.058 1257.03 740.31 1210.3 723.693Z" fill="#EDE9F6"/>
<path d="M984.762 1674.01C893.585 1641.59 825.041 1592.42 786.541 1531.81C757.361 1498.27 732.927 1460.09 707.26 1407.92C666.726 1342.29 641.756 1238 640.437 1128.88C626.472 1035.14 628.797 971.118 647.978 921.209C667.271 868.162 710.83 822.117 777.449 784.329C866.508 729.809 986.695 703.049 1107.22 710.91C1143.45 713.384 1175.79 719.827 1206.09 730.599C1255.6 748.203 1299.35 777.583 1343.77 823.052C1417.4 872.113 1536.11 985.399 1588.92 1069.68C1661.5 1160.62 1654.56 1219.87 1643.07 1318.05C1641.38 1332.52 1639.62 1347.5 1638 1363.62C1636.1 1375.91 1634.31 1387.74 1632.59 1399.12C1613.8 1523.4 1603.45 1591.86 1534.48 1645.8C1484.69 1694.84 1410.09 1704.99 1356.27 1704.88C1239.65 1725.83 1118.79 1717.68 1006.61 1681.31C999.235 1679 991.885 1676.54 984.762 1674.01ZM1206.47 729.513C1176.05 718.695 1143.58 712.227 1107.2 709.742C986.402 701.867 865.932 728.686 776.673 783.333C709.842 821.233 666.118 867.476 646.742 920.748C627.499 970.823 625.155 1035.01 639.14 1128.87C640.458 1238.11 665.493 1342.62 706.107 1408.37C731.793 1460.59 756.284 1498.85 785.484 1532.4C824.093 1593.2 892.889 1642.56 984.377 1675.09C991.518 1677.63 998.884 1680.09 1006.28 1682.41C1118.67 1718.85 1239.78 1727.02 1356.5 1706.04C1410.44 1706.17 1485.39 1695.95 1535.43 1646.67C1604.68 1592.52 1615.05 1523.92 1633.88 1399.38C1635.6 1387.99 1637.39 1376.16 1639.3 1363.85C1640.92 1347.71 1642.67 1332.74 1644.37 1318.27C1650.11 1269.13 1654.66 1230.33 1648.76 1191.57C1642.4 1149.83 1624.28 1112.06 1590 1069.11C1537.14 984.753 1418.23 871.273 1344.6 822.224C1300.14 776.686 1256.21 747.195 1206.47 729.513Z" fill="#EDE9F6"/>
<path d="M975.174 1666.49C887.942 1635.48 823.712 1586.71 789.425 1525.45C761.02 1488.12 740.546 1447.56 718.533 1398.13C681.402 1332.03 657.048 1235.13 651.684 1132.24C639.839 1069.61 628.932 989.828 649.813 927.726C666.577 874.786 707.813 828.938 772.375 791.451C862.056 735.603 988.098 707.907 1109.55 717.36C1143.58 720.101 1174.05 726.385 1202.67 736.563C1255.7 755.417 1300.26 786.561 1347.12 837.561C1415.78 887.322 1522.75 993.293 1572.71 1071.87C1644.15 1162.22 1640.57 1223.12 1634.63 1324.04C1634.11 1332.96 1633.57 1342.18 1633.05 1351.75C1632.25 1358.91 1631.48 1365.94 1630.72 1372.8C1617.54 1492.3 1609.57 1564.43 1543.98 1618.82C1495.88 1668.88 1421.24 1683.33 1367.08 1686.64C1247.08 1713.44 1119.44 1709.96 1007.57 1676.86C996.524 1673.7 985.624 1670.21 975.174 1666.49ZM1203.06 735.477C1174.31 725.254 1143.72 718.942 1109.56 716.189C1052.61 711.761 992.841 715.468 936.692 726.919C874.471 739.606 818.924 760.978 771.593 790.456C706.801 828.077 665.403 874.124 648.561 927.304C627.606 989.628 638.531 1069.58 650.391 1132.27C655.756 1235.25 680.167 1332.33 717.354 1398.53C739.38 1448 759.89 1488.63 788.323 1525.98C822.724 1587.45 887.219 1636.44 974.788 1667.58C985.266 1671.3 996.197 1674.8 1007.27 1677.98C1063.05 1694.48 1122.19 1703.75 1183.06 1705.51C1244.73 1707.31 1306.75 1701.34 1367.39 1687.79C1421.66 1684.48 1496.63 1669.96 1544.95 1619.67C1610.83 1565.06 1618.8 1492.77 1632.02 1373.01C1632.77 1366.15 1633.55 1359.13 1634.35 1351.94C1634.86 1342.34 1635.41 1333.12 1635.93 1324.2C1641.89 1223.03 1645.48 1161.95 1573.79 1071.3C1523.78 992.648 1416.65 886.513 1347.99 836.763C1301.06 785.686 1256.33 754.417 1203.06 735.477Z" fill="#EDE9F6"/>
<path d="M967.19 1659.55C882.977 1629.61 822.338 1580.93 791.834 1518.77C765.806 1479.22 748.072 1434.94 729.3 1388.05C696.019 1322.1 671.64 1230.02 662.394 1135.38C647.16 1069.39 633.915 993.93 651.086 934.079C665.294 881.277 704.201 835.647 766.729 798.465C858.337 740.512 987.146 712.594 1111.31 723.772C1143.33 726.739 1172.07 732.864 1199.17 742.5C1254.94 762.328 1301.44 796.106 1349.92 852.022C1413.18 902.258 1507.5 998.961 1555.99 1073.98C1627.44 1165.28 1627.51 1229.49 1627.61 1335.88L1627.62 1339.74L1627.43 1342.84C1620.15 1463.36 1615.76 1536.11 1553.02 1591.61C1506.65 1642.6 1431.96 1661.36 1377.45 1668.13C1252.53 1701.11 1121.38 1702.5 1008.07 1672.08C994.004 1668.41 980.252 1664.2 967.19 1659.55ZM1199.56 741.413C1172.34 731.734 1143.48 725.585 1111.33 722.609C986.875 711.401 857.755 739.391 765.934 797.477C703.171 834.809 664.103 880.64 649.821 933.703C632.585 993.779 645.858 1069.4 661.107 1135.46C670.356 1230.16 694.781 1322.38 728.102 1388.41C746.876 1435.31 764.63 1479.64 790.687 1519.23C821.312 1581.65 882.226 1630.57 966.805 1660.64C979.906 1665.3 993.701 1669.52 1007.81 1673.2C1121.35 1703.69 1252.76 1702.29 1377.83 1669.27C1432.45 1662.49 1507.44 1643.65 1554.01 1592.44C1617.03 1536.69 1621.44 1463.78 1628.73 1343L1628.92 1339.88L1628.91 1335.98C1628.81 1229.35 1628.74 1164.99 1557.07 1073.42C1508.53 998.323 1414.08 901.478 1350.82 851.26C1302.27 795.243 1255.59 761.332 1199.56 741.413Z" fill="#EDE9F6"/>
<path d="M961.34 1654.4C879.542 1625.32 822.039 1576.49 795.038 1513.21C776.212 1479.58 763.05 1442.01 749.112 1402.25C746.451 1394.65 743.741 1386.92 740.938 1379.05C711.233 1312.35 686.871 1225.03 674.09 1139.46C656.177 1073.95 639.727 999.244 653.432 941.256C665.084 888.56 701.667 843.111 762.173 806.175C855.696 746.045 987.243 717.832 1114.06 730.706C1144.24 733.839 1171.39 739.798 1197.07 748.928C1255.47 769.694 1303.75 806.106 1353.58 866.988C1410.78 917.228 1493.12 1005.33 1539.99 1076.66C1607.85 1164.49 1616.54 1230.37 1622.78 1328.44C1622.91 1439.58 1620.07 1510.5 1562.58 1565.29C1517.96 1617.2 1443.22 1640.33 1388.37 1650.61C1258.67 1689.89 1124.06 1696.21 1009.25 1668.44C992.615 1664.51 976.497 1659.79 961.34 1654.4ZM1197.46 747.843C1171.66 738.672 1144.4 732.685 1114.1 729.537C986.974 716.64 855.118 744.922 761.373 805.195C700.618 842.285 663.868 887.954 652.156 940.926C638.399 999.135 654.88 1074.01 672.811 1139.58C685.596 1225.18 709.987 1312.61 739.72 1379.37C742.505 1387.19 745.214 1394.92 747.873 1402.51C761.829 1442.33 775.011 1479.94 793.855 1513.6C806.881 1544.14 827.351 1571.69 854.673 1595.44C883.433 1620.43 919.192 1640.63 960.955 1655.48C976.164 1660.89 992.333 1665.63 1009.02 1669.57C1124.07 1697.4 1258.95 1691.07 1388.8 1651.74C1443.77 1641.45 1518.79 1618.21 1563.59 1566.1C1621.36 1511.05 1624.21 1439.95 1624.08 1328.51C1617.83 1230.19 1609.12 1164.16 1541.07 1076.09C1494.16 1004.7 1411.71 916.481 1354.53 866.265C1304.6 805.254 1256.13 768.704 1197.46 747.843Z" fill="#EDE9F6"/>
<path d="M956.103 1648.43C876.147 1620 821.305 1570.85 797.518 1506.29C783.724 1476.78 774.227 1444.4 764.171 1410.12C760.241 1396.72 756.175 1382.87 751.71 1368.67C732.224 1318.13 704.794 1237.84 684.707 1142.12C662.955 1073.82 644.261 1002.95 654.572 947.016C663.626 894.444 697.914 849.197 756.476 812.539C852 750.27 986.426 721.835 1116.08 736.483C1144.2 739.714 1170.66 745.691 1194.73 754.248C1255.78 775.957 1305.79 815.023 1356.89 880.916C1403.71 926.851 1475.51 1006.07 1523.98 1078.39C1587.01 1161.07 1605.71 1225.76 1618.16 1316.23C1626.45 1423.3 1621.65 1487 1572.4 1538.02C1529.53 1590.74 1454.66 1618.25 1399.38 1632.04C1264.87 1677.58 1126.63 1688.76 1010.06 1663.54C991.162 1659.53 973.01 1654.44 956.103 1648.43ZM1195.11 753.163C1170.94 744.568 1144.36 738.565 1116.14 735.322C1055.99 728.528 992.128 731.193 931.45 743.026C865.495 755.892 804.707 779.595 755.667 811.561C696.84 848.386 662.391 893.865 653.285 946.738C642.937 1002.89 661.663 1073.91 683.444 1142.29C703.531 1238.03 730.984 1318.39 750.473 1368.93C754.922 1383.08 758.984 1396.94 762.917 1410.33C772.982 1444.65 782.491 1477.07 796.303 1506.62C807.781 1537.77 826.808 1565.72 852.845 1589.65C880.268 1614.85 914.877 1635 955.718 1649.52C972.687 1655.55 990.903 1660.65 1009.86 1664.68C1126.68 1689.96 1265.19 1678.76 1399.88 1633.16C1455.28 1619.33 1530.41 1591.72 1573.44 1538.8C1597.88 1513.49 1612.25 1483.61 1618.66 1444.78C1625.09 1405.78 1622.84 1359.95 1619.46 1316.22C1606.97 1225.52 1588.22 1160.68 1525.05 1077.82C1476.56 1005.45 1404.68 926.145 1357.87 880.237C1306.67 814.183 1256.45 774.972 1195.11 753.163Z" fill="#EDE9F6"/>
<path d="M951.811 1643.83C873.466 1615.97 821.118 1566.41 800.426 1500.49C790.403 1474.06 783.749 1445.37 776.703 1414.99C772.548 1397.09 768.253 1378.57 763.033 1359.48C758.857 1346.57 754.436 1333.09 749.846 1319.1C732.769 1267.06 713.416 1208.08 696.062 1146.07C667.516 1067.74 649.884 1005.15 656.569 954.15C663.023 901.724 694.98 856.68 751.556 820.278C847.517 756.81 988.09 727.399 1118.42 743.51C1144.98 746.845 1170.05 752.655 1192.91 760.785C1257.34 783.692 1307.35 824.117 1360.13 895.949C1380.56 918.665 1451.44 998.989 1507.59 1081.09C1563.39 1155.55 1593.9 1220.38 1612.95 1304.88C1625.74 1378.99 1630.8 1455.34 1581.58 1511.56C1549.09 1553.88 1489.75 1589.4 1409.96 1614.32C1270.88 1666.18 1129.18 1682.27 1010.94 1659.62C990.061 1655.67 970.167 1650.36 951.811 1643.83ZM1193.3 759.698C1170.33 751.532 1145.16 745.697 1118.49 742.355C1057.31 734.79 992.131 737.12 929.977 749.092C862.526 762.083 800.547 786.365 750.736 819.31C693.886 855.888 661.768 901.18 655.279 953.92C648.561 1005.13 666.228 1067.86 694.814 1146.3C712.161 1208.3 731.52 1267.29 748.601 1319.35C753.189 1333.33 757.609 1346.8 761.779 1359.69C766.983 1378.73 771.277 1397.24 775.43 1415.14C782.488 1445.55 789.151 1474.27 799.188 1500.75C809.171 1532.56 826.833 1560.95 851.677 1585.11C877.848 1610.57 911.408 1630.69 951.426 1644.91C969.854 1651.47 989.825 1656.8 1010.78 1660.77C1129.27 1683.46 1271.23 1667.36 1410.51 1615.42C1490.5 1590.44 1550.04 1554.78 1582.65 1512.31C1604.27 1487.62 1616.89 1458.11 1621.19 1422.12C1624.91 1391.09 1622.7 1353.8 1614.23 1304.77C1595.14 1220.06 1564.56 1155.11 1508.66 1080.51C1452.49 998.374 1381.55 917.994 1361.15 895.315C1308.24 823.288 1258.02 782.711 1193.3 759.698Z" fill="#EDE9F6"/>
<path d="M948.038 1639.41C872.063 1612.39 820.582 1560.92 803.077 1494.47C795.98 1470.4 791.581 1444.49 786.923 1417.05C783.248 1395.4 779.449 1373.02 774.058 1349.92C759.477 1293.86 736.54 1230.71 712.263 1163.86L707.033 1149.45C679.993 1083.86 653.953 1015.25 658.136 960.548C661.972 908.228 691.633 863.349 746.299 827.163C844.221 761.504 987.719 731.797 1120.8 749.634C1145.95 753.041 1169.74 758.696 1191.51 766.437C1275.74 796.384 1325.8 855.929 1363.66 910.226C1388.95 942.645 1439.19 1008.18 1491.65 1083.21C1536.22 1143.91 1581.2 1211.34 1608.32 1293.16C1633.21 1377.24 1627.81 1438.18 1591.32 1484.91C1559.8 1528.4 1502.47 1565.94 1420.92 1596.49C1277.21 1654.74 1131.91 1675.74 1011.8 1655.63C989.104 1651.84 967.652 1646.38 948.038 1639.41ZM1191.9 765.352C1170.03 757.576 1146.13 751.897 1120.88 748.473C987.481 730.598 843.633 760.378 745.469 826.201C690.518 862.573 660.696 907.719 656.836 960.367C652.637 1015.31 678.725 1084.05 705.805 1149.75L711.027 1164.13C735.3 1230.96 758.223 1294.08 772.787 1350.08C778.17 1373.13 781.965 1395.5 785.635 1417.13C790.302 1444.6 794.706 1470.55 801.818 1494.66C810.387 1527.19 826.789 1556.1 850.566 1580.56C875.622 1606.33 908.285 1626.5 947.651 1640.49C967.345 1647.5 988.886 1652.98 1011.67 1656.78C1132.04 1676.93 1277.6 1655.91 1421.52 1597.58C1503.28 1566.95 1560.78 1529.28 1592.42 1485.62C1629.12 1438.62 1634.57 1377.39 1609.56 1292.93C1582.39 1210.94 1537.36 1143.4 1492.73 1082.64C1440.25 1007.6 1390 942.04 1364.73 909.641C1326.76 855.185 1276.52 795.44 1191.9 765.352Z" fill="#EDE9F6"/>
<path d="M944.857 1635.2C869.956 1608.57 820.61 1556.46 805.906 1488.48C801.159 1466.35 798.606 1442.66 795.901 1417.58C793.22 1392.68 790.446 1366.93 785.28 1340.42C775.256 1288.97 755.203 1232.9 718.229 1152.93C686.905 1085.08 658.882 1019.81 659.959 967.079C661.166 914.881 688.524 870.175 741.281 834.196C841.136 766.342 987.516 736.341 1123.3 755.896C1147.12 759.35 1169.71 764.845 1190.46 772.219C1277.85 803.292 1328.86 866.69 1367.23 924.605C1373.46 934.037 1379.82 943.718 1386.34 953.644C1412.31 993.197 1441.75 1038.03 1475.69 1085.39C1483.72 1096.61 1492.14 1108.13 1500.28 1119.27C1538.28 1171.32 1577.58 1225.14 1603.62 1281.46C1634.29 1347.86 1633.36 1410.64 1600.99 1458.22C1570.92 1502.21 1514.02 1542.73 1431.86 1578.63C1283.6 1643.28 1134.76 1669.21 1012.75 1651.64C988.398 1648.09 965.554 1642.56 944.857 1635.2ZM1190.84 771.131C1170.01 763.724 1147.32 758.207 1123.4 754.734C987.285 735.136 840.546 765.215 740.441 833.241C687.386 869.419 659.872 914.407 658.66 966.954C657.58 1019.91 685.654 1085.33 717.034 1153.3C753.965 1233.18 773.994 1289.17 783.997 1340.52C789.154 1366.99 791.927 1392.72 794.608 1417.6C797.313 1442.71 799.87 1466.42 804.632 1488.6C811.832 1521.89 827.03 1551.34 849.812 1576.13C873.822 1602.25 905.667 1622.49 944.471 1636.29C965.262 1643.68 988.203 1649.23 1012.65 1652.8C1073.41 1661.54 1141.05 1659.52 1213.71 1646.78C1285.79 1634.14 1359.4 1611.57 1432.51 1579.7C1514.86 1543.7 1571.93 1503.06 1602.12 1458.89C1634.69 1411 1635.66 1347.85 1604.81 1281.09C1578.73 1224.66 1539.39 1170.79 1501.35 1118.69C1493.21 1107.55 1484.8 1096.03 1476.77 1084.82C1442.83 1037.48 1413.41 992.659 1387.44 953.112C1380.93 943.193 1374.56 933.504 1368.33 924.07C1329.83 865.956 1278.65 802.349 1190.84 771.131Z" fill="#EDE9F6"/>
<path d="M948.088 1620.97C873.516 1594.45 824.607 1544.08 810.371 1479.13C805.316 1456.13 802.77 1431.82 800.078 1406.09C797.68 1383.19 795.201 1359.5 790.757 1334.96C788.634 1323.47 785.901 1311.33 782.637 1298.9C771.813 1257.67 755.091 1212.5 728.423 1152.45C699.286 1086.55 673.278 1023.16 675.033 971.778C676.879 920.996 703.702 877.499 754.756 842.493C813.579 802.103 887.601 776.372 968.818 768.075C1020.83 762.316 1075.52 763.645 1126.98 771.911C1149.68 775.416 1171.31 780.79 1191.25 787.88C1244.84 806.932 1289.39 838.866 1331.46 888.375C1342.95 901.982 1354.44 917.124 1366.58 934.662C1376.2 948.393 1385.97 962.529 1396.31 977.493C1419.5 1011.03 1445.77 1049.05 1474.84 1088.75C1479.61 1095.22 1484.43 1101.73 1489.29 1108.28C1522.27 1152.79 1556.39 1198.82 1582.33 1246.71C1588.5 1258.08 1594.06 1269.29 1598.85 1280.03C1627.82 1344.57 1626.46 1405.79 1595.01 1452.42C1565.6 1495.9 1510.51 1535.8 1431.29 1571.02C1378.33 1595.06 1321.34 1613.55 1261.89 1625.99C1220.52 1634.87 1178.55 1640.55 1137.14 1642.86C1095.57 1645.15 1057.03 1643.42 1015.86 1637.42C991.644 1633.88 968.84 1628.35 948.088 1620.97ZM1191.64 786.797C1171.61 779.675 1149.89 774.274 1127.1 770.757C1075.51 762.467 1020.69 761.142 968.559 766.912C887.129 775.231 812.902 801.035 753.912 841.537C702.567 876.74 675.592 920.515 673.733 971.64C671.969 1023.25 698.025 1086.78 727.219 1152.8C753.861 1212.8 770.562 1257.91 781.373 1299.07C784.628 1311.48 787.355 1323.59 789.475 1335.06C793.909 1359.56 796.385 1383.22 798.781 1406.1C801.477 1431.86 804.026 1456.19 809.096 1479.26C823.43 1544.66 872.655 1595.37 947.701 1622.05C968.547 1629.46 991.443 1635.02 1015.75 1638.58C1057.03 1644.59 1095.66 1646.32 1137.33 1644.03C1178.81 1641.72 1220.85 1636.03 1262.29 1627.13C1321.82 1614.67 1378.91 1596.15 1431.95 1572.08C1511.37 1536.78 1566.61 1496.74 1596.14 1453.09C1627.79 1406.15 1629.19 1344.56 1600.06 1279.67C1595.25 1268.91 1589.67 1257.67 1583.49 1246.27C1557.51 1198.3 1523.37 1152.24 1490.35 1107.68C1485.5 1101.14 1480.67 1094.63 1475.91 1088.16C1446.85 1048.47 1421.71 1012.11 1397.4 976.936C1387.06 961.97 1377.29 947.834 1367.66 934.102C1355.5 916.529 1343.99 901.358 1332.47 887.722C1290.23 838.007 1245.48 805.941 1191.64 786.797Z" fill="#EDE9F6"/>
<path d="M950.806 1606.55C876.698 1580.2 828.306 1531.63 814.549 1469.78C809.162 1445.85 806.648 1420.95 803.986 1394.58C801.88 1373.72 799.705 1352.15 795.956 1329.67C794.024 1318.54 791.522 1306.76 788.519 1294.63C778.562 1254.4 763.101 1210.51 738.385 1152.31C711.453 1088.46 687.481 1027.01 689.911 977.031C692.4 927.714 718.655 885.475 767.96 851.484C825.887 811.298 898.147 787.104 976.924 781.509C1026.88 777.106 1078.38 779.533 1130.03 788.73C1151.57 792.27 1172.17 797.509 1191.27 804.299C1243.67 822.93 1287.78 853.742 1330.1 901.268C1341.57 914.272 1353 928.691 1365.07 945.352C1379.41 964.622 1394.19 984.963 1409.83 1006.5C1429.73 1033.89 1450.3 1062.21 1473.04 1092.58L1475.48 1095.8C1512.03 1143.98 1549.81 1193.81 1577.42 1246.35C1583.24 1257.4 1588.5 1268.34 1593.03 1278.85C1620.26 1341.46 1618.48 1401.06 1587.98 1446.68C1559.27 1489.61 1506.06 1528.86 1429.84 1563.35C1378.96 1587.35 1324.03 1604.57 1261.89 1616.01C1221.76 1623.83 1181.33 1628.49 1138.29 1630.27C1099.26 1631.82 1063.43 1629.65 1018.48 1623.03C994.403 1619.5 971.635 1613.96 950.806 1606.55ZM1191.65 803.212C1172.47 796.392 1151.78 791.133 1130.16 787.575C1078.4 778.362 1026.77 775.929 976.7 780.346C897.7 785.952 825.22 810.218 767.111 850.531C717.528 884.719 691.115 927.226 688.611 976.88C686.171 1027.08 710.193 1088.67 737.176 1152.65C761.866 1210.78 777.309 1254.62 787.251 1294.79C790.248 1306.89 792.742 1318.65 794.67 1329.75C798.412 1352.19 800.589 1373.74 802.691 1394.58C805.353 1420.98 807.873 1445.92 813.274 1469.91C820.04 1500.33 835.226 1527.71 858.417 1551.29C882.127 1575.4 913.083 1594.36 950.42 1607.64C971.341 1615.07 994.206 1620.64 1018.38 1624.19C1063.42 1630.82 1099.34 1632.99 1138.46 1631.44C1181.57 1629.65 1222.06 1624.99 1262.26 1617.16C1324.51 1605.7 1379.54 1588.44 1430.51 1564.4C1506.92 1529.82 1560.29 1490.44 1589.11 1447.35C1619.81 1401.43 1621.63 1341.47 1594.23 1278.51C1589.69 1267.97 1584.42 1257.01 1578.58 1245.93C1550.93 1193.3 1513.11 1143.43 1476.53 1095.19L1474.1 1091.98C1451.37 1061.63 1430.8 1033.31 1410.9 1005.92C1395.26 984.378 1380.48 964.036 1366.14 944.761C1354.05 928.082 1342.59 913.63 1331.1 900.588C1288.61 852.872 1244.3 821.929 1191.65 803.212Z" fill="#EDE9F6"/>
<path d="M953.337 1592.07C880.681 1566.23 831.489 1518.17 818.37 1460.19C812.603 1435.23 810.14 1409.68 807.531 1382.63C805.716 1363.81 803.84 1344.35 800.735 1323.95C798.98 1313.18 796.702 1301.72 793.96 1289.9C784.848 1250.63 770.608 1207.95 747.786 1151.54C722.994 1089.64 700.995 1030.07 704.092 981.414C707.215 933.503 732.95 892.477 780.572 859.475C837.699 819.459 908.318 796.789 984.804 793.91C1031.99 790.899 1081.89 794.482 1133.13 804.544C1153.52 808.117 1173.11 813.225 1191.37 819.716C1242.7 837.966 1286.49 867.719 1329.21 913.35C1340.67 925.784 1352.08 939.501 1364.09 955.288C1385.57 982.399 1408.16 1012.11 1432.08 1043.55C1444.87 1060.38 1458.1 1077.78 1471.99 1095.87C1508.56 1142.62 1546.52 1192.69 1573.48 1245.66C1578.99 1256.44 1583.95 1267.12 1588.22 1277.41C1613.79 1338.16 1611.59 1396.21 1582 1440.87C1553.93 1483.29 1502.51 1521.92 1429.17 1555.7C1379.82 1579.85 1326.83 1595.86 1262.38 1606.09C1224.13 1612.73 1184.01 1616.53 1139.71 1617.71C1098.18 1618.72 1064.8 1615.15 1021.16 1608.65C997.14 1605.1 974.323 1599.53 953.337 1592.07ZM1191.75 818.631C1173.42 812.112 1153.75 806.988 1133.28 803.4C1081.93 793.317 1031.91 789.728 984.619 792.741C907.896 795.624 837.038 818.373 779.72 858.527C731.822 891.718 705.938 933.009 702.796 981.248C699.679 1030.12 721.719 1089.83 746.563 1151.85C769.364 1208.21 783.588 1250.83 792.687 1290.04C795.423 1301.84 797.695 1313.27 799.448 1324.02C802.542 1344.38 804.422 1363.83 806.235 1382.63C808.845 1409.72 811.313 1435.3 817.095 1460.33C830.311 1518.74 879.828 1567.15 952.951 1593.15C974.027 1600.65 996.943 1606.25 1021.06 1609.8C1064.77 1616.32 1098.22 1619.89 1139.86 1618.88C1184.23 1617.7 1224.42 1613.89 1262.72 1607.24C1327.29 1597 1380.4 1580.95 1429.85 1556.74C1503.38 1522.88 1554.95 1484.12 1583.14 1441.53C1612.91 1396.57 1615.15 1338.17 1589.43 1277.07C1585.15 1266.77 1580.18 1256.06 1574.66 1245.25C1547.64 1192.18 1509.64 1142.05 1473.03 1095.26C1459.15 1077.17 1445.92 1059.77 1433.13 1042.95C1409.21 1011.49 1386.62 981.786 1365.13 954.679C1353.1 938.862 1341.66 925.114 1330.18 912.646C1287.3 866.836 1243.31 836.964 1191.75 818.631Z" fill="#EDE9F6"/>
<path d="M955.509 1578.48C883.451 1552.86 834.902 1506.6 822.31 1451.57C816.17 1425.48 813.82 1399.26 811.33 1371.5C809.826 1354.73 808.27 1337.38 805.798 1319.11C804.24 1308.69 802.2 1297.56 799.728 1286.02C791.519 1247.68 778.566 1206.21 757.725 1151.53C736.07 1093.97 715.243 1033.82 719.065 986.477C722.867 939.923 748.07 900.049 793.973 867.963C850.242 828.027 919.135 806.792 993.203 806.55C1037.44 804.848 1085.65 809.532 1136.5 820.468C1155.67 824.05 1174.18 828.989 1191.51 835.153C1241.7 852.996 1285.12 881.685 1328.16 925.435C1339.57 937.284 1350.92 950.303 1362.86 965.235C1396.45 1005.07 1432.36 1050.77 1470.37 1099.16C1504.25 1141.2 1542.41 1191.4 1568.66 1245C1573.84 1255.51 1578.48 1265.93 1582.47 1275.99C1606.29 1334.91 1603.61 1391.47 1574.93 1435.25C1547.52 1477.22 1497.93 1515.31 1427.55 1548.48C1379.47 1572.99 1328.46 1587.89 1262.13 1596.8C1225.51 1602.43 1186.88 1605.33 1140.58 1605.92C1098.1 1606.36 1066.32 1601.58 1026.07 1595.53L1023.49 1595.14C999.527 1591.61 976.659 1586 955.509 1578.48ZM1191.9 834.066C1174.49 827.876 1155.91 822.913 1136.68 819.325C1085.72 808.367 1037.4 803.674 993.063 805.38C918.741 805.616 849.595 826.933 793.118 867.018C746.947 899.289 721.592 939.419 717.766 986.29C713.93 1033.85 734.796 1094.15 756.496 1151.82C777.317 1206.44 790.255 1247.87 798.453 1286.15C800.917 1297.67 802.956 1308.78 804.508 1319.16C806.978 1337.39 808.531 1354.73 810.033 1371.5C812.526 1399.3 814.879 1425.56 821.037 1451.71C833.727 1507.18 882.601 1553.78 955.122 1579.57C976.364 1587.12 999.328 1592.75 1023.38 1596.3L1025.96 1596.69C1066.27 1602.74 1098.11 1607.53 1140.71 1607.1C1187.08 1606.5 1225.76 1603.6 1262.44 1597.96C1328.91 1589.03 1380.05 1574.09 1428.24 1549.52C1498.8 1516.27 1548.54 1478.04 1576.07 1435.9C1604.94 1391.84 1607.64 1334.94 1583.69 1275.68C1579.69 1265.59 1575.03 1255.13 1569.85 1244.6C1543.54 1190.89 1505.33 1140.63 1471.41 1098.54C1433.39 1050.15 1397.48 1004.43 1363.87 964.589C1351.93 949.642 1340.56 936.589 1329.1 924.704C1285.9 880.784 1242.3 851.987 1191.9 834.066Z" fill="#EDE9F6"/>
<path d="M958.264 1564.08C886.825 1538.68 838.9 1494.29 826.772 1442.28C820.192 1415.05 817.968 1388.22 815.614 1359.81C814.398 1345.11 813.143 1329.92 811.223 1313.87C809.829 1303.67 808.059 1293.19 805.822 1281.81C798.474 1244.49 786.751 1204.28 767.814 1151.44C748.227 1095.85 729.482 1037.72 733.974 991.743C738.409 946.655 763.056 908.044 807.23 876.995C862.63 837.284 929.808 817.602 1001.51 820.079C1043.3 819.667 1088.55 825.337 1139.88 837.415C1157.8 840.989 1175.18 845.757 1191.57 851.583C1240.69 869.048 1283.83 896.675 1327.34 938.527C1338.74 949.782 1350.05 962.089 1361.92 976.139C1392.42 1009.92 1425.53 1049.12 1469.27 1103.26C1513.99 1156.88 1544.27 1201.9 1564.58 1244.95C1569.44 1255.15 1573.78 1265.31 1577.5 1275.13C1599.63 1332.12 1596.55 1387.05 1568.82 1429.83C1542.46 1470.66 1493.38 1509.12 1426.91 1541.07C1367.46 1572.47 1307.99 1582.13 1262.84 1587.05C1218.3 1592.9 1175.04 1593.57 1142.32 1593.51C1105.71 1593.31 1077.93 1588.94 1045.77 1583.88C1039.61 1582.91 1033.26 1581.91 1026.61 1580.9C1002.64 1577.34 979.651 1571.68 958.264 1564.08ZM1191.96 850.496C1175.5 844.645 1158.05 839.86 1140.08 836.275C1088.66 824.178 1043.29 818.497 1001.41 818.906C929.448 816.42 861.992 836.18 806.373 876.048C761.939 907.286 737.14 946.148 732.68 991.544C728.166 1037.74 746.952 1095.99 766.576 1151.7C785.494 1204.5 797.204 1244.66 804.54 1281.91C806.775 1293.27 808.541 1303.74 809.929 1313.91C811.844 1329.93 813.102 1345.11 814.318 1359.79C816.674 1388.25 818.897 1415.12 825.5 1442.43C837.725 1494.86 885.976 1539.6 957.878 1565.16C979.356 1572.8 1002.45 1578.48 1026.5 1582.05C1033.15 1583.06 1039.5 1584.07 1045.65 1585.03C1077.87 1590.1 1105.7 1594.49 1142.42 1594.68C1175.19 1594.74 1218.52 1594.07 1263.11 1588.21C1308.38 1583.28 1367.99 1573.59 1427.62 1542.1C1494.26 1510.08 1543.49 1471.48 1569.95 1430.48C1597.87 1387.43 1600.99 1332.15 1578.72 1274.84C1575 1264.99 1570.65 1254.8 1565.78 1244.57C1545.41 1201.43 1515.08 1156.32 1470.29 1102.62C1426.54 1048.46 1393.43 1009.25 1362.91 975.466C1351.04 961.399 1339.7 949.064 1328.26 937.776C1284.59 895.767 1241.28 868.034 1191.96 850.496Z" fill="#EDE9F6"/>
<path d="M960.459 1549.47C890.864 1524.73 842.492 1481.12 831.052 1432.82C824.018 1404.36 822.001 1376.9 819.864 1347.83C818.937 1335.21 817.974 1322.15 816.575 1308.34C815.372 1298.52 813.83 1288.36 811.865 1277.27C805.499 1241.44 794.732 1201.29 777.975 1150.92C760.508 1097.26 743.894 1041.13 749.098 996.455C754.193 952.78 778.292 915.381 820.724 885.3C875.235 845.744 940.663 827.548 1009.94 832.681C1049.01 833.49 1091.36 840.056 1143.26 853.353C1159.86 856.888 1176.04 861.445 1191.39 866.902C1239.44 883.986 1282.31 910.578 1326.31 950.578C1337.68 961.24 1348.94 972.831 1360.72 986.022C1394.09 1020.51 1429.08 1059.87 1467.72 1106.38C1509.51 1154.83 1540.52 1201.11 1559.88 1243.98C1564.4 1253.89 1568.44 1263.79 1571.88 1273.38C1592.27 1328.48 1588.74 1381.85 1561.94 1423.68C1536.24 1464.02 1489.08 1501.88 1425.55 1533.14C1368.37 1564.5 1311.24 1572.87 1262.9 1576.93C1222.16 1581.4 1181.44 1581.45 1143.52 1580.83C1110.91 1580.19 1086.94 1576.1 1059.18 1571.38C1049.76 1569.77 1040.03 1568.12 1029.29 1566.47C1005.29 1562.9 982.13 1557.18 960.459 1549.47ZM1191.77 865.814C1176.36 860.334 1160.11 855.76 1143.49 852.221C1091.5 838.9 1049.04 832.321 1009.9 831.515C940.335 826.351 874.609 844.628 819.86 884.358C777.179 914.617 752.937 952.257 747.804 996.235C742.578 1041.12 759.227 1097.39 776.731 1151.16C793.469 1201.48 804.224 1241.59 810.58 1277.36C812.545 1288.43 814.082 1298.57 815.282 1308.35C816.68 1322.14 817.639 1335.19 818.567 1347.81C820.705 1376.92 822.727 1404.42 829.783 1432.97C835.686 1457.9 850.595 1481.09 874.089 1501.89C896.439 1521.68 926.174 1538.51 960.073 1550.56C981.836 1558.3 1005.09 1564.04 1029.18 1567.62C1039.91 1569.27 1049.64 1570.93 1059.05 1572.53C1086.86 1577.27 1110.89 1581.36 1143.61 1582C1181.58 1582.62 1222.34 1582.57 1263.14 1578.09C1311.61 1574.03 1368.9 1565.62 1426.27 1534.16C1489.96 1502.82 1537.27 1464.84 1563.08 1424.33C1590.06 1382.21 1593.63 1328.51 1573.11 1273.11C1569.66 1263.49 1565.61 1253.56 1561.07 1243.62C1541.67 1200.65 1510.59 1154.25 1468.74 1105.73C1430.07 1059.19 1395.06 1019.81 1361.69 985.316C1349.9 972.119 1338.61 960.494 1327.2 949.802C1283.04 909.651 1240.02 882.966 1191.77 865.814Z" fill="#EDE9F6"/>
<path d="M962.837 1534.94C894.098 1510.5 846.527 1468.81 835.58 1423.43C828.05 1393.68 826.372 1366.93 824.426 1335.96C823.763 1325.38 823.079 1314.43 822.115 1302.86C821.1 1293.38 819.779 1283.55 818.084 1272.79C812.588 1237.96 803.103 1199.08 788.239 1150.43C772.854 1098.71 758.328 1044.57 764.242 1001.17C769.996 958.902 793.552 922.716 834.265 893.624C887.922 854.235 951.654 837.548 1018.57 845.369C1064.78 847.866 1111.46 859.53 1146.98 869.409C1162.18 872.88 1177.09 877.196 1191.33 882.256C1238.41 898.997 1281.14 924.603 1325.81 962.83C1337.17 972.897 1348.39 983.787 1360.1 996.109C1395.91 1030.52 1430.84 1067.68 1466.89 1109.76C1506.71 1154.26 1537.53 1200.44 1556.01 1243.31C1560.21 1252.94 1563.94 1262.57 1567.11 1271.95C1585.81 1325.13 1581.85 1376.95 1555.96 1417.85C1524.32 1468.21 1467.27 1504.18 1425 1525.49C1369.67 1556.94 1314.75 1564.05 1263.64 1567.05C1224.82 1570.42 1187.08 1569.63 1145.31 1568.35C1115.5 1567.32 1094.24 1563.33 1069.62 1558.71C1058.13 1556.56 1046.25 1554.33 1032.44 1552.19C1008.31 1548.59 984.891 1542.78 962.837 1534.94ZM1191.71 881.175C1177.42 876.095 1162.46 871.757 1147.23 868.282C1111.67 858.391 1064.89 846.704 1018.57 844.202C951.361 836.348 887.31 853.111 833.398 892.686C792.444 921.951 768.74 958.374 762.952 1000.94C757.01 1044.54 771.562 1098.81 786.983 1150.65C801.835 1199.24 811.308 1238.08 816.797 1272.86C818.489 1283.6 819.806 1293.41 820.82 1302.86C821.781 1314.41 822.467 1325.35 823.13 1335.92C825.077 1366.95 826.754 1393.75 834.315 1423.59C845.356 1469.39 893.259 1511.42 962.451 1536.02C984.599 1543.9 1008.11 1549.73 1032.34 1553.35C1046.11 1555.48 1057.98 1557.71 1069.46 1559.86C1094.14 1564.49 1115.46 1568.49 1145.37 1569.52C1187.2 1570.81 1224.98 1571.59 1263.85 1568.22C1315.11 1565.2 1370.21 1558.07 1425.73 1526.51C1468.11 1505.15 1525.33 1469.06 1557.11 1418.49C1583.17 1377.32 1587.16 1325.19 1568.36 1271.69C1565.18 1262.28 1561.43 1252.62 1557.22 1242.96C1538.68 1199.98 1507.79 1153.68 1467.88 1109.08C1431.81 1066.99 1396.86 1029.79 1361.03 995.369C1349.32 983.042 1338.08 972.125 1326.68 962.02C1281.86 923.666 1238.97 897.979 1191.71 881.175Z" fill="#EDE9F6"/>
<path d="M964.099 1521.03C896.301 1496.92 849.571 1457.17 839.102 1414.69C831.025 1383.63 829.657 1356.38 828.074 1324.84C827.642 1316.25 827.195 1307.38 826.595 1298.02C825.762 1288.9 824.659 1279.39 823.227 1268.94C818.586 1235.12 810.366 1197.5 797.362 1150.56C784.017 1100.77 771.547 1048.64 778.175 1006.5C784.576 965.628 807.609 930.656 846.625 902.564C899.462 863.362 961.543 848.205 1026.16 858.729C1064.87 862.255 1103.57 872.257 1149.79 886.195C1163.51 889.55 1177.04 893.589 1190.05 898.213C1236.29 914.655 1279.05 939.333 1324.62 975.871C1336 985.353 1347.19 995.544 1358.82 1007.01C1396.52 1040.51 1431.42 1075.5 1465.54 1113.99C1504.23 1155.56 1534.04 1200.34 1551.77 1243.54C1555.65 1252.88 1559.09 1262.25 1561.99 1271.4C1579.03 1322.7 1574.66 1372.96 1549.66 1412.92C1518.84 1462.67 1464.34 1497.91 1424.04 1518.71C1373.23 1548.59 1323.26 1556.01 1263.84 1557.98C1226.77 1560.32 1190.37 1558.65 1151.84 1556.88L1146.43 1556.63C1118.67 1555.26 1099.42 1551.25 1077.14 1546.61C1064.31 1543.94 1051.04 1541.18 1034.82 1538.65C1010.45 1534.98 986.662 1529.05 964.099 1521.03ZM1190.43 897.13C1177.38 892.49 1163.8 888.434 1150.07 885.077C1103.8 871.121 1065.01 861.1 1026.24 857.568C961.291 846.993 898.864 862.225 845.754 901.63C806.505 929.89 783.329 965.086 776.884 1006.23C770.226 1048.58 782.724 1100.84 796.098 1150.74C809.09 1197.64 817.299 1235.21 821.935 1268.98C823.367 1279.42 824.463 1288.91 825.295 1298C825.894 1307.34 826.344 1316.21 826.773 1324.79C828.36 1356.4 829.73 1383.69 837.833 1414.85C848.403 1457.75 895.464 1497.85 963.714 1522.11C986.365 1530.17 1010.25 1536.12 1034.71 1539.8C1050.88 1542.32 1064.13 1545.08 1076.95 1547.75C1099.29 1552.4 1118.6 1556.42 1146.47 1557.81L1151.89 1558.05C1190.46 1559.82 1226.9 1561.49 1264.02 1559.14C1323.62 1557.18 1373.78 1549.72 1424.79 1519.72C1465.18 1498.87 1519.86 1463.51 1550.81 1413.56C1575.96 1373.33 1580.38 1322.76 1563.23 1271.16C1560.33 1261.99 1556.88 1252.59 1552.98 1243.21C1535.21 1199.89 1505.31 1154.97 1466.52 1113.29C1432.37 1074.78 1397.43 1039.76 1359.72 1006.24C1348.08 994.769 1336.86 984.555 1325.46 975.034C1279.73 938.384 1236.84 913.629 1190.43 897.13Z" fill="#EDE9F6"/>
<path d="M965.568 1506.17C899.048 1482.51 853.4 1444.77 843.469 1405.19C834.871 1372.87 833.917 1345.25 832.81 1313.26C832.578 1306.6 832.339 1299.7 832.027 1292.47C831.38 1283.7 830.507 1274.53 829.35 1264.4C825.597 1231.62 818.687 1195.29 807.594 1150.05C796.352 1102.24 785.989 1052.13 793.36 1011.24C800.43 971.772 822.909 938.018 860.17 910.916C912.108 871.878 972.429 858.209 1034.62 871.383C1071.98 876.282 1108.86 887.73 1153.2 902.181C1165.23 905.341 1177.17 909.026 1188.73 913.135C1234.13 929.279 1276.99 953.055 1323.61 987.969C1334.97 996.859 1346.11 1006.33 1357.63 1016.93C1396.76 1049.02 1431.55 1081.8 1463.99 1117.14C1501.06 1155.4 1530.55 1199.94 1547.05 1242.58C1550.61 1251.64 1553.74 1260.75 1556.35 1269.65C1571.68 1319.02 1566.85 1367.71 1542.78 1406.75C1512.8 1455.91 1460.92 1490.44 1422.69 1510.75C1373.3 1540.85 1323.51 1547.34 1263.94 1547.82C1231.1 1549.11 1198.84 1547.1 1164.67 1544.96C1159.06 1544.61 1153.4 1544.26 1147.69 1543.92C1121.51 1542.24 1103.02 1537.96 1083.45 1533.44C1069.81 1530.28 1055.7 1527.02 1037.57 1524.17C1012.91 1520.44 988.689 1514.39 965.568 1506.17ZM1189.12 912.045C1177.52 907.923 1165.54 904.234 1153.5 901.072C1109.14 886.607 1072.19 875.139 1034.76 870.233C972.219 856.986 911.524 870.727 859.298 909.984C821.81 937.251 799.192 971.224 792.071 1010.95C784.668 1052.04 795.052 1102.27 806.322 1150.2C817.405 1195.4 824.31 1231.69 828.056 1264.42C829.209 1274.53 830.084 1283.7 830.725 1292.44C831.04 1299.64 831.275 1306.53 831.507 1313.2C832.615 1345.25 833.576 1372.93 842.199 1405.36C852.238 1445.35 898.213 1483.44 965.182 1507.25C988.392 1515.5 1012.71 1521.59 1037.46 1525.33C1055.53 1528.17 1069.61 1531.42 1083.22 1534.57C1102.86 1539.11 1121.41 1543.4 1147.71 1545.08C1153.43 1545.43 1159.08 1545.78 1164.69 1546.13C1198.89 1548.27 1231.2 1550.29 1264.08 1548.99C1323.86 1548.51 1373.85 1541.99 1423.44 1511.75C1461.78 1491.39 1513.82 1456.75 1543.93 1407.39C1568.16 1368.09 1573.02 1319.1 1557.61 1269.44C1554.99 1260.51 1551.85 1251.36 1548.27 1242.28C1531.72 1199.49 1502.13 1154.8 1464.95 1116.42C1432.48 1081.05 1397.65 1048.23 1358.49 1016.12C1346.97 1005.53 1335.81 996.026 1324.4 987.104C1277.65 952.088 1234.67 928.241 1189.12 912.045Z" fill="#EDE9F6"/>
<path d="M967.051 1491.31C900.993 1467.82 857.623 1433 848.067 1395.76C838.937 1362.26 838.488 1335.73 837.919 1302.14C837.839 1297.25 837.751 1292.21 837.639 1286.98C837.178 1278.54 836.523 1269.68 835.642 1259.9C832.764 1228.21 827.138 1193.15 817.928 1149.57C809.144 1105.76 800.449 1055.68 808.573 1016C816.307 977.942 838.246 945.409 873.775 919.304C924.842 880.454 983.454 868.3 1043.28 884.144C1076.89 890.052 1111.02 902.101 1147.14 914.863L1156.94 918.32C1167.05 921.18 1177.14 924.393 1186.97 927.887C1231.75 943.81 1275.02 966.813 1323.13 1000.29C1334.5 1008.58 1345.6 1017.35 1357.02 1027.09C1398 1057.92 1431.72 1087.61 1463.16 1120.56C1499.33 1156.32 1527.75 1199.42 1543.19 1241.93C1546.43 1250.7 1549.26 1259.54 1551.59 1268.23C1565.23 1315.67 1559.98 1362.79 1536.81 1400.91C1507.66 1449.47 1458.37 1483.26 1422.16 1503.05C1368.7 1536.78 1315.08 1538.75 1264.73 1537.88C1235.3 1538.31 1206.35 1535.95 1175.72 1533.45C1167.11 1532.74 1158.39 1532.03 1149.52 1531.37C1124.54 1529.4 1107.39 1525 1089.24 1520.34C1075.12 1516.71 1060.52 1512.96 1040.78 1509.83C1016.04 1506.07 990.545 1499.66 967.051 1491.31ZM1187.35 926.802C1177.5 923.298 1167.38 920.071 1157.27 917.219L1147.53 913.777C1111.34 900.997 1077.16 888.924 1043.48 883.009C983.288 867.061 924.277 879.286 872.892 918.379C837.153 944.636 815.08 977.376 807.294 1015.69C799.132 1055.56 807.841 1105.76 816.65 1149.69C825.85 1193.23 831.472 1228.25 834.34 1259.9C835.228 1269.66 835.88 1278.5 836.336 1286.91C836.451 1292.13 836.537 1297.17 836.618 1302.06C837.19 1335.72 837.638 1362.31 846.801 1395.93C856.468 1433.59 900.153 1468.75 966.666 1492.4C990.248 1500.78 1015.84 1507.21 1040.67 1510.99C1060.33 1514.1 1074.9 1517.84 1088.99 1521.46C1107.2 1526.14 1124.41 1530.56 1149.52 1532.53C1158.39 1533.2 1167.11 1533.91 1175.71 1534.61C1206.39 1537.12 1235.36 1539.48 1264.83 1539.05C1315.37 1539.92 1369.22 1537.94 1422.93 1504.05C1459.24 1484.21 1508.69 1450.29 1537.97 1401.54C1561.28 1363.17 1566.56 1315.76 1552.85 1268.04C1550.51 1259.33 1547.67 1250.45 1544.42 1241.65C1528.92 1198.98 1500.4 1155.71 1464.11 1119.83C1432.62 1086.84 1398.85 1057.09 1357.84 1026.24C1346.42 1016.52 1335.3 1007.72 1323.88 999.396C1275.64 965.835 1232.27 942.773 1187.35 926.802Z" fill="#EDE9F6"/>
<path d="M967.456 1477.09C903.22 1454.26 861.225 1421.44 852.243 1387.06C842.64 1352.51 842.745 1327.23 842.895 1292.24C842.908 1288.94 842.922 1285.57 842.929 1282.09C842.664 1273.96 842.241 1265.43 841.635 1255.99C839.666 1225.39 835.36 1191.57 828.083 1149.56C819.663 1097.51 815.698 1055.73 823.726 1021.05C832.165 984.331 853.565 952.961 887.342 927.806C937.526 889.049 994.389 878.332 1051.79 896.811C1065.55 899.913 1080.29 904.32 1098.26 910.708C1111.27 915.335 1124.35 920.406 1138.19 925.779C1145.48 928.6 1152.86 931.463 1160.38 934.32C1168.14 936.68 1175.92 939.245 1183.54 941.954C1228.51 957.942 1271.25 979.673 1322.13 1012.42C1333.36 1020.02 1344.7 1028.31 1355.84 1037.06C1397.92 1065.98 1431.51 1093.54 1461.58 1123.82C1496.89 1157.24 1524.16 1198.92 1538.38 1241.2C1541.31 1249.72 1543.82 1258.32 1545.86 1266.75C1557.76 1312.3 1552.05 1357.91 1529.77 1395.2C1501.43 1443.26 1454.74 1476.4 1420.57 1495.73C1368.46 1529.83 1317.05 1530.69 1264.57 1528.49C1237.99 1528.23 1211.85 1525.57 1184.16 1522.74C1173.27 1521.63 1162 1520.48 1150.52 1519.47C1126.51 1517.25 1110.49 1512.69 1093.54 1507.86C1079.19 1503.78 1064.37 1499.56 1043.29 1496.21C1017.98 1492.35 991.765 1485.74 967.456 1477.09ZM1098.65 909.621C1080.62 903.213 1065.82 898.789 1052.06 895.691C994.271 877.087 936.983 887.859 886.46 926.883C852.481 952.188 830.944 983.76 822.455 1020.72C814.39 1055.57 818.356 1097.46 826.797 1149.63C834.07 1191.62 838.373 1225.4 840.336 1255.96C840.941 1265.38 841.366 1273.91 841.629 1282.01C841.621 1285.46 841.609 1288.84 841.594 1292.14C841.446 1327.21 841.341 1352.56 850.983 1387.25C860.071 1422.03 902.386 1455.18 967.07 1478.18C991.467 1486.86 1017.78 1493.49 1043.18 1497.36C1064.16 1500.7 1078.94 1504.91 1093.24 1508.98C1110.26 1513.82 1126.34 1518.4 1150.5 1520.64C1161.97 1521.65 1173.24 1522.8 1184.12 1523.91C1211.84 1526.74 1238.02 1529.41 1264.65 1529.66C1317.33 1531.87 1368.98 1531.01 1421.37 1496.72C1455.61 1477.34 1502.46 1444.08 1530.93 1395.82C1553.34 1358.3 1559.1 1312.4 1547.12 1266.58C1545.08 1258.12 1542.56 1249.5 1539.62 1240.95C1525.33 1198.48 1497.94 1156.62 1462.49 1123.07C1432.38 1092.74 1398.73 1065.12 1356.61 1036.18C1345.48 1027.44 1334.11 1019.13 1322.84 1011.5C1271.84 978.678 1229.01 956.899 1183.93 940.87C1176.28 938.153 1168.48 935.581 1160.75 933.229C1153.28 930.392 1145.89 927.531 1138.62 924.707C1124.77 919.332 1111.68 914.256 1098.65 909.621Z" fill="#EDE9F6"/>
<path d="M1059.56 909.973C1066.03 911.789 1072.65 913.911 1079.86 916.475C1096.56 922.411 1113.53 929.712 1131.5 937.439C1141.77 941.854 1152.4 946.426 1163.34 950.895C1167.98 952.421 1172.61 954.009 1177.18 955.635C1222.26 971.659 1266.63 993.118 1321.05 1025.2C1332.33 1032.23 1343.65 1039.8 1354.67 1047.68C1398.48 1074.94 1431.06 1099.61 1460.32 1127.71C1494.96 1158.89 1521.2 1199.1 1534.22 1240.94C1536.84 1249.16 1539.06 1257.49 1540.83 1265.68C1551.25 1309.87 1545.3 1352.7 1523.61 1389.57C1496.11 1436.99 1452.01 1469.3 1419.86 1488.07C1368.99 1522.41 1319.67 1522.13 1265.09 1518.42C1240.86 1517.54 1217.02 1514.56 1191.78 1511.4C1178.94 1509.8 1165.67 1508.14 1151.99 1506.72C1128.69 1504.22 1113.6 1499.46 1097.64 1494.43C1083.22 1489.89 1068.32 1485.19 1046.04 1481.62C1019.94 1477.59 992.747 1470.7 967.418 1461.7C905.189 1439.57 864.645 1408.83 856.175 1377.35C846.072 1342.05 846.694 1318.28 847.636 1282.3L847.789 1276.43C847.705 1268.6 847.496 1260.4 847.151 1251.35C846.018 1221.59 843.059 1190.04 837.559 1149.05C831.5 1099.46 829.255 1059.54 837.988 1025.92C847.077 990.637 867.931 960.539 899.968 936.451C947.938 899.017 1001.63 889.316 1055.27 908.386C1056.7 908.895 1058.14 909.422 1059.56 909.973ZM1080.25 915.388C1073.01 912.813 1066.36 910.684 1059.92 908.877C1058.54 908.351 1057.1 907.815 1055.66 907.301C1001.54 888.061 947.399 897.819 899.078 935.529C866.854 959.76 845.87 990.047 836.719 1025.56C827.945 1059.34 830.192 1099.37 836.265 1149.09C841.763 1190.05 844.718 1221.56 845.853 1251.29C846.195 1260.33 846.405 1268.52 846.489 1276.32L846.334 1282.17C845.39 1318.25 844.766 1342.08 854.914 1377.54C863.492 1409.43 904.358 1440.5 967.032 1462.78C992.45 1471.82 1019.73 1478.73 1045.93 1482.77C1068.09 1486.33 1082.94 1491.01 1097.3 1495.53C1113.35 1500.59 1128.5 1505.36 1151.95 1507.89C1165.62 1509.3 1178.88 1510.96 1191.72 1512.57C1216.99 1515.72 1240.86 1518.71 1265.13 1519.59C1317.92 1523.18 1369.56 1523.55 1420.66 1489.04C1452.89 1470.23 1497.15 1437.8 1524.78 1390.18C1546.59 1353.08 1552.58 1309.98 1542.1 1265.55C1540.33 1257.33 1538.1 1248.97 1535.48 1240.71C1522.39 1198.66 1496.02 1158.26 1461.21 1126.93C1431.9 1098.78 1399.25 1074.04 1355.39 1046.77C1344.38 1038.88 1333.03 1031.3 1321.71 1024.25C1267.19 992.103 1222.74 970.609 1177.57 954.55C1172.99 952.921 1168.34 951.331 1163.75 949.817C1152.86 945.371 1142.24 940.805 1131.98 936.39C1113.99 928.649 1096.99 921.346 1080.25 915.388Z" fill="#EDE9F6"/>
<path d="M967.109 1447.23C907.362 1425.99 868.557 1397.36 860.647 1368.69C850.149 1332.87 851.287 1310.77 853.173 1274.17L853.303 1271.66C853.41 1264.09 853.424 1256.22 853.35 1247.57C853.098 1219.14 851.394 1188.82 847.83 1149.25C844.657 1108.42 843.109 1065.87 853.176 1031.27C862.965 997.354 883.281 968.455 913.565 945.364C957.935 910.265 1007.01 900.825 1055.5 918.064C1059.72 919.567 1064 921.29 1068.2 923.192C1069.15 923.521 1070.03 923.831 1070.93 924.148C1089.29 930.679 1108.02 939.683 1127.85 949.218C1140.38 955.244 1153.34 961.476 1167.04 967.491C1225.27 988.273 1277.28 1014.79 1320.49 1037.98C1331.84 1044.43 1343.11 1051.27 1353.98 1058.31C1384.18 1075.2 1423.42 1098.77 1459.37 1131.61C1492.86 1160.26 1518.66 1200.05 1530.19 1240.81C1532.49 1248.76 1534.41 1256.83 1535.88 1264.78C1544.61 1306.98 1538.22 1348.31 1517.43 1384.33C1490.73 1431.23 1449.22 1462.82 1419.1 1481.06C1369.5 1515.72 1320.27 1514.32 1265.66 1509.23C1243.48 1507.83 1221.64 1504.58 1198.52 1501.15C1184.1 1499 1169.19 1496.79 1153.63 1494.95C1130.92 1492.18 1116.66 1487.22 1101.56 1481.97C1087.22 1476.99 1072.39 1471.83 1049.08 1468.06C1022.32 1463.91 993.215 1456.51 967.109 1447.23ZM1055.88 916.979C1006.91 899.568 957.39 909.07 912.669 944.452C882.209 967.668 861.763 996.753 851.913 1030.89C841.807 1065.64 843.353 1108.3 846.531 1149.23C850.097 1188.78 851.797 1219.08 852.048 1247.48C852.125 1256.12 852.11 1263.98 852 1271.52L851.872 1274.01C849.981 1310.73 848.839 1332.89 859.391 1368.89C867.411 1397.96 906.534 1426.92 966.723 1448.32C992.916 1457.63 1022.12 1465.05 1048.96 1469.21C1072.13 1472.96 1086.9 1478.1 1101.18 1483.06C1116.36 1488.34 1130.69 1493.32 1153.57 1496.11C1169.11 1497.95 1184 1500.16 1198.42 1502.3C1221.57 1505.74 1243.43 1508.99 1265.66 1510.4C1320.52 1515.51 1370 1516.91 1419.93 1482.03C1450.13 1463.75 1491.79 1432.03 1518.59 1384.93C1539.51 1348.7 1545.93 1307.12 1537.17 1264.68C1535.68 1256.7 1533.76 1248.59 1531.45 1240.61C1519.86 1199.63 1493.9 1159.61 1460.23 1130.81C1424.2 1097.88 1384.86 1074.25 1354.63 1057.35C1343.79 1050.32 1332.49 1043.47 1321.1 1037C1277.83 1013.77 1225.75 987.224 1167.48 966.425C1153.85 960.438 1140.9 954.215 1128.38 948.194C1107.56 938.18 1087.95 928.75 1068.64 922.127C1064.46 920.24 1060.15 918.496 1055.88 916.979Z" fill="#EDE9F6"/>
<path d="M965.594 1431.31C932.205 1419.44 874.694 1394.23 864.641 1358.76C853.822 1322.73 855.418 1302.5 858.315 1265.77C858.632 1258.28 858.87 1250.73 859.056 1242.57C859.824 1208.22 858.678 1174.12 857.602 1148.25C856.469 1109.57 856.927 1069.12 867.846 1035.49C878.341 1002.93 898.115 975.239 926.628 953.179C967.733 920.213 1012.66 911.04 1056.55 926.645C1063.13 928.984 1069.76 931.9 1076.28 935.325C1092.2 941.918 1108.36 950.659 1125.46 959.914C1139.6 967.568 1154.23 975.479 1170.16 983C1218.34 1001.71 1264.63 1023.17 1319.34 1049.65C1330.79 1055.53 1342.01 1061.65 1352.68 1067.82C1385.48 1084.14 1423.58 1104.8 1457.8 1134.39C1490.7 1161.02 1515.38 1199.34 1525.54 1239.51C1527.52 1247.18 1529.14 1254.98 1530.32 1262.72C1537.35 1302.88 1530.55 1342.69 1510.64 1377.86C1484.77 1424.26 1445.86 1455.1 1417.77 1472.79C1369.31 1507.79 1322.22 1505.45 1265.7 1498.75C1245.27 1496.89 1225.19 1493.41 1203.91 1489.72C1188.18 1486.98 1171.91 1484.16 1154.74 1481.88C1137.36 1479.52 1125.5 1475.81 1116.19 1472.5C1112.27 1471.1 1108.57 1469.69 1104.65 1468.19C1100.78 1466.71 1096.76 1465.17 1092.55 1463.67C1083.39 1460.42 1070.46 1456.28 1051.6 1453.21C1023.52 1448.82 992.976 1441.04 965.594 1431.31ZM1056.93 925.558C1012.56 909.779 967.189 919.016 925.725 952.274C897.453 974.145 877.004 1002.78 866.593 1035.08C855.626 1068.86 855.166 1109.4 856.301 1148.19C857.381 1174.05 858.524 1208.12 857.753 1242.45C857.571 1250.6 857.335 1258.14 857.023 1265.5C854.107 1302.44 852.507 1322.75 863.383 1358.97C873.592 1394.98 931.562 1420.43 965.208 1432.39C992.676 1442.16 1023.32 1449.96 1051.48 1454.37C1070.22 1457.42 1083.06 1461.52 1092.17 1464.76C1096.36 1466.25 1100.36 1467.78 1104.24 1469.27C1107.99 1470.7 1111.87 1472.19 1115.8 1473.59C1125.19 1476.92 1137.14 1480.65 1154.66 1483.04C1171.8 1485.31 1188.06 1488.13 1203.78 1490.86C1225.07 1494.56 1245.2 1498.06 1265.65 1499.91C1322.46 1506.65 1369.8 1508.99 1418.61 1473.75C1446.77 1456.01 1485.83 1425.05 1511.82 1378.46C1531.84 1343.08 1538.69 1303.03 1531.61 1262.64C1530.42 1254.88 1528.8 1247.05 1526.8 1239.35C1516.59 1198.91 1491.74 1160.36 1458.63 1133.57C1424.31 1103.87 1386.11 1083.16 1353.28 1066.83C1342.62 1060.66 1331.38 1054.54 1319.89 1048.64C1265.14 1022.14 1218.81 1000.66 1170.63 981.948C1154.79 974.47 1140.18 966.566 1126.06 958.922C1108.92 949.649 1092.73 940.886 1076.8 934.295C1070.28 930.873 1063.58 927.921 1056.93 925.558Z" fill="#EDE9F6"/>
<path d="M963.396 1416.17C909.15 1396.88 875.484 1373.28 868.599 1349.71C857.531 1313.75 859.58 1294.82 863.298 1260.45C863.827 1253.17 864.287 1245.94 864.711 1238.34C866.456 1207.2 866.995 1176.49 867.318 1147.95C868.135 1113.17 870.582 1073.17 882.471 1040.3C893.534 1009.5 913.323 982.256 939.702 961.513C978.431 930.022 1018.55 921.342 1058.96 935.708C1067.51 938.749 1076.11 942.878 1084.53 947.979C1097.59 954.444 1110.82 962.543 1124.82 971.118C1140.05 980.443 1155.8 990.085 1173.56 999.081C1201.71 1011.04 1229.44 1023.14 1258.79 1035.95C1278.24 1044.45 1298.35 1053.22 1318.63 1061.97C1330.28 1067.3 1341.46 1072.69 1351.88 1077.99C1387.1 1093.4 1424.16 1111.31 1456.83 1137.9C1489.24 1162.61 1512.83 1199.48 1521.57 1239.05C1523.26 1246.45 1524.57 1253.99 1525.47 1261.49C1530.83 1299.62 1523.6 1337.96 1504.55 1372.35C1479.44 1418.31 1443.1 1448.4 1417.03 1465.55C1369.62 1500.94 1324.59 1497.71 1266.15 1489.3C1247.28 1487.05 1228.69 1483.34 1209.02 1479.41C1192.18 1476.04 1174.76 1472.56 1156.15 1469.82C1144.64 1468.09 1134.54 1465.59 1124.37 1461.98C1118.52 1459.9 1113.29 1457.7 1107.76 1455.38C1102.23 1453.05 1096.5 1450.64 1090.09 1448.36C1078.84 1444.36 1067.47 1441.49 1054.31 1439.34C1024.91 1434.7 991.77 1426.26 963.396 1416.17ZM1059.35 934.62C1018.44 920.076 977.882 928.824 938.792 960.615C912.264 981.466 892.358 1008.87 881.23 1039.85C869.286 1072.86 866.836 1112.96 866.013 1147.83C865.693 1176.37 865.155 1207.06 863.413 1238.18C862.987 1245.78 862.526 1253 862.002 1260.26C858.268 1294.75 856.211 1313.76 867.344 1349.92C874.343 1373.89 908.321 1397.81 963.01 1417.25C991.465 1427.37 1024.7 1435.84 1054.19 1440.49C1067.26 1442.64 1078.54 1445.48 1089.7 1449.45C1096.07 1451.71 1101.78 1454.11 1107.3 1456.43C1112.84 1458.76 1118.09 1460.97 1123.99 1463.07C1134.25 1466.72 1144.43 1469.23 1156.04 1470.97C1174.62 1473.71 1192.02 1477.19 1208.84 1480.55C1228.55 1484.49 1247.15 1488.21 1266.07 1490.46C1324.82 1498.92 1370.11 1502.15 1417.89 1466.5C1444.03 1449.3 1480.52 1419.08 1505.72 1372.94C1524.88 1338.35 1532.15 1299.8 1526.76 1261.45C1525.85 1253.93 1524.54 1246.35 1522.86 1238.91C1514.05 1199.06 1490.28 1161.94 1457.65 1137.04C1424.85 1110.36 1387.68 1092.4 1352.41 1076.96C1342.01 1071.67 1330.8 1066.27 1319.13 1060.93C1298.83 1052.17 1278.72 1043.39 1259.28 1034.91C1229.92 1022.09 1202.19 1009.98 1174.07 998.048C1156.42 989.102 1140.7 979.475 1125.49 970.169C1111.46 961.575 1098.2 953.458 1085.13 946.992C1076.69 941.868 1068 937.696 1059.35 934.62Z" fill="#EDE9F6"/>
</g>
</svg>
