<svg width="1766" height="1212" viewBox="0 0 1766 1212" fill="none" xmlns="http://www.w3.org/2000/svg">
<path d="M-684.586 98.7096C-763.859 86.5844 -819.012 73.8908 -863.412 57.5495C-1031.68 -6.7477 -1104.11 -172.131 -1047.92 -363.785C-1018.53 -459.46 -956.697 -543.942 -869.122 -608.091C-791.861 -663.852 -682.054 -712.185 -523.549 -760.197C-414.248 -792.826 -293.071 -817.435 -142.196 -837.644C10.6679 -857.759 126.787 -860.559 234.305 -846.718C239.179 -846.063 244.035 -845.366 249.149 -844.584C370.28 -826.056 551.816 -772.76 734.754 -702.014C920.689 -630.111 1072.37 -553.457 1140.5 -496.964C1343.03 -384.143 1279.03 -313.853 1182.18 -207.453C1139.22 -160.257 1090.53 -106.762 1053.45 -38.7945C1026.71 10.2577 1004.06 54.2468 984.083 93.0615C888.142 279.453 844.364 364.525 640.098 434.645C590.864 450.64 533.093 453.735 468.423 443.843C417.446 436.046 361.735 420.124 302.832 396.516C249.458 374.965 195.575 350.009 138.529 323.586C63.5017 288.833 -14.0755 252.896 -101.359 219.513C-205.377 180.085 -325.168 150.33 -467.586 128.546C-488.725 125.313 -510.999 122.159 -533.782 119.171C-544.023 117.831 -554.186 116.513 -564.254 115.204C-606.518 109.723 -646.438 104.545 -684.586 98.7096ZM249.621 -845.636C244.483 -846.422 239.6 -847.125 234.69 -847.789C126.769 -861.681 10.3087 -858.88 -142.94 -838.714C-294.004 -818.481 -415.346 -793.836 -524.815 -761.163C-683.563 -713.073 -793.559 -664.652 -870.985 -608.773C-958.738 -544.493 -1020.68 -459.867 -1050.11 -364.04C-1106.42 -171.976 -1033.62 -6.15414 -864.641 58.4131C-819.991 74.8486 -764.607 87.5995 -685.061 99.7665C-646.864 105.609 -606.924 110.791 -564.631 116.276C-554.561 117.58 -544.406 118.897 -534.167 120.239C-511.413 123.226 -489.172 126.374 -468.061 129.603C-325.92 151.345 -206.379 181.034 -102.591 220.371C-15.4208 253.717 62.1105 289.63 137.103 324.366C194.176 350.805 248.083 375.775 301.533 397.351C360.691 421.062 416.678 437.058 467.948 444.9C533.275 454.892 591.639 451.757 641.438 435.58C740.765 401.485 804.421 363.586 854.287 308.842C902.714 255.692 937.747 187.628 986.238 93.4251C1006.22 54.615 1028.86 10.6247 1055.6 -38.4188C1092.63 -106.303 1141.29 -159.762 1184.22 -206.924C1234.21 -261.841 1273.7 -305.22 1276.35 -350.217C1279.22 -398.867 1237.85 -444.309 1142.23 -497.569C1074.1 -554.091 922.182 -630.874 736.015 -702.871C552.847 -773.698 371.018 -827.068 249.621 -845.636Z" fill="#EDE9F6"/>
<path d="M242.758 -833.425C245.644 -833.016 248.497 -832.591 251.43 -832.143C367.164 -814.436 541.892 -762.8 718.797 -694.009C898.842 -624.01 1046.27 -549.251 1113.18 -494.027C1309.74 -384.138 1250.08 -315.148 1159.76 -210.721C1120.71 -165.563 1076.44 -114.38 1042.78 -49.9403C1017.99 -3.00385 996.994 39.2067 978.462 76.4464C888.569 257.1 847.539 339.552 651.525 408.251C600.088 425.901 538.681 429.448 468.986 418.785C422.247 411.634 371.504 398.036 318.171 378.366C251.645 355.785 184.004 328.018 112.398 298.62C45.1155 270.996 -24.4697 242.43 -100.131 215.209C-257.464 159.362 -420.388 130.08 -529.25 112.914L-548.544 110.098C-571.964 106.679 -594.089 103.449 -616.039 100.091C-709.408 85.8064 -784.079 71.3928 -845.027 47.4715C-1005.87 -16.2454 -1077.37 -176.737 -1027.18 -361.394C-1002.49 -456.036 -946 -539.274 -863.806 -602.107C-790.351 -657.727 -684.281 -705.751 -529.996 -753.233C-417.47 -788.055 -292.428 -813.058 -136.482 -831.908C15.2607 -849.871 131.853 -850.396 241.557 -833.609L242.758 -833.425ZM251.906 -833.202C248.96 -833.653 246.091 -834.079 243.211 -834.481L242.032 -834.666C131.92 -851.513 14.9645 -850.995 -137.178 -832.984C-293.337 -814.107 -418.569 -789.07 -531.276 -754.193C-685.806 -706.631 -792.073 -658.517 -865.693 -602.771C-948.052 -539.812 -1004.65 -456.429 -1029.37 -361.636C-1079.68 -176.581 -1007.82 -15.6649 -846.301 48.3209C-785.048 72.3571 -710.144 86.8257 -616.515 101.15C-594.549 104.511 -572.418 107.739 -548.986 111.16L-529.722 113.974C-421.039 131.113 -258.355 160.348 -101.314 216.087C-25.7255 243.287 43.827 271.838 111.089 299.45C182.735 328.866 250.415 356.651 316.988 379.247C370.514 398.987 421.504 412.648 468.512 419.84C538.868 430.603 600.909 427.02 652.882 409.174C849.516 340.268 890.601 257.703 980.619 76.8008C999.15 39.5633 1020.15 -2.64033 1044.93 -49.5774C1078.55 -113.941 1122.79 -165.087 1161.81 -210.207C1208.43 -264.108 1245.25 -306.681 1246.75 -350.744C1248.38 -398.377 1207.71 -442.756 1114.91 -494.631C1047.99 -549.884 900.322 -624.775 720.067 -694.859C542.928 -763.74 367.908 -815.454 251.906 -833.202Z" fill="#EDE9F6"/>
<path d="M468.878 393.582C426.775 387.138 381.43 375.805 334.112 359.905C251.228 336.682 166.268 305.675 76.3193 272.846C20.1793 252.358 -37.8689 231.172 -99.0215 210.535C-250.153 160.443 -399.441 129.69 -525.548 106.211L-532.999 104.992C-649.29 86.0029 -749.727 69.6004 -827.992 36.8786C-981.736 -26.2824 -1052.56 -181.817 -1008.43 -359.375C-988.268 -454.269 -938.499 -533.981 -860.488 -596.309C-791.799 -650.968 -686.345 -700.012 -538.113 -746.259C-423.842 -782.731 -290.994 -808.81 -131.966 -825.979C18.7358 -841.866 139.138 -839.915 250.561 -819.824L253.085 -819.44C363.588 -802.529 531.778 -752.512 702.977 -685.655C877.438 -617.524 1020.91 -544.634 1086.79 -490.673C1277.82 -383.682 1222.48 -316.02 1138.72 -213.6C1103.52 -170.556 1063.63 -121.768 1033.33 -60.9313C1010.56 -16.2002 991.227 24.1449 974.168 59.7404C890.358 234.63 852.111 314.451 664.043 381.648C610.153 401.137 544.488 405.153 468.878 393.582ZM225.215 -825.177C120.663 -841.178 6.95903 -841.776 -132.608 -827.063C-291.884 -809.865 -424.947 -783.744 -539.405 -747.213C-687.894 -700.889 -793.544 -651.738 -862.398 -596.954C-940.572 -534.498 -990.443 -454.636 -1010.63 -359.601C-1032.4 -272.018 -1026.88 -188.428 -994.696 -117.874C-962.497 -47.3128 -905.309 6.48655 -829.317 37.7025C-750.689 70.5772 -650.048 87.0109 -533.514 106.042L-526.111 107.251C-400.185 130.697 -251.052 161.417 -100.137 211.437C-39.0463 232.057 18.9958 253.238 75.1196 273.723C165.129 306.571 250.152 337.602 333.073 360.831C380.519 376.777 426.068 388.159 468.404 394.638C544.719 406.317 611.01 402.255 665.444 382.566C854.093 315.158 892.396 235.224 976.317 60.0864C993.38 24.4937 1012.71 -15.849 1035.49 -60.5743C1065.74 -121.342 1105.6 -170.095 1140.79 -213.103C1184.02 -265.968 1218.16 -307.717 1218.45 -350.836C1218.79 -397.455 1178.71 -440.766 1088.52 -491.276C1022.63 -545.266 878.929 -618.283 704.234 -686.504C532.815 -753.453 364.331 -803.544 253.559 -820.496L251.084 -820.873C242.592 -822.401 233.869 -823.853 225.215 -825.177Z" fill="#EDE9F6"/>
<path d="M465.971 367.962C429.219 362.336 389.994 353.237 349.407 340.92C246.447 317.657 139.995 282.802 27.2883 245.901C-13.118 232.668 -54.902 218.987 -97.6706 205.463C-254.007 157.102 -408.184 123.665 -520.758 99.2463C-629.022 79.5517 -731.22 60.9657 -809.286 26.127C-881.378 -4.68108 -936.174 -56.8476 -967.783 -124.745C-999.446 -192.78 -1006.23 -273.222 -987.392 -357.377C-972.119 -451.166 -927.562 -529.607 -854.949 -590.517C-790.146 -644.974 -688.579 -693.656 -544.451 -739.35C-427.09 -777.98 -290.331 -804.425 -126.352 -820.196C2.45342 -832.253 108.684 -830.787 207.965 -815.589C224.985 -812.983 242.078 -809.919 258.766 -806.475C364.579 -789.722 525.457 -741.222 689.246 -676.707C859.034 -609.827 993.832 -540.999 1059.07 -487.863C1244.19 -383.806 1193.28 -317.438 1116.21 -216.978C1084.84 -176.084 1049.28 -129.733 1022.33 -72.5293C1001.58 -30.0899 983.948 8.33153 968.378 42.2297C890.674 211.451 855.212 288.686 675.316 354.437C618.785 376.027 548.35 380.573 465.971 367.962ZM208.44 -816.646C108.793 -831.901 2.22497 -833.372 -126.945 -821.288C-291.203 -805.487 -428.196 -778.995 -545.768 -740.293C-690.145 -694.521 -791.916 -645.731 -856.878 -591.143C-929.648 -530.097 -974.3 -451.512 -989.593 -357.581C-1008.45 -273.317 -1001.66 -192.745 -969.934 -124.586C-938.209 -56.4347 -883.135 -4.04338 -810.66 26.9302C-732.258 61.9201 -629.843 80.5466 -521.417 100.268C-408.977 124.657 -254.898 158.078 -98.7204 206.387C-55.9865 219.9 -14.2107 233.58 26.1967 246.81C138.979 283.738 245.519 318.619 348.508 341.886C389.147 354.22 428.55 363.361 465.497 369.017C548.588 381.737 619.665 377.139 676.743 355.346C857.197 289.381 892.722 212.034 970.542 42.5657C986.103 8.66866 1003.74 -29.7454 1024.49 -72.1831C1051.41 -129.324 1086.94 -175.638 1118.29 -216.504C1158.05 -268.351 1189.48 -309.305 1188.58 -351.489C1187.62 -397.097 1148.2 -439.345 1060.81 -488.464C995.545 -541.634 860.523 -610.586 690.51 -677.556C526.521 -742.148 365.328 -790.731 259.357 -807.51C242.696 -810.945 225.534 -814.03 208.44 -816.646Z" fill="#EDE9F6"/>
<path d="M461.034 343.962C430.38 339.268 398.015 332.337 364.806 323.355C236.657 300.809 103.026 261.034 -38.4221 218.928C-57.6305 213.209 -77.0036 207.44 -96.5854 201.652C-216.253 167.16 -330.128 139.256 -430.596 114.639C-460.822 107.235 -489.367 100.237 -516.617 93.4233C-628.29 70.8336 -719.386 50.8377 -791.526 16.4331C-860.203 -14.1792 -912.95 -65.0246 -944.09 -130.612C-975.303 -196.359 -983.361 -273.904 -967.386 -354.869C-957.001 -447.707 -917.593 -524.982 -850.237 -584.567C-789.287 -638.885 -691.492 -687.281 -551.263 -732.509C-432.379 -772.819 -287.558 -800.444 -120.798 -814.637C-1.72039 -824.466 97.5444 -822.335 191.575 -807.936C217.009 -804.042 242.474 -799.133 267.273 -793.361C368.88 -776.326 522.365 -729.161 677.968 -667.164C839.809 -602.681 969.015 -536.243 1032.44 -484.884C1211.87 -383.586 1165.36 -318.371 1094.94 -219.656C1067.28 -180.898 1035.95 -136.971 1012.24 -83.3545C993.53 -43.2251 977.559 -6.74268 963.485 25.4475C891.761 189.375 859.024 264.188 687.052 328.651C627.489 352.66 551.46 357.808 461.034 343.962ZM192.051 -808.995C97.6655 -823.447 -1.91377 -825.585 -121.353 -815.726C-288.403 -801.514 -433.496 -773.826 -552.594 -733.448C-693.077 -688.139 -791.081 -639.636 -852.189 -585.17C-919.691 -525.451 -959.197 -448.028 -969.592 -355.052C-985.589 -273.99 -977.511 -196.313 -946.238 -130.45C-914.981 -64.6158 -861.976 -13.5532 -792.946 17.2129C-720.516 51.7568 -629.205 71.8074 -517.375 94.4237C-490.209 101.22 -461.659 108.219 -431.426 115.626C-330.993 140.233 -217.158 168.128 -97.5701 202.596C-78.0128 208.38 -58.6346 214.147 -39.4332 219.863C102.13 262.003 235.857 301.808 364.07 324.357C397.227 333.338 429.759 340.302 460.56 345.018C551.718 358.977 628.404 353.77 688.503 329.547C861.036 264.88 893.812 189.949 965.635 25.7719C979.725 -6.41351 995.677 -42.8938 1014.4 -83.019C1038.09 -136.579 1069.4 -180.477 1097.03 -219.201C1133.37 -270.151 1162.07 -310.393 1159.96 -351.728C1157.68 -396.417 1118.9 -437.672 1034.17 -485.488C970.716 -536.882 841.316 -603.432 679.253 -668.003C523.432 -730.085 369.673 -777.328 267.933 -794.383C243.161 -800.159 217.586 -805.085 192.051 -808.995Z" fill="#EDE9F6"/>
<path d="M342.396 298.843C206.221 277.984 63.9309 240.135 -94.5858 196.461C-159.685 179.039 -221.687 163.034 -281.646 147.559C-365.662 125.875 -445.019 105.387 -511.992 86.2459C-612.644 63.6433 -701.724 41.9776 -773.559 5.41113C-838.912 -24.9788 -889.706 -74.4266 -920.482 -137.605C-951.348 -200.952 -960.776 -275.463 -947.757 -353.085C-942.428 -444.799 -908.226 -520.755 -846.101 -578.865C-789.079 -632.916 -695.05 -680.887 -558.642 -725.517C-436.577 -767.924 -287.535 -795.868 -115.623 -808.588C-7.05096 -816.34 88.2304 -813.599 175.647 -800.209C209.305 -795.053 242.966 -788.131 275.703 -779.633C473.095 -744.539 870.488 -590.758 1006.61 -481.537C1180.68 -383.063 1138.65 -319.087 1075.05 -222.245C1051.08 -185.765 1023.92 -144.417 1003.45 -94.5498C986.808 -56.911 972.584 -22.5162 960.022 7.82663C894.463 166.273 864.549 238.591 700.347 301.595C637.412 328.317 554.79 334.085 454.765 318.764C431.191 315.153 406.567 310.317 381.571 304.397C368.656 302.712 355.543 300.857 342.396 298.843ZM176.121 -801.265C88.375 -814.706 -7.22394 -817.457 -116.134 -809.68C-288.363 -796.94 -437.698 -768.936 -559.99 -726.45C-696.662 -681.736 -790.903 -633.652 -848.075 -579.449C-910.355 -521.198 -944.633 -445.091 -949.966 -353.243C-963.002 -275.535 -953.555 -200.901 -922.634 -137.434C-891.743 -74.0269 -840.7 -24.3686 -775.031 6.16945C-702.926 42.872 -613.631 64.5924 -512.852 87.2218C-445.938 106.349 -366.555 126.838 -282.523 148.532C-222.563 164.008 -160.578 180.01 -95.5091 197.422C63.1176 241.123 205.529 279.003 341.924 299.895C355.099 301.913 368.245 303.774 380.988 305.425C405.875 311.335 430.613 316.189 454.292 319.816C555.083 335.255 638.364 329.425 701.834 302.481C781.363 271.963 831.541 238.366 869.574 190.149C905.982 144.005 929.567 87.0184 962.199 8.14306C974.752 -22.1987 988.984 -56.5899 1005.61 -94.2306C1026.08 -144.043 1053.22 -185.363 1077.16 -221.822C1109.98 -271.802 1135.92 -311.277 1132.51 -351.708C1128.81 -395.43 1090.52 -435.652 1008.34 -482.139C946.6 -531.687 822.637 -595.78 668.33 -657.897C520.527 -717.404 374.016 -763.289 276.425 -780.642C243.713 -789.136 209.922 -796.088 176.121 -801.265Z" fill="#EDE9F6"/>
<path d="M273.355 271.621C145.584 252.045 15.9949 220.604 -93.9154 192.431C-241.709 155.745 -395.419 116.869 -508.034 80.2715C-613.382 53.9829 -691.522 30.67 -755.844 -4.39653C-882.582 -66.1835 -948.411 -198.808 -927.683 -350.531C-927.352 -441.277 -898.304 -516.036 -841.344 -572.767C-788.297 -626.655 -698.084 -674.31 -565.545 -718.48C-442.171 -762.483 -284.792 -791.637 -110.41 -802.805C-10.1045 -808.976 78.5033 -805.87 160.465 -793.313C202.508 -786.871 242.805 -778.042 283.653 -766.322C376.903 -748.695 515.662 -704.248 655.019 -647.379C801.082 -587.775 919.183 -526.223 979.041 -478.506C1147.49 -382.739 1110 -319.83 1053.25 -224.6C1032.86 -190.399 1009.75 -151.635 992.383 -105.502C977.815 -70.3963 965.298 -38.1272 954.272 -9.65553C896.565 139.087 867.605 213.748 711.208 275.517C645.434 305.013 552.689 311.706 442.978 294.897C427.757 292.565 412.057 289.761 396.286 286.553C357.231 283.159 315.955 278.147 273.355 271.621ZM160.939 -794.367C78.6594 -806.973 -10.2473 -810.091 -110.877 -803.905C-285.6 -792.714 -443.295 -763.493 -566.908 -719.406C-699.711 -675.152 -790.149 -627.364 -843.341 -573.333C-900.443 -516.453 -929.567 -441.543 -929.896 -350.666C-950.661 -198.647 -884.551 -65.6712 -757.364 -3.66253C-685.843 35.3277 -595.453 59.6477 -509.001 81.2143C-396.39 117.814 -242.615 156.709 -94.764 193.411C15.2246 221.604 144.923 253.071 272.882 272.676C315.563 279.215 356.947 284.238 395.853 287.604C411.446 290.792 427.21 293.611 442.504 295.954C552.996 312.882 646.434 306.116 712.722 276.388C869.633 214.411 898.643 139.629 956.433 -9.35606C967.474 -37.823 979.993 -70.087 994.564 -105.197C1011.91 -151.28 1035 -190.022 1055.37 -224.201C1084.66 -273.351 1107.8 -312.169 1103.1 -351.795C1098.03 -394.636 1060.3 -433.899 980.762 -479.115C920.891 -526.86 802.589 -588.525 656.323 -648.212C516.774 -705.156 377.76 -749.684 284.448 -767.311C243.616 -779.035 203.156 -787.899 160.939 -794.367Z" fill="#EDE9F6"/>
<path d="M196.77 246.399C110.883 233.237 16.0235 214.22 -93.2193 188.256C-273.456 146.89 -407.95 109.548 -504.408 74.0869C-598.978 47.8661 -674.937 22.7987 -738.677 -14.4535C-858.204 -75.6966 -923.218 -203.598 -908.398 -348.276C-913.154 -438.071 -889.257 -511.639 -837.367 -566.98C-788.314 -620.676 -701.855 -668.024 -573.064 -711.732C-413.286 -770.104 -230.615 -790.472 -105.506 -797.28C-12.6528 -802.105 69.7988 -798.734 146.547 -786.973C196.046 -779.388 243.49 -768.346 291.59 -753.215C472.971 -716.695 825.724 -575.531 952.084 -475.581C1115.19 -382.412 1082.29 -320.486 1032.48 -226.754C1015.57 -194.921 996.397 -158.84 982.057 -116.517C969.565 -84.0759 958.768 -54.0465 949.248 -27.5518C897.489 116.489 871.505 188.79 722.707 249.37C652.647 282.53 550.611 290.082 427.572 271.227C422.232 270.409 416.782 269.527 411.369 268.61C343.93 265.462 273.815 258.205 196.77 246.399ZM147.02 -788.028C69.9673 -799.836 -12.7732 -803.222 -105.935 -798.379C-231.298 -791.556 -414.333 -771.141 -574.439 -712.649C-703.509 -668.854 -790.184 -621.38 -839.387 -567.516C-891.414 -512.035 -915.38 -438.302 -910.613 -348.387C-925.459 -203.438 -860.177 -75.1945 -740.25 -13.749C-676.32 23.6147 -600.155 48.7551 -505.479 75.0018C-409.015 110.468 -274.379 147.852 -94.0163 189.247C15.3253 215.233 110.292 234.275 196.297 247.454C273.5 259.285 343.762 266.554 411.1 269.685C416.259 270.575 421.735 271.46 427.099 272.282C550.926 291.258 653.682 283.632 724.239 250.227C873.551 189.441 899.58 117.021 951.431 -27.2634C960.953 -53.7529 971.735 -83.7774 984.223 -116.228C998.564 -158.515 1017.72 -194.572 1034.63 -226.385C1084.61 -320.463 1117.63 -382.618 953.807 -476.184C827.341 -576.239 473.969 -717.65 292.446 -754.192C244.362 -769.32 196.727 -780.411 147.02 -788.028Z" fill="#EDE9F6"/>
<path d="M120.673 223.198C53.3422 212.877 -16.1354 199.797 -91.6991 183.219C-265.199 146.544 -402.69 107.466 -500.368 67.0632C-575.525 43.914 -654.203 16.7393 -721.361 -25.3056C-833.863 -85.9664 -898.243 -208.997 -889.434 -346.422C-899.585 -436.407 -881.419 -506.665 -833.887 -561.266C-788.895 -614.684 -706.184 -661.616 -581.033 -704.761C-453.281 -752.377 -282.742 -783.084 -100.807 -791.236C-14.6276 -794.897 62.2174 -791.317 134.115 -780.297C190.611 -771.636 244.761 -758.3 299.672 -739.521C472.825 -702.316 802.302 -569.034 926.031 -472.205C1084.14 -381.623 1055.97 -320.683 1013.32 -228.432C999.775 -199.131 984.421 -165.916 973.021 -127.57C962.631 -97.9826 953.576 -70.3798 945.6 -46.0192C899.973 93.3271 877.063 163.271 735.68 222.596C645.748 267.453 518.599 262.198 427.76 249.903L427.478 249.881C332.35 248.989 231.989 240.261 120.673 223.198ZM134.587 -781.348C62.4002 -792.413 -14.7206 -796.009 -101.194 -792.341C-283.509 -784.165 -454.413 -753.393 -582.427 -705.679C-707.869 -662.435 -790.794 -615.366 -835.936 -561.779C-883.587 -507.031 -901.816 -436.611 -891.644 -346.508C-900.472 -208.839 -835.844 -85.4861 -722.987 -24.63C-655.645 17.5281 -576.756 44.7786 -501.544 67.9388C-403.817 108.368 -266.124 147.511 -92.4251 184.227C-16.7862 200.821 52.7645 213.912 120.201 224.249C231.68 241.337 332.198 250.082 427.501 250.984C518.881 263.346 646.742 268.583 737.258 223.442C879.126 163.91 902.073 93.8432 947.792 -45.7463C955.768 -70.0995 964.804 -97.7054 975.212 -127.295C986.594 -165.622 1001.94 -198.809 1015.49 -228.095C1058.27 -320.681 1086.55 -381.846 927.753 -472.815C803.91 -569.737 473.85 -703.254 300.599 -740.473C245.693 -759.261 191.315 -772.652 134.587 -781.348Z" fill="#EDE9F6"/>
<path d="M50.0271 204.74C4.03756 197.689 -43.6026 189.2 -91.5874 179.512C-261.793 146.473 -402.043 105.614 -497.204 61.3527C-589.432 29.6895 -651.41 0.917259 -704.585 -34.9079C-756.424 -64.5135 -799.119 -108.57 -828.11 -162.356C-857.273 -216.464 -871.896 -279.219 -870.392 -343.835C-885.817 -432.92 -872.636 -502.057 -830.088 -555.255C-789.17 -608.494 -710.22 -655.147 -588.729 -697.88C-457.936 -747.727 -283.017 -778.9 -96.1505 -785.669C-16.0493 -788.389 55.6103 -784.698 122.923 -774.379C185.857 -764.73 246.154 -749.037 307.271 -726.399C473.716 -688.09 779.09 -561.938 898.517 -469.219C1051.54 -381.008 1028.15 -320.791 992.757 -229.639C982.397 -202.949 970.645 -172.698 962.002 -138.378C953.651 -111.774 946.636 -87.7801 939.857 -64.5836C900.316 70.6271 880.473 138.495 746.411 196.841C659.216 242.808 532.822 241.548 442.145 232.405L441.859 232.393C321.685 235.48 189.855 226.176 50.0271 204.74ZM123.396 -775.433C55.8108 -785.795 -16.1194 -789.503 -96.4993 -786.772C-283.766 -779.991 -459.072 -748.745 -590.137 -698.793C-711.923 -655.955 -791.099 -609.157 -832.159 -555.738C-874.826 -502.39 -888.057 -433.094 -872.605 -343.892C-874.11 -279.228 -859.46 -216.367 -830.237 -162.159C-801.156 -108.197 -758.28 -63.9721 -706.253 -34.2623C-652.966 1.64307 -590.813 30.5004 -498.487 62.1883C-403.241 106.499 -262.714 147.442 -92.2385 180.537C-44.213 190.231 3.50045 198.731 49.555 205.792C189.582 227.259 321.63 236.581 442.035 233.503C533.229 242.686 660.289 243.915 748.006 197.669C882.55 139.117 902.436 71.1246 942.047 -64.328C948.827 -87.5268 955.838 -111.511 964.191 -138.13C972.83 -172.431 984.574 -202.664 994.936 -229.341C1030.45 -320.812 1053.92 -381.245 900.242 -469.826C845.7 -512.182 743.977 -566.587 621.275 -619.02C506.046 -668.26 389.031 -708.749 308.255 -727.332C247.139 -749.991 186.599 -765.744 123.396 -775.433Z" fill="#EDE9F6"/>
<path d="M-7.53097 189.268C-34.7783 185.09 -62.5155 180.395 -89.9819 175.319C-260.954 144.979 -400.221 103.438 -492.758 55.1842C-574.767 23.7608 -634.526 -7.0921 -686.656 -44.9177C-786.433 -105.445 -847.65 -216.255 -850.47 -341.381C-871.312 -429.485 -863.152 -497.423 -825.524 -549.138C-788.739 -602.133 -713.551 -648.434 -595.666 -690.694C-461.84 -742.705 -282.493 -774.274 -90.6339 -779.604C-15.9746 -781.518 51.0047 -777.739 114.137 -768.059C183.088 -757.487 249.083 -739.395 315.905 -712.746C472.059 -674.148 759.384 -552.681 872.424 -465.834C1020.7 -379.891 1002.29 -320.287 974.403 -230.078C967.035 -206.225 958.67 -179.19 952.64 -149.109C946.287 -125.734 940.9 -104.408 935.694 -83.7858C903.558 43.3366 885.859 113.362 758.925 170.755C674.519 217.743 548.825 220.467 458.228 214.48C313.241 222.92 156.629 214.438 -7.53097 189.268ZM114.611 -769.115C51.2222 -778.835 -16.0205 -782.627 -90.9444 -780.706C-283.225 -775.367 -462.97 -743.724 -597.085 -691.602C-715.281 -649.231 -790.7 -602.774 -827.613 -549.59C-865.354 -497.729 -873.553 -429.627 -852.673 -341.403C-849.854 -216.082 -788.435 -104.994 -688.379 -44.3052C-636.159 -6.40764 -576.231 24.532 -494.148 55.9764C-401.492 104.304 -261.887 145.953 -90.5758 176.353C-63.0698 181.437 -35.2797 186.14 -8.00385 190.322C156.461 215.539 313.376 224.036 458.409 215.579C549.229 221.592 675.644 218.843 760.56 171.569C887.958 113.966 905.693 43.8098 937.89 -83.5513C943.099 -104.173 948.488 -125.494 954.829 -148.89C960.86 -178.954 969.218 -205.973 976.594 -229.815C1004.57 -320.339 1023.05 -380.143 874.146 -466.444C820.599 -507.588 726.88 -558.228 610.342 -608.967C503.243 -655.595 393.563 -694.732 316.958 -713.658C250.117 -740.334 183.858 -758.498 114.611 -769.115Z" fill="#EDE9F6"/>
<path d="M-54.6493 176.36C-66.3138 174.571 -78.1195 172.671 -89.7351 170.715C-262.171 142.88 -400.365 100.686 -489.376 48.689C-561.308 17.8307 -618.547 -15.1562 -669.656 -55.1905C-762.275 -115.177 -822.683 -221.269 -831.307 -339.03C-858.006 -427.34 -854.953 -492.144 -821.708 -543.026C-789.124 -595.741 -717.746 -641.667 -603.5 -683.444C-468.716 -736.821 -280.246 -769.618 -86.3806 -773.442C-16.6809 -774.674 46.0153 -770.852 105.285 -761.763C180.846 -750.176 250.012 -730.25 322.966 -699.053C469.655 -659.977 734.776 -545.825 844.33 -462.559C988.108 -378.701 974.839 -319.518 954.756 -229.928C950.113 -209.189 944.848 -185.688 941.174 -160.115C936.746 -140.243 932.919 -121.866 929.233 -104.094C903.538 19.5648 889.397 87.681 769.442 144.259C687.938 192.206 562.999 198.924 472.534 196.125C307.532 210.795 125.307 203.956 -54.6493 176.36ZM105.759 -762.818C46.2367 -771.946 -16.7045 -775.784 -86.6593 -774.545C-280.958 -770.714 -469.862 -737.831 -604.942 -684.337C-719.502 -642.451 -791.109 -596.361 -823.82 -543.444C-857.168 -492.409 -860.248 -427.446 -833.504 -339.024C-824.873 -221.096 -764.28 -114.747 -671.423 -54.6123C-620.25 -14.5172 -562.855 18.5567 -490.868 49.4283C-401.687 101.531 -263.11 143.859 -90.2604 171.76C-78.6366 173.717 -66.8096 175.618 -55.1207 177.411C125.189 205.061 307.753 211.911 472.844 197.216C563.536 200.042 689.148 193.275 771.114 145.056C891.512 88.265 905.695 20.0169 931.433 -103.883C935.122 -121.652 938.936 -140.029 943.378 -159.913C947.053 -185.488 952.315 -208.983 956.956 -229.707C967.336 -276.018 975.54 -312.593 963.308 -349.033C950.102 -388.377 913.946 -423.581 846.056 -463.17C794.367 -502.456 706.113 -550.696 597.62 -598.937C498.727 -642.91 396.477 -680.666 324.098 -699.94C251.097 -731.175 181.649 -751.181 105.759 -762.818Z" fill="#EDE9F6"/>
<path d="M-103.3 165.16C-270.93 139.453 -403.158 97.2974 -485.686 43.2442C-549.431 12.4722 -600.804 -20.7521 -652.373 -64.5542C-737.945 -124.148 -797.514 -225.693 -811.79 -336.241C-844.106 -423.69 -845.877 -487.409 -817.396 -536.832C-789.387 -588.622 -719.826 -635.571 -610.624 -676.401C-472.85 -732.024 -279.86 -765.316 -81.1096 -767.748C-15.8447 -768.425 43.0009 -764.591 98.7866 -756.036C179.687 -743.629 253.548 -721.31 331.216 -685.79C473.28 -644.816 711.331 -539.342 817.597 -459.401C957.38 -377.213 949.892 -321.168 937.489 -228.315C935.075 -210.202 932.574 -191.482 930.916 -170.728C928.218 -154.675 925.862 -139.573 923.562 -124.97C904.642 -4.01247 894.215 62.6131 780.872 118.711C702.238 167.681 577.963 178.451 487.542 178.875C303.055 200.667 103.749 196.655 -89.053 167.294C-93.8461 166.591 -98.5813 165.884 -103.3 165.16ZM99.2615 -757.095C43.236 -765.687 -15.8473 -769.533 -81.3522 -768.854C-280.557 -766.417 -473.996 -733.043 -612.074 -677.294C-721.598 -636.345 -791.406 -589.214 -819.527 -537.214C-848.1 -487.635 -846.341 -423.761 -813.98 -336.2C-799.698 -225.513 -739.955 -123.735 -654.193 -64.0123C-602.566 -20.1552 -551.065 13.1518 -487.277 43.9352C-404.555 98.1252 -271.899 140.434 -103.774 166.217C-99.047 166.942 -94.3036 167.65 -89.5084 168.349C103.667 197.77 303.369 201.787 487.996 179.965C578.632 179.555 703.523 168.718 782.564 119.491C896.357 63.1747 906.798 -3.58951 925.777 -124.785C928.057 -139.392 930.423 -154.488 933.121 -170.56C934.776 -191.326 937.287 -210.041 939.697 -228.141C945.894 -274.536 950.785 -311.178 936.705 -347.405C921.533 -386.473 885.33 -421.201 819.311 -460.018C769.489 -497.504 686.666 -543.411 586.188 -589.218C495.491 -630.566 400.615 -666.994 332.407 -686.654C254.679 -722.222 180.52 -744.634 99.2615 -757.095Z" fill="#EDE9F6"/>
<path d="M-125.769 157.963C-284.28 133.651 -407.465 91.9082 -482.006 37.2494C-536.492 7.54921 -583.753 -26.8774 -635.356 -74.4475C-714.129 -133.717 -773.014 -230.658 -792.925 -333.813C-831.602 -421.541 -838.077 -482.282 -813.93 -530.845C-790.105 -582.385 -724.356 -628.993 -618.507 -669.398C-477.656 -727.201 -279.98 -760.908 -76.1275 -761.88C-14.8262 -762.067 40.5824 -758.228 93.2511 -750.15C179.33 -736.948 257.629 -712.201 339.66 -672.276C471.381 -630.993 689.291 -532.083 791.722 -456.022C928.458 -375.04 926.402 -318.486 923.015 -224.787C922.525 -210.976 921.995 -196.685 921.889 -181.314C920.677 -169.556 919.591 -158.234 918.542 -147.343C907.12 -28.4349 900.823 37.0612 793.642 92.9138C717.905 142.792 594.156 157.602 503.68 161.253C311.063 189.214 106.594 189.931 -87.8622 163.347C-100.634 161.674 -113.386 159.862 -125.769 157.963ZM93.7239 -751.204C40.8274 -759.317 -14.8008 -763.171 -76.3452 -762.984C-280.666 -762.007 -478.807 -728.223 -619.974 -670.286C-726.16 -629.761 -792.154 -582.954 -816.082 -531.195C-840.305 -482.471 -833.836 -421.573 -795.108 -333.735C-775.178 -230.468 -716.15 -133.323 -637.221 -73.9441C-585.579 -26.3267 -538.207 8.17509 -483.686 37.8831C-408.933 92.7104 -285.293 134.62 -126.241 159.015C-113.826 160.919 -101.045 162.736 -88.2405 164.413C106.583 191.051 311.479 190.332 504.252 162.332C594.947 158.688 719.264 143.795 795.377 93.6705C903.004 37.5973 909.307 -28.0387 920.756 -147.19C921.806 -158.083 922.89 -169.401 924.101 -181.186C924.207 -196.576 924.725 -210.86 925.232 -224.671C926.919 -271.568 928.27 -308.602 912.068 -344.86C894.603 -383.915 858.024 -418.389 793.436 -456.636C690.919 -532.766 472.646 -631.845 340.92 -673.118C258.803 -713.104 180.186 -737.943 93.7239 -751.204Z" fill="#EDE9F6"/>
<path d="M-143.071 151.551C-294.712 128.291 -410.575 86.6283 -478.136 31.0602C-531.932 -2.27928 -572.92 -39.2219 -617.935 -84.4576C-691.062 -144.412 -747.71 -234.389 -773.412 -331.362C-803.479 -389.799 -834.751 -464.522 -809.728 -524.736C-790.139 -575.993 -728.27 -622.249 -625.84 -662.22C-484.17 -721.316 -276.823 -756.312 -71.1628 -755.84C-13.5168 -755.62 38.6982 -751.799 88.4604 -744.166C180.648 -730.026 260.581 -703.667 347.618 -658.682C471.084 -616.39 668.064 -523.588 764.775 -452.728C899.5 -372.228 903.352 -314.352 909.74 -218.46C910.316 -209.983 910.894 -201.221 911.582 -192.131C911.4 -185.297 911.247 -178.597 911.075 -172.05C908.301 -58.0631 906.616 10.7378 805.195 66.7705C732.463 117.489 609.362 136.364 518.883 143.276C321.536 177.007 106.442 182.617 -86.944 159.104C-106.019 156.88 -124.904 154.338 -143.071 151.551ZM88.9331 -745.22C38.9512 -752.887 -13.4773 -756.726 -71.3438 -756.948C-167.771 -757.165 -267.625 -749.489 -360.137 -734.738C-462.656 -718.394 -552.547 -694.298 -627.316 -663.107C-730.11 -622.992 -792.22 -576.538 -811.901 -525.047C-837.011 -464.618 -805.682 -389.733 -775.581 -331.245C-749.862 -234.185 -693.089 -144.041 -619.851 -83.9939C-574.81 -38.7299 -533.748 -1.72005 -479.903 31.6366C-412.113 87.4025 -295.771 129.255 -143.544 152.605C-125.328 155.399 -106.389 157.947 -87.2693 160.178C9.15676 171.905 110.068 176.546 212.651 173.97C316.594 171.365 419.858 161.396 519.585 144.347C610.262 137.43 733.906 118.458 806.96 67.5074C908.821 11.241 910.507 -57.7078 913.298 -171.937C913.444 -178.486 913.612 -185.181 913.798 -192.041C913.098 -201.162 912.523 -209.924 911.954 -218.395C905.552 -314.537 901.687 -372.57 766.494 -453.344C669.682 -524.269 472.41 -617.216 348.949 -659.498C261.786 -704.551 181.54 -731.016 88.9331 -745.22Z" fill="#EDE9F6"/>
<path d="M-157.537 145.554C-303.918 123.098 -413.722 81.2666 -475.068 24.5873C-525.224 -11.0128 -562.21 -51.6703 -601.362 -94.7153C-667.991 -154.791 -723.898 -240.204 -754.788 -329.095C-791.094 -390.459 -825.595 -460.927 -806.445 -518.746C-791.135 -569.691 -733.152 -615.571 -634.103 -655.106C-489.553 -716.319 -277.612 -751.711 -67.1385 -749.791C-12.8418 -749.217 36.4494 -745.426 83.5611 -738.198C180.497 -723.328 264.111 -694.613 354.658 -645.093C469.118 -601.977 643.32 -517.066 736.974 -449.472C871.867 -368.082 882.39 -307.337 899.827 -206.692L900.464 -203.042L900.652 -200.099C907.964 -85.5751 912.386 -16.4461 815.944 40.4371C746.294 91.9091 623.813 114.863 533.318 125.065C328.728 164.977 108.553 175.441 -86.8005 154.559C-111.039 152.066 -134.833 149.037 -157.537 145.554ZM84.0345 -739.254C36.7154 -746.513 -12.7822 -750.319 -67.2964 -750.893C-278.262 -752.82 -490.712 -717.339 -635.599 -655.986C-735.019 -616.292 -793.24 -570.21 -808.633 -519.014C-827.854 -460.978 -793.281 -390.36 -756.939 -328.932C-726.034 -239.986 -670.026 -154.439 -603.318 -94.2897C-564.16 -51.2366 -527.132 -10.529 -476.921 25.1038C-415.329 82.0199 -305.025 124.054 -158.01 146.607C-135.236 150.101 -111.368 153.139 -87.0624 155.637C108.699 176.567 329.315 166.081 534.132 126.119C624.825 115.902 747.799 92.846 817.752 41.1536C914.62 -15.982 910.192 -85.2624 902.857 -200.035L902.665 -203.007L902.026 -206.692C884.552 -307.566 874.003 -368.446 738.696 -450.083C644.944 -517.742 470.507 -602.778 356.053 -645.877C265.368 -695.488 181.417 -724.315 84.0345 -739.254Z" fill="#EDE9F6"/>
<path d="M-168.214 141.146C-310.386 119.334 -414.935 77.1556 -470.575 19.1703C-507.666 -11.3285 -535.878 -45.9489 -565.752 -82.598C-571.455 -89.5974 -577.264 -96.7198 -583.251 -103.969C-643.989 -165.003 -699.094 -245.907 -734.454 -325.965C-775.181 -386.681 -814.945 -456.209 -801.322 -512.02C-790.291 -562.681 -736.191 -608.224 -640.509 -647.381C-493.106 -710.78 -276.63 -746.635 -61.4339 -743.293C-10.2216 -742.431 36.3759 -738.687 81.0091 -731.839C182.522 -716.265 269.547 -685.183 363.167 -631.062C467.426 -587.521 620.098 -509.918 710.434 -445.702C838.715 -367.346 863.991 -305.631 890.394 -213.295C908.64 -108.169 915.376 -40.881 827.651 14.9579C761.099 67.1709 639.255 94.2626 548.751 107.804C337.18 153.999 112.008 169.363 -85.4329 151.087C-114.017 148.534 -141.869 145.188 -168.214 141.146ZM81.4813 -732.892C36.6491 -739.771 -10.1353 -743.534 -61.5579 -744.401C-277.275 -747.743 -494.26 -711.801 -642.011 -648.252C-738.088 -608.933 -792.434 -563.17 -803.52 -512.243C-817.194 -456.219 -777.351 -386.538 -736.582 -325.76C-701.21 -245.671 -646.041 -164.67 -585.246 -103.586C-579.296 -96.3813 -573.491 -89.2595 -567.791 -82.263C-537.879 -45.5643 -509.627 -10.9063 -472.499 19.6273C-445.655 47.6051 -406.788 72.2424 -357.024 92.8006C-304.64 114.44 -241.272 131.061 -168.685 142.197C-142.25 146.253 -114.312 149.607 -85.637 152.172C112.219 170.489 337.837 155.099 549.67 108.845C640.373 95.2761 762.667 68.0714 829.491 15.6502C917.631 -40.4477 910.885 -107.907 892.587 -213.323C866.132 -305.892 840.781 -367.75 712.144 -446.32C621.745 -510.587 468.88 -588.293 364.636 -631.812C270.834 -686.048 183.461 -717.247 81.4813 -732.892Z" fill="#EDE9F6"/>
<path d="M-177.886 135.846C-316.843 114.524 -416.964 71.8503 -467.407 12.4414C-495.372 -14.5073 -516.583 -44.4733 -539.042 -76.2004C-547.82 -88.5996 -556.899 -101.423 -566.706 -114.543C-607.646 -160.988 -666.764 -235.024 -716.047 -324.166C-763.677 -387.253 -806.586 -452.98 -798.338 -506.607C-791.655 -556.964 -741.388 -602.15 -648.939 -640.902C-498.543 -706.451 -277.293 -742.707 -57.0692 -737.88C-9.30704 -736.781 36.127 -732.971 77.9543 -726.553C184.066 -710.271 274.432 -676.801 370.971 -618.033C457.096 -577.845 590.592 -507.912 683.767 -442.88C803.083 -369.07 844.995 -309.185 880.608 -224.477C911.904 -123.782 914.17 -63.1877 839.702 -11.5001C776.234 41.3488 654.889 72.5811 564.255 89.4778C345.641 141.918 115.179 162.12 -84.7765 146.377C-117.18 143.899 -148.505 140.354 -177.886 135.846ZM78.4265 -727.606C36.4121 -734.053 -9.21004 -737.88 -57.1664 -738.982C-159.326 -741.221 -266.195 -734.253 -366.227 -718.835C-474.957 -702.073 -573.246 -675.42 -650.457 -641.77C-743.324 -602.842 -793.825 -557.426 -800.545 -506.781C-808.821 -452.947 -765.833 -387.077 -718.141 -323.915C-668.854 -234.753 -609.689 -160.659 -568.742 -114.208C-558.969 -101.13 -549.896 -88.3117 -541.116 -75.917C-518.634 -44.1525 -497.397 -14.1486 -469.396 12.8349C-445.055 41.5005 -408.55 66.6156 -360.92 87.4363C-310.754 109.366 -249.335 126.008 -178.358 136.899C-148.867 141.424 -117.433 144.978 -84.9263 147.468C115.461 163.246 346.363 143.012 565.27 90.4996C656.11 73.5617 777.87 42.216 841.57 -10.8399C878.529 -36.4773 897.838 -65.747 902.301 -102.913C906.775 -140.25 895.565 -183.45 882.782 -224.577C847.078 -309.498 805.063 -369.521 685.473 -443.496C592.247 -508.57 458.612 -578.58 372.511 -618.743C275.763 -677.657 185.026 -711.249 78.4265 -727.606Z" fill="#EDE9F6"/>
<path d="M-185.809 131.835C-321.953 110.942 -417.942 67.7098 -463.404 6.8069C-484.533 -17.5003 -500.369 -44.1718 -517.137 -72.4072C-527.023 -89.053 -537.243 -106.271 -549.111 -123.961C-558.223 -135.883 -567.838 -148.319 -577.819 -161.228C-614.955 -209.258 -657.04 -263.694 -696.26 -321.142C-756.931 -393.229 -796.711 -451.199 -793.757 -499.902C-791.422 -549.935 -745.044 -594.761 -655.903 -633.125C-504.984 -699.83 -273.59 -737.43 -52.0144 -731.261C-6.85227 -729.956 36.2018 -726.205 75.941 -720.107C187.899 -702.926 278.47 -668.173 378.798 -603.908C416.811 -583.846 548.934 -512.811 656.584 -439.064C762.415 -372.527 824.208 -313.339 869.916 -234.746C903.433 -165.542 924.32 -93.682 850.764 -37.0864C803.037 5.1971 709.114 42.925 579.108 72.0435C353.871 130.772 118.417 155.845 -83.9013 142.656C-119.626 140.369 -153.911 136.73 -185.809 131.835ZM76.4139 -721.162C36.5 -727.287 -6.73796 -731.054 -52.087 -732.359C-156.091 -735.257 -265.223 -728.517 -367.7 -712.868C-478.912 -695.887 -579.099 -668.609 -657.437 -633.984C-747.009 -595.433 -793.619 -550.362 -795.962 -500.03C-798.937 -451.126 -759.075 -393.027 -698.319 -320.832C-659.113 -263.401 -617.015 -208.953 -579.871 -160.912C-569.893 -148.006 -560.282 -135.571 -551.184 -123.675C-539.35 -106.027 -529.133 -88.8215 -519.252 -72.1837C-502.458 -43.9104 -486.601 -17.2067 -465.442 7.13915C-443.507 36.5288 -409.227 62.1485 -363.568 83.2705C-315.468 105.524 -255.821 122.216 -186.281 132.888C-154.257 137.802 -119.84 141.457 -83.9882 143.751C118.761 156.967 354.653 131.857 580.205 73.0436C710.539 43.8519 804.79 5.98506 852.682 -36.4549C884.99 -61.3129 901.403 -90.1015 902.79 -124.438C903.996 -154.04 894.231 -189.151 872.048 -234.937C826.23 -313.722 764.312 -373.031 658.296 -439.689C550.595 -513.465 418.373 -584.549 380.414 -604.579C279.831 -669.019 188.887 -703.902 76.4139 -721.162Z" fill="#EDE9F6"/>
<path d="M-192.813 127.926C-324.823 107.665 -419.658 62.5687 -459.85 0.944726C-475.679 -21.322 -487.275 -45.5226 -499.554 -71.1477C-509.241 -91.3606 -519.256 -112.267 -532.061 -133.732C-565.655 -185.733 -614.435 -243.855 -666.068 -305.389L-677.192 -318.647C-733.264 -378.797 -788.142 -441.863 -789.995 -493.888C-792.045 -543.632 -749.504 -588.135 -663.548 -626.157C-509.714 -695.058 -273.483 -733.13 -47.0396 -725.516C-4.238 -724.044 36.643 -720.351 74.4745 -714.544C220.826 -692.081 314.589 -639.253 386.998 -590.54C434.751 -561.641 529.776 -503.158 630.086 -435.854C714.81 -381.553 801.306 -320.912 860.141 -245.423C915.607 -167.641 916.43 -109.643 862.713 -62.9129C816.826 -19.5903 726.618 19.8944 594.58 54.4604C362.624 119.539 121.967 149.501 -83.0669 138.834C-121.811 136.827 -158.732 133.157 -192.813 127.926ZM74.9465 -715.597C36.9483 -721.429 -4.1124 -725.138 -47.0878 -726.62C-274.077 -734.247 -510.884 -696.082 -665.099 -627.009C-751.503 -588.792 -794.271 -544.025 -792.209 -493.968C-790.344 -441.718 -735.362 -378.525 -679.207 -318.279L-668.101 -305.041C-616.477 -243.533 -567.725 -185.435 -534.171 -133.493C-521.386 -112.07 -511.38 -91.1819 -501.704 -70.9828C-489.404 -45.3278 -477.796 -21.0962 -461.934 1.21434C-442.258 31.3833 -410.014 57.574 -366.103 79.0539C-319.828 101.685 -261.687 118.483 -193.286 128.982C-159.067 134.234 -121.991 137.918 -83.103 139.932C122.366 150.617 363.468 120.612 595.768 55.4433C728.133 20.7891 818.619 -18.8323 864.681 -62.3125C918.692 -109.313 917.916 -167.597 862.201 -245.725C803.243 -321.377 716.632 -382.11 631.8 -436.471C531.468 -503.784 436.417 -562.285 388.695 -591.167C316.082 -640.024 221.985 -693.029 74.9465 -715.597Z" fill="#EDE9F6"/>
<path d="M-198.786 124.181C-328.915 104.206 -420.259 58.3641 -455.994 -4.90043C-467.558 -25.4879 -475.693 -47.7112 -484.307 -71.2361C-492.853 -94.5951 -501.694 -118.749 -514.675 -143.464C-539.866 -191.415 -582.65 -243.041 -657.736 -316.081C-721.364 -378.063 -779.031 -437.833 -785.782 -487.767C-792.23 -537.207 -753.536 -581.38 -670.766 -619.066C-514.063 -690.165 -273.072 -728.704 -41.8347 -719.65C-1.25754 -718.039 37.583 -714.414 73.619 -708.882C225.455 -685.574 321.422 -629.173 395.266 -577.077C407.273 -568.592 419.525 -559.88 432.078 -550.947C482.129 -515.353 538.851 -475.008 603.543 -432.583C618.867 -422.536 634.868 -412.226 650.347 -402.255C722.635 -355.679 797.38 -307.522 850.257 -256.08C912.556 -195.423 921.179 -136 874.536 -88.7617C831.174 -45.0724 742.179 -2.81117 610.015 36.8493C371.487 108.278 125.703 143.139 -82.0796 135.003C-123.56 133.344 -162.827 129.701 -198.786 124.181ZM74.0921 -709.938C37.8976 -715.494 -1.11451 -719.134 -41.8563 -720.755C-273.654 -729.827 -515.237 -691.189 -672.333 -619.911C-755.571 -582.015 -794.48 -537.564 -787.985 -487.794C-781.201 -437.642 -723.427 -377.743 -659.684 -315.649C-584.684 -242.688 -541.953 -191.139 -516.814 -143.275C-503.853 -118.603 -495.02 -94.4714 -486.478 -71.1324C-477.858 -47.58 -469.712 -25.3333 -458.113 -4.68933C-440.615 26.2855 -410.307 53.07 -368.017 74.9306C-323.448 97.9588 -266.673 114.886 -199.258 125.235C-163.137 130.78 -123.702 134.436 -82.057 136.106C21.4062 140.155 134.691 133.542 254.665 116.448C373.675 99.4897 493.647 73.0303 611.274 37.8095C743.755 -1.94796 833.002 -44.3453 876.539 -88.2019C923.485 -135.748 914.848 -195.528 852.203 -256.516C799.225 -308.054 724.404 -356.264 652.05 -402.884C636.572 -412.851 620.578 -423.156 605.271 -433.201C540.587 -475.606 483.885 -515.938 433.845 -551.527C421.302 -560.454 409.036 -569.173 397.035 -577.66C322.941 -629.935 226.636 -686.522 74.0921 -709.938Z" fill="#EDE9F6"/>
<path d="M-195.868 110.45C-325.396 90.5611 -415.708 46.3379 -450.162 -14.076C-462.388 -35.4723 -470.61 -58.2725 -479.31 -82.4082C-487.057 -103.893 -495.067 -126.11 -506.514 -149C-511.948 -159.723 -518.507 -171.004 -526.007 -182.531C-550.881 -220.756 -586.296 -262.294 -640.833 -317.216C-700.462 -377.484 -754.431 -435.61 -759.83 -484.302C-764.979 -532.437 -727.001 -575.417 -646.956 -612.052C-554.739 -654.316 -434.617 -683.778 -299.584 -697.258C-213.173 -706.311 -121.125 -708.85 -33.3661 -704.607C5.32323 -702.869 42.51 -699.29 77.1496 -693.971C170.226 -679.679 250.23 -652.582 328.91 -608.699C350.424 -596.633 372.178 -583.116 395.4 -567.379C413.794 -555.067 432.489 -542.381 452.289 -528.953C496.68 -498.856 546.971 -464.743 602.225 -429.23C611.292 -423.438 620.447 -417.621 629.658 -411.771C692.282 -371.982 757.048 -330.836 808.383 -287.364C820.584 -277.041 831.745 -266.83 841.541 -257.012C900.673 -198.012 908.321 -140.04 863.088 -93.7789C820.771 -50.6325 734.743 -9.08753 607.422 29.7057C522.402 56.0988 429.7 77.5344 331.893 93.4202C263.873 104.691 194.314 112.971 125.155 118.029C55.7122 123.073 -9.27956 124.115 -79.393 121.301C-120.63 119.635 -159.822 115.985 -195.868 110.45ZM77.6205 -695.022C42.8265 -700.364 5.48334 -703.963 -33.3605 -705.705C-121.326 -709.963 -213.606 -707.411 -300.208 -698.339C-435.595 -684.824 -556.049 -655.279 -648.528 -612.898C-729.03 -576.056 -767.217 -532.802 -762.036 -484.342C-756.615 -435.428 -702.543 -377.183 -642.796 -316.799C-588.314 -261.929 -552.941 -220.442 -528.101 -182.278C-520.62 -170.775 -514.075 -159.521 -508.652 -148.824C-497.227 -125.971 -489.225 -103.775 -481.487 -82.3104C-472.775 -58.1416 -464.542 -35.3177 -452.282 -13.8628C-417.591 46.9635 -326.693 91.4878 -196.34 111.504C-160.131 117.063 -120.781 120.728 -79.3825 122.401C-9.09731 125.22 56.0642 124.178 125.665 119.122C194.944 114.055 264.614 105.761 332.751 94.4716C430.7 78.5613 523.55 57.0929 608.705 30.6621C736.337 -8.22631 822.601 -49.9097 865.094 -93.2257C910.616 -139.792 902.958 -198.11 843.506 -257.434C833.678 -267.276 822.494 -277.512 810.262 -287.854C758.847 -331.402 694.035 -372.579 631.349 -412.405C622.137 -418.252 612.978 -424.07 603.924 -429.862C548.69 -465.36 500.568 -497.995 454.023 -529.555C434.228 -542.985 415.533 -555.671 397.135 -567.984C373.862 -583.753 352.067 -597.296 330.499 -609.387C251.502 -653.452 171.148 -680.66 77.6205 -695.022Z" fill="#EDE9F6"/>
<path d="M-193.811 96.6001C-322.506 76.8328 -411.638 34.2793 -444.783 -23.2207C-457.715 -45.4619 -465.982 -68.826 -474.736 -93.5639C-481.661 -113.133 -488.817 -133.367 -498.765 -154.355C-503.815 -164.733 -509.929 -175.697 -516.942 -186.953C-540.195 -224.283 -573.283 -264.696 -624.233 -317.983C-679.82 -376.463 -730.05 -432.877 -734.092 -480.282C-737.927 -527.064 -700.713 -568.803 -623.464 -604.345C-532.744 -646.338 -415.367 -674.211 -284.025 -684.957C-200.879 -692.579 -114.014 -693.855 -25.8249 -688.741C10.9113 -686.888 46.3519 -683.364 79.5142 -678.27C170.512 -664.293 249.577 -638.229 328.354 -596.245C349.714 -584.749 371.255 -571.914 394.218 -557.004C421.424 -539.785 449.54 -521.585 479.295 -502.317C517.15 -477.805 556.286 -452.462 599.396 -425.344L604.014 -422.468C673.202 -379.459 744.732 -334.985 799.619 -287.242C811.185 -277.201 821.787 -267.224 831.099 -257.605C887.002 -200.322 893.686 -143.87 849.903 -98.6438C808.669 -56.0849 725.717 -15.3025 603.367 22.5764C521.859 48.7831 432.432 68.8661 329.97 83.988C263.866 94.1549 196.75 101.36 124.791 106.026C59.517 110.194 -0.992343 110.632 -77.5193 107.488C-118.517 105.819 -157.64 102.156 -193.811 96.6001ZM79.9865 -679.324C46.678 -684.441 11.0913 -687.978 -25.783 -689.842C-114.173 -694.963 -201.256 -693.684 -284.59 -686.04C-416.303 -675.268 -534.039 -647.312 -625.044 -605.186C-702.728 -569.44 -740.164 -527.436 -736.299 -480.335C-732.238 -432.721 -681.903 -376.182 -626.208 -317.584C-575.312 -264.351 -542.262 -223.987 -519.045 -186.714C-512.048 -175.483 -505.95 -164.539 -500.91 -154.188C-490.98 -133.237 -483.825 -113.019 -476.909 -93.4688C-468.15 -68.7035 -459.868 -45.3055 -446.902 -23.0056C-430.602 5.26864 -400.658 30.0914 -357.893 50.774C-314.17 71.9213 -259.121 87.6931 -194.282 97.6522C-157.953 103.232 -118.662 106.909 -77.4994 108.586C-0.805962 111.736 59.8376 111.299 125.266 107.116C197.344 102.445 264.57 95.2276 330.78 85.0478C433.417 69.9021 523.011 49.7768 604.661 23.524C727.322 -14.4477 810.516 -55.3649 851.908 -98.0911C895.981 -143.616 889.294 -200.411 833.069 -258.013C823.732 -267.662 813.106 -277.653 801.506 -287.725C746.529 -335.548 674.93 -380.061 605.679 -423.114L601.078 -425.979C557.99 -453.088 518.851 -478.434 480.997 -502.94C451.235 -522.212 423.124 -540.413 395.911 -557.636C372.917 -572.563 351.328 -585.427 329.91 -596.956C250.822 -639.108 171.406 -665.282 79.9865 -679.324Z" fill="#EDE9F6"/>
<path d="M-192.056 82.6654C-318.196 63.2835 -408.57 21.2719 -440.012 -32.5992C-453.749 -55.7823 -462.036 -79.751 -470.812 -105.128C-476.919 -122.789 -483.23 -141.044 -491.757 -160.1C-496.453 -170.157 -502.139 -180.824 -508.663 -191.804C-530.341 -228.283 -561.178 -267.618 -608.652 -319.344C-660.322 -376.105 -706.929 -430.875 -709.64 -477.058C-712.187 -522.543 -675.666 -563.085 -601.107 -597.56C-511.735 -639.32 -396.9 -665.625 -268.999 -673.635C-190.299 -679.744 -105.974 -679.81 -18.3329 -673.847C16.4694 -671.882 50.1761 -668.411 81.8746 -663.541C170.988 -649.848 249.328 -624.766 328.431 -584.607C349.686 -573.651 371.07 -561.48 393.794 -547.396C434.255 -523.266 476.997 -496.76 522.249 -468.703C546.455 -453.688 571.485 -438.166 597.736 -422.033C666.714 -380.391 738.563 -335.712 792.425 -287.523C803.428 -277.718 813.48 -267.974 822.317 -258.55C875.118 -202.919 880.855 -147.914 838.461 -103.675C798.247 -61.657 718.226 -21.6005 600.629 15.3889C521.732 41.6259 435.4 60.4208 328.902 74.5375C265.782 83.459 199.068 89.8246 124.9 94.0004C55.3674 97.8323 -1.23957 96.7691 -75.5294 93.6406C-116.421 91.9561 -155.623 88.2635 -192.056 82.6654ZM82.3456 -664.593C50.513 -669.484 16.6631 -672.965 -18.2652 -674.939C-106.083 -680.914 -190.623 -680.845 -269.501 -674.727C-397.797 -666.696 -513.021 -640.3 -602.691 -598.397C-677.682 -563.725 -714.411 -522.921 -711.843 -477.125C-709.129 -430.733 -662.431 -375.838 -610.655 -318.966C-563.224 -267.288 -532.422 -228.002 -510.777 -191.584C-504.267 -180.623 -498.596 -169.98 -493.906 -159.948C-485.403 -140.925 -479.087 -122.681 -472.988 -105.04C-464.202 -79.626 -455.901 -55.6234 -442.13 -32.3795C-410.452 21.8961 -319.477 64.2134 -192.528 83.7195C-155.937 89.3419 -116.567 93.0482 -75.5138 94.7405C-1.09597 97.8742 55.6329 98.9367 125.342 95.0981C199.623 90.9129 266.454 84.5387 329.656 75.6005C436.359 61.4598 522.879 42.6235 601.941 16.3295C719.841 -20.7465 800.094 -60.942 840.47 -103.129C883.137 -147.665 877.405 -203.001 824.302 -258.948C815.447 -268.389 805.36 -278.162 794.333 -287.99C740.364 -336.271 668.439 -381.003 599.392 -422.685C573.155 -438.811 548.121 -454.334 523.913 -469.344C478.661 -497.411 435.911 -523.918 395.448 -548.043C372.684 -562.155 351.247 -574.354 329.945 -585.339C250.535 -625.656 171.862 -650.838 82.3456 -664.593Z" fill="#EDE9F6"/>
<path d="M-190.795 69.6636C-315.87 50.4399 -404.854 10.0989 -434.932 -41.0223C-449.476 -65.2359 -457.684 -89.841 -466.376 -115.891C-471.629 -131.635 -477.062 -147.919 -484.18 -165.002C-488.489 -174.734 -493.721 -185.107 -499.747 -195.839C-519.755 -231.488 -548.235 -269.772 -592.097 -319.98C-637.792 -372.856 -682.522 -428.24 -683.809 -473.224C-685 -517.462 -649.195 -556.869 -577.392 -590.349C-489.472 -631.96 -377.328 -656.778 -253.087 -662.123C-179.132 -666.787 -97.4892 -665.692 -10.3803 -658.874C22.3676 -656.815 54.2217 -653.428 84.315 -648.802C171.424 -635.414 248.946 -611.313 328.274 -572.958C349.362 -562.554 370.521 -551.041 392.981 -537.76C455.825 -502.451 523.505 -461.758 595.161 -418.674C658.835 -381.303 731.032 -336.521 783.803 -287.699C794.198 -278.136 803.681 -268.613 812.006 -259.38C861.554 -205.366 866.264 -151.755 825.257 -108.425C786.087 -66.8827 709.077 -27.4715 596.372 8.71668C519.686 35.1912 436.516 52.7909 326.682 65.7927C266.139 73.6387 201.795 79.0424 124.2 82.8048C52.9992 86.1456 -1.10919 83.8277 -69.6275 80.896L-74.0248 80.7052C-114.8 79.0224 -154.084 75.306 -190.795 69.6636ZM84.7865 -649.855C54.5633 -654.501 22.5823 -657.905 -10.2691 -659.966C-97.5496 -666.798 -179.401 -667.893 -253.512 -663.219C-378.179 -657.862 -490.735 -632.949 -578.98 -591.183C-651.204 -557.51 -687.222 -517.85 -686.018 -473.311C-684.72 -428.117 -639.902 -372.603 -594.111 -319.62C-550.291 -269.462 -521.847 -231.227 -501.865 -195.634C-495.858 -184.918 -490.629 -174.568 -486.337 -164.866C-479.227 -147.813 -473.802 -131.542 -468.554 -115.806C-459.851 -89.7205 -451.631 -65.077 -437.045 -40.799C-406.731 10.7248 -317.145 51.3693 -191.266 70.7166C-154.397 76.3833 -114.948 80.118 -74.0101 81.8063L-69.6168 81.9964C-0.996035 84.9318 53.1985 87.2508 124.607 83.903C202.321 80.137 266.752 74.7225 327.387 66.864C437.467 53.8369 520.833 36.1874 597.707 9.6519C710.695 -26.6261 787.931 -66.1748 827.272 -107.885C868.546 -151.501 863.83 -205.438 814.008 -259.761C805.658 -269.015 796.133 -278.571 785.723 -288.158C732.849 -337.078 660.552 -381.92 596.795 -419.337C525.14 -462.424 457.438 -503.127 394.57 -538.44C372.103 -551.734 350.897 -563.279 329.745 -573.714C250.11 -612.218 172.273 -636.409 84.7865 -649.855Z" fill="#EDE9F6"/>
<path d="M-188.679 55.823C-312.642 36.7622 -400.254 -1.85335 -429.06 -50.1263C-444.527 -75.3865 -452.624 -100.572 -461.195 -127.238C-465.627 -141.031 -470.205 -155.29 -476.037 -170.317C-480.035 -179.851 -484.71 -189.63 -490.314 -200.221C-508.71 -234.951 -534.917 -272.114 -575.281 -320.711C-617.181 -371.857 -658.084 -425.456 -658.029 -469.182C-657.927 -512.066 -622.869 -550.226 -553.824 -582.591C-467.359 -623.91 -357.88 -647.127 -237.212 -649.731C-167.174 -653.001 -90.3458 -650.767 -2.28751 -642.899C28.3534 -640.76 58.2862 -637.455 86.7213 -633.083C171.958 -619.977 248.822 -596.862 328.601 -560.34C349.567 -550.497 370.537 -539.656 392.727 -527.205C449.389 -497.406 511.301 -462.669 593.485 -414.563C677.217 -367.007 735.346 -326.582 776.411 -287.337C786.223 -278.032 795.157 -268.744 802.987 -259.722C849.387 -207.434 853.154 -155.345 813.603 -113.042C776.026 -72.6683 699.976 -32.9595 593.676 1.78582C499.061 35.5375 400.888 48.764 325.938 56.5155C252.193 65.1111 179.729 68.7329 124.842 70.9254C63.3993 73.2678 16.0895 71.0551 -38.6821 68.4895C-49.1673 67.9986 -59.9885 67.4924 -71.3049 66.9972C-112.08 65.2881 -151.568 61.5292 -188.679 55.823ZM87.1929 -634.137C58.64 -638.527 28.5865 -641.843 -2.1336 -643.989C-90.3562 -651.868 -167.375 -654.105 -237.556 -650.832C-358.676 -648.218 -468.609 -624.908 -555.416 -583.427C-624.865 -550.865 -660.138 -512.457 -660.233 -469.281C-660.288 -425.349 -619.296 -371.63 -577.315 -320.375C-536.991 -271.823 -510.814 -234.71 -492.446 -200.033C-486.85 -189.463 -482.185 -179.702 -478.201 -170.194C-472.382 -155.197 -467.8 -140.944 -463.372 -127.163C-454.79 -100.455 -446.689 -75.2297 -431.168 -49.8958C-402.131 -1.2288 -313.916 37.69 -189.15 56.8744C-151.88 62.605 -112.226 66.382 -71.2965 68.0932C-59.9852 68.59 -49.1691 69.0979 -38.6951 69.5846C16.1831 72.1545 63.5762 74.3751 125.205 72.0227C180.177 69.8262 252.742 66.203 326.596 57.5951C401.715 49.8237 500.134 36.5623 595.03 2.71577C701.608 -32.1175 777.888 -71.9629 815.614 -112.505C855.44 -155.083 851.669 -207.499 804.997 -260.084C797.142 -269.126 788.187 -278.445 778.353 -287.777C737.179 -327.109 678.964 -367.613 595.09 -415.24C512.891 -463.362 450.966 -498.108 394.288 -527.91C372.083 -540.375 351.055 -551.242 330.032 -561.113C249.945 -597.772 172.786 -620.976 87.1929 -634.137Z" fill="#EDE9F6"/>
<path d="M-187.509 41.8223C-308.24 23.2516 -396.454 -14.5905 -423.501 -59.4036C-439.93 -85.7873 -447.782 -111.568 -456.098 -138.861C-459.709 -150.717 -463.448 -162.974 -468.043 -175.923C-471.66 -185.111 -475.9 -194.594 -480.999 -204.925C-497.507 -238.311 -522.099 -275.473 -558.399 -321.877C-596.426 -371.328 -633.424 -423.175 -631.971 -465.711C-630.537 -507.293 -596.215 -544.257 -529.96 -575.576C-444.992 -616.669 -338.239 -638.349 -221.24 -638.27C-155.589 -640.196 -83.5008 -636.911 5.69145 -627.93C34.0977 -625.735 61.9769 -622.545 88.6009 -618.45C171.957 -605.628 248.172 -583.474 328.475 -548.74C349.284 -539.457 370.052 -529.289 391.942 -517.646C453.512 -487.387 518.604 -452.632 590.974 -411.385C668.934 -368.527 728.461 -326.962 767.905 -287.828C777.108 -278.78 785.488 -269.717 792.813 -260.893C835.985 -210.287 838.757 -159.661 800.614 -118.323C764.097 -78.4669 691.176 -39.4886 589.732 -5.60226C498.951 27.9363 404.512 39.7749 324.111 46.9302C256.521 53.9544 188.261 56.8006 124.575 58.8298C69.7821 60.4644 28.9145 58.258 -18.4002 55.7064C-34.4526 54.8377 -51.0494 53.9457 -69.315 53.1312C-110.152 51.4089 -149.915 47.605 -187.509 41.8223ZM89.0723 -619.504C62.3348 -623.616 34.3481 -626.817 5.88609 -629.014C-83.4502 -638.012 -155.723 -641.301 -221.499 -639.368C-338.983 -639.457 -446.222 -617.679 -531.561 -576.406C-598.207 -544.902 -632.73 -507.701 -634.176 -465.83C-635.632 -423.093 -598.554 -371.125 -560.447 -321.562C-524.187 -275.206 -499.622 -238.089 -483.139 -204.753C-478.044 -194.442 -473.815 -184.975 -470.21 -175.818C-465.62 -162.895 -461.887 -150.643 -458.277 -138.795C-449.952 -111.457 -442.084 -85.6343 -425.604 -59.1701C-411.646 -36.0383 -382.87 -15.1716 -340.087 2.84476C-299.388 19.9862 -246.787 33.8276 -187.979 42.8734C-150.227 48.6804 -110.299 52.5025 -69.3119 54.2285C-51.0543 55.0418 -34.4717 55.9364 -18.4356 56.8026C28.9805 59.3601 69.9322 61.5722 124.906 59.9292C188.685 57.8972 257.021 55.0458 324.715 48.0132C405.32 40.8385 500.031 28.962 591.099 -4.68504C692.806 -38.6545 765.962 -77.7709 802.63 -117.791C841.03 -159.403 838.261 -210.346 794.831 -261.236C787.486 -270.085 779.077 -279.18 769.854 -288.249C730.313 -327.478 670.654 -369.146 592.569 -412.074C520.157 -453.342 455.025 -488.115 393.454 -518.38C371.545 -530.028 350.716 -540.225 329.845 -549.534C249.253 -584.4 172.761 -606.631 89.0723 -619.504Z" fill="#EDE9F6"/>
<path d="M-186.034 27.8696C-305.242 9.52504 -391.777 -26.5482 -417.521 -68.6266C-434.99 -96.1847 -442.161 -121.313 -450.468 -150.412C-453.303 -160.351 -456.233 -170.631 -459.733 -181.485C-462.979 -190.362 -466.796 -199.549 -471.39 -209.587C-486.277 -242.084 -508.511 -278.126 -541.351 -323.012C-575.568 -370.771 -608.737 -420.861 -605.893 -462.224C-603.134 -502.513 -569.542 -538.28 -506.032 -568.531C-422.504 -609.389 -318.389 -629.513 -204.95 -626.726C-127.081 -627.543 -46.9226 -619.741 14.2209 -612.856C40.2808 -610.625 65.975 -607.576 90.6578 -603.778C172.317 -591.212 248.12 -569.981 329.229 -536.972C349.911 -528.251 370.493 -518.745 392.115 -507.919C457.757 -477.907 522.358 -445.229 589.651 -407.999C663.656 -368.73 722.828 -327.268 760.801 -288.081C769.412 -279.282 777.236 -270.446 784.077 -261.818C824.084 -212.907 825.885 -163.732 789.14 -123.36C744.316 -73.6567 654.544 -35.7955 587.15 -12.7816C499.534 20.6964 408.622 31.1767 323.436 37.5205C258.91 43.3696 195.521 45.2159 125.286 46.8729C75.1537 47.9467 38.8635 45.6418 -3.16334 42.9745C-22.7728 41.7286 -43.0573 40.4418 -66.54 39.3769C-107.582 37.6284 -147.787 33.7553 -186.034 27.8696ZM91.1258 -604.824C66.3458 -608.637 40.5552 -611.703 14.4619 -613.937C-46.7516 -620.83 -127.086 -628.647 -205.128 -627.829C-319.074 -630.626 -423.713 -610.407 -507.639 -569.357C-571.524 -538.926 -605.325 -502.925 -608.094 -462.359C-610.952 -420.802 -577.717 -370.588 -543.422 -322.723C-510.609 -277.882 -488.403 -241.884 -473.537 -209.438C-468.95 -199.413 -465.143 -190.242 -461.904 -181.398C-458.412 -170.564 -455.48 -160.289 -452.647 -150.355C-444.328 -121.206 -437.152 -96.0332 -419.616 -68.3899C-393.647 -25.9235 -306.499 10.4547 -186.504 28.9204C-148.095 34.831 -107.732 38.7187 -66.5326 40.4744C-43.0925 41.5377 -22.8343 42.8253 -3.2411 44.0687C38.8912 46.7425 75.2706 49.0515 125.578 47.9732C195.908 46.3164 259.366 44.4636 323.985 38.6072C409.41 32.2444 500.611 21.7286 588.546 -11.8698C656.114 -34.9366 746.148 -72.927 791.175 -122.832C828.156 -163.472 826.361 -212.949 786.117 -262.145C779.259 -270.803 771.396 -279.666 762.77 -288.49C724.692 -327.783 665.365 -369.353 591.202 -408.705C523.883 -445.955 459.229 -478.659 393.561 -508.682C371.929 -519.512 351.301 -529.042 330.547 -537.795C249.166 -570.914 173.089 -592.211 91.1258 -604.824Z" fill="#EDE9F6"/>
<path d="M-186.298 14.6222C-303.834 -3.47405 -388.617 -37.7765 -413.085 -77.1342C-431.683 -105.882 -438.416 -131.491 -446.212 -161.14C-448.334 -169.209 -450.531 -177.55 -453.061 -186.337C-455.945 -194.886 -459.343 -203.78 -463.446 -213.542C-476.737 -245.133 -496.642 -280.055 -526.086 -323.449C-556.562 -369.502 -585.956 -417.829 -581.72 -458.037C-577.657 -497.032 -544.763 -531.601 -483.966 -560.775C-401.82 -601.376 -300.265 -619.928 -190.268 -614.426C-124.837 -613.75 -58.3499 -606.966 21.3699 -596.983C44.9036 -594.758 68.238 -591.874 90.7807 -588.404C170.95 -576.06 246.628 -555.709 328.941 -524.361C349.549 -516.195 369.961 -507.347 391.322 -497.325C459.951 -468.302 524.133 -437.689 587.589 -403.714C659.194 -367.154 716.451 -326.943 753.192 -287.411C761.228 -278.858 768.513 -270.255 774.856 -261.825C811.778 -214.596 812.641 -166.885 777.27 -127.475C733.732 -78.4273 648.155 -41.4534 584.026 -19.0704C503.759 12.5955 421.224 23.0238 321.992 28.9483C260.257 33.6955 198.993 34.6152 134.13 35.5881L125.033 35.7237C78.2832 36.3258 45.3841 33.866 7.28507 31.0146C-14.6531 29.3739 -37.3328 27.6748 -64.9175 26.3986C-106.349 24.6066 -147.184 20.6445 -186.298 14.6222ZM91.2493 -589.452C68.6254 -592.935 45.2099 -595.831 21.651 -598.058C-58.1542 -608.054 -124.783 -614.85 -190.331 -615.526C-300.885 -621.054 -403.007 -602.408 -485.577 -561.596C-546.738 -532.248 -579.835 -497.457 -583.926 -458.197C-588.18 -417.794 -558.718 -369.348 -528.172 -323.188C-498.757 -279.836 -478.877 -244.954 -465.604 -213.412C-461.503 -203.665 -458.119 -194.787 -455.243 -186.269C-452.717 -177.502 -450.517 -169.16 -448.4 -161.097C-440.587 -131.39 -433.843 -105.735 -415.185 -76.8913C-390.48 -37.1512 -305.087 -2.54439 -186.768 15.6725C-147.499 21.7185 -106.502 25.6959 -64.9143 27.4975C-37.4057 28.7692 -14.7584 30.4634 7.14939 32.1042C45.3539 34.9622 78.3574 37.4307 125.289 36.8277L134.402 36.6872C199.334 35.7152 260.664 34.7936 322.477 30.0367C422.031 24.0989 504.867 13.6297 585.443 -18.1651C649.725 -40.5995 735.579 -77.7051 779.305 -126.951C814.896 -166.62 814.048 -214.629 776.907 -262.133C770.548 -270.586 763.239 -279.223 755.174 -287.798C718.327 -327.452 660.903 -367.783 589.119 -404.439C525.617 -438.436 461.362 -469.081 392.705 -498.119C371.335 -508.14 350.871 -517.007 330.2 -525.207C247.613 -556.651 171.699 -577.065 91.2493 -589.452Z" fill="#EDE9F6"/>
<path d="M-186.361 0.431016C-301.642 -17.3267 -384.261 -49.8016 -407.352 -86.4452C-427.026 -116.338 -433.131 -142.325 -440.204 -172.415C-441.679 -178.682 -443.205 -185.173 -444.906 -191.964C-447.419 -200.19 -450.38 -208.786 -453.97 -218.259C-465.602 -248.908 -483.105 -282.701 -509.065 -324.605C-535.695 -368.925 -561.228 -415.47 -555.552 -454.54C-550.147 -492.239 -517.999 -525.607 -460.007 -553.711C-379.376 -594.076 -280.567 -611.088 -174.246 -602.915C-110.86 -600.848 -47.2189 -592.573 29.3996 -581.975C50.0773 -579.818 70.6733 -577.158 90.7023 -574.073C169.391 -561.951 245.062 -542.458 328.839 -512.719C349.321 -505.112 369.518 -496.937 390.551 -487.734C461.337 -460.143 524.952 -431.611 585.058 -400.503C653.388 -366.953 710.051 -326.961 744.653 -287.882C752.091 -279.583 758.818 -271.206 764.645 -262.984C798.365 -217.473 798.229 -171.226 764.276 -132.764C722.071 -84.3602 640.813 -48.2541 580.079 -26.4889C502.266 5.27538 419.921 14.794 320.217 19.3196C265.426 22.7863 211.048 23.091 153.474 23.4111C144.013 23.4651 134.484 23.5181 124.852 23.5868C80.7299 23.7932 49.0598 21.0257 15.5393 18.0942C-7.82447 16.0525 -31.9797 13.9397 -62.8188 12.4924C-104.729 10.66 -146.291 6.60335 -186.361 0.431016ZM91.1735 -575.127C71.0797 -578.222 50.4057 -580.882 29.7291 -583.042C-46.9453 -593.651 -110.7 -601.941 -174.204 -604.009C-281.119 -612.227 -380.543 -595.121 -461.621 -554.531C-519.967 -526.255 -552.31 -492.672 -557.756 -454.717C-563.454 -415.462 -537.868 -368.805 -511.17 -324.374C-485.234 -282.511 -467.746 -248.755 -456.133 -218.15C-452.553 -208.692 -449.592 -200.109 -447.092 -191.909C-445.391 -185.14 -443.872 -178.652 -442.397 -172.385C-435.311 -142.235 -429.187 -116.197 -409.451 -86.1979C-386.114 -49.1754 -302.89 -16.3969 -186.83 1.48073C-146.606 7.67679 -104.879 11.7516 -62.8199 13.59C-32.0791 15.0343 -7.96443 17.1408 15.3497 19.1773C48.9786 22.1183 80.7491 24.8939 125.075 24.6853C134.715 24.6201 144.237 24.5635 153.697 24.5118C211.337 24.1897 265.787 23.889 320.649 20.4163C420.7 15.8739 503.367 6.31069 581.508 -25.5964C642.395 -47.4108 723.925 -83.6417 766.31 -132.245C800.483 -170.959 800.63 -217.491 766.714 -263.27C760.877 -271.517 754.12 -279.924 746.646 -288.249C711.931 -327.464 655.081 -367.591 586.546 -401.244C526.38 -432.383 462.685 -460.949 391.866 -488.552C370.829 -497.756 350.585 -505.955 330.021 -513.588C246.006 -543.416 170.114 -562.967 91.1735 -575.127Z" fill="#EDE9F6"/>
<path d="M-186.407 -13.7572C-300.844 -31.3949 -379.145 -61.2697 -401.225 -95.7214C-421.981 -126.678 -427.064 -151.655 -433.499 -183.28C-434.432 -187.882 -435.401 -192.625 -436.443 -197.553C-438.594 -205.479 -441.135 -213.78 -444.208 -222.938C-454.2 -252.623 -469.343 -285.285 -491.878 -325.734C-513.738 -366.435 -536.472 -413.051 -529.347 -451.012C-522.611 -487.414 -491.19 -519.576 -435.964 -546.605C-356.802 -586.708 -260.652 -602.16 -157.891 -591.302C-100.652 -588.023 -41.5492 -578.991 21.018 -569.423L37.9844 -566.832C55.3844 -564.825 72.8 -562.484 89.8251 -559.86C167.408 -547.902 243.609 -529.167 329.629 -500.891C350.019 -493.846 370.033 -486.335 390.743 -477.94C464.391 -451.67 525.697 -425.978 583.723 -397.058C650.119 -365.814 704.729 -327.124 737.521 -288.107C744.377 -280.06 750.566 -271.914 755.884 -263.884C786.46 -220.093 785.366 -175.319 752.804 -137.803C711.92 -90.0464 634.913 -54.8333 577.508 -33.7074C493.51 1.7283 404.045 7.23958 319.614 9.85129C270.396 12.2672 221.554 12.0104 169.858 11.7416C155.321 11.6638 140.602 11.5869 125.64 11.5669C83.4987 11.4174 54.0684 8.43278 22.9089 5.27592C-1.32017 2.8175 -26.3758 0.280032 -59.9321 -1.32276C-101.971 -3.18423 -145.706 -7.48428 -186.407 -13.7572ZM90.2938 -560.909C73.2161 -563.541 55.7448 -565.893 38.3629 -567.893L21.4827 -570.473C-41.1959 -580.053 -100.394 -589.105 -157.74 -592.386C-261.131 -603.316 -357.939 -587.77 -437.594 -547.417C-493.146 -520.23 -524.758 -487.863 -531.539 -451.214C-538.697 -413.074 -515.919 -366.344 -493.999 -325.535C-471.487 -285.12 -456.358 -252.496 -446.388 -222.856C-443.307 -213.709 -440.772 -205.421 -438.635 -197.524C-437.59 -192.612 -436.625 -187.869 -435.692 -183.27C-429.239 -151.577 -424.147 -126.541 -403.316 -95.4711C-380.984 -60.6349 -302.099 -30.4671 -186.875 -12.7082C-146.021 -6.41155 -102.12 -2.09558 -59.9328 -0.225805C-26.5072 1.36892 -1.50619 3.9028 22.6742 6.35372C53.9401 9.52456 83.4716 12.5151 125.833 12.667C140.802 12.6883 155.51 12.7633 170.034 12.8416C221.802 13.112 270.701 13.3678 319.973 10.9481C404.725 8.32545 494.561 2.78914 578.97 -32.82C636.516 -53.9991 713.782 -89.3366 754.838 -137.294C787.61 -175.048 788.716 -220.101 757.97 -264.152C752.623 -272.204 746.427 -280.382 739.537 -288.451C706.624 -327.622 651.804 -366.463 585.188 -397.816C527.076 -426.768 465.678 -452.506 391.982 -478.793C371.263 -487.179 351.216 -494.71 330.738 -501.784C244.495 -530.133 168.108 -548.916 90.2938 -560.909Z" fill="#EDE9F6"/>
<path d="M-188.153 -27.2413C-299.398 -44.395 -375.049 -72.4629 -395.698 -104.246C-417.416 -136.153 -421.37 -159.984 -426.835 -192.97C-427.352 -196.073 -427.878 -199.253 -428.435 -202.529C-430.209 -210.178 -432.31 -218.19 -434.866 -227.04C-443.161 -255.745 -455.892 -287.319 -474.935 -326.416C-497.53 -374.885 -510.991 -413.987 -503.22 -447.215C-495.095 -482.392 -464.401 -513.408 -411.975 -539.41C-334.311 -579.344 -240.887 -593.311 -141.8 -579.8C-118.262 -577.813 -92.8593 -574.663 -61.7437 -569.865C-39.2073 -566.39 -16.4928 -562.5 7.55829 -558.378C20.2045 -556.215 33.0348 -554.019 46.0928 -551.839C59.4621 -550.142 72.9014 -548.254 86.0979 -546.219C163.974 -534.211 239.057 -516.639 329.571 -489.24C349.603 -482.842 369.945 -475.799 390.023 -468.313C465.175 -443.921 525.899 -420.233 581.177 -393.744C645.733 -364.651 698.182 -327.229 728.904 -288.356C735.184 -280.53 740.794 -272.599 745.58 -264.79C772.952 -222.677 770.838 -179.307 739.645 -142.651C700.052 -95.4311 627.327 -61.0336 573.296 -40.4925C491.649 -4.8122 405.736 -0.512701 317.54 0.986785C273.006 2.55225 228.813 1.81656 182.012 1.03928C163.6 0.73528 144.546 0.416871 125.176 0.243325C84.6151 -0.220066 57.062 -3.42608 27.9014 -6.8195C3.22254 -9.69118 -22.2818 -12.6611 -58.1015 -14.3842C-101.091 -16.3058 -146.054 -20.7499 -188.153 -27.2413ZM-61.2747 -570.915C-92.4914 -575.728 -117.988 -578.891 -141.519 -580.874C-241.288 -594.476 -335.414 -580.429 -413.603 -540.219C-466.34 -514.063 -497.231 -482.847 -505.403 -447.443C-513.207 -414.051 -499.727 -374.849 -477.075 -326.255C-458.044 -287.189 -445.324 -255.648 -437.045 -226.985C-434.493 -218.144 -432.389 -210.14 -430.624 -202.519C-430.075 -199.265 -429.542 -196.08 -429.029 -192.977C-423.548 -159.911 -419.582 -136.02 -397.778 -103.986C-376.883 -71.824 -300.644 -43.4647 -188.622 -26.1913C-146.37 -19.6761 -101.24 -15.2161 -58.1062 -13.2892C-22.4444 -11.5711 2.9872 -8.61233 27.5882 -5.75024C56.8722 -2.34263 84.5315 0.877335 125.334 1.34172C144.698 1.51917 163.736 1.83507 182.139 2.14009C228.999 2.91931 273.254 3.65472 317.858 2.08567C406.397 0.583428 492.702 -3.7404 574.784 -39.6123C628.939 -60.2092 701.92 -94.7319 741.682 -142.146C773.068 -179.031 775.208 -222.672 747.678 -265.033C742.877 -272.865 737.244 -280.824 730.935 -288.681C700.081 -327.724 647.399 -365.311 582.582 -394.519C527.22 -421.05 466.387 -444.787 391.167 -469.198C371.112 -476.679 350.725 -483.736 330.613 -490.161C239.897 -517.618 164.64 -535.228 86.566 -547.267C73.329 -549.308 59.8574 -551.201 46.5284 -552.891C33.5636 -555.057 20.7323 -557.251 8.0962 -559.417C-15.972 -563.54 -38.7018 -567.434 -61.2747 -570.915Z" fill="#EDE9F6"/>
<path d="M-126.81 -567.855C-115.686 -566.583 -104.262 -565.033 -91.7803 -563.108C-62.873 -558.648 -33.2844 -552.922 -1.95735 -546.862C15.9499 -543.4 34.4687 -539.814 53.5167 -536.346C61.5168 -535.223 69.5343 -534.041 77.4475 -532.821C155.475 -520.783 233.221 -503.579 329.514 -477.046C349.543 -471.189 369.712 -464.833 389.446 -458.151C467.205 -435.45 525.738 -414.422 579.289 -389.933C642.349 -362.912 692.822 -326.818 721.45 -288.286C727.177 -280.715 732.248 -273.024 736.544 -265.425C761.195 -224.513 758.244 -183.76 727.987 -147.563C689.724 -101.026 621.228 -67.5943 570.507 -47.7397C491.014 -11.9374 408.455 -8.85266 316.528 -8.64484C275.843 -7.83389 235.465 -9.02764 192.731 -10.2856C170.988 -10.9266 148.513 -11.5864 125.394 -11.9956C85.9966 -12.7773 59.9776 -16.2314 32.4422 -19.8857C7.58041 -23.1878 -18.1276 -26.6012 -55.9754 -28.4595C-100.312 -30.4813 -146.929 -35.124 -190.78 -41.8893C-298.512 -58.51 -371.371 -84.7202 -390.689 -113.799C-413.364 -146.37 -416.209 -168.801 -420.514 -202.755L-421.217 -208.295C-422.64 -215.667 -424.329 -223.373 -426.385 -231.874C-433.146 -259.834 -443.255 -289.351 -459.158 -327.588C-477.403 -373.892 -487.686 -411.347 -478.57 -443.609C-469.13 -477.458 -439.16 -507.225 -389.498 -532.088C-315.359 -570.605 -227.108 -583.385 -134.25 -569.059C-131.772 -568.676 -129.283 -568.278 -126.81 -567.855ZM-91.3114 -564.158C-103.85 -566.092 -115.328 -567.646 -126.394 -568.911C-128.782 -569.313 -131.284 -569.721 -133.782 -570.107C-227.466 -584.56 -316.456 -571.696 -391.137 -532.896C-441.09 -507.885 -471.248 -477.932 -480.751 -443.861C-489.91 -411.446 -479.606 -373.891 -461.316 -327.467C-445.422 -289.258 -435.326 -259.769 -428.567 -231.844C-426.516 -223.351 -424.827 -215.655 -423.411 -208.308L-422.713 -202.785C-418.396 -168.74 -415.544 -146.247 -392.767 -113.535C-373.203 -84.0783 -299.75 -57.5808 -191.248 -40.8413C-147.243 -34.0523 -100.469 -29.3926 -55.9745 -27.3658C-18.3222 -25.5159 7.29169 -22.1147 32.0603 -18.8269C59.7344 -15.1536 85.8637 -11.6849 125.514 -10.8979C148.608 -10.4902 171.069 -9.82784 192.807 -9.18743C235.602 -7.92752 276.033 -6.73758 316.778 -7.54882C405.691 -7.75109 492.151 -10.9073 572.013 -46.8749C622.855 -66.7784 691.605 -100.335 730.042 -147.065C760.477 -183.486 763.445 -224.492 738.656 -265.638C734.349 -273.26 729.253 -280.984 723.513 -288.583C694.736 -327.305 644.007 -363.581 580.66 -390.725C527.009 -415.261 468.335 -436.343 390.5 -459.057C370.785 -465.742 350.566 -472.113 330.47 -477.985C233.989 -504.573 156.109 -521.805 77.9155 -533.869C69.986 -535.092 61.9432 -536.275 54.0129 -537.39C35.0692 -540.839 16.5656 -544.42 -1.32846 -547.883C-32.6981 -553.954 -62.3251 -559.681 -91.3114 -564.158Z" fill="#EDE9F6"/>
<path d="M-193.778 -55.6211C-297.189 -71.5809 -366.777 -95.9136 -384.698 -122.376C-408.117 -155.405 -409.828 -176.292 -412.659 -210.887L-412.852 -213.257C-413.912 -220.393 -415.175 -227.809 -416.714 -235.947C-421.786 -262.703 -429.596 -291.147 -442.029 -328.168C-454.014 -366.405 -463.564 -406.373 -452.383 -439.631C-441.558 -472.237 -412.304 -500.828 -365.426 -524.625C-296.95 -560.683 -216.409 -572.896 -132.488 -559.944C-125.173 -558.815 -117.74 -557.482 -110.399 -555.975C-108.751 -555.73 -107.228 -555.497 -105.685 -555.259C-73.8927 -550.353 -41.0905 -543.141 -6.37108 -535.504C15.5781 -530.677 38.2671 -525.686 62.169 -520.949C162.966 -505.321 254.302 -483.87 330.365 -464.958C350.402 -459.649 370.38 -453.973 389.702 -448.082C442.978 -434.222 512.473 -414.682 577.973 -386.18C638.675 -361.474 688.35 -325.743 714.305 -288.139C719.45 -280.809 723.972 -273.344 727.737 -265.949C749.235 -226.802 745.315 -187.447 716.435 -152.123C679.447 -106.143 615.182 -73.5827 567.783 -54.3666C490.482 -18.3718 407.91 -16.3541 315.741 -17.4497C278.404 -17.2655 241.348 -18.8439 202.117 -20.5141C177.639 -21.5564 152.332 -22.6324 126.008 -23.3102C87.5705 -24.3824 62.9042 -28.0854 36.7896 -32.0047C11.9938 -35.7277 -13.6613 -39.5809 -53.2632 -41.5546C-98.6946 -43.653 -148.593 -48.6475 -193.778 -55.6211ZM-132.021 -560.992C-216.776 -574.073 -298.057 -561.771 -367.073 -525.422C-414.225 -501.496 -443.666 -472.722 -454.558 -439.907C-465.78 -406.5 -456.215 -366.428 -444.204 -328.093C-431.771 -291.092 -423.972 -262.671 -418.906 -235.942C-417.366 -227.817 -416.104 -220.408 -415.054 -213.297L-414.861 -210.947C-412.019 -176.242 -410.305 -155.293 -386.766 -122.106C-368.597 -95.2696 -298.422 -70.6509 -194.246 -54.5731C-148.911 -47.5764 -98.8476 -42.5636 -53.2715 -40.4598C-13.9014 -38.5001 11.6403 -34.6644 36.3389 -30.9564C62.5901 -27.0136 87.3788 -23.2941 126.102 -22.2117C152.389 -21.5373 177.67 -20.4627 202.13 -19.4184C241.412 -17.7475 278.515 -16.1667 315.929 -16.3487C408.516 -15.249 491.516 -17.2852 569.32 -53.5065C616.846 -72.773 681.345 -105.459 718.475 -151.634C747.536 -187.167 751.472 -226.764 729.872 -266.136C726.081 -273.552 721.545 -281.053 716.367 -288.414C690.288 -326.226 640.321 -362.156 579.296 -386.992C513.635 -415.567 443.975 -435.155 390.64 -449.028C371.356 -454.909 351.341 -460.598 331.224 -465.924C255.05 -484.868 163.599 -506.341 62.73 -521.983C38.9526 -526.698 16.2817 -531.682 -5.64308 -536.505C-42.1126 -544.526 -76.4636 -552.077 -109.847 -557.007C-117.138 -558.502 -124.636 -559.852 -132.021 -560.992Z" fill="#EDE9F6"/>
<path d="M-198.943 -70.7187C-256.721 -79.6387 -357.02 -99.4874 -379.634 -132.197C-403.622 -165.394 -404.265 -184.55 -405.431 -219.329C-406.125 -226.399 -406.961 -233.519 -407.988 -241.22C-412.323 -273.609 -419.82 -305.638 -425.854 -329.927C-434.078 -366.269 -439.93 -404.378 -427.174 -436.78C-414.952 -468.148 -386.417 -495.558 -342.345 -518.255C-279.002 -552.073 -205.381 -563.746 -129.429 -552.02C-118.046 -550.263 -106.467 -547.966 -95.0143 -545.182C-67.3026 -540.051 -38.8604 -532.914 -8.74573 -525.356C16.1561 -519.105 41.9078 -512.645 69.7787 -506.641C153.413 -492.281 234.342 -475.203 330.149 -453.974C350.265 -449.21 370.037 -444.21 388.878 -439.122C446.405 -425.975 513.492 -409.099 575.556 -383.547C634.938 -360.699 682.484 -326.293 706.04 -289.151C710.612 -282.068 714.588 -274.828 717.842 -267.63C736.166 -230.292 731.305 -192.348 703.773 -157.884C668.09 -112.451 608.07 -80.789 563.998 -62.227C488.682 -25.9971 409.554 -25.0222 313.938 -27.5098C279.485 -27.8759 245.32 -29.8 209.139 -31.8377C182.385 -33.3468 154.722 -34.9044 125.633 -35.8907C96.1826 -36.9421 75.7427 -39.6319 59.6331 -42.119C52.8509 -43.166 46.4378 -44.2454 39.6353 -45.3922C32.9136 -46.5264 25.9391 -47.7046 18.6632 -48.8279C2.80848 -51.2756 -19.501 -54.2926 -51.532 -55.9091C-99.2094 -58.143 -151.561 -63.4036 -198.943 -70.7187ZM-128.961 -553.07C-205.754 -564.926 -280.107 -553.163 -344.003 -519.047C-387.703 -496.543 -417.213 -468.2 -429.337 -437.088C-442.15 -404.542 -436.284 -366.337 -428.038 -329.898C-422.001 -305.617 -414.514 -273.614 -410.186 -241.248C-409.155 -233.556 -408.317 -226.441 -407.636 -219.495C-406.465 -184.513 -405.819 -165.289 -381.704 -131.92C-358.738 -98.7002 -257.634 -78.6596 -199.411 -69.6709C-151.879 -62.3327 -99.3655 -57.0567 -51.5404 -54.8146C-19.7158 -53.2106 2.43897 -50.2151 18.1966 -47.7823C25.4482 -46.6628 32.3894 -45.4874 39.115 -44.3525C45.6202 -43.2565 52.354 -42.1204 59.1644 -41.0689C75.4036 -38.5619 95.9922 -35.8564 125.684 -34.7941C154.724 -33.8131 182.369 -32.2558 209.106 -30.7469C245.32 -28.7042 279.543 -26.7758 314.059 -26.4146C410.151 -23.9089 489.711 -24.9017 565.562 -61.3798C609.752 -79.9912 669.998 -111.784 705.833 -157.402C733.522 -192.063 738.421 -230.236 719.981 -267.79C716.723 -275.01 712.727 -282.28 708.13 -289.395C684.428 -326.772 636.573 -361.395 576.821 -384.375C514.567 -410.016 447.3 -426.933 389.715 -440.095C370.895 -445.183 351.088 -450.182 330.912 -454.964C235.014 -476.214 154.028 -493.301 70.4042 -507.664C42.682 -513.634 16.9667 -520.088 -7.90881 -526.33C-38.0862 -533.902 -66.5891 -541.059 -94.315 -546.187C-105.769 -548.969 -117.46 -551.295 -128.961 -553.07Z" fill="#EDE9F6"/>
<path d="M-205.16 -84.9989C-299.01 -99.4927 -359.158 -119.438 -374.528 -141.16C-398.919 -174.261 -398.592 -192.221 -398.003 -224.818C-398.311 -231.713 -398.725 -238.547 -399.26 -245.731C-401.442 -275.162 -405.567 -304.101 -409.701 -330.991C-414.028 -363.785 -416.486 -401.601 -401.99 -433.343C-388.538 -463.084 -359.914 -490.062 -319.208 -511.368C-259.613 -543.625 -193.958 -554.503 -124.052 -543.707C-109.256 -541.422 -94.2001 -538.116 -79.2989 -533.883C-56.3944 -528.679 -32.9549 -521.948 -8.13835 -514.821C18.8502 -507.071 46.7603 -499.058 77.9108 -491.789C126.943 -482.436 175.278 -472.916 226.453 -462.835C260.358 -456.152 295.415 -449.247 330.754 -442.382C351.09 -438.154 370.675 -433.832 388.961 -429.542C450.37 -417.416 515.255 -403.063 574.239 -380.235C632.465 -359.164 677.94 -326.053 699.03 -289.398C703.054 -282.545 706.481 -275.528 709.213 -268.534C724.424 -233.002 718.609 -196.424 692.393 -162.766C657.94 -117.815 602.116 -87.0337 561.339 -69.1277C487.862 -32.6214 412.048 -32.6182 312.973 -36.5939C281.048 -37.4327 249.373 -39.675 215.847 -42.0484C187.138 -44.079 157.447 -46.1813 125.87 -47.5076C106.347 -48.3585 89.054 -50.0245 71.4714 -52.7399C61.3396 -54.3046 52.2401 -56.0191 42.6141 -57.8342C32.989 -59.6515 23.0196 -61.5317 11.9201 -63.2459C-7.53337 -66.2502 -27.0104 -68.1834 -49.3653 -69.3219C-99.2917 -71.7043 -156.073 -77.418 -205.16 -84.9989ZM-123.583 -544.758C-194.351 -555.687 -260.728 -544.715 -320.875 -512.152C-361.813 -490.735 -390.605 -463.592 -404.138 -433.68C-418.702 -401.804 -416.234 -363.894 -411.9 -331.01C-407.765 -304.132 -403.639 -275.204 -401.457 -245.792C-400.924 -238.614 -400.514 -231.783 -400.201 -224.916C-400.798 -192.197 -401.125 -174.167 -376.59 -140.875C-360.966 -118.782 -300.243 -98.5624 -205.628 -83.9504C-156.399 -76.3477 -99.4477 -70.6174 -49.3765 -68.2295C-27.1845 -67.0944 -7.85439 -65.1815 11.4533 -62.1997C22.4759 -60.4974 32.4088 -58.6228 42.0106 -56.8115C51.668 -54.9891 60.802 -53.2645 71.0026 -51.6892C88.7512 -48.9482 106.187 -47.2722 125.884 -46.4137C157.401 -45.0872 187.059 -42.9898 215.73 -40.9604C249.318 -38.5821 281.035 -36.3381 313.031 -35.4931C412.631 -31.4993 488.881 -31.51 562.923 -68.2937C603.811 -86.2527 659.862 -117.156 694.445 -162.292C720.816 -196.142 726.665 -232.921 711.367 -268.658C708.624 -275.675 705.182 -282.726 701.155 -289.611C679.898 -326.524 634.091 -359.869 575.459 -381.097C516.253 -404 451.177 -418.4 389.674 -430.548C371.427 -434.83 351.806 -439.157 331.411 -443.398C296.043 -450.266 260.98 -457.176 227.096 -463.851C175.91 -473.935 127.573 -483.46 78.6024 -492.796C47.6291 -500.026 19.7696 -508.026 -7.17844 -515.76C-32.0487 -522.902 -55.5378 -529.648 -78.4464 -534.852C-93.3992 -539.106 -108.617 -542.446 -123.583 -544.758Z" fill="#EDE9F6"/>
</svg>
