<svg width="1481" height="869" viewBox="0 0 1481 869" fill="none" xmlns="http://www.w3.org/2000/svg">
<path d="M655.796 -223.611C631.145 -265.132 617.172 -297.174 610.492 -327.506C586.945 -444.208 679.582 -596.477 846.505 -715.421C930.407 -774.245 1019.74 -811.464 1104.85 -823.05C1179.31 -832.655 1262.07 -823.397 1365.28 -793.915C1436.1 -773.23 1505.98 -741.728 1585.21 -694.776C1665.2 -646.939 1716.66 -601.354 1752.04 -546.969C1753.62 -544.483 1755.17 -541.974 1756.76 -539.295C1794.42 -475.85 1831.82 -361.852 1856.8 -234.348C1882.18 -104.757 1889.45 14.2954 1876.25 84.1176C1878.15 250.837 1798.49 276.651 1677.9 315.737C1624.41 333.071 1563.79 352.724 1497.3 387.865C1449.33 413.235 1406.87 436.533 1369.4 457.092C1189.51 555.818 1107.41 600.884 968.235 569C935.367 560.644 908.497 539.226 888.387 505.353C872.535 478.653 860.733 443.99 853.312 402.321C846.705 364.447 842.423 323.84 837.892 280.848C831.933 224.304 825.774 165.836 813.582 105.276C798.788 33.3694 770.068 -37.844 725.78 -112.438C719.207 -123.51 712.091 -134.989 704.636 -146.554C701.282 -151.75 697.945 -156.899 694.642 -162C680.765 -183.408 667.659 -203.63 655.796 -223.611ZM1757.74 -539.881C1756.14 -542.572 1754.59 -545.097 1753 -547.604C1717.49 -602.193 1665.89 -647.918 1585.69 -695.874C1506.37 -742.886 1436.39 -774.429 1365.46 -795.15C1262.09 -824.675 1179.19 -833.944 1104.57 -824.32C1019.29 -812.709 929.797 -775.428 845.763 -716.509C678.483 -597.312 585.676 -444.567 609.325 -327.37C616.04 -296.866 630.069 -264.687 654.806 -223.023C666.684 -203.017 679.796 -182.784 693.682 -161.361C696.989 -156.262 700.324 -151.118 703.675 -145.921C711.12 -134.369 718.225 -122.907 724.79 -111.85C768.991 -37.4011 797.653 33.6617 812.418 105.407C824.589 165.893 830.747 224.324 836.703 280.841C841.234 323.856 845.516 364.483 852.136 402.407C859.589 444.256 871.453 479.087 887.396 505.941C907.711 540.157 934.863 561.79 968.107 570.243C1035.78 585.748 1091.13 583.794 1153.18 563.699C1213.44 544.195 1279.13 508.142 1370.05 458.246C1407.51 437.69 1449.96 414.387 1497.94 389.027C1564.34 353.925 1624.93 334.289 1678.38 316.964C1740.61 296.791 1789.78 280.86 1824.48 248.604C1862.01 213.737 1878.34 163.088 1877.44 84.3763C1890.66 14.5346 1883.38 -104.709 1857.97 -234.465C1832.96 -362.123 1795.49 -476.297 1757.74 -539.881Z" fill="#EDE9F6"/>
<path d="M1745.47 -533.599C1746.39 -532.111 1747.28 -530.626 1748.2 -529.089C1784.19 -468.459 1819.95 -358.467 1843.82 -234.868C1868.13 -109.085 1875.01 6.83668 1862.24 75.2278C1863.79 237.353 1786.92 263.987 1670.55 304.298C1620.23 321.732 1563.2 341.493 1500.78 375.428C1455.2 400.038 1414.76 422.698 1379.07 442.688C1205.98 539.664 1126.98 583.924 992.341 554.371C957.291 546.336 928.53 523.757 906.852 487.245C892.315 462.76 880.888 431.852 872.893 395.383C861.46 351.339 853.425 302.995 844.921 251.815C836.932 203.724 828.666 153.99 816.813 102.758C791.599 -3.21404 744.175 -91.7938 710.697 -149.203L704.594 -159.21C697.188 -171.358 690.19 -182.834 683.363 -194.333C654.322 -243.247 633.328 -284.581 625.268 -327.328C604.435 -440.574 693.842 -588.861 853.042 -705.098C934.191 -765.104 1020.36 -803.598 1102.22 -816.421C1174.97 -827.486 1255.93 -819.533 1356.99 -791.387C1430.84 -771.001 1502.67 -738.2 1583.06 -688.153C1661 -639.174 1710.97 -591.702 1745.09 -534.229L1745.47 -533.599ZM1749.19 -529.679C1748.27 -531.222 1747.37 -532.716 1746.45 -534.196L1746.08 -534.817C1711.84 -592.503 1661.71 -640.129 1583.57 -689.236C1503.07 -739.351 1431.13 -772.204 1357.16 -792.624C1255.94 -820.812 1174.83 -828.778 1101.91 -817.687C1019.88 -804.839 933.567 -766.28 852.287 -706.18C692.744 -589.693 603.173 -440.944 624.092 -327.221C632.196 -284.264 653.248 -242.794 682.37 -193.743C689.202 -182.236 696.203 -170.759 703.613 -158.605L709.705 -148.612C743.128 -91.296 790.484 -2.84934 815.654 102.923C827.492 154.11 835.755 203.819 843.745 251.893C852.252 303.103 860.291 351.476 871.732 395.549C879.757 432.151 891.242 463.206 905.864 487.832C927.747 524.69 956.805 547.503 992.229 555.613C1127.29 585.266 1206.4 540.945 1379.73 443.836C1415.41 423.847 1455.84 401.191 1501.42 376.579C1563.77 342.683 1620.76 322.939 1671.04 305.521C1731.1 284.714 1778.54 268.279 1812.08 236.243C1848.33 201.612 1864.17 152.029 1863.43 75.4922C1876.22 7.07437 1869.33 -109.044 1845 -234.977C1821.09 -358.738 1785.27 -468.908 1749.19 -529.679Z" fill="#EDE9F6"/>
<path d="M925.105 468.771C912.006 446.708 901.18 419.691 892.924 388.477C875.008 337.233 862.021 279.366 848.273 218.101C839.691 179.865 830.818 140.327 820.215 99.9222C793.331 0.741015 752.79 -83.3491 716.677 -152.53L714.417 -156.492C679.127 -218.314 648.649 -271.71 639.791 -328.099C621.556 -438.04 707.581 -582.407 858.956 -695.901C938.399 -757.963 1019.1 -796.614 1098.83 -810.785C1168.87 -823.098 1250.36 -816.154 1347.96 -789.573C1423.81 -769.691 1499.8 -734.477 1580.27 -681.91C1656.25 -631.811 1706.01 -580.93 1738.41 -520.29L1739.19 -518.969C1773.57 -461.064 1807.77 -354.934 1830.67 -235.087C1854.01 -112.955 1860.61 -0.0182222 1848.33 67.0274C1849.7 224.764 1775.63 252.199 1663.51 293.725C1616.39 311.179 1562.98 330.964 1504.66 363.621C1461.57 387.425 1423.21 409.395 1389.37 428.776C1223.11 524.001 1147.23 567.463 1017.04 540.056C979.563 532.376 948.629 508.393 925.105 468.771ZM1731.62 -534.665C1699.09 -589.452 1651.17 -636.58 1580.81 -682.977C1500.21 -735.625 1424.09 -770.896 1348.12 -790.811C1250.36 -817.44 1168.71 -824.385 1098.5 -812.047C1018.6 -797.848 937.748 -759.128 858.187 -696.973C783.519 -640.99 723.441 -576.766 684.444 -511.252C645.447 -445.729 629.597 -382.371 638.613 -328.031C647.511 -271.381 678.052 -217.878 713.414 -155.925L715.661 -151.99C751.721 -82.9079 792.221 1.09381 819.067 100.133C829.656 140.5 838.53 180.031 847.107 218.258C860.867 279.563 873.863 337.473 891.79 388.737C900.066 420.037 910.943 447.175 924.114 469.359C947.857 509.35 979.092 533.557 1016.95 541.311C1147.55 568.802 1223.54 525.278 1390.03 429.915C1423.87 410.537 1462.22 388.569 1505.31 364.772C1563.56 332.149 1616.93 312.376 1664.02 294.945C1721.88 273.507 1767.59 256.579 1799.91 224.738C1834.87 190.319 1850.17 141.76 1849.52 67.2905C1861.81 0.220177 1855.21 -112.906 1831.84 -235.2C1808.91 -355.206 1774.65 -461.511 1740.18 -519.557L1739.41 -520.853C1736.94 -525.472 1734.31 -530.13 1731.62 -534.665Z" fill="#EDE9F6"/>
<path d="M942.482 448.828C931.045 429.565 921.15 406.711 913.08 380.913C886.643 321.386 867.381 251.831 846.985 178.191C839.676 151.788 832.115 124.486 824.018 96.8972C793.617 -3.15643 752.986 -91.2577 723.322 -155.589C691.963 -214.649 662.357 -270.395 655.162 -328.281C647.498 -380.726 663.15 -441.904 700.421 -505.222C737.771 -568.664 794.978 -631.086 865.86 -685.743C942.423 -749.006 1019.98 -788.863 1096.38 -804.203C1164.64 -817.965 1244.23 -812.35 1339.7 -787.041C1418.5 -767.486 1496.45 -730.933 1578.01 -675.288C1641.83 -631.334 1685.94 -586.624 1716.84 -534.587C1722.14 -525.666 1727.12 -516.375 1731.65 -506.969C1764.16 -451.097 1796.39 -349.076 1817.9 -233.986C1840.19 -114.68 1846.14 -8.29799 1834.21 57.8876C1835.25 211.052 1764 239.349 1656.16 282.181C1612.26 299.616 1562.5 319.378 1508.3 350.723C1467.77 373.666 1431.56 394.909 1399.61 413.646C1240.13 507.195 1167.34 549.894 1041.67 524.767C1001.49 517.559 968.117 492.006 942.482 448.828ZM1717.83 -535.176C1686.82 -587.405 1642.57 -632.257 1578.58 -676.341C1496.87 -732.078 1418.79 -768.693 1339.84 -788.281C1244.21 -813.633 1164.45 -819.253 1096.03 -805.459C1019.46 -790.083 941.753 -750.158 865.075 -686.798C794.101 -632.072 736.803 -569.547 699.386 -505.987C661.975 -442.433 646.274 -380.975 653.977 -328.25C661.202 -270.114 690.87 -214.248 722.278 -155.102C751.907 -90.8482 792.508 -2.79812 822.881 97.1507C830.971 124.718 838.529 152.015 845.841 178.417C866.249 252.108 885.53 321.718 911.975 381.259C920.055 407.093 929.994 430.05 941.492 449.416C967.349 492.967 1001.03 518.745 1041.6 526.027C1167.67 551.224 1240.57 508.469 1400.28 414.784C1432.23 396.043 1468.43 374.806 1508.96 351.862C1563.1 320.556 1612.82 300.809 1656.69 283.384C1712.34 261.276 1756.31 243.819 1787.44 212.176C1821.1 177.967 1835.89 130.459 1835.39 58.1535C1847.34 -8.06552 1841.39 -114.631 1819.07 -234.097C1797.54 -349.325 1765.24 -451.537 1732.67 -507.494C1728.15 -516.882 1723.15 -526.216 1717.83 -535.176Z" fill="#EDE9F6"/>
<path d="M957.817 429.227C948.275 413.156 939.678 394.725 932.253 374.425C894.551 305.075 867.389 220.697 838.641 131.381C834.738 119.251 830.802 107.017 826.792 94.6819C801.626 19.9568 774.003 -47.5039 749.631 -107.021C742.297 -124.925 735.375 -141.838 728.867 -158.083C698.211 -220.698 674.375 -272.94 669.375 -328.08C663.016 -378.986 678.558 -438.352 714.312 -499.777C750.155 -561.349 804.671 -622.16 871.973 -675.636C945.767 -740.212 1020.29 -781.327 1093.48 -797.848C1160.02 -813.093 1237.81 -808.814 1331.3 -784.759C1412.03 -765.822 1494.32 -726.827 1575.91 -668.862C1633.95 -627.244 1674.61 -584.895 1703.88 -535.599C1711.79 -522.266 1718.96 -508.167 1725.21 -493.701C1755.73 -439.339 1785.82 -341.328 1805.73 -231.448C1826.44 -117.162 1831.79 -14.8313 1820.41 49.3011C1821.1 198.11 1752.57 227.366 1648.82 271.641C1608.09 289.024 1561.93 308.728 1511.77 338.749C1473.82 360.82 1439.76 381.313 1409.71 399.403C1256.68 491.501 1186.84 533.531 1065.47 510.701C1022.17 504.041 985.962 476.633 957.817 429.227ZM1704.87 -536.189C1675.49 -585.67 1634.7 -628.153 1576.49 -669.898C1494.76 -727.969 1412.31 -767.028 1331.44 -786.001C1237.78 -810.101 1159.82 -814.386 1093.1 -799.096C1019.74 -782.537 945.073 -741.352 871.17 -676.677C803.787 -623.138 749.181 -562.222 713.277 -500.538C677.387 -438.884 661.794 -379.25 668.188 -328.085C673.207 -272.722 697.093 -220.352 727.797 -157.652C734.282 -141.455 741.206 -124.54 748.54 -106.63C772.905 -47.1348 800.517 20.3033 825.667 94.9773C829.67 107.299 833.609 119.534 837.512 131.659C866.283 221.048 893.463 305.486 931.191 374.865C938.595 395.143 947.239 413.668 956.826 429.815C985.2 477.605 1021.73 505.24 1065.42 511.961C1187.18 534.871 1257.13 492.769 1410.38 400.527C1440.43 382.447 1474.48 361.948 1512.44 339.884C1562.55 309.898 1608.67 290.203 1649.37 272.839C1702.92 249.984 1745.2 231.932 1775.19 200.415C1807.62 166.34 1821.94 119.818 1821.6 49.5632C1832.99 -14.6071 1827.64 -117.101 1806.9 -231.542C1786.97 -341.574 1756.82 -439.756 1726.25 -494.189C1720.02 -508.645 1712.82 -522.802 1704.87 -536.189Z" fill="#EDE9F6"/>
<path d="M940.481 347.296C898.084 275.886 865.783 189.361 830.927 91.851C816.227 52.1872 801.788 14.8468 787.823 -21.2621C768.254 -71.8581 749.775 -119.653 735.564 -161.362C709.597 -219.473 687.858 -272.136 684.602 -328.767C679.489 -378.153 694.823 -435.694 728.945 -495.196C763.156 -554.86 814.841 -613.998 878.411 -666.222C949.241 -732.057 1020.59 -774.343 1090.48 -791.923C1155.17 -808.588 1231.07 -805.542 1322.53 -782.61C1406.21 -763.92 1490.57 -723.42 1573.29 -662.235C1625.32 -623.384 1663.84 -582.21 1691.06 -536.369C1701.54 -518.718 1710.7 -499.756 1718.29 -480.006C1776.11 -372.89 1830.39 -95.5843 1806.71 41.3429C1807.22 185.885 1741.5 216.074 1642.02 261.775C1604.54 278.984 1562.07 298.496 1516.07 327.072C1480.85 348.153 1449.08 367.82 1421.05 385.165C1274.68 475.753 1207.88 517.103 1090.86 496.381C1044.08 490.347 1004.58 460.685 973.442 408.231C966.102 395.869 959.231 382.167 953.012 367.508C948.771 360.953 944.574 354.19 940.481 347.296ZM1692.05 -536.958C1664.73 -582.972 1626.08 -624.284 1573.88 -663.254C1491.02 -724.555 1406.49 -765.131 1322.65 -783.855C1231.02 -806.834 1154.94 -809.883 1090.08 -793.167C1020.01 -775.546 948.52 -733.179 877.589 -667.247C813.946 -614.965 762.178 -555.729 727.901 -495.953C693.657 -436.235 678.272 -378.435 683.408 -328.809C686.678 -271.966 708.467 -219.175 734.468 -160.991C748.664 -119.317 767.153 -71.5107 786.722 -20.9002C800.687 15.2088 815.121 52.5406 829.815 92.1847C864.698 189.76 897.027 276.357 939.493 347.883C943.595 354.792 947.802 361.572 951.995 368.031C958.175 382.638 965.082 396.4 972.454 408.818C1003.83 461.673 1043.66 491.56 1090.83 497.648C1147.51 507.683 1193.99 503.377 1246.23 483.238C1296.23 463.969 1348.88 431.391 1421.74 386.294C1449.76 368.946 1481.53 349.284 1516.75 328.198C1562.71 299.659 1605.15 280.159 1642.6 262.954C1693.94 239.366 1734.5 220.743 1763.27 189.353C1794.38 155.407 1808.14 109.845 1807.89 41.6082C1818.64 -20.506 1813.76 -118.966 1794.48 -228.426C1776.03 -333.279 1747.94 -427.497 1719.35 -480.457C1711.77 -500.195 1702.57 -519.233 1692.05 -536.958Z" fill="#EDE9F6"/>
<path d="M930.992 298.872C891.205 231.858 859.515 155.295 833.764 89.2407C798.242 1.30785 761.836 -90.6798 741.232 -164.095C716.016 -226.877 700.163 -276.273 698.985 -328.711C691.199 -426.614 762.324 -552.04 884.597 -656.072C952.589 -723.251 1020.86 -766.774 1087.54 -785.455C1150.43 -803.636 1224.49 -801.924 1313.97 -780.237C1399.42 -762.191 1488.26 -719.161 1570.88 -655.803C1618.22 -619.171 1653.64 -580.463 1679.17 -537.475C1692.26 -515.424 1702.82 -492.319 1711.46 -466.844C1738 -415.457 1763.87 -325.479 1780.71 -226.04C1798.35 -121.817 1802.64 -27.6375 1792.46 32.3503C1792.6 172.595 1729.59 203.857 1634.22 251.185C1599.96 268.178 1561.13 287.441 1519.24 314.526C1486.79 334.583 1457.33 353.377 1431.34 369.968C1295.55 456.596 1227.39 500.082 1114.58 481.649C1064.51 476.507 1020 443.368 985.84 385.826C981.1 377.843 976.509 369.313 972.19 360.453C958.092 341.891 944.258 321.215 930.992 298.872ZM1680.16 -538.063C1654.53 -581.218 1619 -620.057 1571.51 -656.81C1488.72 -720.291 1399.7 -763.403 1314.08 -781.483C1224.42 -803.216 1150.17 -804.923 1087.11 -786.696C1020.26 -767.962 951.845 -724.359 883.755 -657.081C761.245 -552.845 689.978 -427.043 697.788 -328.791C699.099 -270.485 719.417 -215.309 740.116 -163.793C760.716 -90.3784 797.135 1.65062 832.669 89.6193C858.439 155.72 890.156 232.348 930.002 299.46C943.293 321.846 957.164 342.574 971.22 361.055C975.477 369.827 980.085 378.394 984.847 386.415C1019.25 444.367 1064.11 477.736 1114.58 482.917C1227.75 501.407 1296.03 457.852 1432.04 371.078C1458.03 354.497 1487.48 335.707 1519.94 315.648C1561.79 288.589 1600.59 269.337 1634.82 252.351C1684.05 227.926 1722.93 208.637 1750.56 177.314C1780.43 143.45 1793.71 98.8225 1793.64 32.6059C1803.84 -27.4087 1799.56 -121.755 1781.88 -226.122C1765.02 -325.696 1739.1 -415.838 1712.53 -467.25C1703.91 -492.723 1693.3 -515.92 1680.16 -538.063Z" fill="#EDE9F6"/>
<path d="M917.006 248.813C890.256 203.759 864.064 150.673 836.938 86.5236C791.084 -18.2227 761.71 -101.189 747.134 -167.131C726.452 -225.442 712.837 -275.251 713.54 -329.078C708.417 -423.627 776.373 -545.232 890.889 -646.48C956.019 -715.053 1021.22 -759.816 1084.72 -779.553C1145.78 -799.235 1218.02 -798.838 1305.58 -778.346C1417.31 -756.002 1510.37 -696.056 1568.77 -649.702C1611.94 -615.129 1644.55 -578.75 1668.45 -538.489C1683.87 -512.523 1695.82 -484.837 1705 -453.847C1754.96 -352.226 1799.68 -102.554 1778.77 23.5197C1778.58 159.659 1718.25 192.085 1626.93 241.161C1595.92 257.829 1560.76 276.72 1523 302.228C1493.42 321.163 1466.36 339.005 1442.49 354.75C1312.71 440.348 1247.56 483.313 1138.86 467.118C1084.21 462.933 1035.09 426.61 996.772 362.067C995.108 359.266 993.445 356.372 991.825 353.468C965.447 323.423 941.001 289.229 917.006 248.813ZM1669.44 -539.078C1645.44 -579.498 1612.72 -616.007 1569.41 -650.693C1510.89 -697.141 1417.64 -757.202 1305.68 -779.592C1217.94 -800.133 1145.51 -800.526 1084.26 -780.78C1020.6 -760.996 955.244 -716.14 890.029 -647.472C775.299 -546.034 707.201 -424.065 712.343 -329.202C711.637 -275.213 725.285 -225.266 745.993 -166.893C760.567 -100.944 789.971 -17.8883 835.857 86.9314C863.008 151.138 889.229 204.285 916.015 249.401C940.06 289.901 964.558 324.164 990.907 354.154C992.439 356.935 994.11 359.841 995.781 362.655C1034.35 427.612 1083.83 464.176 1138.87 468.383C1247.95 484.637 1313.2 441.602 1443.2 355.861C1467.07 340.121 1494.12 322.276 1523.71 303.331C1561.44 277.851 1596.57 258.972 1627.57 242.315C1719.22 193.057 1779.77 160.509 1779.95 23.7797C1800.9 -102.414 1756.1 -352.525 1706.09 -454.221C1696.92 -485.202 1684.92 -513.003 1669.44 -539.078Z" fill="#EDE9F6"/>
<path d="M901.78 200.461C880.805 165.133 860.979 126.875 841.176 83.5204C794.669 -14.9945 765.305 -100.495 753.901 -170.617C739.188 -218.68 725.986 -271.179 728.818 -329.977C726.251 -421.223 790.854 -538.976 897.418 -637.331C960.411 -708.276 1020.71 -752.946 1081.82 -773.929C1140.96 -795.078 1211.32 -795.914 1296.94 -776.499C1387.01 -759.332 1482.66 -712.035 1566.3 -643.317C1605.77 -610.619 1635.84 -576.383 1658.24 -538.658C1675.84 -509.015 1688.94 -476.865 1698.29 -440.364C1744.26 -341.599 1784.97 -107.297 1765.26 15.4013C1764.88 147.592 1707.28 181.236 1620.09 232.165C1592.4 248.341 1561.01 266.679 1527.46 290.448C1500.9 308.134 1476.39 324.895 1454.77 339.695C1331.07 424.346 1268.98 466.833 1164.34 452.753C1092.46 449.082 1042.2 392.931 1012.68 346.476L1012.58 346.344C972.7 306.589 936.457 258.868 901.78 200.461ZM1659.23 -539.245C1636.74 -577.121 1606.56 -611.482 1566.96 -644.297C1483.14 -713.153 1387.28 -760.551 1297.03 -777.753C1211.22 -797.215 1140.66 -796.365 1081.33 -775.152C1020.06 -754.109 959.613 -709.344 896.541 -638.304C789.786 -539.774 725.048 -421.681 727.62 -330.143C724.781 -271.186 738.017 -218.545 752.745 -170.45C764.15 -100.288 793.55 -14.657 840.113 83.9698C859.935 127.368 879.784 165.664 900.792 201.048C935.52 259.54 971.818 307.338 1011.76 347.172C1041.46 393.898 1092.03 450.329 1164.38 454.03C1269.38 468.155 1331.58 425.592 1455.5 340.798C1477.11 326.005 1501.62 309.233 1528.19 291.553C1561.71 267.79 1593.08 249.47 1620.76 233.306C1708.27 182.184 1766.08 148.419 1766.45 15.6564C1786.18 -107.158 1745.4 -341.873 1699.4 -440.69C1690.06 -477.196 1676.9 -509.479 1659.23 -539.245Z" fill="#EDE9F6"/>
<path d="M885.423 157.767C871.095 133.634 857.139 107.754 843.934 80.8434C796.102 -13.6269 766.89 -101.59 759.444 -173.547C743.822 -234.949 738.931 -281.774 743.07 -330.214C743.125 -373.49 757.89 -423.732 785.776 -475.562C813.831 -527.703 854.552 -580.284 903.541 -627.619C963.623 -700.071 1020.97 -745.961 1078.91 -767.954C1136.19 -790.647 1204.75 -792.822 1288.51 -774.604C1381.56 -757.843 1479.45 -709.088 1564.17 -637.312C1600.35 -606.41 1628.13 -574.22 1649.1 -538.898C1668.71 -505.872 1682.67 -469.445 1691.78 -427.527C1734.07 -330.69 1769.85 -111.566 1751.38 6.32524C1750.61 134.676 1695.58 169.755 1612.29 222.853C1587.9 238.403 1560.26 256.022 1530.9 277.94C1507.43 294.252 1486.49 309.175 1466.24 323.603C1348.22 407.695 1288.98 449.905 1188.18 438.109C1116.61 436.386 1063.68 383.504 1031.87 339.453L1031.76 339.326C978.221 292.227 928.987 231.143 885.423 157.767ZM1650.09 -539.486C1629.04 -574.951 1601.15 -607.266 1564.84 -638.274C1479.95 -710.206 1381.84 -759.065 1288.59 -775.86C1204.63 -794.121 1135.86 -791.932 1078.39 -769.163C1020.29 -747.109 962.798 -701.12 902.641 -628.571C853.616 -581.201 812.826 -528.53 784.723 -476.291C756.743 -424.293 741.929 -373.851 741.876 -330.421C737.725 -281.875 742.627 -234.915 758.272 -173.454C765.718 -101.426 794.984 -13.2867 842.89 81.3364C856.107 108.269 870.086 134.186 884.434 158.354C928.061 231.834 977.373 293.022 1031 340.222C1063 384.516 1116.24 437.648 1188.24 439.378C1289.4 451.221 1348.75 408.935 1466.98 324.693C1487.23 310.263 1508.17 295.345 1531.64 279.024C1560.99 257.118 1588.62 239.509 1613 223.97C1696.58 170.685 1751.8 135.48 1752.57 6.58319C1761.01 -47.2654 1758.36 -129.448 1745.29 -218.788C1733.01 -302.687 1713.43 -380.826 1692.9 -427.815C1683.8 -469.748 1669.78 -506.32 1650.09 -539.486Z" fill="#EDE9F6"/>
<path d="M872.446 122.656C863.956 108.356 855.644 93.4712 847.733 78.4148C797.547 -14.3762 769.26 -102.448 765.919 -176.296C754.471 -233.325 752.083 -280.786 758.165 -330.286C760.922 -416.218 817.747 -523.622 910.183 -617.648C967.229 -691.605 1021.55 -738.673 1076.29 -761.59C1131.63 -785.803 1198.34 -789.264 1280.22 -772.176C1376.2 -755.774 1476.28 -705.489 1562.07 -630.588C1595.33 -601.322 1621.06 -570.988 1640.73 -537.855C1662.21 -501.668 1676.81 -461.116 1685.36 -413.872C1723.05 -321.043 1754.64 -112.797 1737.84 -1.87828C1736.74 122.852 1684.29 159.524 1604.89 215.013C1583.9 229.688 1560.1 246.315 1535.02 266.162C1514.82 280.899 1496.57 294.513 1478.91 307.679C1370.08 388.819 1310.13 433.518 1213.07 423.942C1141.92 424.124 1086.29 374.483 1052.15 332.803C984.019 279.475 923.597 208.809 872.446 122.656ZM1641.72 -538.444C1621.97 -571.711 1596.14 -602.164 1562.76 -631.533C1476.79 -706.601 1376.48 -756.994 1280.29 -773.433C1198.2 -790.566 1131.28 -787.085 1075.74 -762.784C1020.84 -739.806 966.38 -692.631 909.26 -618.57C816.678 -524.4 759.731 -416.707 756.972 -330.539C750.874 -280.949 753.27 -233.354 764.733 -176.279C768.07 -102.328 796.421 -14.0366 846.707 78.9376C854.629 94.0166 862.957 108.929 871.456 123.244C922.701 209.558 983.241 280.358 1051.4 333.693C1085.62 375.484 1141.57 425.402 1213.15 425.218C1310.58 434.828 1370.64 390.048 1479.67 308.755C1497.33 295.591 1515.58 281.982 1535.79 267.224C1560.86 247.39 1584.64 230.772 1605.63 216.108C1685.3 160.421 1737.93 123.63 1739.03 -1.62355C1747 -54.1686 1744.94 -130.273 1733.22 -215.831C1722.46 -294.456 1704.98 -368.583 1686.49 -414.116C1677.95 -461.388 1663.3 -502.102 1641.72 -538.444Z" fill="#EDE9F6"/>
<path d="M861.992 93.697C858.357 87.5748 854.745 81.3117 851.256 75.0854C798.565 -16.4536 771.219 -104.576 772.183 -179.758C764.607 -232.23 764.89 -280.241 773.061 -330.965C778.466 -413.56 832.111 -517.137 916.571 -608.089C971.282 -684.612 1021.09 -731.458 1073.34 -755.56C1126.69 -781.293 1191.5 -786.043 1271.48 -770.092C1368.9 -754.309 1473.81 -701.183 1559.33 -624.334C1589.98 -596.599 1613.85 -567.991 1632.32 -536.883C1655.86 -497.223 1670.44 -454.003 1678.2 -400.86C1711.5 -311.561 1739.11 -117.855 1723.5 -11.0199C1722.05 110.322 1672.09 148.797 1596.48 207.039C1578.97 220.524 1559.14 235.804 1538.43 253.275C1521.67 266.205 1506.29 278.272 1491.41 289.949C1387.91 371.172 1330.9 415.919 1237.4 408.607C1166.76 410.694 1108.46 364.325 1071.99 325.062C990.65 268.129 918.07 188.15 861.992 93.697ZM1633.31 -537.472C1614.76 -568.712 1590.8 -597.433 1560.04 -625.268C1474.33 -702.289 1369.17 -755.53 1271.53 -771.347C1191.34 -787.347 1126.31 -782.57 1072.76 -756.738C1020.34 -732.564 970.406 -685.613 915.63 -608.988C831.048 -517.908 777.289 -414.065 771.874 -331.262C763.685 -280.467 763.404 -232.326 770.993 -179.822C770.023 -104.492 797.431 -16.1126 850.25 75.6453C853.742 81.8759 857.362 88.1483 861.004 94.2834C917.192 188.922 989.909 269.048 1071.3 326C1107.86 365.376 1166.48 411.985 1237.52 409.886C1331.36 417.222 1388.49 372.395 1492.19 291.01C1507.07 279.337 1522.45 267.264 1539.22 254.331C1559.93 236.859 1579.76 221.583 1597.25 208.108C1636.34 178 1667.21 154.225 1689.27 122.149C1713.08 87.5179 1724.01 46.5267 1724.7 -10.7644C1732.06 -61.1706 1730.53 -133.252 1720.38 -213.655C1711.12 -286.943 1695.78 -356.996 1679.35 -401.053C1671.6 -454.244 1656.96 -497.639 1633.31 -537.472Z" fill="#EDE9F6"/>
<path d="M849.668 65.3567C797.429 -22.6303 772.597 -108.275 777.864 -182.321C773.714 -231.366 776.676 -277.145 787.471 -330.855C795.587 -410.266 846.191 -510.127 922.848 -598.052C974.523 -676.247 1021.46 -724.273 1070.6 -749.251C1121.31 -776.181 1186.11 -782.436 1263.24 -767.855C1363.62 -752.51 1470.83 -697.892 1557.41 -618C1585.74 -591.675 1607.97 -564.64 1625.35 -535.358C1650.56 -492.895 1665.35 -445.966 1671.88 -387.675C1701.8 -298.865 1724.36 -122.721 1709.84 -19.7014C1707.93 98.7644 1662.78 137.287 1588 201.112C1573.41 213.564 1558.33 226.432 1542.09 241.156C1528.92 251.962 1516.62 262.204 1504.7 272.098C1406.1 354.105 1351.79 399.273 1261.46 394.323C1191.28 398.349 1130.22 355.26 1091.35 318.407C996.37 258.748 914.385 173.844 854.146 72.7971C852.629 70.3046 851.139 67.8336 849.668 65.3567ZM1626.35 -535.949C1608.89 -565.357 1586.57 -592.498 1558.13 -618.92C1471.36 -698.995 1363.89 -753.737 1263.29 -769.114C1185.93 -783.739 1120.89 -777.45 1069.98 -750.411C1020.68 -725.354 973.622 -677.219 921.884 -598.923C845.125 -510.89 794.421 -410.785 786.29 -331.201C775.478 -277.426 772.509 -231.533 776.668 -182.462C771.382 -108.235 796.281 -22.301 848.675 65.9462C850.148 68.4274 851.641 70.9028 853.163 73.3927C913.515 174.637 995.666 259.708 1090.73 319.402C1129.68 356.354 1191.05 399.648 1261.6 395.597C1352.28 400.571 1406.7 355.305 1505.51 273.145C1517.42 263.241 1529.72 253.008 1542.9 242.187C1559.15 227.452 1574.23 214.593 1588.81 202.148C1626.18 170.258 1655.69 145.07 1676.8 112.392C1699.57 77.1558 1710.13 36.4967 1711.03 -19.4541C1717.84 -67.7594 1716.89 -135.88 1708.33 -211.183C1700.6 -279.157 1687.41 -345.196 1673.04 -387.826C1666.52 -446.179 1651.67 -493.298 1626.35 -535.949Z" fill="#EDE9F6"/>
<path d="M845.49 50.7571C796.088 -32.4509 774.801 -114.077 783.928 -185.295C782.924 -229.74 788.539 -274.725 802.142 -331.25C812.915 -407.631 860.371 -503.8 929.099 -588.56C978.276 -669.583 1020.98 -717.334 1067.64 -743.458C1116.38 -771.924 1179.31 -779.495 1254.7 -765.976C1358.04 -750.983 1467.57 -694.744 1555.24 -611.666C1581.52 -586.605 1602.28 -560.977 1618.69 -533.33C1645.52 -488.143 1660.39 -437.586 1665.49 -374.227C1690.76 -289.433 1709.65 -126.43 1696.4 -27.8603C1694.09 88.4655 1650.88 129.602 1579.29 197.765C1568.74 207.817 1557.82 218.207 1546.27 229.574C1536.95 237.804 1528.01 245.763 1519.41 253.416C1425.53 336.99 1373.81 383.021 1286.29 380.423C1216.65 386.315 1152.79 346.438 1111.47 311.955C1008.39 253.53 920.656 170.009 857.626 70.3369C853.431 63.8453 849.349 57.2574 845.49 50.7571ZM1619.69 -533.918C1603.2 -561.685 1582.36 -587.414 1555.97 -612.575C1468.1 -695.842 1358.31 -752.215 1254.74 -767.238C1179.11 -780.806 1115.93 -773.189 1066.98 -744.602C1020.18 -718.391 977.347 -670.524 928.11 -589.399C859.306 -504.548 811.758 -408.168 800.97 -331.643C787.348 -275.066 781.724 -229.981 782.737 -185.515C773.574 -114.085 794.931 -32.1478 844.501 51.3442C848.371 57.8616 852.461 64.4644 856.666 70.9731C919.813 170.836 1007.73 254.531 1110.91 312.991C1152.32 347.569 1216.48 387.618 1286.46 381.697C1374.34 384.316 1426.16 338.183 1520.24 254.44C1528.84 246.785 1537.78 238.829 1547.11 230.579C1558.68 219.197 1569.59 208.808 1580.15 198.763C1615.98 164.643 1644.27 137.707 1664.51 104.131C1686.29 67.9603 1696.5 27.3318 1697.59 -27.6113C1710.86 -126.268 1691.94 -289.546 1666.65 -374.334C1661.57 -437.774 1646.63 -488.531 1619.69 -533.918Z" fill="#EDE9F6"/>
<path d="M842.918 38.8507C795.654 -40.7571 777.427 -119.318 790.213 -188.345C792.227 -235.211 802.402 -279.487 817.069 -331.574C830.764 -406.146 873.964 -496.231 935.601 -578.787C966.526 -634.53 1009.13 -702.858 1064.88 -737.273C1111.61 -767.272 1172.63 -776.177 1246.24 -763.742C1350.91 -749.372 1465.55 -690.112 1552.91 -605.214C1577.33 -581.353 1596.74 -557.05 1612.25 -530.927C1640.99 -482.53 1655.35 -430.102 1658.79 -360.925C1679.79 -278.772 1694.33 -128.898 1682.53 -36.5355C1679.73 78.6114 1638.04 123.161 1568.97 196.975C1562.87 203.505 1556.56 210.248 1550.05 217.279C1544.85 222.277 1539.77 227.188 1534.8 231.978C1448.28 315.459 1396.05 365.842 1310.84 365.745C1241.85 373.497 1175.22 336.903 1131.45 304.838C1022.02 248.749 926.083 164.488 861.203 67.5317C854.732 58.0386 848.581 48.3877 842.918 38.8507ZM1613.25 -531.515C1597.67 -557.754 1578.18 -582.157 1553.66 -606.111C1512.7 -645.914 1464.36 -681.266 1413.86 -708.346C1357.9 -738.359 1301.52 -757.425 1246.28 -765.007C1172.4 -777.486 1111.13 -768.533 1064.19 -738.398C1008.24 -703.859 965.538 -635.387 934.589 -579.592C872.894 -496.964 829.622 -406.704 815.904 -332.018C801.228 -279.898 791.034 -235.542 789.027 -188.643C776.192 -119.375 794.481 -40.4763 841.927 39.4389C847.605 49.0016 853.775 58.6789 860.26 68.1955C892.608 116.542 932.174 161.472 977.856 201.732C1024.14 242.529 1075.65 277.58 1130.95 305.922C1174.8 338.064 1241.74 374.81 1311.04 367.018C1396.61 367.122 1448.95 316.629 1535.66 232.975C1540.63 228.174 1545.71 223.273 1550.93 218.256C1557.46 211.197 1563.77 204.457 1569.87 197.933C1639.12 123.928 1680.91 79.2569 1683.72 -36.2856C1695.53 -128.739 1680.98 -278.839 1659.97 -360.984C1656.52 -430.263 1642.11 -482.899 1613.25 -531.515Z" fill="#EDE9F6"/>
<path d="M841.214 28.4102C795.585 -48.443 780.067 -124.643 796.337 -191.945C801.597 -238.997 816.262 -284.388 831.791 -332.443C848.351 -404.438 888.455 -490.836 941.835 -569.532C972.294 -630.017 1010.34 -696.519 1061.8 -731.573C1106.48 -763.101 1165.56 -773.326 1237.42 -761.956C1344.91 -747.974 1461.82 -687.115 1550.17 -599.159C1572.9 -576.409 1591.09 -553.33 1605.77 -528.595C1635.99 -477.702 1650.15 -422.007 1651.7 -348.015C1668.24 -268.947 1678.98 -134.287 1668.32 -45.5986C1664.92 70.2859 1623.92 119.711 1556 201.603L1553.54 204.574L1551.42 206.837C1468.79 294.869 1418.91 348.011 1335.18 350.593C1266.93 360.172 1197.5 326.859 1151.26 297.228C1034.1 242.747 932.344 159.996 864.646 64.1776C856.173 52.3615 848.291 40.3303 841.214 28.4102ZM1606.76 -529.184C1592.01 -554.028 1573.75 -577.203 1550.92 -600.042C1462.37 -688.206 1345.18 -749.208 1237.44 -763.225C1165.31 -774.629 1105.97 -764.352 1061.07 -732.671C1009.41 -697.485 971.287 -630.842 940.796 -570.295C887.38 -491.552 847.218 -405.013 830.638 -332.93C815.106 -284.868 800.421 -239.422 795.16 -192.323C778.818 -124.745 794.397 -48.1881 840.224 28.9981C847.323 40.9545 855.23 53.0229 863.727 64.8706C931.563 160.893 1033.52 243.809 1150.82 298.345C1197.15 328.046 1266.87 361.487 1335.42 351.868C1419.52 349.274 1469.51 296.017 1552.31 207.791L1554.46 205.504L1556.94 202.507C1625.02 120.431 1666.1 70.894 1669.51 -45.3451C1680.18 -134.121 1669.44 -268.971 1652.88 -348.024C1651.35 -422.14 1637.12 -478.056 1606.76 -529.184Z" fill="#EDE9F6"/>
<path d="M840.009 20.7071C795.689 -53.9415 782.67 -128.243 802.354 -194.172C809.368 -232.066 823.257 -269.371 837.956 -308.864C840.764 -316.406 843.619 -324.083 846.493 -331.926C866.285 -402.215 903.359 -484.941 948.223 -558.92C976.313 -620.745 1011.41 -688.717 1059.02 -724.554C1101.66 -757.634 1158.84 -769.206 1228.99 -758.939C1339.34 -745.407 1458.55 -683.025 1547.85 -592.066C1569.05 -570.371 1586.13 -548.432 1600.04 -524.997C1631.69 -471.697 1645.54 -412.839 1644.95 -334.164C1656.83 -258.97 1663.85 -138.58 1654.3 -53.7605C1650.35 57.1594 1614.92 113.374 1557.05 192.786C1486.11 278.342 1438.6 331.071 1359.36 336.463C1291.87 347.867 1219.6 317.886 1170.85 290.73C1046 238.041 938.427 156.87 867.881 62.1235C857.598 48.4752 848.222 34.5398 840.009 20.7071ZM1601.03 -525.585C1587.06 -549.125 1569.92 -571.154 1548.63 -592.94C1459.1 -684.113 1339.62 -746.64 1229 -760.203C1158.57 -770.512 1101.11 -758.878 1058.25 -725.623C1010.46 -689.65 975.28 -621.531 947.162 -559.643C902.279 -485.636 865.16 -402.811 845.355 -332.463C842.499 -324.667 839.642 -316.992 836.835 -309.454C822.115 -269.908 808.216 -232.559 801.191 -194.624C791.692 -162.814 789.825 -128.541 795.661 -92.8168C801.805 -55.2123 816.393 -16.8188 839.021 21.2938C847.261 35.1735 856.669 49.1511 866.981 62.845C937.674 157.793 1045.45 239.129 1170.46 291.88C1219.32 319.098 1291.86 349.18 1359.62 337.733C1439.23 332.32 1486.87 279.459 1558 193.667C1616.03 114.06 1651.54 57.709 1655.49 -53.5164C1665.05 -138.401 1658.03 -258.946 1646.14 -334.117C1646.74 -412.953 1632.82 -472.04 1601.03 -525.585Z" fill="#EDE9F6"/>
<path d="M839.795 12.7712C796.473 -60.1972 785.712 -133.052 808.682 -197.907C816.933 -229.416 830.325 -260.388 844.503 -293.182C850.044 -305.998 855.775 -319.254 861.416 -333.028C878.731 -384.349 908.955 -463.633 954.688 -550.089C981.613 -616.518 1012.53 -682.966 1056.21 -719.395C1096.78 -754.04 1152.07 -766.924 1220.54 -757.686C1333.8 -744.52 1455.36 -680.469 1545.71 -586.333C1565.27 -565.878 1581.8 -544.367 1594.84 -522.403C1627.92 -466.682 1641.41 -404.673 1638.59 -321.34C1645.24 -256.086 1649.83 -149.266 1640.88 -62.6659C1636.51 41.2016 1609.55 102.903 1561.3 180.445C1499.24 268.084 1454.83 314.01 1384.34 321.771C1317.68 334.917 1242.51 308.214 1191.18 283.493C1058.63 232.544 945.165 152.783 871.637 58.8762C859.667 43.7125 848.956 28.1998 839.795 12.7712ZM1595.83 -522.991C1582.73 -545.053 1566.13 -566.654 1546.5 -587.191C1504.58 -630.859 1453.76 -669.627 1399.53 -699.31C1340.59 -731.571 1278.69 -752.194 1220.54 -758.955C1151.76 -768.234 1096.2 -755.275 1055.4 -720.432C1011.55 -683.861 980.561 -617.274 953.607 -550.763C907.86 -464.291 877.613 -384.945 860.296 -333.616C854.671 -319.887 848.943 -306.638 843.406 -293.824C829.209 -260.994 815.8 -229.982 807.539 -198.432C796.456 -167.139 793.223 -133.479 797.952 -98.4346C802.933 -61.5232 816.677 -23.9119 838.805 13.3591C848 28.8453 858.75 44.4098 870.756 59.6243C944.442 153.735 1058.12 233.652 1190.85 284.67C1242.3 309.444 1317.73 336.234 1384.64 323.029C1419.61 319.189 1449.77 305.394 1479.51 279.632C1509.39 253.747 1536.96 217.06 1562.3 181.265C1610.67 103.526 1637.69 41.6809 1642.07 -62.4221C1651.03 -149.074 1646.44 -256.008 1639.78 -321.234C1642.62 -404.761 1629.07 -467.014 1595.83 -522.991Z" fill="#EDE9F6"/>
<path d="M839.436 6.48857C796.987 -65.0095 788.406 -136.585 814.624 -200.506C823.814 -227.245 837.034 -253.563 851.027 -281.426C859.277 -297.852 867.812 -314.842 875.998 -332.858C881.04 -345.458 886.251 -358.647 891.661 -372.337C911.789 -423.275 934.604 -481.005 960.897 -539.793C989.002 -618.274 1015.45 -677.681 1053.19 -712.633C1091.66 -748.827 1145.03 -763.044 1211.81 -754.878C1326.17 -742.355 1453.08 -675.126 1543.02 -579.433C1561.31 -559.893 1576.88 -539.404 1589.27 -518.534C1624.18 -459.738 1636.8 -396.686 1631.48 -307.708C1632.67 -277.179 1635.84 -170.098 1626.55 -71.0676C1621.87 21.8613 1603.91 91.2239 1564.54 168.383C1527.01 233.556 1482.1 295.509 1408.32 307.29C1356.28 319.065 1287.94 308.46 1210.65 276.624C1070.54 227.618 951.279 149.417 874.82 56.4287C861.287 40.0406 849.382 23.2402 839.436 6.48857ZM1590.26 -519.123C1577.82 -540.084 1562.19 -560.661 1543.81 -580.278C1501.6 -625.196 1449.98 -665.067 1394.52 -695.585C1334.35 -728.707 1271.16 -749.647 1211.79 -756.147C1144.69 -764.351 1091.04 -750.047 1052.34 -713.634C1014.44 -678.541 987.936 -619.006 959.787 -540.41C933.5 -481.64 910.682 -423.896 890.549 -372.947C885.14 -359.26 879.927 -346.073 874.899 -333.498C866.73 -315.527 858.203 -298.548 849.957 -282.13C835.947 -254.228 822.711 -227.878 813.505 -201.097C800.852 -170.253 796.291 -137.131 799.955 -102.671C803.813 -66.3669 816.764 -29.4441 838.446 7.07628C848.431 23.8941 860.381 40.7603 873.963 57.206C950.585 150.392 1070.06 228.745 1210.37 277.818C1287.85 309.734 1356.44 320.371 1408.66 308.548C1441.07 303.373 1469.64 288.744 1495.95 263.816C1518.63 242.329 1540.77 212.24 1565.6 169.117C1605.06 91.7707 1623.06 22.2673 1627.74 -70.8271C1637.04 -169.901 1633.86 -277.059 1632.67 -307.542C1638.01 -396.755 1625.33 -460.056 1590.26 -519.123Z" fill="#EDE9F6"/>
<path d="M839.36 0.675782C798.195 -68.659 791.502 -141.15 820.513 -203.445C830.438 -226.491 843.618 -249.233 857.575 -273.314C868.582 -292.309 879.969 -311.954 890.585 -333.161C915.203 -385.596 937.925 -448.822 961.985 -515.755L967.169 -530.175C988.298 -597.906 1012.12 -667.311 1050.3 -706.711C1086.7 -744.497 1138.19 -760.054 1203.36 -752.943C1320.64 -740.852 1449.99 -671.981 1540.93 -573.205C1558.1 -554.51 1572.78 -534.955 1584.58 -515.085C1630.21 -438.218 1630.66 -360.425 1625.07 -294.47C1623.8 -253.37 1620.55 -170.859 1612.94 -79.6228C1608.42 -4.45335 1599.91 76.1527 1568.47 156.412C1533.87 236.988 1490.78 280.399 1432.84 293.014C1380.8 306.319 1312.72 298.546 1230.47 269.918C1082.71 222.862 957.551 146.147 878.03 53.9081C862.997 36.4848 849.988 18.5757 839.36 0.675782ZM1585.57 -515.673C1573.72 -535.631 1558.97 -555.271 1541.74 -574.044C1450.57 -673.055 1320.91 -742.094 1203.34 -754.214C1137.83 -761.363 1086.04 -745.704 1049.42 -707.681C1011.07 -668.109 987.199 -598.567 966.034 -530.731L960.857 -516.332C936.812 -449.422 914.096 -386.226 889.505 -333.851C878.913 -312.683 867.536 -293.056 856.533 -274.075C842.564 -249.964 829.365 -227.194 819.422 -204.102C805.219 -173.605 799.36 -140.894 802.01 -106.883C804.807 -71.0459 817.038 -34.6606 838.368 1.26511C849.038 19.2376 862.103 37.2206 877.192 54.7089C956.884 147.14 1082.27 224.006 1230.24 271.137C1312.69 299.833 1381 307.619 1433.23 294.27C1491.49 281.575 1534.83 237.97 1569.58 157.034C1601.09 76.6042 1609.62 -4.11788 1614.13 -79.3763C1621.74 -170.628 1624.99 -253.163 1626.26 -294.238C1631.87 -360.384 1631.42 -438.445 1585.57 -515.673Z" fill="#EDE9F6"/>
<path d="M839.602 -4.59186C799.019 -72.9461 794.373 -144.561 826.52 -206.247C837.009 -226.295 850.188 -246.146 864.136 -267.162C877.99 -288.026 892.314 -309.603 905.29 -333.298C930.465 -379.273 950.882 -435.213 973.556 -520.343C992.834 -592.548 1013 -660.658 1047.53 -700.523C1081.82 -739.896 1131.44 -756.791 1195.01 -750.742C1315.17 -739.103 1446.93 -668.616 1538.85 -566.791C1554.97 -548.907 1568.83 -530.24 1580.07 -511.311C1627.42 -431.554 1626.13 -350.195 1618.62 -281.131C1617.39 -269.891 1616.09 -258.381 1614.76 -246.584C1609.45 -199.563 1603.44 -146.269 1599.27 -88.1525C1598.28 -74.3877 1597.39 -60.1498 1596.52 -46.3772C1592.48 17.9462 1588.31 84.4544 1572.34 144.409C1553.48 215.083 1512.64 262.765 1457.34 278.668C1406.09 293.284 1336.44 288.073 1250.3 263.176C1094.96 218.131 963.917 142.94 881.314 51.4433C864.85 33.1512 850.816 14.2966 839.602 -4.59186ZM1581.06 -511.901C1569.78 -530.913 1555.85 -549.661 1539.67 -567.621C1447.52 -669.69 1315.44 -740.347 1194.97 -752.014C1131.05 -758.1 1081.13 -741.087 1046.61 -701.449C1011.93 -661.409 991.714 -593.159 972.401 -520.824C949.75 -435.788 929.367 -379.926 904.236 -334.037C891.283 -310.382 876.973 -288.825 863.132 -267.977C849.165 -246.939 835.973 -227.066 825.458 -206.962C809.719 -176.759 802.588 -144.401 804.262 -110.771C806.033 -75.3379 817.586 -39.4155 838.611 -4.00352C849.876 14.9704 863.971 33.9039 880.497 52.2717C921.63 97.8303 974.944 139.508 1038.97 176.153C1102.48 212.503 1173.52 242.191 1250.12 264.407C1336.46 289.362 1406.33 294.576 1457.77 279.908C1513.44 263.9 1554.54 215.948 1573.49 144.885C1589.49 84.8182 1593.68 18.2392 1597.72 -46.1445C1598.58 -59.9125 1599.48 -74.1448 1600.47 -87.9011C1604.63 -145.999 1610.64 -199.275 1615.95 -246.288C1617.28 -258.077 1618.58 -269.598 1619.81 -280.837C1627.35 -350.136 1628.64 -431.772 1581.06 -511.901Z" fill="#EDE9F6"/>
<path d="M851.185 -13.4745C810.781 -81.5284 805.361 -151.528 835.927 -210.58C846.743 -231.504 860.321 -251.823 874.695 -273.332C887.489 -292.479 900.72 -312.278 912.988 -333.991C918.704 -344.191 924.358 -355.27 929.795 -366.918C947.823 -405.546 963.831 -450.971 981.707 -514.203C1001.41 -583.502 1021.93 -648.881 1056.12 -687.274C1090 -725.15 1138.43 -741.458 1200.07 -735.748C1271.12 -729.213 1344.5 -701.691 1412.26 -656.162C1455.95 -627.344 1497.16 -591.368 1531.45 -552.119C1546.67 -534.913 1559.87 -516.958 1570.67 -498.759C1599.71 -449.857 1613.56 -396.82 1614.27 -331.857C1614.41 -314.045 1613.57 -295.055 1611.69 -273.812C1610.32 -257.1 1608.79 -239.986 1607.18 -221.866C1603.58 -181.249 1599.49 -135.222 1596.47 -86.1122C1596 -78.0803 1595.55 -69.993 1595.1 -61.8588C1592.02 -6.54107 1588.84 50.6646 1578.18 104.075C1575.65 116.762 1572.76 128.939 1569.59 140.261C1550.62 208.414 1510.43 254.625 1456.45 270.386C1406.04 285.032 1338.17 280.509 1254.72 256.957C1198.64 241.593 1142.98 219.386 1089.31 190.957C1051.82 171.351 1015.91 148.89 982.588 124.201C949.154 99.3841 920.62 73.4252 892.79 42.495C876.429 24.2958 862.429 5.46372 851.185 -13.4745ZM1571.66 -499.346C1560.81 -517.627 1547.56 -535.66 1532.28 -552.932C1497.9 -592.277 1456.59 -628.339 1412.81 -657.221C1344.86 -702.87 1271.29 -730.468 1200.03 -737.023C1138.04 -742.767 1089.32 -726.342 1055.21 -688.211C1020.86 -649.644 1000.3 -584.134 980.556 -514.701C962.696 -451.53 946.707 -406.16 928.711 -367.592C923.284 -355.969 917.644 -344.916 911.943 -334.74C899.694 -313.063 886.475 -293.283 873.692 -274.154C859.298 -252.617 845.707 -232.275 834.862 -211.294C804.088 -151.838 809.532 -81.3734 850.194 -12.8861C861.489 6.13752 875.546 25.0457 891.969 43.3171C919.87 74.3213 948.476 100.35 981.986 125.222C1015.37 149.955 1051.33 172.45 1088.89 192.091C1142.64 220.56 1198.38 242.804 1254.55 258.195C1338.2 281.805 1406.28 286.322 1456.89 271.622C1511.23 255.753 1551.67 209.281 1570.74 140.756C1573.92 129.402 1576.82 117.197 1579.35 104.483C1590.03 50.9846 1593.21 -6.26359 1596.3 -61.6337C1596.74 -69.7666 1597.19 -77.8561 1597.67 -85.8828C1600.69 -134.973 1604.6 -179.01 1608.38 -221.601C1609.99 -239.72 1611.51 -256.834 1612.89 -273.548C1614.77 -294.835 1615.61 -313.861 1615.46 -331.714C1614.76 -396.943 1600.84 -450.207 1571.66 -499.346Z" fill="#EDE9F6"/>
<path d="M862.49 -22.8237C822.336 -90.4552 816.166 -158.741 845.116 -215.101C856.267 -236.946 870.253 -257.707 885.06 -279.689C896.773 -297.078 908.887 -315.057 920.373 -334.744C925.996 -344.532 931.605 -355.194 937.048 -366.442C955.102 -403.745 971.267 -447.385 989.454 -507.938C1009.55 -574.259 1030.39 -636.839 1064.21 -673.725C1097.64 -710.062 1144.83 -725.766 1204.48 -720.394C1274.71 -714.275 1345.75 -686.697 1409.91 -640.649C1451.14 -612.106 1489.2 -577.319 1523.04 -537.238C1537.34 -520.749 1549.84 -503.55 1560.19 -486.123C1588.58 -438.302 1602.81 -386.409 1604.99 -322.806C1605.49 -305.477 1605.07 -287.079 1603.7 -266.553C1602.41 -242.567 1600.78 -217.478 1599.04 -190.92C1596.84 -157.134 1594.55 -122.204 1592.64 -84.3188L1592.45 -80.2824C1589.76 -19.8626 1586.97 42.6093 1574.63 100.663C1572.04 112.882 1569.09 124.656 1565.85 135.635C1546.79 201.195 1507.32 245.89 1454.71 261.482C1405.19 276.14 1339.18 272.317 1258.51 250.128C1204.05 236.068 1150.79 214.201 1095.69 183.284C1059.83 163.644 1025.76 141.386 991.519 115.25C960.511 91.4935 934.335 66.926 904.003 33.1074C887.741 15.0017 873.775 -3.81525 862.49 -22.8237ZM1561.18 -486.712C1550.79 -504.216 1538.24 -521.484 1523.88 -538.039C1489.97 -578.208 1451.81 -613.083 1410.48 -641.686C1346.14 -687.868 1274.89 -715.532 1204.43 -721.669C1144.45 -727.068 1096.97 -711.259 1063.3 -674.672C1029.34 -637.623 1008.45 -574.907 988.311 -508.454C970.142 -447.964 953.997 -404.376 935.97 -367.13C930.538 -355.906 924.939 -345.266 919.331 -335.502C907.865 -315.85 895.764 -297.884 884.061 -280.513C869.235 -258.508 855.23 -237.716 844.05 -215.812C829.815 -188.098 823.996 -157.336 826.757 -124.376C829.579 -90.6752 841.27 -56.3098 861.5 -22.2358C872.835 -3.14417 886.862 15.7517 903.188 33.9318C933.587 67.8235 959.819 92.447 990.904 116.256C1025.2 142.437 1059.32 164.731 1095.24 184.405C1150.44 215.376 1203.8 237.28 1258.36 251.364C1339.22 273.612 1405.44 277.435 1455.15 262.717C1508.11 247.022 1547.83 202.072 1567 136.142C1570.25 125.131 1573.2 113.337 1575.79 101.081C1588.16 42.9304 1590.95 -19.5992 1593.65 -80.0773L1593.83 -84.0993C1595.75 -121.967 1598.03 -156.901 1600.24 -190.682C1601.97 -217.246 1603.61 -242.334 1604.9 -266.326C1606.27 -286.877 1606.69 -305.317 1606.19 -322.695C1604 -386.551 1589.7 -438.669 1561.18 -486.712Z" fill="#EDE9F6"/>
<path d="M873.695 -32.3468C834.328 -98.6531 827.218 -167.061 854.185 -220.034C865.702 -242.916 880.138 -264.138 895.42 -286.609C906.057 -302.248 917.051 -318.411 927.699 -336.082C933.235 -345.488 938.806 -355.755 944.253 -366.6C962.349 -402.63 978.673 -444.551 997.18 -502.527C1017.67 -565.971 1038.83 -625.852 1072.31 -661.29C1105.34 -696.141 1151.35 -711.245 1209.07 -706.187C1278.58 -700.449 1347.38 -672.748 1408.04 -626.074C1446.26 -598.232 1482.34 -563.584 1515.32 -523.092C1528.72 -507.311 1540.52 -490.863 1550.41 -474.2C1578.22 -427.357 1592.89 -376.482 1596.57 -314.089C1597.44 -297.201 1597.45 -279.357 1596.6 -259.539C1595.79 -224.958 1594.17 -187.673 1592.47 -148.202C1591.55 -127.084 1590.61 -105.249 1589.72 -82.4574C1587.97 -23.1282 1585.16 39.6399 1572.04 97.6155C1569.39 109.43 1566.37 120.807 1563.08 131.447C1543.92 194.517 1505.12 237.756 1453.82 253.19C1405.13 267.87 1340.89 264.713 1262.89 243.816C1209.5 230.852 1158.51 209.297 1102.41 175.969C1068.75 156.627 1035.47 133.907 1000.64 106.493C968.052 80.7309 944.659 56.649 915.259 23.7563C899.049 5.67899 885.066 -13.1955 873.695 -32.3468ZM1551.4 -474.788C1541.47 -491.521 1529.61 -508.036 1516.17 -523.875C1483.12 -564.45 1446.94 -599.183 1408.65 -627.092C1347.8 -673.913 1278.77 -701.707 1209.02 -707.461C1150.97 -712.549 1104.67 -697.337 1071.42 -662.246C1037.79 -626.652 1016.57 -566.64 996.041 -503.07C977.551 -445.148 961.249 -403.277 943.184 -367.306C937.746 -356.481 932.187 -346.238 926.667 -336.853C916.033 -319.216 905.049 -303.06 894.425 -287.44C879.118 -264.937 864.664 -243.683 853.115 -220.742C825.945 -167.372 833.084 -98.489 872.703 -31.7576C884.123 -12.5231 898.167 6.4306 914.441 24.5802C943.892 57.5294 967.337 81.661 1000 107.491C1034.89 134.945 1068.23 157.706 1101.94 177.068C1158.14 210.464 1209.24 232.065 1262.75 245.055C1340.94 266.013 1405.38 269.161 1454.27 254.423C1505.91 238.88 1544.96 195.396 1564.23 131.968C1567.53 121.308 1570.54 109.894 1573.2 98.053C1586.35 39.9654 1589.17 -22.8734 1590.92 -82.2605C1591.8 -105.041 1592.75 -126.878 1593.66 -147.994C1595.37 -187.472 1596.99 -224.762 1597.79 -259.34C1598.65 -279.195 1598.63 -297.081 1597.77 -314.01C1594.07 -376.647 1579.34 -427.733 1551.4 -474.788Z" fill="#EDE9F6"/>
<path d="M884.048 -41.407C845.006 -107.167 837.233 -173.772 862.728 -224.149C874.676 -248.132 889.627 -269.799 905.455 -292.739C915.021 -306.604 924.915 -320.943 934.689 -336.571C940.148 -345.577 945.693 -355.441 951.17 -365.898C969.361 -400.63 985.909 -440.807 1004.83 -496.177C1024.96 -554.285 1047.39 -613.86 1080.59 -647.826C1113.27 -681.2 1158.14 -695.756 1213.95 -691.094C1282.75 -685.843 1349.31 -658.141 1406.42 -610.985C1441.54 -584.018 1475.61 -549.606 1507.74 -508.691C1520.19 -493.684 1531.26 -478.058 1540.66 -462.236C1567.85 -416.437 1582.91 -366.62 1588.04 -305.465C1589.25 -289.054 1589.66 -271.788 1589.29 -252.674C1589.67 -200.567 1588.07 -142.467 1586.38 -80.9544C1585.56 -26.9735 1582.82 36.0248 1568.75 94.0307C1566.02 105.417 1562.93 116.398 1559.57 126.686C1540.22 187.226 1502.02 229.014 1451.98 244.346C1404.07 259.105 1341.58 256.709 1266.26 237.227C1213.61 225.348 1164.86 204.204 1108.15 168.669C1076.39 149.586 1044.83 127.124 1008.84 97.9885C975.896 71.1709 954.506 47.1812 927.416 16.8052L925.68 14.8538C909.512 -3.17697 895.508 -22.1054 884.048 -41.407ZM1541.65 -462.824C1532.22 -478.715 1521.1 -494.406 1508.6 -509.457C1476.42 -550.453 1442.25 -584.951 1407.07 -611.975C1349.76 -659.297 1282.95 -687.098 1213.9 -692.367C1157.76 -697.059 1112.61 -682.402 1079.71 -648.8C1046.36 -614.673 1023.87 -554.965 1003.7 -496.738C984.797 -441.423 968.271 -401.297 950.11 -366.617C944.639 -356.18 939.109 -346.335 933.664 -337.357C923.91 -321.755 914.023 -307.429 904.461 -293.572C888.611 -270.601 873.636 -248.901 861.657 -224.852C835.961 -174.079 843.763 -107.001 883.057 -40.8183C894.566 -21.4335 908.627 -2.42345 924.86 15.6783L926.595 17.6276C953.726 48.0485 975.152 72.0745 1008.19 98.972C1044.23 128.154 1075.84 150.644 1107.65 169.755C1164.48 205.373 1213.36 226.561 1266.13 238.472C1341.64 258.003 1404.33 260.391 1452.44 245.576C1502.8 230.141 1541.25 188.108 1560.71 127.227C1564.08 116.912 1567.18 105.889 1569.92 94.4794C1584.02 36.3578 1586.76 -26.7254 1587.57 -80.7752C1589.27 -142.29 1590.87 -200.405 1590.48 -252.525C1590.85 -271.653 1590.45 -288.961 1589.24 -305.422C1584.08 -366.814 1568.96 -416.827 1541.65 -462.824Z" fill="#EDE9F6"/>
<path d="M895.373 -50.722C856.666 -115.917 848.181 -180.689 872.092 -228.437C884.437 -253.584 899.877 -275.642 916.225 -298.995C924.682 -311.075 933.427 -323.561 942.21 -337.133C947.656 -345.868 952.997 -355.063 958.549 -365.243C976.748 -398.637 993.433 -437.054 1012.65 -489.8C1033.11 -545.073 1055.85 -601.759 1088.69 -634.247C1120.92 -666.088 1164.55 -680.03 1218.37 -675.674C1286.36 -670.805 1350.61 -643.005 1404.16 -595.273C1436.57 -568.877 1467.75 -535.593 1499.5 -493.498C1511 -479.295 1521.32 -464.518 1530.2 -449.563C1556.81 -404.736 1572.34 -355.913 1579.04 -295.921C1580.62 -279.973 1581.45 -263.281 1581.6 -244.891C1583.46 -199.412 1583.87 -148.103 1582.91 -78.5094C1583.03 -8.68711 1577.55 45.2947 1565.65 91.3758C1562.86 102.332 1559.71 112.916 1556.29 122.846C1536.89 180.821 1499.41 221.098 1450.74 236.271C1404.37 250.822 1342.04 249.043 1270.51 231.122C1204.71 217.272 1152.8 186.698 1114.93 161.611C1076.94 137.649 1043.23 110.515 1018.12 89.5529C990.082 66.0046 971.511 44.8865 950.013 20.4348C945.897 15.7541 941.65 10.9237 937.182 5.89764C921.027 -12.1561 906.961 -31.2044 895.373 -50.722ZM1531.19 -450.153C1522.28 -465.169 1511.91 -480.005 1500.39 -494.245C1468.57 -536.416 1437.31 -569.78 1404.84 -596.234C1351.08 -644.144 1286.58 -672.062 1218.32 -676.951C1164.18 -681.327 1120.27 -667.289 1087.82 -635.227C1054.83 -602.587 1032.04 -545.775 1011.52 -490.387C992.327 -437.692 975.667 -399.324 957.496 -365.981C951.956 -355.819 946.625 -346.642 941.193 -337.933C932.425 -324.387 923.687 -311.905 915.238 -299.836C898.862 -276.446 883.395 -254.357 871.018 -229.133C846.909 -180.997 855.424 -115.752 894.383 -50.134C906.02 -30.5331 920.143 -11.4033 936.363 6.71593C940.827 11.7411 945.072 16.5706 949.185 21.2437C970.726 45.7425 989.327 66.9007 1017.45 90.5184C1042.61 111.512 1076.36 138.686 1114.4 162.685C1152.36 187.826 1204.4 218.476 1270.39 232.371C1342.11 250.34 1404.64 252.113 1451.2 237.498C1500.19 222.234 1537.91 181.711 1557.42 123.405C1560.85 113.448 1564.01 102.834 1566.81 91.8477C1578.72 45.6572 1584.23 -8.41867 1584.11 -78.3517C1585.07 -147.964 1584.67 -199.285 1582.8 -244.772C1582.65 -263.18 1581.82 -279.914 1580.24 -295.906C1573.5 -356.127 1557.92 -405.137 1531.19 -450.153Z" fill="#EDE9F6"/>
<path d="M906.395 -60.5503C868.687 -124.063 859.359 -188.52 881.435 -232.98C894.215 -259.364 910.213 -281.769 927.148 -305.489C934.504 -315.792 942.108 -326.447 949.864 -337.968C955.215 -346.29 960.521 -355.087 966.096 -364.869C984.101 -396.493 1001.48 -434.253 1020.79 -483.705C1041.65 -536.135 1064.75 -589.922 1097.31 -620.956C1129.14 -651.289 1171.58 -664.648 1223.44 -660.663C1290.65 -656.243 1352.6 -628.418 1402.59 -580.193C1432.12 -554.598 1460.5 -522.478 1491.91 -479.081C1502.42 -465.754 1511.95 -451.905 1520.27 -437.899C1546.3 -394.048 1562.28 -346.198 1570.55 -287.308C1572.48 -271.838 1573.74 -255.727 1574.36 -238.057C1577.98 -190.208 1579.73 -137.564 1579.73 -77.0977C1580.9 -13.1317 1575.16 42.2842 1562.65 87.6251C1559.8 98.1416 1556.58 108.332 1553.09 117.91C1533.56 173.316 1496.73 212.105 1449.38 227.144C1403.83 241.75 1343.37 240.717 1274.52 224.154C1210.5 211.723 1161.21 181.649 1121.44 153.87C1087.25 131.269 1055.91 105.284 1027.14 80.5751C1002.47 59.2338 986.646 40.7687 968.319 19.3928C962.104 12.1384 955.673 4.64254 948.47 -3.4827C932.292 -21.5752 918.137 -40.7734 906.395 -60.5503ZM1521.26 -438.488C1512.91 -452.554 1503.34 -466.456 1492.81 -479.806C1461.35 -523.276 1432.9 -555.475 1403.31 -581.116C1353.11 -629.547 1290.88 -657.5 1223.38 -661.939C1171.21 -665.948 1128.51 -652.495 1096.46 -621.952C1063.75 -590.771 1040.59 -536.86 1019.68 -484.314C1000.39 -434.913 983.029 -397.198 965.051 -365.622C959.489 -355.857 954.191 -347.076 948.858 -338.782C941.118 -327.282 933.516 -316.634 926.165 -306.337C909.201 -282.579 893.179 -260.137 880.36 -233.672C868.963 -210.724 865.607 -183.36 870.384 -152.349C874.926 -122.847 887.037 -90.8993 905.405 -59.9623C917.196 -40.1021 931.408 -20.8224 947.648 -2.66535C954.848 5.45563 961.271 12.9476 967.481 20.1935C985.847 41.6155 1001.71 60.1195 1026.46 81.5292C1055.27 106.274 1086.65 132.286 1120.89 154.924C1160.76 182.772 1210.2 212.93 1274.42 225.399C1343.44 242.008 1404.11 243.035 1449.84 228.37C1497.51 213.233 1534.58 174.209 1554.21 118.485C1557.71 108.881 1560.94 98.6552 1563.8 88.1137C1576.34 42.6626 1582.1 -12.8839 1580.93 -76.9532C1580.93 -137.453 1579.17 -190.126 1575.56 -237.98C1574.93 -255.662 1573.67 -271.82 1571.73 -287.335C1563.43 -346.441 1547.4 -394.463 1521.26 -438.488Z" fill="#EDE9F6"/>
<path d="M917.516 -70.211C880.272 -132.942 870.33 -195.407 890.918 -237.307C904.141 -264.999 919.947 -286.643 938.249 -311.709C944.501 -320.269 950.969 -329.122 957.624 -338.638C962.902 -346.577 968.169 -354.983 973.743 -364.341C991.781 -394.644 1009.34 -430.609 1029 -477.52C1050.23 -527.134 1073.65 -578.051 1105.94 -607.647C1137.38 -636.481 1178.63 -649.254 1228.54 -645.605C1294.98 -641.603 1354.66 -613.702 1401.12 -564.92C1435.06 -533.464 1463.51 -494.654 1484.51 -464.356C1493.99 -451.966 1502.7 -439.118 1510.41 -426.13C1535.92 -383.158 1552.42 -336.153 1562.34 -278.202C1564.64 -263.199 1566.31 -247.653 1567.43 -230.697C1572.99 -181.344 1576.09 -130.436 1576.93 -75.0343C1579.11 -15.3517 1573.29 39.8545 1560.11 84.6395C1557.18 94.7306 1553.9 104.524 1550.34 113.759C1530.73 166.615 1494.56 203.935 1448.51 218.835C1391.99 237.35 1325.12 228.549 1278.99 217.918C1216.34 206.743 1169.56 177.105 1128.33 146.747C1096.32 124.529 1067.8 99.8013 1036.49 72.1138C1014.23 52.2701 1000.43 35.6127 984.442 16.3236C976.985 7.32246 969.269 -1.98711 960.018 -12.4486C943.765 -30.6488 929.465 -50.0844 917.516 -70.211ZM1511.39 -426.715C1503.65 -439.755 1494.92 -452.655 1485.43 -465.061C1464.4 -495.394 1435.89 -534.287 1401.87 -565.813C1355.2 -614.812 1295.23 -642.859 1228.47 -646.881C1178.27 -650.551 1136.76 -637.689 1105.1 -608.655C1072.66 -578.919 1049.17 -527.883 1027.89 -478.157C1008.26 -431.291 990.721 -395.371 972.712 -365.114C967.145 -355.769 961.886 -347.379 956.629 -339.467C949.986 -329.97 943.522 -321.12 937.273 -312.564C918.939 -287.456 903.102 -265.776 889.843 -237.994C869.06 -195.712 879.035 -132.768 916.526 -69.6229C928.526 -49.411 942.882 -29.8994 959.197 -11.6291C968.431 -1.18646 976.135 8.11289 983.587 17.1055C999.612 36.4429 1013.45 53.14 1035.79 73.0526C1067.14 100.779 1095.69 125.53 1127.75 147.782C1169.09 178.224 1216.03 207.954 1278.9 219.17C1325.15 229.834 1392.22 238.648 1448.98 220.066C1495.34 205.064 1531.73 167.521 1551.46 114.356C1555.03 105.092 1558.32 95.2613 1561.26 85.146C1574.47 40.2394 1580.31 -15.1113 1578.12 -74.9204C1577.29 -130.348 1574.18 -181.297 1568.63 -230.669C1567.5 -247.632 1565.83 -263.215 1563.52 -278.272C1553.57 -336.417 1537 -383.584 1511.39 -426.715Z" fill="#EDE9F6"/>
<path d="M927.377 -80.1016C890.642 -141.974 880.113 -202.416 899.213 -241.778C912.853 -270.827 929.216 -292.656 948.159 -317.927C953.314 -324.805 958.642 -331.916 964.162 -339.496C969.352 -347.045 974.58 -355.062 980.16 -364.015C998.209 -392.995 1015.93 -427.177 1035.93 -471.592C1057.49 -518.41 1081.22 -566.475 1113.25 -594.647C1144.3 -621.989 1184.37 -634.163 1232.33 -630.83C1298.02 -627.208 1355.45 -599.185 1398.42 -549.789C1425.94 -522.338 1449.31 -489.907 1475.95 -449.646C1484.35 -438.298 1492.18 -426.542 1499.23 -414.675C1524.28 -372.472 1541.4 -326.161 1553.09 -268.935C1555.78 -254.371 1557.87 -239.381 1559.48 -223.127C1567.06 -173.266 1571.54 -124.054 1573.18 -72.6402C1576.37 -15.946 1570.67 37.5553 1556.7 82.1018C1553.71 91.7757 1550.37 101.177 1546.75 110.062C1527.07 160.41 1491.58 196.265 1446.81 211.021C1391.31 229.584 1326.87 221.85 1282.59 212.092C1224.42 202.595 1181.23 176.362 1134.29 139.901C1104.28 118.007 1077.35 93.4591 1048.84 67.4689L1044.85 63.8229C1024.37 45.0169 1012.13 29.637 997.96 11.824C989.798 1.5679 981.362 -9.0372 970.508 -21.3477C954.112 -39.745 939.602 -59.5109 927.377 -80.1016ZM1500.21 -415.261C1493.14 -427.171 1485.29 -438.97 1476.88 -450.33C1450.21 -490.636 1426.79 -523.134 1399.22 -550.634C1356.03 -600.278 1298.29 -628.465 1232.25 -632.105C1184.01 -635.458 1143.69 -623.202 1112.43 -595.675C1080.24 -567.365 1056.45 -519.183 1034.84 -472.257C1014.86 -427.886 997.159 -393.744 979.138 -364.807C973.569 -355.866 968.347 -347.867 963.176 -340.344C957.67 -332.78 952.343 -325.668 947.19 -318.796C928.21 -293.475 911.818 -271.608 898.131 -242.462C878.845 -202.718 889.407 -141.798 926.386 -79.5136C938.66 -58.8417 953.227 -38.9975 969.683 -20.5287C980.508 -8.2529 988.934 2.33511 997.083 12.5788C1011.3 30.4401 1023.57 45.8696 1044.13 64.7502L1048.13 68.3987C1076.67 94.418 1103.63 118.991 1133.68 140.91C1180.77 177.494 1224.11 203.821 1282.52 213.349C1326.9 223.132 1391.56 230.882 1447.29 212.249C1492.35 197.391 1528.06 161.32 1547.86 110.677C1551.49 101.769 1554.85 92.3322 1557.84 82.6303C1571.86 37.949 1577.58 -15.7106 1574.38 -72.5493C1572.74 -123.999 1568.25 -173.265 1560.67 -223.147C1559.05 -239.405 1556.95 -254.431 1554.26 -269.046C1542.53 -326.456 1525.36 -372.911 1500.21 -415.261Z" fill="#EDE9F6"/>
<path d="M938.005 -90.5925C901.963 -151.298 890.981 -209.503 908.639 -246.288C922.685 -276.641 939.609 -298.496 959.202 -323.805C963.282 -329.077 967.509 -334.537 971.886 -340.291C976.994 -347.45 982.189 -355.066 987.773 -363.596C1005.83 -391.199 1023.74 -423.56 1044.13 -465.442C1066.04 -509.398 1090.1 -554.558 1121.9 -581.298C1152.56 -607.13 1191.43 -618.721 1237.41 -615.749C1302.3 -612.575 1357.43 -584.533 1396.84 -534.652C1422.44 -507.002 1443.49 -474.626 1468.35 -435.176C1475.59 -425.052 1482.41 -414.588 1488.67 -404.041C1513.28 -362.604 1531.04 -316.924 1544.58 -260.278C1547.63 -246.179 1550.14 -231.775 1552.23 -216.261C1561.82 -166.566 1567.62 -119.125 1569.98 -71.2119C1574.03 -18.0933 1568.24 35.0134 1553.69 78.3527C1550.63 87.5933 1547.22 96.5997 1543.53 105.119C1523.76 152.882 1488.93 187.246 1445.46 201.885C1390.99 220.524 1329.02 213.923 1286.64 205.103C1229.41 196.689 1186.98 169.853 1140.85 132.148C1114.77 112.157 1091.24 89.9833 1066.33 66.5044C1062.24 62.6472 1058.12 58.7609 1053.94 54.8442C1034.88 36.822 1023.39 21.7159 1011.23 5.72548C1002.76 -5.41864 993.995 -16.9417 981.87 -30.7229C965.29 -49.3516 950.533 -69.492 938.005 -90.5925ZM1489.67 -404.632C1483.39 -415.213 1476.53 -425.709 1469.29 -435.834C1444.42 -475.315 1423.33 -507.749 1397.68 -535.448C1358.05 -585.608 1302.59 -613.834 1237.33 -617.023C1191.07 -620.014 1151.96 -608.343 1121.09 -582.338C1089.14 -555.469 1065.02 -510.204 1043.05 -466.137C1022.69 -424.296 1004.8 -391.968 986.764 -364.406C981.187 -355.892 976.002 -348.284 970.908 -341.151C966.547 -335.413 962.321 -329.958 958.24 -324.686C938.607 -299.328 921.654 -277.426 907.554 -246.968C889.716 -209.8 900.729 -151.12 937.015 -90.0046C949.591 -68.8229 964.405 -48.601 981.044 -29.9065C993.129 -16.168 1001.88 -4.66628 1010.34 6.45348C1022.53 22.4957 1034.06 37.6492 1053.21 55.7539C1057.39 59.6762 1061.51 63.5569 1065.6 67.4154C1090.54 90.92 1114.1 113.126 1140.21 133.142C1186.5 170.977 1229.11 197.914 1286.58 206.356C1329.07 215.202 1391.24 221.823 1445.95 203.109C1489.7 188.374 1524.75 153.801 1544.63 105.759C1548.33 97.2159 1551.76 88.1754 1554.82 78.9C1569.43 35.4132 1575.24 -17.8709 1571.18 -71.15C1568.81 -119.111 1563 -166.611 1553.41 -216.328C1551.32 -231.845 1548.81 -246.286 1545.74 -260.439C1532.16 -317.248 1514.35 -363.062 1489.67 -404.632Z" fill="#EDE9F6"/>
<path d="M948.641 -101.069C912.849 -161.354 901.755 -215.86 918.207 -250.606C932.597 -282.206 949.207 -302.896 970.24 -329.092C973.302 -332.903 976.454 -336.833 979.715 -340.932C984.756 -347.719 989.911 -354.946 995.483 -363.03C1013.53 -389.247 1031.61 -419.804 1052.38 -459.204C1073.63 -498.513 1098.95 -542.586 1130.56 -567.912C1160.83 -592.237 1198.5 -603.235 1242.51 -600.603C1306.61 -597.841 1359.46 -569.726 1395.35 -519.3C1417.42 -493.274 1435.96 -462.197 1455.59 -429.293L1460.91 -420.373C1466.86 -411.709 1472.57 -402.79 1477.89 -393.821C1502.16 -352.951 1520.73 -307.605 1536.34 -251.109C1539.78 -237.462 1542.71 -223.623 1545.27 -208.84C1557.08 -158.936 1564.03 -114.547 1567.16 -69.107C1572.12 -18.4874 1566.42 32.8187 1551.13 75.3785C1548.01 84.195 1544.54 92.8093 1540.78 100.979C1520.94 146.18 1486.79 179.063 1444.61 193.577C1391.15 212.286 1331.65 206.771 1291.15 198.846C1228.48 190.617 1185.98 157.856 1147.82 125.011C1124.9 106.53 1104.15 86.2131 1082.19 64.7118C1076.02 58.664 1069.77 52.5416 1063.37 46.3619C1045.41 28.8865 1035.04 14.5378 1024.06 -0.651674C1015.52 -12.4654 1006.69 -24.6786 993.508 -39.6987C976.885 -58.4066 961.371 -79.6288 948.641 -101.069ZM1478.88 -394.409C1473.54 -403.405 1467.82 -412.356 1461.87 -421.007L1456.58 -429.883C1436.91 -462.842 1418.34 -493.973 1396.23 -520.045C1360.12 -570.785 1306.93 -599.1 1242.42 -601.879C1198.15 -604.528 1160.25 -593.456 1129.77 -568.966C1098.01 -543.52 1072.62 -499.343 1051.32 -459.929C1030.57 -420.565 1012.51 -390.042 994.487 -363.868C988.926 -355.788 983.778 -348.573 978.753 -341.813C975.506 -337.725 972.352 -333.797 969.292 -329.988C948.216 -303.734 931.565 -282.997 917.122 -251.282C900.489 -216.145 911.613 -161.181 947.651 -100.482C960.429 -78.9598 976.003 -57.6573 992.682 -38.8823C1005.81 -23.9221 1014.62 -11.7341 1023.15 0.0540495C1034.17 15.2977 1044.58 29.6925 1062.62 47.2604C1069.02 53.4444 1075.27 59.5603 1081.44 65.6031C1103.43 87.1355 1124.2 107.475 1147.15 125.975C1185.45 158.945 1228.13 191.839 1291.11 200.109C1331.71 208.053 1391.42 213.581 1445.1 194.794C1487.55 180.19 1521.92 147.104 1541.87 101.639C1545.64 93.4413 1549.13 84.7999 1552.25 75.9531C1567.61 33.2285 1573.33 -18.2763 1568.35 -69.0676C1565.22 -114.567 1558.26 -159.028 1546.44 -208.965C1543.87 -223.745 1540.94 -237.613 1537.48 -251.316C1521.84 -307.958 1503.22 -353.417 1478.88 -394.409Z" fill="#EDE9F6"/>
<path d="M958.039 -111.743C923.234 -170.365 911.911 -222.445 926.975 -254.623C941.674 -287.334 957.914 -306.711 980.396 -333.527C982.51 -336.051 984.677 -338.636 986.904 -341.305C991.9 -347.732 997.029 -354.564 1002.59 -362.209C1020.64 -387.004 1038.94 -415.763 1060.2 -452.726C1086.99 -498.133 1110.64 -532.799 1138.98 -554.341C1168.94 -577.188 1205.45 -587.635 1247.51 -585.392C1310.88 -583.123 1361.46 -555.022 1393.79 -504.124C1402.39 -492.943 1410.91 -480.128 1420.65 -463.731C1427.7 -451.856 1434.51 -439.598 1441.73 -426.616C1445.52 -419.793 1449.37 -412.87 1453.33 -405.865C1457.79 -399.092 1462.13 -392.147 1466.26 -385.193C1490.63 -344.156 1509.61 -300.126 1527.81 -242.42C1531.59 -229.399 1535.01 -215.771 1537.99 -201.921C1551.86 -152.785 1560.08 -110.118 1563.85 -67.6104C1569.65 -19.3398 1563.98 30.1435 1547.9 71.7534C1544.7 80.1694 1541.14 88.3875 1537.31 96.1752C1517.36 138.817 1483.81 170.243 1442.84 184.684C1390.32 203.531 1333.24 199.174 1294.61 192.203C1232.73 185.125 1192.65 152.92 1153.69 117.688C1133.41 100.5 1115.01 81.739 1095.52 61.8723C1087.85 54.0578 1079.92 45.9679 1071.74 37.8558C1054.7 20.7944 1045.29 7.05152 1035.34 -7.49343C1026.91 -19.8028 1018.21 -32.5256 1004.14 -48.5711C987.15 -67.7191 971.21 -89.5594 958.039 -111.743ZM1421.64 -464.32C1411.87 -480.77 1403.32 -493.633 1394.72 -504.808C1362.16 -556.054 1311.22 -584.386 1247.42 -586.666C1205.11 -588.922 1168.37 -578.407 1138.22 -555.41C1109.74 -533.76 1086.02 -499.011 1059.16 -453.488C1037.92 -416.553 1019.64 -387.823 1001.62 -363.065C996.058 -355.43 990.936 -348.602 985.957 -342.2C983.744 -339.55 981.575 -336.959 979.46 -334.437C956.925 -307.554 940.645 -288.128 925.887 -255.287C910.644 -222.725 921.999 -170.186 957.047 -111.155C970.266 -88.8897 986.266 -66.9692 1003.32 -47.7575C1017.32 -31.7808 1026 -19.0964 1034.4 -6.82629C1044.39 7.78011 1053.83 21.5772 1070.99 38.7389C1079.16 46.8514 1087.08 54.9328 1094.75 62.7443C1114.26 82.6371 1132.69 101.423 1153 118.638C1192.11 154.008 1232.38 186.357 1294.58 193.472C1333.31 200.453 1390.6 204.822 1443.34 185.9C1484.56 171.367 1518.32 139.75 1538.4 96.8592C1542.23 89.0473 1545.81 80.7996 1549.01 72.3483C1565.16 30.5573 1570.86 -19.1446 1565.04 -67.6081C1561.26 -110.182 1553.03 -152.929 1539.14 -202.109C1536.17 -215.945 1532.74 -229.602 1528.95 -242.675C1510.7 -300.509 1491.68 -344.639 1467.25 -385.78C1463.11 -392.756 1458.76 -399.718 1454.31 -406.47C1450.38 -413.426 1446.53 -420.348 1442.74 -427.168C1435.52 -440.158 1428.7 -452.425 1421.64 -464.32Z" fill="#EDE9F6"/>
<path d="M1391.36 -489.031C1395.17 -483.498 1398.91 -477.634 1402.81 -471.054C1411.86 -455.816 1420.25 -439.354 1429.13 -421.926C1434.21 -411.965 1439.45 -401.66 1445.02 -391.225C1447.6 -387.091 1450.15 -382.906 1452.63 -378.734C1477.05 -337.603 1497.46 -292.739 1518.81 -233.28C1522.99 -220.661 1526.86 -207.613 1530.3 -194.5C1546.57 -145.537 1555.86 -105.744 1560.4 -65.4274C1567.11 -19.3047 1561.6 28.3878 1544.87 68.8914C1541.62 76.8916 1538.01 84.7117 1534.13 92.1422C1513.9 132.78 1481.95 161.92 1441.71 176.411C1390.24 195.304 1335.67 191.971 1298.96 185.853C1237.88 179.753 1200.13 148.018 1160.52 110.279C1142.45 94.1119 1126.03 76.578 1108.63 58.0249C1099.78 48.5845 1090.64 38.8285 1081.02 28.9935C1064.7 12.1707 1056.14 -1.12783 1047.07 -15.2006C1038.89 -27.9089 1030.43 -41.049 1015.59 -58.0348C998.083 -77.8175 981.573 -100.492 967.849 -123.608C934.132 -180.398 922.601 -229.956 936.208 -259.58C951.003 -293.189 966.672 -311.071 990.393 -338.138L994.262 -342.555C999.203 -348.633 1004.28 -355.069 1009.8 -362.249C1027.95 -385.864 1045.84 -412.018 1067.81 -447.056C1094.85 -489.069 1118.64 -521.208 1146.84 -541.483C1176.38 -562.806 1211.66 -572.625 1251.69 -570.674C1312.51 -568.803 1360.01 -541.944 1389.07 -492.994C1389.85 -491.688 1390.61 -490.365 1391.36 -489.031ZM1403.81 -471.643C1399.88 -478.253 1396.13 -484.142 1392.33 -489.646C1391.61 -490.93 1390.84 -492.265 1390.06 -493.582C1360.74 -542.967 1312.86 -570.068 1251.6 -571.951C1211.33 -573.912 1175.83 -564.032 1146.1 -542.57C1117.76 -522.199 1093.9 -489.977 1066.79 -447.856C1044.84 -412.842 1026.97 -386.714 1008.84 -363.126C1003.33 -355.954 998.255 -349.525 993.331 -343.469L989.472 -339.067C965.688 -311.927 949.975 -293.997 935.117 -260.241C921.331 -230.233 932.901 -180.216 966.859 -123.02C980.631 -99.8235 997.195 -77.0714 1014.76 -57.2198C1029.53 -40.3207 1037.96 -27.2285 1046.11 -14.5694C1055.22 -0.425254 1063.83 12.9297 1080.25 29.8607C1089.85 39.6841 1098.99 49.4362 1107.84 58.8745C1125.26 77.4537 1141.71 95.0069 1159.81 111.199C1198.12 147.699 1237.6 180.989 1298.95 187.118C1335.76 193.249 1390.53 196.594 1442.21 177.629C1482.7 163.045 1514.85 133.723 1535.2 92.8546C1539.09 85.402 1542.72 77.5475 1545.97 69.5205C1562.78 28.8142 1568.33 -19.1194 1561.58 -65.4525C1557.04 -105.845 1547.73 -145.736 1531.43 -194.741C1528.01 -207.847 1524.13 -220.928 1519.92 -233.586C1498.54 -293.163 1478.09 -338.103 1453.62 -379.322C1451.14 -383.502 1448.58 -387.699 1446.02 -391.798C1440.48 -402.176 1435.24 -412.471 1430.17 -422.428C1421.28 -439.881 1412.87 -456.36 1403.81 -471.643Z" fill="#EDE9F6"/>
<path d="M976.859 -134.933C944.487 -189.458 932.941 -236.277 945.181 -263.381C960.006 -297.645 975.005 -313.912 999.849 -340.854L1001.55 -342.699C1006.47 -348.453 1011.52 -354.499 1016.98 -361.196C1034.96 -383.222 1053.03 -407.634 1075.58 -440.342C1099.24 -473.771 1125.25 -507.487 1155.1 -527.656C1184.31 -547.486 1218.4 -556.726 1256.45 -555.129C1313.01 -553.762 1356.79 -529.656 1383.06 -485.407C1385.35 -481.55 1387.53 -477.492 1389.55 -473.343C1390.07 -472.481 1390.55 -471.68 1391.04 -470.866C1400.99 -454.103 1409.64 -435.207 1418.79 -415.202C1424.58 -402.557 1430.56 -389.484 1437.25 -376.1C1468.75 -322.899 1491.8 -269.262 1510.21 -223.812C1514.81 -211.595 1519.12 -199.13 1522.97 -186.774C1535.4 -154.483 1550.52 -111.273 1557.17 -63.0343C1564.62 -19.6003 1559.03 27.501 1541.85 66.2186C1538.53 73.8007 1534.85 81.2269 1530.9 88.2886C1510.64 126.318 1479.31 154.023 1440.31 168.434C1389.79 187.443 1337.68 185.206 1302.85 179.981C1242.55 174.928 1205.59 142.389 1166.84 103.573C1150.68 88.3165 1135.96 71.8629 1120.37 54.4442C1110.65 43.5758 1100.6 32.3406 1089.8 20.9827C1074.11 4.33669 1066.31 -8.59174 1058.05 -22.2784C1050.21 -35.2751 1042.1 -48.7231 1026.59 -66.5208C1008.66 -86.8147 991.004 -111.108 976.859 -134.933ZM1384.05 -485.995C1357.52 -530.684 1313.36 -555.03 1256.35 -556.402C1218.08 -558.016 1183.77 -548.716 1154.37 -528.758C1124.39 -508.495 1098.31 -474.696 1074.59 -441.183C1052.06 -408.489 1034 -384.099 1016.04 -362.096C1010.58 -355.408 1005.54 -349.367 1000.64 -343.637L998.949 -341.807C974.027 -314.777 958.983 -298.463 944.09 -264.033C931.675 -236.547 943.257 -189.273 975.869 -134.345C990.061 -110.441 1007.78 -86.0662 1025.76 -65.7085C1041.18 -48.0168 1049.26 -34.6286 1057.07 -21.6832C1065.37 -7.92265 1073.21 5.06849 1089.02 21.8398C1099.79 33.1797 1109.84 44.4035 1119.55 55.2659C1135.16 72.7063 1149.9 89.1809 1166.09 104.47C1205.01 143.462 1242.18 176.164 1302.86 181.255C1337.78 186.495 1390.09 188.734 1440.81 169.64C1480.05 155.147 1511.57 127.269 1531.96 89.0293C1535.91 81.9416 1539.62 74.4826 1542.94 66.8632C1560.22 27.94 1565.84 -19.4301 1558.35 -63.0938C1551.69 -111.454 1536.53 -154.767 1524.09 -187.093C1520.24 -199.425 1515.93 -211.915 1511.31 -224.177C1492.88 -269.696 1469.79 -323.398 1438.27 -376.639C1431.61 -389.955 1425.64 -403.015 1419.86 -415.647C1410.24 -436.659 1401.18 -456.448 1390.57 -473.885C1388.56 -478.004 1386.36 -482.101 1384.05 -485.995Z" fill="#EDE9F6"/>
<path d="M985.871 -148.146C967.78 -178.617 939.663 -234.765 954.598 -268.464C969.311 -303.093 983.468 -317.632 1009.17 -344.029C1014.2 -349.584 1019.21 -355.234 1024.57 -361.397C1047.11 -387.319 1068.03 -414.278 1083.74 -434.866C1107.59 -465.337 1133.79 -496.148 1163.68 -515.034C1192.57 -533.369 1225.48 -542.028 1261.5 -540.769C1314.19 -539.85 1354.6 -518.192 1378.38 -478.136C1381.95 -472.133 1385.19 -465.647 1388.01 -458.85C1396.04 -443.6 1402.88 -426.553 1410.12 -408.504C1416.1 -393.578 1422.29 -378.146 1429.74 -362.179C1454.83 -316.993 1476.72 -270.897 1501.87 -215.573C1506.92 -203.729 1511.64 -191.85 1515.9 -180.289C1530.69 -146.772 1546.79 -106.534 1554.19 -61.9019C1562.47 -20.39 1556.97 24.8532 1539.1 62.2432C1535.72 69.4069 1531.97 76.4407 1527.95 83.1463C1507.68 118.526 1477.01 144.796 1439.21 159.126C1389.66 178.267 1340.02 177.113 1307.11 172.772C1247.47 168.714 1212.75 136.813 1173.57 95.5328C1159.05 81.0536 1145.82 65.5324 1131.82 49.095C1121.47 36.9387 1110.76 24.3716 1099.01 11.6419C1087.16 -1.28499 1080.41 -11.7174 1075.36 -20.2134C1073.24 -23.7902 1071.3 -27.2389 1069.24 -30.8983C1067.21 -34.5152 1065.1 -38.269 1062.83 -42.1061C1057.86 -50.4676 1050.55 -61.9149 1038.02 -76.3271C1019.23 -97.6509 1000.71 -123.158 985.871 -148.146ZM1379.37 -478.726C1355.33 -519.225 1314.53 -541.118 1261.39 -542.042C1225.67 -543.292 1191.64 -534.34 1162.99 -516.155C1132.96 -497.186 1106.69 -466.298 1082.78 -435.744C1067.08 -415.162 1046.18 -388.226 1023.65 -362.324C1018.29 -356.167 1013.29 -350.519 1008.35 -345.063C982.496 -318.512 968.288 -303.92 953.501 -269.111C938.332 -234.887 966.65 -178.264 984.881 -147.558C999.763 -122.491 1018.34 -96.9058 1037.19 -75.5149C1049.65 -61.1972 1056.9 -49.8297 1061.84 -41.5194C1064.11 -37.6951 1066.2 -33.9571 1068.24 -30.3381C1070.2 -26.8391 1072.24 -23.2159 1074.37 -19.6242C1079.46 -11.0599 1086.26 -0.554432 1098.21 12.4802C1109.94 25.1856 1120.64 37.7453 1130.99 49.8944C1145 66.3488 1158.24 81.8974 1172.79 96.3988C1212.17 137.888 1247.09 169.954 1307.14 174.048C1340.15 178.4 1389.97 179.551 1439.74 160.334C1477.74 145.923 1508.61 119.497 1528.99 83.9092C1533.03 77.1857 1536.79 70.1209 1540.18 62.9228C1558.16 25.2976 1563.7 -20.235 1555.36 -61.9974C1547.94 -106.774 1531.8 -147.117 1516.99 -180.669C1512.74 -192.221 1508 -204.113 1502.94 -215.996C1477.77 -271.374 1455.87 -317.5 1430.78 -362.684C1423.37 -378.563 1417.19 -393.976 1411.21 -408.885C1403.96 -426.971 1397.11 -444.057 1389.06 -459.31C1386.24 -466.106 1382.97 -472.66 1379.37 -478.726Z" fill="#EDE9F6"/>
<path d="M993.858 -161.195C964.466 -210.7 953.66 -250.371 963.43 -272.899C977.901 -307.627 991.578 -320.879 1016.4 -344.93C1021.47 -350.196 1026.44 -355.46 1031.62 -361.035C1052.87 -383.87 1072.91 -407.14 1091.4 -428.886C1114.26 -455.111 1141.71 -484.31 1171.86 -501.989C1200.06 -518.608 1232.69 -526.91 1266.23 -526.003C1316.15 -525.467 1352.55 -506.499 1374.44 -469.624C1379.08 -461.819 1383.05 -453.146 1386.26 -443.846C1392.18 -430.522 1397.18 -415.839 1402.47 -400.293C1408.22 -383.387 1414.17 -365.905 1422.07 -347.641C1436.09 -320.449 1449.67 -293.421 1464.06 -264.803C1473.59 -245.84 1483.44 -226.236 1493.45 -206.546C1499 -195.008 1504.16 -183.711 1508.78 -172.972C1526.02 -138.61 1543.07 -101.154 1551.2 -59.8156C1560.34 -20.099 1554.92 23.3318 1536.35 59.349C1532.91 66.1158 1529.09 72.7586 1525 79.0976C1504.75 111.853 1474.68 136.717 1438.05 150.991C1389.37 170.285 1342.19 170.205 1311.17 166.734C1252.09 163.641 1219.52 132.378 1179.96 88.5568C1166.87 74.766 1154.96 60.0321 1142.34 44.4374C1131.54 31.0844 1120.37 17.2735 1107.81 3.26263C1100.06 -5.4226 1093.89 -13.796 1088.38 -23.0708C1085.21 -28.4152 1082.59 -33.4456 1079.82 -38.7681C1077.06 -44.092 1074.19 -49.6046 1070.72 -55.4596C1064.62 -65.7212 1057.71 -75.1942 1048.97 -85.2619C1029.32 -107.627 1009.23 -135.301 993.858 -161.195ZM1375.44 -470.214C1353.27 -507.544 1316.49 -526.74 1266.11 -527.275C1232.38 -528.195 1199.55 -519.839 1171.19 -503.126C1140.91 -485.375 1113.4 -456.103 1090.47 -429.807C1071.99 -408.069 1051.96 -384.808 1030.73 -361.987C1025.54 -356.417 1020.57 -351.157 1015.53 -345.91C990.613 -321.77 976.882 -308.467 962.329 -273.536C952.389 -250.627 963.235 -210.516 992.866 -160.606C1008.28 -134.638 1028.43 -106.881 1048.14 -84.4523C1056.82 -74.4544 1063.68 -65.0571 1069.73 -54.8723C1073.18 -49.0579 1076.03 -43.5646 1078.79 -38.2548C1081.57 -32.9139 1084.19 -27.8617 1087.39 -22.481C1092.95 -13.1186 1099.17 -4.67898 1106.99 4.08367C1119.53 18.0697 1130.69 31.8636 1141.47 45.1999C1154.11 60.8241 1166.04 75.5767 1179.15 89.4013C1218.93 133.452 1251.69 164.89 1311.22 168.009C1342.33 171.486 1389.7 171.569 1438.57 152.191C1475.42 137.837 1505.65 112.837 1526.01 79.8939C1530.13 73.5328 1533.96 66.8586 1537.42 60.0667C1556.11 23.789 1561.57 -19.9539 1552.38 -59.9551C1544.21 -101.441 1527.11 -139.011 1509.84 -173.428C1505.23 -184.144 1500.06 -195.461 1494.5 -207.033C1484.48 -226.737 1474.63 -246.347 1465.1 -265.295C1450.71 -293.919 1437.13 -320.952 1423.13 -348.106C1415.27 -366.267 1409.33 -383.719 1403.59 -400.597C1398.29 -416.176 1393.28 -430.891 1387.36 -444.217C1384.14 -453.554 1380.12 -462.319 1375.44 -470.214Z" fill="#EDE9F6"/>
</svg>
