<svg width="782" height="588" viewBox="0 0 782 588" fill="none" xmlns="http://www.w3.org/2000/svg">
<path d="M1089.84 308.397C1128.3 331.599 1158.01 344.804 1186.19 351.211C1294.61 373.859 1436.95 288.618 1548.81 134.042C1604.14 56.3391 1639.4 -26.5571 1650.79 -105.679C1660.25 -174.907 1652.23 -251.971 1625.53 -348.205C1606.78 -414.234 1577.97 -479.462 1534.84 -553.477C1490.9 -628.222 1448.85 -676.39 1398.49 -709.655C1396.19 -711.143 1393.87 -712.597 1391.39 -714.093C1332.62 -749.546 1226.81 -785.067 1108.35 -809.109C987.95 -833.547 877.226 -841.068 812.165 -829.227C657.05 -832.047 632.465 -758.078 595.242 -646.118C578.733 -596.454 560.016 -540.166 526.847 -478.516C502.9 -434.033 480.92 -394.671 461.526 -359.941C368.386 -193.164 325.872 -117.049 354.551 12.6564C362.093 43.2941 381.832 68.4322 413.206 87.3597C437.937 102.279 470.107 113.48 508.826 120.649C544.02 127.036 581.773 131.277 621.744 135.765C674.315 141.667 728.674 147.768 784.936 159.495C851.739 173.716 917.797 200.89 986.891 242.572C997.147 248.759 1007.78 255.453 1018.49 262.464C1023.3 265.617 1028.06 268.755 1032.79 271.861C1052.61 284.909 1071.33 297.232 1089.84 308.397ZM1391.94 -715.007C1394.43 -713.504 1396.77 -712.044 1399.09 -710.547C1449.63 -677.157 1491.81 -628.852 1535.87 -553.92C1579.05 -479.811 1607.9 -414.494 1626.68 -348.367C1653.41 -251.983 1661.45 -174.783 1651.97 -105.407C1640.56 -26.1245 1605.23 56.9143 1549.81 134.739C1437.72 289.646 1294.93 375.043 1186.05 352.296C1157.72 345.854 1127.88 332.597 1089.28 309.316C1070.75 298.136 1052.02 285.807 1032.18 272.75C1027.46 269.64 1022.7 266.505 1017.89 263.354C1007.19 256.353 996.579 249.669 986.337 243.491C917.378 201.889 851.459 174.77 784.806 160.578C728.613 148.87 674.288 142.771 621.743 136.871C581.75 132.383 543.978 128.142 508.737 121.743C469.851 114.543 437.526 103.283 412.652 88.2778C380.959 69.1583 361.023 43.7557 353.393 12.7679C339.447 -50.3023 341.658 -101.792 360.795 -159.411C379.372 -215.357 413.384 -276.258 460.456 -360.548C479.849 -395.275 501.832 -434.634 525.77 -479.115C558.903 -540.684 577.604 -596.938 594.103 -646.565C613.315 -704.352 628.488 -750.001 658.747 -782.092C691.456 -816.795 738.699 -831.67 811.932 -830.331C877.012 -842.193 987.913 -834.668 1108.47 -810.202C1227.07 -786.124 1333.04 -750.537 1391.94 -715.007Z" fill="#EDE9F7"/>
<path d="M1386.01 -703.634C1384.63 -704.5 1383.25 -705.343 1381.83 -706.202C1325.67 -740.081 1223.58 -774.047 1108.74 -797.044C991.871 -820.457 884.056 -827.595 820.328 -816.141C669.483 -818.61 644.154 -747.245 605.819 -639.216C589.239 -592.504 570.447 -539.558 538.428 -481.687C515.205 -439.431 493.832 -401.942 474.979 -368.866C383.514 -208.414 341.769 -135.181 368.311 -9.70805C375.539 22.9577 396.344 49.8628 430.164 70.2651C452.845 83.9473 481.523 94.7754 515.4 102.446C556.301 113.363 601.227 121.145 648.79 129.381C693.481 137.12 739.7 145.125 787.287 156.479C885.713 180.611 967.799 225.299 1020.98 256.814L1030.25 262.556C1041.5 269.525 1052.13 276.109 1062.78 282.534C1108.09 309.867 1146.4 329.663 1186.12 337.433C1291.34 357.534 1429.96 275.276 1539.25 127.872C1595.66 52.7402 1632.09 -27.1947 1644.6 -103.286C1655.41 -170.92 1648.59 -246.302 1623.12 -340.516C1604.67 -409.361 1574.66 -476.417 1528.66 -551.536C1483.64 -624.369 1439.83 -671.169 1386.59 -703.282L1386.01 -703.634ZM1382.38 -707.123C1383.81 -706.26 1385.2 -705.412 1386.57 -704.542L1387.14 -704.2C1440.58 -671.966 1484.54 -625.026 1529.67 -552.001C1575.73 -476.779 1605.79 -409.624 1624.27 -340.669C1649.78 -246.303 1656.61 -170.779 1645.78 -102.992C1633.24 -26.7483 1596.75 53.328 1540.25 128.581C1430.72 276.303 1291.68 358.711 1186.01 338.527C1146.1 330.714 1107.66 310.863 1062.22 283.455C1051.56 277.024 1040.93 270.437 1029.68 263.465L1020.42 257.733C967.328 226.271 885.366 181.646 787.125 157.556C739.58 146.217 693.384 138.214 648.709 130.475C601.119 122.236 556.165 114.45 515.237 103.525C481.236 95.8258 452.422 84.9424 429.611 71.1815C395.471 50.586 374.45 23.4027 367.155 -9.61155C340.522 -135.475 382.325 -208.807 473.915 -369.48C492.767 -402.555 514.136 -440.038 537.361 -482.293C569.344 -540.094 588.12 -593.004 604.685 -639.679C624.472 -695.438 640.101 -739.478 670.149 -770.48C702.63 -803.995 748.879 -818.417 820.091 -817.249C883.844 -828.717 991.842 -821.574 1108.85 -798.136C1223.84 -775.108 1326.09 -741.081 1382.38 -707.123Z" fill="#EDE9F7"/>
<path d="M447.459 53.3674C467.896 65.6957 492.959 75.9405 521.945 83.8198C569.501 100.815 623.254 113.265 680.165 126.445C715.683 134.673 752.41 143.179 789.932 153.3C882.03 178.944 959.988 217.199 1024.1 251.24L1027.78 253.368C1085.05 286.597 1134.52 315.294 1186.93 323.893C1289.1 341.556 1424.05 262.423 1530.73 122.286C1589.04 48.7568 1625.58 -26.0913 1639.34 -100.194C1651.29 -165.289 1645.41 -241.157 1621.37 -332.138C1603.41 -402.843 1571.18 -473.774 1522.84 -548.988C1476.76 -620 1429.77 -666.626 1373.57 -697.154L1372.35 -697.895C1318.71 -730.252 1220.2 -762.743 1108.85 -784.811C995.367 -807.298 890.325 -814.155 827.851 -803.158C681.085 -805.424 655.03 -736.675 615.592 -632.609C599.016 -588.874 580.227 -539.306 549.424 -485.246C526.967 -445.296 506.251 -409.748 487.977 -378.383C398.187 -224.278 357.205 -153.946 381.782 -32.6313C388.662 2.29188 410.759 31.2279 447.459 53.3674ZM1386.9 -690.75C1437.65 -660.137 1481.16 -615.245 1523.84 -549.481C1572.25 -474.149 1604.53 -403.102 1622.52 -332.282C1646.61 -241.145 1652.49 -165.125 1640.51 -99.878C1626.73 -25.6222 1590.12 49.3701 1531.72 123.009C1479.1 192.133 1418.91 247.63 1357.67 283.502C1296.42 319.375 1237.35 333.722 1186.86 324.989C1134.2 316.351 1084.64 287.594 1027.24 254.298L1023.59 252.182C959.57 218.192 881.693 179.974 789.727 154.368C752.241 144.259 715.52 135.752 680.01 127.529C623.063 114.337 569.269 101.879 521.695 84.8729C492.629 76.9747 467.455 66.6818 446.905 54.2854C409.862 31.9395 387.56 2.72275 380.613 -32.5561C355.962 -154.247 397.002 -224.68 486.922 -379C505.193 -410.365 525.908 -445.911 548.358 -485.859C579.128 -539.855 597.906 -589.387 614.461 -633.091C634.821 -686.803 650.897 -729.222 680.755 -759.101C713.031 -791.411 758.325 -805.336 827.615 -804.264C890.112 -815.277 995.33 -808.416 1108.96 -785.898C1220.46 -763.806 1319.14 -731.248 1372.91 -698.813L1374.11 -698.087C1378.39 -695.758 1382.7 -693.284 1386.9 -690.75Z" fill="#EDE9F7"/>
<path d="M466.118 37.2954C483.961 48.0591 505.157 57.4109 529.105 65.0837C584.308 90.0591 648.894 108.423 717.274 127.867C741.79 134.835 767.141 142.043 792.756 149.753C885.642 178.673 967.334 217.038 1026.98 245.047C1081.72 274.6 1133.38 302.5 1187.19 309.562C1235.94 317.025 1292.98 302.849 1352.16 268.569C1411.47 234.217 1469.96 181.382 1521.32 115.773C1580.74 44.9331 1618.38 -26.982 1633.19 -97.976C1646.49 -161.401 1641.83 -235.493 1618.96 -324.485C1601.32 -397.932 1567.86 -470.697 1516.66 -546.942C1476.22 -606.603 1434.93 -647.931 1386.72 -677.008C1378.46 -681.993 1369.85 -686.69 1361.13 -690.963C1309.37 -721.571 1214.67 -752.206 1107.73 -772.944C996.867 -794.441 897.918 -800.648 836.246 -789.965C693.729 -791.905 666.891 -725.791 626.267 -625.716C609.731 -584.979 590.988 -538.805 561.434 -488.571C539.797 -451.001 519.772 -417.445 502.109 -387.835C413.924 -240.033 373.674 -172.576 396.16 -55.4797C402.581 -18.0428 426.122 13.1688 466.118 37.2954ZM1387.28 -677.927C1435.66 -648.743 1477.08 -607.285 1517.65 -547.459C1568.93 -471.083 1602.45 -398.192 1620.11 -324.612C1643.02 -235.466 1647.68 -161.219 1634.36 -97.6394C1619.51 -26.4886 1581.8 45.5634 1522.3 116.51C1470.87 182.204 1412.28 235.124 1352.87 269.537C1293.46 303.945 1236.16 318.166 1187.16 310.664C1133.11 303.573 1081.34 275.614 1026.52 246.015C966.945 218.039 885.301 179.703 792.512 150.809C766.918 143.106 741.57 135.901 717.055 128.93C648.629 109.474 583.992 91.0927 528.775 66.109C504.794 58.4274 483.502 49.0338 465.564 38.2129C425.222 13.8776 401.475 -17.6258 394.987 -55.4212C372.438 -172.887 412.742 -240.446 501.055 -388.466C518.721 -418.071 538.74 -451.622 560.379 -489.189C589.896 -539.372 608.624 -585.509 625.151 -626.216C646.12 -677.862 662.677 -718.662 692.343 -747.429C724.415 -778.533 768.727 -791.992 836.007 -791.07C897.71 -801.769 996.83 -795.559 1107.84 -774.035C1214.91 -753.269 1309.79 -722.565 1361.63 -691.913C1370.33 -687.645 1378.98 -682.934 1387.28 -677.927Z" fill="#EDE9F7"/>
<path d="M484.445 23.1228C499.331 32.1026 516.422 40.2193 535.258 47.2564C599.524 82.7768 677.847 108.585 760.755 135.899C772.015 139.608 783.371 143.348 794.821 147.157C864.177 171.047 926.755 197.177 981.965 220.231C998.573 227.168 1014.26 233.716 1029.33 239.874C1087.38 268.796 1135.82 291.305 1187.1 296.307C1234.42 302.546 1289.78 288.461 1347.19 255.582C1404.74 222.621 1461.72 172.281 1511.96 109.997C1572.57 41.7437 1611.37 -27.3339 1627.26 -95.3373C1641.92 -157.149 1638.49 -229.56 1616.77 -316.702C1599.73 -391.937 1564.03 -468.753 1510.67 -545.039C1472.36 -599.301 1433.24 -637.405 1387.57 -664.95C1375.22 -672.4 1362.15 -679.163 1348.74 -685.063C1298.37 -713.808 1207.38 -742.428 1105.27 -761.649C999.073 -781.64 903.888 -787.27 844.128 -777.088C705.66 -778.668 677.948 -715.087 636.008 -618.838C619.543 -581.047 600.878 -538.218 572.585 -491.74C551.777 -456.566 532.464 -425.004 515.417 -397.162C428.626 -255.359 389.017 -190.641 409.396 -77.5607C415.286 -37.2335 440.532 -3.36608 484.445 23.1228ZM1388.13 -665.87C1433.97 -638.221 1473.21 -599.997 1511.64 -545.57C1565.09 -469.155 1600.85 -392.188 1617.93 -316.819C1639.69 -229.521 1643.12 -156.953 1628.42 -94.9755C1612.49 -26.8216 1573.63 42.3968 1512.92 110.751C1462.62 173.11 1405.55 223.533 1347.89 256.55C1290.26 289.554 1234.66 303.685 1187.09 297.411C1135.61 292.391 1087.05 269.833 1028.92 240.867C1013.9 234.73 998.207 228.181 981.594 221.243C926.404 198.196 863.846 172.076 794.538 148.202C783.1 144.399 771.743 140.656 760.489 136.948C677.513 109.611 599.133 83.7857 534.841 48.2415C516.025 41.2246 498.848 33.0639 483.89 24.0411C439.622 -2.66233 414.167 -36.8313 408.223 -77.5203C387.773 -190.965 427.449 -255.78 514.376 -397.796C531.414 -425.64 550.732 -457.193 571.534 -492.369C599.794 -538.802 618.449 -581.599 634.897 -619.36C656.547 -669.034 673.646 -708.267 703.188 -735.973C735.128 -765.925 778.52 -778.953 843.893 -778.194C903.688 -788.39 999.024 -782.76 1105.37 -762.741C1207.62 -743.492 1298.77 -714.816 1349.2 -686.032C1362.61 -680.145 1375.73 -673.35 1388.13 -665.87Z" fill="#EDE9F7"/>
<path d="M560.537 39.7416C626.687 79.643 706.974 110.246 797.465 143.296C834.27 157.225 868.915 170.897 902.417 184.119C949.36 202.647 993.705 220.145 1032.42 233.632C1086.31 258.161 1135.16 278.722 1187.83 282.111C1233.76 287.181 1287.41 273.279 1343.02 241.907C1398.79 210.454 1454.19 162.739 1503.24 103.921C1565.01 38.4353 1604.87 -27.6794 1621.73 -92.6023C1637.7 -152.685 1635.4 -223.329 1614.72 -308.566C1597.92 -386.547 1560.83 -465.296 1504.49 -542.649C1468.71 -591.306 1430.66 -627.414 1388.2 -653.029C1371.85 -662.891 1354.27 -671.534 1335.95 -678.72C1236.68 -733.203 979.015 -785.459 851.426 -764.296C716.923 -765.689 688.362 -704.732 645.125 -612.461C628.843 -577.699 610.383 -538.302 583.462 -495.686C563.595 -463.046 545.066 -433.611 528.726 -407.639C443.383 -272.029 404.428 -210.138 422.877 -101.122C428.158 -57.56 455.479 -20.6221 504.068 8.68693C515.52 15.5943 528.222 22.0747 541.818 27.9538C547.888 31.9414 554.151 35.8894 560.537 39.7416ZM1388.76 -653.948C1431.38 -628.237 1469.55 -592.009 1505.44 -543.199C1561.89 -465.705 1599.05 -386.799 1615.88 -308.673C1636.61 -223.273 1638.9 -152.467 1622.88 -92.2185C1605.99 -27.1362 1566.05 39.1134 1504.19 104.693C1455.08 163.577 1399.59 211.369 1343.72 242.883C1287.91 274.367 1234.01 288.316 1187.87 283.221C1134.99 279.819 1086.02 259.21 1032.06 234.649C993.384 221.176 949.029 203.67 902.072 185.141C868.57 171.919 833.933 158.251 797.147 144.328C706.595 111.253 626.241 80.6228 559.985 40.6569C553.585 36.7964 547.305 32.8388 541.324 28.8966C527.776 23.0544 515.018 16.5406 503.516 9.60227C454.554 -19.931 427.027 -57.1743 421.697 -101.103C412.763 -153.905 417.102 -197.128 436.215 -245.608C454.503 -292.007 485.195 -340.783 527.68 -408.289C544.023 -434.257 562.546 -463.692 582.42 -496.328C609.305 -538.904 627.753 -578.272 644.031 -613.01C666.348 -660.629 683.967 -698.245 713.383 -724.815C745.194 -753.547 787.69 -766.062 851.187 -765.402C909.065 -775.007 1000.65 -769.844 1102.38 -751.214C1199.82 -733.375 1287.29 -706.64 1336.37 -679.706C1354.69 -672.527 1372.34 -663.852 1388.76 -653.948Z" fill="#EDE9F7"/>
<path d="M605.52 48.8538C667.599 86.2986 738.62 116.27 799.905 140.649C881.48 174.258 966.822 208.714 1034.99 228.35C1093.24 252.211 1139.09 267.274 1187.88 268.704C1278.93 276.569 1396.16 211.188 1493.84 98.0799C1556.84 35.2438 1597.83 -28.0017 1615.69 -89.9255C1633.06 -148.323 1631.99 -217.24 1612.45 -300.635C1596.27 -380.257 1556.86 -463.186 1498.49 -540.468C1464.74 -584.746 1428.97 -617.948 1389.15 -641.968C1368.72 -654.289 1347.3 -664.263 1323.65 -672.46C1276.02 -697.48 1192.47 -722.122 1100.06 -738.42C1003.2 -755.502 915.585 -760.084 859.688 -750.992C729.181 -752.015 699.639 -693.589 654.915 -605.149C638.858 -573.381 620.655 -537.379 595.151 -498.573C576.255 -468.503 558.555 -441.212 542.931 -417.14C461.347 -291.34 420.394 -228.198 436.742 -123.125C441.17 -76.5044 471.69 -34.8817 524.994 -2.72958C532.389 1.73107 540.295 6.05695 548.508 10.1316C565.681 23.3665 584.823 36.3694 605.52 48.8538ZM1389.7 -642.885C1429.68 -618.772 1465.57 -585.46 1499.43 -541.041C1557.91 -463.607 1597.4 -380.507 1613.61 -300.731C1633.2 -217.173 1634.25 -148.074 1616.84 -89.5197C1598.93 -27.4372 1557.87 35.9433 1494.77 98.8695C1396.9 212.196 1279.32 277.708 1187.95 269.817C1133.7 268.228 1082.5 248.973 1034.7 229.387C966.534 209.754 881.153 175.285 799.545 141.665C738.217 117.268 667.135 87.2712 604.966 49.7715C584.229 37.2633 565.039 24.2254 547.941 11.0306C539.809 7.01322 531.87 2.67221 524.439 -1.8099C470.756 -34.1909 440.023 -76.1411 435.562 -123.127C419.163 -228.548 460.182 -291.795 541.903 -417.795C557.518 -441.87 575.214 -469.158 594.112 -499.232C619.592 -537.993 637.784 -573.975 653.835 -605.717C676.916 -651.365 695.144 -687.418 724.489 -712.927C756.215 -740.506 797.84 -752.583 859.459 -752.099C915.38 -761.206 1003.15 -756.622 1100.14 -739.515C1192.68 -723.193 1276.38 -698.505 1324.04 -673.461C1347.68 -665.273 1369.19 -655.258 1389.7 -642.885Z" fill="#EDE9F7"/>
<path d="M651.993 62.172C693.729 87.3461 742.944 112.053 802.446 137.699C899.595 181.028 976.594 208.884 1037.85 222.865C1091.97 242.478 1138.22 255.462 1188.32 255.149C1276.27 260.515 1389.92 198.06 1484.96 92.1539C1549.24 31.9909 1591.36 -28.3905 1610.18 -87.344C1628.93 -144.028 1629.08 -211.251 1610.64 -292.849C1590.64 -396.947 1535.52 -483.914 1492.8 -538.54C1460.93 -578.925 1427.31 -609.495 1390.02 -631.991C1365.96 -646.5 1340.28 -657.799 1311.51 -666.534C1217.3 -713.669 985.276 -756.861 867.804 -738.201C741.111 -738.89 710.506 -682.963 664.184 -598.309C648.451 -569.558 630.62 -536.971 606.613 -501.998C588.781 -474.592 571.984 -449.53 557.161 -427.42C476.577 -307.214 436.13 -246.876 450.424 -145.634C453.928 -94.7603 487.379 -48.8268 547.169 -12.7631C549.764 -11.1979 552.445 -9.63215 555.136 -8.10602C582.908 16.6276 614.553 39.5893 651.993 62.172ZM1390.57 -632.909C1428.02 -610.324 1461.76 -579.649 1493.73 -539.128C1536.53 -484.39 1591.76 -397.247 1611.8 -292.935C1630.28 -211.165 1630.13 -143.769 1611.32 -86.9082C1592.45 -27.8037 1550.24 32.7189 1485.88 92.961C1390.66 199.064 1276.67 261.65 1188.43 256.263C1138.18 256.578 1091.8 243.562 1037.62 223.924C976.357 209.946 899.276 182.061 802.059 138.702C742.503 113.032 693.232 88.2989 651.438 63.0901C613.921 40.461 582.211 17.4496 554.491 -7.25618C551.914 -8.69972 549.221 -10.2726 546.615 -11.8449C486.441 -48.14 452.769 -94.4122 449.247 -145.653C434.9 -247.243 475.414 -307.681 556.132 -428.091C570.951 -450.199 587.75 -475.252 605.591 -502.663C629.572 -537.612 647.392 -570.175 663.114 -598.908C709.608 -683.874 740.33 -740.006 867.57 -739.306C985.155 -757.995 1217.59 -714.727 1311.87 -667.551C1340.63 -658.821 1366.42 -647.478 1390.57 -632.909Z" fill="#EDE9F7"/>
<path d="M696.865 76.6352C729.592 96.3748 765.053 115.064 805.258 133.764C896.605 177.66 975.963 205.523 1041.14 216.579C1085.76 230.573 1134.52 243.191 1189.26 240.929C1274.16 243.897 1384.2 184.538 1476.49 86.0146C1542.97 27.8561 1584.97 -27.9668 1604.93 -84.6871C1625.04 -139.575 1626.32 -205.035 1608.86 -284.816C1593.53 -368.726 1550.2 -458.025 1486.84 -536.279C1456.7 -573.209 1425.05 -601.406 1390.1 -622.484C1362.64 -639.048 1332.82 -651.441 1298.92 -660.376C1207.33 -703.768 989.581 -743.134 875.256 -725.578C752.235 -726.063 720.513 -672.689 672.495 -591.889C657.244 -566.226 639.954 -537.135 617.594 -506.075C600.945 -481.473 585.172 -458.775 571.245 -438.751C491.583 -324.203 451.601 -266.704 463.955 -169.258C466.859 -102.351 518.754 -55.2327 561.774 -27.475L561.896 -27.3773C598.608 9.97607 642.758 44.0004 696.865 76.6352ZM1390.66 -623.4C1425.74 -602.237 1457.51 -573.94 1487.76 -536.889C1551.24 -458.466 1594.66 -368.977 1610.03 -284.894C1627.53 -204.928 1626.23 -139.289 1606.07 -84.224C1586.04 -27.3549 1543.95 28.606 1477.39 86.8371C1384.94 185.537 1274.57 245.019 1189.41 242.045C1134.52 244.311 1085.63 231.663 1040.97 217.654C975.762 206.597 896.283 178.699 804.832 134.75C764.587 116.032 729.09 97.3211 696.312 77.5505C642.126 44.8679 597.905 10.7923 561.12 -26.6238C517.849 -54.5516 465.695 -101.966 462.768 -169.303C450.374 -267.086 490.428 -324.685 570.224 -439.437C584.145 -459.457 599.928 -482.148 616.571 -506.759C638.925 -537.799 656.198 -566.868 671.438 -592.521C719.638 -673.608 751.474 -727.181 875.027 -726.687C989.46 -744.262 1207.6 -704.826 1299.23 -661.405C1333.13 -652.478 1363.08 -640.031 1390.66 -623.4Z" fill="#EDE9F7"/>
<path d="M736.475 92.1209C758.832 105.605 782.816 118.754 807.765 131.211C895.339 176.314 976.991 204.051 1043.9 211.436C1100.93 226.361 1144.47 231.209 1189.58 227.666C1229.86 227.89 1276.72 214.472 1325.15 188.856C1373.88 163.086 1423.1 125.532 1467.5 80.254C1535.36 24.8147 1578.47 -28.2509 1599.35 -82.0194C1620.88 -135.166 1623.4 -198.941 1607.04 -276.988C1592.11 -363.667 1547.44 -455.05 1481.25 -534.329C1452.75 -568.187 1422.99 -594.242 1390.27 -613.978C1359.67 -632.431 1325.87 -645.651 1286.93 -654.396C1197.11 -694.354 993.446 -729.035 883.602 -712.602C764.151 -712.695 731.112 -661.725 681.102 -584.568C666.457 -561.979 649.862 -536.37 629.255 -509.19C613.907 -487.461 599.87 -468.07 586.298 -449.325C507.196 -340.05 467.491 -285.203 477.748 -191.342C478.84 -124.749 527.674 -75.1634 568.442 -45.2862L568.559 -45.1805C612.007 4.92797 668.502 51.1227 736.475 92.1209ZM1390.82 -614.896C1423.68 -595.08 1453.55 -568.929 1482.15 -534.952C1548.48 -455.506 1593.25 -363.917 1608.21 -277.057C1624.6 -198.819 1622.08 -134.854 1600.48 -81.5265C1579.54 -27.6072 1536.33 25.589 1468.38 81.0978C1423.95 126.41 1374.64 164.026 1325.82 189.841C1277.23 215.543 1230.18 229.005 1189.77 228.778C1144.56 232.332 1100.89 227.473 1043.81 212.526C976.829 205.141 895.014 177.352 807.299 132.179C782.33 119.711 758.31 106.54 735.922 93.037C667.851 51.9803 611.261 5.71169 567.719 -44.4829C526.727 -74.5386 477.662 -124.412 476.567 -191.406C466.269 -285.602 506.046 -340.553 585.289 -450.023C598.862 -468.77 612.895 -488.152 628.251 -509.892C648.847 -537.058 665.433 -562.65 680.068 -585.233C730.254 -662.658 763.411 -713.811 883.37 -713.71C933.543 -721.223 1010.01 -718.232 1093.05 -705.503C1171.04 -693.549 1243.62 -674.831 1287.2 -655.434C1326.16 -646.703 1360.1 -633.427 1390.82 -614.896Z" fill="#EDE9F7"/>
<path d="M769.054 104.416C782.301 112.406 796.094 120.234 810.049 127.69C896.044 174.972 977.804 201.85 1046.51 205.428C1099.5 216.441 1143.65 218.965 1189.76 213.621C1269.75 211.602 1370.11 159.416 1458.27 74.0117C1527.51 21.4066 1571.7 -28.8331 1593.42 -79.6195C1616.35 -130.955 1620.04 -192.993 1604.73 -269.286C1590.15 -358.686 1544.07 -452.124 1474.98 -532.413C1447.98 -563.545 1419.93 -587.675 1389.24 -606.188C1355.72 -626.406 1318.08 -640.245 1274.18 -648.496C1188.06 -684.152 994.484 -714.873 891.14 -699.948C775.054 -699.718 740.551 -651.15 688.344 -577.632C674.536 -558.195 658.893 -536.159 640.243 -512.95C626.383 -494.248 613.583 -477.35 601.204 -461.01C524.914 -360.27 482.888 -304.778 491.105 -214.408C490.427 -148.214 536.226 -96.1442 574.771 -64.1119C623.912 -0.386959 689.243 56.2784 769.054 104.416ZM1389.8 -607.107C1420.61 -588.52 1448.77 -564.294 1475.86 -533.051C1545.11 -452.588 1591.29 -358.939 1605.9 -269.346C1621.26 -192.854 1617.54 -130.615 1594.52 -79.0976C1572.75 -28.1655 1528.46 22.2032 1459.12 74.8761C1370.82 160.414 1270.19 212.713 1189.98 214.732C1143.79 220.09 1099.52 217.559 1046.48 206.531C977.684 202.957 895.72 176.018 809.555 128.642C795.579 121.175 781.76 113.332 768.5 105.334C688.54 57.1067 623.084 0.330978 573.937 -63.4245C535.289 -95.5272 489.234 -147.902 489.918 -214.498C481.671 -305.199 523.774 -360.795 600.208 -461.725C612.585 -478.066 625.381 -494.961 639.26 -513.672C657.897 -536.87 673.532 -558.892 687.329 -578.325C739.724 -652.095 774.339 -700.83 890.911 -701.058C939.868 -708.131 1010.68 -705.731 1090.22 -694.289C1163.31 -683.773 1232.17 -667.045 1274.41 -649.547C1318.34 -641.308 1356.13 -627.413 1389.8 -607.107Z" fill="#EDE9F7"/>
<path d="M795.93 114.324C801.601 117.745 807.404 121.145 813.173 124.431C897.986 174.037 979.8 200.038 1049.77 199.62C1098.55 207.002 1143.24 207.044 1190.5 199.765C1267.4 195.261 1364.18 146.008 1449.43 68.007C1521.03 17.591 1564.99 -28.4477 1587.79 -76.9133C1612.12 -126.384 1617.01 -186.65 1602.73 -261.164C1588.74 -351.902 1540.05 -449.845 1469.15 -529.904C1443.55 -558.589 1417.1 -580.981 1388.28 -598.363C1351.54 -620.522 1311.42 -634.36 1262.02 -641.916C1179.16 -673.466 999.084 -700.384 899.548 -686.543C786.612 -685.959 750.449 -639.729 695.705 -569.747C683.03 -553.55 668.668 -535.193 652.26 -516.039C640.108 -500.528 628.767 -486.29 617.795 -472.526C541.464 -376.741 499.414 -323.984 505.549 -236.953C503.101 -171.245 545.837 -116.709 582.115 -82.5203C634.517 -6.4855 708.43 61.5502 795.93 114.324ZM1388.84 -599.282C1417.78 -581.826 1444.34 -559.347 1470.02 -530.556C1541.09 -450.319 1589.88 -352.144 1603.9 -261.206C1618.22 -186.491 1613.31 -126.019 1588.88 -76.3597C1566.01 -27.7462 1521.96 18.4131 1450.26 68.8878C1364.89 147.003 1267.87 196.359 1190.77 200.87C1143.44 208.166 1098.63 208.122 1049.83 200.727C979.713 201.151 897.661 175.089 812.645 125.364C806.872 122.076 801.06 118.668 795.377 115.24C707.705 62.3616 633.657 -5.80183 581.238 -81.8897C544.854 -116.15 501.898 -170.99 504.36 -237.069C498.204 -324.424 540.331 -377.29 616.813 -473.258C627.783 -487.021 639.128 -501.254 651.284 -516.78C667.692 -535.935 682.051 -554.286 694.716 -570.473C723.015 -606.647 745.362 -635.219 775.371 -655.537C807.77 -677.475 845.996 -687.384 899.319 -687.655C946.281 -694.186 1013.35 -692.307 1088.11 -682.349C1156.24 -673.271 1221.33 -658.554 1262.21 -642.981C1311.66 -635.433 1351.94 -621.538 1388.84 -599.282Z" fill="#EDE9F7"/>
<path d="M822.219 125.972C903.729 175.134 983.256 198.781 1052.2 194.352C1097.82 198.525 1140.44 196.06 1190.5 186.358C1264.47 179.312 1357.76 132.866 1440.14 62.1055C1513.28 14.5255 1558.31 -28.839 1581.91 -74.3968C1607.33 -121.404 1613.62 -181.655 1600.6 -253.505C1587.04 -346.997 1536.97 -447.094 1463.24 -528.146C1438.95 -554.678 1413.95 -575.526 1386.82 -591.886C1347.48 -615.613 1303.91 -629.671 1249.71 -636.12C1167.28 -664.513 1003.51 -686.625 907.533 -673.77C797.271 -672.746 761.097 -630.991 701.163 -561.815C689.471 -548.324 677.387 -534.377 663.569 -519.36C653.418 -507.179 643.798 -495.793 634.505 -484.774C557.48 -393.557 515.056 -343.31 519.016 -259.246C514.767 -193.974 554.431 -136.895 588.45 -100.493C643.291 -11.7456 721.719 65.0714 815.326 121.758C817.635 123.186 819.924 124.588 822.219 125.972ZM1387.38 -592.809C1414.62 -576.378 1439.72 -555.443 1464.1 -528.814C1538.01 -447.577 1588.18 -347.244 1601.77 -253.544C1614.83 -181.483 1608.51 -121.006 1582.98 -73.8105C1559.31 -28.1082 1514.18 15.3694 1440.94 63.0082C1358.47 133.863 1264.94 180.4 1190.82 187.459C1140.7 197.177 1097.96 199.647 1052.33 195.465C983.21 199.911 903.414 176.199 821.663 126.892C819.364 125.506 817.071 124.101 814.765 122.67C720.975 65.8751 642.392 -11.0971 587.519 -99.9205C553.409 -136.399 513.557 -193.77 517.831 -259.383C513.852 -343.777 556.368 -394.125 633.536 -485.531C642.839 -496.544 652.45 -507.93 662.615 -520.124C676.443 -535.148 688.519 -549.095 700.205 -562.577C730.151 -597.141 753.803 -624.438 784.365 -643.872C817.321 -664.835 855.235 -674.397 907.312 -674.881C952.315 -680.913 1015.7 -679.59 1085.72 -671.147C1148.93 -663.526 1210.29 -650.833 1249.86 -637.193C1304.12 -630.754 1347.87 -616.64 1387.38 -592.809Z" fill="#EDE9F7"/>
<path d="M835.777 129.953C912.861 176.444 988.674 196.768 1055.02 188.73C1096.37 189.946 1138.28 185.008 1190.98 172.712C1262.14 163.175 1351.98 119.635 1431.35 56.2312C1507.11 10.9936 1551.86 -28.4375 1576.5 -71.6749C1603.34 -116.842 1610.84 -175.343 1598.8 -245.568C1585.58 -341.808 1534.03 -444.075 1457.34 -526.165C1434.21 -550.778 1410.5 -570.252 1384.89 -585.7C1343.03 -610.947 1296.09 -625.101 1237.16 -630.246C1158.43 -654.298 1006.86 -672.91 915.034 -661.206C806.759 -659.8 768.166 -619.857 704.218 -553.69C694.788 -543.941 685.04 -533.843 674.378 -523.168C666.652 -514.551 659.182 -506.285 651.998 -498.332C573.548 -411.517 530.338 -363.696 532.13 -282.253C526.148 -217.501 562.803 -157.832 594.598 -119.171C648.233 -22.8984 725.334 59.2613 817.642 118.537C823.653 122.481 829.755 126.321 835.777 129.953ZM1385.45 -586.618C1411.17 -571.104 1434.96 -551.552 1458.19 -526.842C1535.06 -444.561 1586.73 -342.055 1599.97 -245.596C1612.06 -175.153 1604.52 -116.418 1577.56 -71.0571C1552.83 -27.6781 1507.98 11.8638 1432.13 57.157C1352.67 120.631 1262.63 164.254 1191.34 173.805C1138.59 186.118 1096.59 191.064 1055.21 189.839C988.672 197.91 912.57 177.519 835.224 130.869C829.186 127.227 823.07 123.38 817.043 119.426C724.558 60.0409 647.297 -22.2913 593.63 -118.653C561.747 -157.397 524.934 -217.35 530.945 -282.422C529.137 -364.196 572.442 -412.116 651.051 -499.111C658.236 -507.066 665.705 -515.328 673.45 -523.963C684.125 -534.652 693.872 -544.739 703.295 -554.495C735.306 -587.609 760.576 -613.767 791.968 -632.377C825.787 -652.417 863.67 -661.655 914.811 -662.316C1006.72 -674.033 1158.54 -655.393 1237.27 -631.332C1296.27 -626.195 1343.4 -611.977 1385.45 -586.618Z" fill="#EDE9F7"/>
<path d="M846.842 132.42C920.591 176.9 993.573 194.357 1057.91 182.901C1101.54 181.325 1142.81 172.14 1191.39 158.826C1260.89 146.559 1345.04 106.94 1422.31 50.1204C1474.41 21.7036 1538.31 -17.499 1570.73 -69.1502C1598.99 -112.435 1607.71 -169.147 1596.67 -237.713C1584.04 -335.184 1529.71 -442.216 1451.33 -524.036C1429.3 -546.91 1406.82 -565.123 1382.62 -579.72C1337.78 -606.76 1289.09 -620.453 1224.74 -624.099C1148.43 -644.157 1009.06 -658.636 923.013 -648.246C815.831 -646.369 774.072 -607.87 704.883 -544.083C698.762 -538.448 692.441 -532.618 685.851 -526.604C681.163 -521.803 676.556 -517.107 672.062 -512.51C593.751 -432.545 546.487 -384.276 545.967 -305.001C538.259 -240.863 571.839 -178.634 601.367 -137.712C652.782 -35.5497 730.513 54.2473 820.281 115.226C829.07 121.307 838.007 127.091 846.842 132.42ZM1383.17 -580.638C1407.48 -565.977 1430.05 -547.691 1452.17 -524.731C1488.92 -486.364 1521.47 -441.169 1546.31 -394.012C1573.84 -341.756 1591.18 -289.181 1597.84 -237.737C1608.93 -168.927 1600.16 -111.981 1571.78 -68.4978C1539.23 -16.663 1475.2 22.6284 1423.05 51.0674C1345.71 107.941 1261.4 147.625 1191.8 159.912C1143.19 173.235 1101.84 182.437 1058.17 184.005C993.618 195.507 920.321 177.989 846.288 133.338C837.429 127.995 828.467 122.193 819.657 116.099C774.895 85.6958 733.363 48.5996 696.222 5.84261C658.586 -37.4781 626.334 -85.6221 600.354 -137.251C570.755 -178.256 537.037 -240.768 544.784 -305.196C545.3 -384.808 592.667 -433.18 671.14 -513.32C675.644 -517.908 680.242 -522.607 684.948 -527.427C691.564 -533.457 697.882 -539.289 703.997 -544.922C773.366 -608.876 815.239 -647.48 922.789 -649.358C1008.92 -659.755 1148.5 -645.258 1224.8 -625.194C1289.25 -621.546 1338.13 -607.801 1383.17 -580.638Z" fill="#EDE9F7"/>
<path d="M856.55 134.07C927.748 177.011 998.553 191.933 1061.31 177.225C1105.13 172.63 1147.48 159.275 1192.31 145.134C1259.44 130.185 1340.13 93.4236 1413.75 44.2619C1470.26 16.3086 1532.42 -18.6642 1565.42 -66.3181C1595.08 -107.682 1605.02 -162.589 1594.95 -229.511C1582.71 -329.609 1526.91 -438.763 1445.68 -521.516C1424.67 -542.809 1403.32 -559.877 1380.41 -573.697C1333.26 -602.133 1281.53 -615.668 1212.68 -617.579C1139.21 -633.472 1013.97 -644.315 931.352 -634.961C823.479 -632.537 777.187 -594.712 700.487 -532.043L697.704 -529.772L695.583 -527.811C613.063 -451.495 563.249 -405.432 560.246 -327.549C550.842 -264.112 581.348 -199.301 608.593 -156.092C658.457 -46.7471 734.741 48.4495 823.431 112.043C834.367 120.001 845.507 127.41 856.55 134.07ZM1380.97 -574.617C1403.98 -560.736 1425.42 -543.595 1446.51 -522.215C1527.93 -439.271 1583.86 -329.851 1596.13 -229.522C1606.23 -162.342 1596.24 -107.201 1566.43 -65.6294C1533.32 -17.7968 1471.02 17.2506 1414.45 45.2335C1340.79 94.4279 1259.96 131.242 1192.76 146.209C1147.92 160.354 1105.52 173.727 1061.65 178.322C998.639 193.096 927.502 178.114 855.996 134.988C844.92 128.307 833.745 120.874 822.779 112.893C733.901 49.1703 657.465 -46.2176 607.55 -155.687C580.241 -198.987 549.618 -264.065 559.061 -327.776C562.078 -406.004 611.999 -452.169 694.702 -528.648L696.845 -530.627L699.652 -532.921C776.525 -595.734 822.921 -633.642 931.125 -636.072C1013.82 -645.431 1139.24 -634.582 1212.7 -618.678C1281.66 -616.775 1333.6 -603.183 1380.97 -574.617Z" fill="#EDE9F7"/>
<path d="M863.714 135.242C932.869 176.951 1001.93 189.536 1063.42 171.643C1098.74 165.358 1133.56 152.674 1170.42 139.25C1177.46 136.686 1184.62 134.078 1191.94 131.454C1257.5 113.488 1334.76 79.5229 1403.93 38.254C1461.67 12.5139 1525.18 -19.7094 1558.87 -63.7698C1589.96 -103.232 1601.14 -156.359 1592.09 -221.681C1580.29 -324.44 1523.09 -435.737 1439.07 -519.401C1419.03 -539.265 1398.74 -555.291 1377.03 -568.385C1327.65 -598.165 1272.97 -611.427 1199.75 -611.381C1129.85 -622.908 1017.86 -630.206 938.852 -621.864C835.595 -618.898 783.024 -586.292 708.703 -532.95C628.571 -467.498 579.157 -423.629 573.572 -349.944C562.475 -287.226 589.859 -219.801 614.783 -174.273C662.924 -57.7808 737.697 42.812 825.369 109.048C837.997 118.702 850.899 127.514 863.714 135.242ZM1377.58 -569.302C1399.39 -556.15 1419.77 -540.063 1439.89 -520.118C1524.1 -436.247 1581.44 -324.686 1593.27 -221.683C1602.36 -156.092 1591.12 -102.714 1559.86 -63.0463C1526.04 -18.8179 1462.39 13.4796 1404.59 39.2462C1335.4 80.5316 1258.05 114.538 1192.44 132.516C1185.16 135.124 1178 137.733 1170.96 140.297C1134.05 153.739 1099.19 166.433 1063.84 172.728C1034.16 181.362 1002.25 182.881 969.049 177.224C934.096 171.269 898.469 157.453 863.161 136.158C850.302 128.403 837.361 119.562 824.691 109.881C736.832 43.5072 661.908 -57.2819 613.71 -173.919C588.729 -219.546 561.252 -287.23 572.391 -350.2C578 -424.231 627.537 -468.214 707.89 -533.845C782.394 -587.328 835.092 -620.002 938.634 -622.975C1017.7 -631.327 1129.84 -624.023 1199.71 -612.487C1273.09 -612.54 1327.98 -599.22 1377.58 -569.302Z" fill="#EDE9F7"/>
<path d="M871.1 135.488C938.699 176.257 1006.43 186.733 1066.95 165.775C1096.33 158.3 1125.25 146.038 1155.88 133.056C1167.84 127.983 1180.22 122.736 1193.08 117.575C1240.97 101.792 1314.97 74.1787 1395.76 32.1813C1457.78 7.55484 1519.84 -20.7852 1554.06 -61.1932C1586.59 -98.7126 1598.98 -150.069 1590.87 -213.828C1579.43 -319.287 1520.69 -432.786 1433.73 -517.444C1414.83 -535.768 1394.93 -551.286 1374.58 -563.558C1322.96 -594.69 1265.35 -607.637 1187.77 -605.543C1127.09 -612.145 1027.71 -617.091 947.049 -609.318C850.351 -605.915 792.734 -581.219 720.221 -536.828C638.213 -479.648 595.153 -438.62 587.425 -373.094C574.712 -311.159 599.025 -241.058 621.664 -193.148C668.132 -69.5025 741.549 36.5672 828.419 105.571C842.446 116.804 856.807 126.868 871.1 135.488ZM1375.14 -564.475C1395.58 -552.148 1415.56 -536.567 1434.54 -518.167C1474.88 -478.895 1510.59 -431.37 1537.83 -380.729C1567.43 -325.682 1586.18 -267.962 1592.06 -213.823C1600.2 -149.775 1587.74 -98.1649 1555.02 -60.4313C1520.67 -19.8691 1458.48 8.53839 1396.38 33.192C1315.58 75.2016 1241.52 102.836 1193.62 118.621C1180.8 123.766 1168.43 129.011 1156.47 134.081C1125.81 147.08 1096.85 159.358 1067.43 166.842C1038.23 176.954 1006.88 179.748 974.296 175.125C939.98 170.256 905.074 157.23 870.546 136.406C856.199 127.753 841.791 117.653 827.717 106.386C740.658 37.2332 667.096 -69.0345 620.567 -192.847C597.879 -240.867 573.487 -311.213 586.256 -373.383C590.08 -405.894 603.135 -433.865 627.325 -461.369C651.629 -488.995 685.971 -514.412 719.466 -537.766C792.162 -582.269 849.913 -607.018 946.831 -610.426C1027.54 -618.208 1127.03 -613.259 1187.68 -606.649C1265.44 -608.761 1323.28 -595.751 1375.14 -564.475Z" fill="#EDE9F7"/>
<path d="M876.949 135.863C943.186 175.81 1009.74 184.249 1069.42 160.265C1094.37 151.885 1118.96 139.754 1144.99 126.912C1160.34 119.342 1176.21 111.509 1193.03 104.009C1204.8 99.3987 1217.11 94.6341 1229.89 89.6881C1277.44 71.2867 1331.33 50.4285 1386.23 26.3415C1459.48 0.694014 1514.95 -23.5307 1547.75 -58.4202C1581.72 -93.982 1595.33 -143.541 1588.21 -205.718C1577.37 -312.199 1515.72 -430.696 1427.3 -514.976C1409.25 -532.121 1390.29 -546.731 1370.95 -558.392C1316.48 -591.243 1257.89 -603.385 1175.04 -599C1146.64 -600.306 1047 -603.942 954.772 -595.921C868.251 -592.163 803.568 -575.892 731.475 -539.762C670.551 -505.26 612.57 -463.871 601.077 -395.304C589.745 -346.965 599.125 -283.317 628.2 -211.209C672.804 -80.5483 744.729 30.9009 830.724 102.626C845.879 115.321 861.429 126.503 876.949 135.863ZM1371.51 -559.311C1390.93 -547.599 1409.97 -532.927 1428.09 -515.707C1469.59 -476.149 1506.33 -427.871 1534.34 -376.086C1564.73 -319.889 1583.77 -260.971 1589.39 -205.7C1596.54 -143.221 1582.85 -93.3995 1548.68 -57.6271C1515.75 -22.5906 1460.15 1.69078 1386.8 27.3784C1331.92 51.4595 1278.01 72.3208 1230.45 90.7266C1217.67 95.6718 1205.36 100.438 1193.62 105.035C1176.84 112.52 1160.98 120.346 1145.64 127.912C1119.57 140.77 1094.95 152.915 1069.96 161.309C1041.16 172.885 1010.3 176.917 978.258 173.289C944.498 169.469 910.228 157.185 876.395 136.78C860.814 127.384 845.203 116.159 829.994 103.419C743.817 31.5401 671.752 -80.1097 627.086 -210.955C597.938 -283.246 588.531 -347.12 599.909 -395.633C604.957 -425.749 618.777 -452.234 642.166 -476.553C662.326 -497.523 690.488 -517.923 730.799 -540.747C803.067 -576.966 867.882 -593.27 954.557 -597.038C1046.83 -605.059 1146.54 -601.417 1174.9 -600.111C1257.97 -604.514 1316.79 -592.313 1371.51 -559.311Z" fill="#EDE9F7"/>
<path d="M882.36 135.969C946.594 174.707 1014.01 181.396 1072.2 154.803C1093.72 145.716 1114.98 133.599 1137.49 120.769C1155.25 110.649 1173.61 100.18 1193.43 90.4395C1242.4 67.87 1301.41 47.1341 1363.88 25.1767L1377.34 20.4458C1440.52 1.21981 1505.29 -20.5009 1542.23 -55.7735C1577.66 -89.3878 1592.51 -137.198 1586.36 -197.874C1575.95 -307.056 1512.78 -427.83 1421.5 -513.069C1404.22 -529.157 1386.13 -542.941 1367.72 -554.042C1296.51 -596.99 1224.11 -597.898 1162.68 -593.119C1124.42 -592.201 1047.61 -589.699 962.642 -583.203C892.65 -579.479 817.569 -572.074 742.647 -543.335C667.408 -511.662 626.696 -471.844 614.54 -418.025C601.784 -369.696 608.53 -306.307 634.584 -229.605C677.319 -91.8437 747.819 25.0863 833.095 99.6542C849.203 113.751 865.777 125.968 882.36 135.969ZM1368.27 -554.96C1386.76 -543.81 1404.94 -529.965 1422.28 -513.814C1513.78 -428.366 1577.1 -307.297 1587.54 -197.843C1593.72 -136.853 1578.78 -88.7698 1543.13 -54.9441C1506.02 -19.5205 1441.13 2.24701 1377.84 21.5057L1364.41 26.2298C1301.96 48.1735 1242.98 68.9043 1194.06 91.4481C1174.28 101.168 1155.94 111.627 1138.19 121.742C1115.65 134.585 1094.36 146.719 1072.8 155.823C1044.32 168.842 1013.83 174.084 982.197 171.402C948.863 168.571 915.087 156.961 881.805 136.888C865.154 126.847 848.511 114.578 832.343 100.429C746.89 25.6998 676.251 -91.438 633.448 -229.399C607.332 -306.293 600.576 -369.888 613.374 -418.396C625.607 -472.519 666.501 -512.555 742.076 -544.367C817.158 -573.17 892.346 -580.593 962.421 -584.316C1047.4 -590.809 1124.24 -593.313 1162.48 -594.231C1224.08 -599.028 1296.73 -598.109 1368.27 -554.96Z" fill="#EDE9F7"/>
<path d="M887.267 135.776C950.593 173.967 1017.21 178.745 1074.85 149.232C1093.59 139.601 1112.16 127.467 1131.82 114.624C1151.33 101.869 1171.52 88.6804 1193.66 76.7593C1236.63 53.6314 1288.84 34.9934 1368.24 14.4425C1435.58 -3.03278 1499.11 -21.3607 1536.46 -53.2316C1573.35 -84.8828 1589.43 -130.933 1584.26 -190.112C1574.29 -301.979 1509.63 -424.999 1415.52 -511.17C1398.99 -526.276 1381.72 -539.293 1364.18 -549.869C1290.29 -594.43 1214.56 -593.746 1150.23 -587.199C1139.76 -586.124 1129.04 -584.99 1118.05 -583.824C1074.25 -579.19 1024.61 -573.933 970.487 -570.423C957.669 -569.593 944.412 -568.852 931.587 -568.136C871.693 -564.788 809.764 -561.328 753.849 -546.852C687.938 -529.762 643.267 -492.07 628.069 -440.719C614.098 -393.138 618.448 -328.303 641.002 -248.011C681.811 -103.206 750.851 19.1832 835.414 96.614C852.321 112.047 869.768 125.223 887.267 135.776ZM1364.74 -550.789C1382.35 -540.166 1399.7 -527.091 1416.3 -511.926C1510.64 -425.544 1575.45 -302.219 1585.44 -190.07C1590.65 -130.559 1574.46 -84.2308 1537.32 -52.3701C1499.8 -20.3608 1436.14 -1.98723 1368.68 15.5198C1289.37 36.0507 1237.23 54.6573 1194.35 77.7448C1172.24 89.6451 1152.07 102.82 1132.57 115.564C1112.89 128.424 1094.3 140.569 1075.51 150.225C1047.29 164.674 1017.12 171.102 985.835 169.331C952.87 167.457 919.519 156.48 886.712 136.695C869.134 126.093 851.614 112.86 834.638 97.3685C792.531 58.8116 754.124 8.94654 720.478 -50.8491C687.103 -110.165 659.982 -176.443 639.855 -247.85C617.249 -328.335 612.897 -393.365 626.918 -441.133C642.216 -492.817 687.14 -530.751 753.414 -547.932C809.433 -562.434 871.429 -565.9 931.379 -569.252C944.199 -569.965 957.452 -570.706 970.262 -571.542C1024.36 -575.041 1073.99 -580.297 1117.78 -584.932C1128.77 -586.098 1139.5 -587.231 1149.97 -588.309C1214.52 -594.88 1290.51 -595.558 1364.74 -550.789Z" fill="#EDE9F7"/>
<path d="M895.602 125.058C958.651 163.08 1023.76 168.568 1078.94 140.509C1098.49 130.58 1117.5 118.078 1137.62 104.843C1155.54 93.0623 1174.06 80.8797 1194.36 69.6053C1203.89 64.3525 1214.24 59.1632 1225.12 54.1794C1261.2 37.6543 1303.6 23.051 1362.58 6.82461C1427.21 -11.0678 1488.21 -29.7391 1524.19 -61.3005C1559.68 -92.5754 1575.21 -137.527 1570.34 -194.905C1564.77 -261.05 1539.68 -329.487 1497.79 -392.819C1471.28 -433.642 1438.1 -472.208 1401.81 -504.363C1385.91 -518.631 1369.29 -531.022 1352.43 -541.191C1307.12 -568.513 1257.86 -581.74 1197.4 -582.813C1180.83 -583.06 1163.15 -582.398 1143.36 -580.786C1127.8 -579.615 1111.86 -578.305 1094.98 -576.924C1057.15 -573.833 1014.29 -570.319 968.558 -567.821C961.079 -567.436 953.549 -567.068 945.975 -566.7C894.468 -564.187 841.203 -561.592 791.416 -552.015C779.59 -549.745 768.236 -547.136 757.676 -544.255C694.108 -527.042 650.81 -489.953 635.754 -439.829C621.76 -393.028 625.483 -329.857 646.804 -252.079C660.701 -199.803 680.97 -147.889 707.044 -97.777C725.022 -62.7722 745.669 -29.2227 768.408 1.93545C791.266 33.1973 815.221 59.9076 843.809 85.9957C860.63 101.332 878.056 114.477 895.602 125.058ZM1352.98 -542.107C1369.92 -531.893 1386.61 -519.453 1402.57 -505.126C1438.95 -472.899 1472.21 -434.231 1498.78 -393.318C1540.78 -329.82 1565.94 -261.193 1571.53 -194.862C1576.43 -137.158 1560.79 -91.9335 1525.06 -60.4462C1488.91 -28.7402 1427.79 -10.0268 1363.03 7.89828C1304.11 24.1105 1261.77 38.6961 1225.74 55.1924C1214.89 60.1667 1204.56 65.3434 1195.04 70.5824C1174.78 81.8397 1156.28 94.0113 1138.38 105.781C1118.23 119.035 1099.2 131.548 1079.6 141.504C1024.04 169.755 958.498 164.24 895.047 125.976C877.423 115.347 859.925 102.149 843.038 86.7538C814.382 60.6002 790.362 33.8215 767.454 2.48829C744.674 -28.7238 723.995 -62.3277 705.986 -97.3919C679.874 -147.578 659.572 -199.574 645.65 -251.929C624.277 -329.898 620.562 -393.259 634.606 -440.248C649.766 -490.699 693.309 -528.023 757.223 -545.332C767.813 -548.218 779.193 -550.835 791.044 -553.106C840.913 -562.703 894.218 -565.301 945.774 -567.815C953.347 -568.181 960.879 -568.547 968.353 -568.938C1014.06 -571.434 1055.08 -574.791 1094.74 -578.034C1111.62 -579.419 1127.56 -580.729 1143.13 -581.898C1162.95 -583.513 1180.66 -584.176 1197.28 -583.924C1257.99 -582.851 1307.46 -569.561 1352.98 -542.107Z" fill="#EDE9F7"/>
<path d="M904.372 114.602C967.03 152.388 1030.54 158.563 1083.21 131.99C1103.62 121.756 1123.04 108.878 1143.61 95.243C1159.88 84.4572 1176.7 73.3029 1195.1 62.7431C1204.25 57.5746 1214.22 52.4249 1224.73 47.4331C1259.57 30.875 1300.31 16.1153 1356.8 -0.417387C1418.67 -18.6923 1477.06 -37.679 1511.64 -68.9009C1545.7 -99.774 1560.65 -143.574 1556.08 -199.095C1550.89 -264.473 1525.73 -330.734 1483.34 -390.716C1457.07 -429.255 1424.96 -464.886 1387.9 -496.62C1372.66 -510.031 1356.74 -521.766 1340.59 -531.503C1296.29 -558.221 1248.09 -571.792 1188.91 -574.221C1172.79 -574.801 1155.66 -574.527 1136.55 -573.384C1114.21 -572.338 1090.85 -570.977 1066.12 -569.532C1034.66 -567.695 1002.13 -565.794 966.853 -564.253L963.095 -564.108C906.841 -561.99 848.676 -559.795 794.555 -548.677C783.164 -546.349 772.183 -543.678 761.942 -540.74C700.786 -523.42 658.903 -486.988 644.013 -438.145C630.014 -392.169 633.099 -330.736 653.171 -255.556C665.866 -204.797 685.836 -155.114 714.215 -103.653C732.237 -70.1676 752.708 -38.3293 776.789 -6.3132C798.677 22.6844 821.355 47.1924 852.613 75.626C869.348 90.8697 886.761 103.982 904.372 114.602ZM1341.15 -532.422C1357.37 -522.643 1373.35 -510.858 1388.65 -497.399C1425.8 -465.59 1457.98 -429.87 1484.31 -391.24C1526.83 -331.092 1552.06 -264.63 1557.27 -199.046C1561.86 -143.209 1546.81 -99.1373 1512.51 -68.055C1477.79 -36.696 1419.26 -17.6644 1357.27 0.649418C1300.84 17.166 1260.15 31.9068 1225.36 48.4401C1214.87 53.4212 1204.93 58.5623 1195.8 63.717C1177.43 74.2587 1160.62 85.4015 1144.37 96.1782C1123.78 109.83 1104.33 122.725 1083.86 132.987C1057.96 146.053 1029.29 151.27 998.633 148.491C967.287 145.651 935.386 134.556 903.817 115.519C886.13 104.852 868.643 91.6829 851.84 76.3789C820.514 47.883 797.784 23.3222 775.848 -5.74751C751.726 -37.8156 731.222 -69.7062 713.169 -103.243C684.74 -154.79 664.736 -204.57 652.019 -255.417C631.894 -330.786 628.811 -392.409 642.867 -438.564C657.855 -487.73 699.978 -524.399 761.478 -541.81C771.75 -544.759 782.749 -547.43 794.174 -549.767C848.386 -560.903 906.604 -563.098 962.913 -565.221L966.658 -565.366C1001.92 -566.909 1034.45 -568.81 1065.9 -570.644C1090.64 -572.09 1114 -573.454 1136.34 -574.499C1155.48 -575.641 1172.64 -575.917 1188.82 -575.336C1248.23 -572.9 1296.64 -559.264 1341.15 -532.422Z" fill="#EDE9F7"/>
<path d="M913.301 104.237C974.733 141.282 1038.35 148.334 1087.85 123.585C1109.23 113.017 1129.09 99.7233 1150.11 85.6501C1164.75 75.8553 1179.87 65.7306 1196.39 55.9381C1205.19 50.8479 1214.78 45.7315 1224.92 40.7332C1258.58 24.1294 1297.72 9.21114 1351.81 -7.63592C1411.01 -26.2932 1466.9 -45.5963 1500.12 -76.5144C1532.8 -107.014 1547.19 -149.723 1542.89 -203.448C1538.05 -268.149 1512.76 -332.33 1469.76 -389.061C1444.12 -424.786 1412.13 -458.575 1374.68 -489.514C1360.09 -502.078 1344.86 -513.161 1329.42 -522.47C1286.03 -548.641 1238.78 -562.609 1180.73 -566.434C1165.02 -567.347 1148.41 -567.47 1129.96 -566.803C1097.77 -566.273 1063.05 -565.009 1026.3 -563.675C1006.64 -562.956 986.31 -562.216 965.09 -561.541C909.856 -560.287 851.414 -558.076 797.359 -546.237C786.344 -543.845 775.732 -541.115 765.806 -538.121C706.965 -520.699 666.441 -484.879 651.707 -437.259C637.693 -392.05 640.169 -332.271 659.059 -259.582C670.742 -209.829 690.437 -162.259 721.054 -109.861C738.814 -78.4203 759.722 -47.3131 784.987 -14.7402C808.731 15.739 830.978 37.6539 861.381 65.2136C878.09 80.4095 895.558 93.5376 913.301 104.237ZM1329.98 -523.388C1345.48 -514.039 1360.77 -502.906 1375.41 -490.298C1412.94 -459.297 1445.01 -425.42 1470.71 -389.617C1513.85 -332.713 1539.22 -268.314 1544.08 -203.395C1548.4 -149.359 1533.91 -106.386 1501.01 -75.6795C1467.63 -44.6176 1411.63 -25.2642 1352.31 -6.5727C1298.27 10.2587 1259.18 25.1568 1225.57 41.7319C1215.45 46.7222 1205.88 51.8281 1197.1 56.9032C1180.61 66.6828 1165.49 76.7975 1150.88 86.5814C1129.83 100.677 1109.94 113.988 1088.5 124.584C1038.63 149.519 974.571 142.439 912.745 105.157C894.925 94.4104 877.385 81.2247 860.609 65.9696C830.153 38.3622 807.861 16.3981 784.054 -14.1565C758.752 -46.781 737.807 -77.941 720.027 -109.425C689.348 -161.923 669.61 -209.597 657.904 -259.455C638.96 -332.326 636.493 -392.294 650.563 -437.684C665.401 -485.62 706.154 -521.672 765.329 -539.191C775.274 -542.19 785.92 -544.926 796.96 -547.324C851.12 -559.184 909.628 -561.401 964.916 -562.655C986.125 -563.331 1006.46 -564.07 1026.12 -564.785C1062.87 -566.126 1097.59 -567.387 1129.78 -567.914C1148.27 -568.584 1164.92 -568.459 1180.67 -567.547C1238.94 -563.709 1286.38 -549.677 1329.98 -523.388Z" fill="#EDE9F7"/>
<path d="M921.797 94.666C982.724 131.405 1044.66 139.061 1091.73 115.666C1114.14 104.704 1134.42 90.9343 1155.88 76.357C1168.86 67.5467 1182.28 58.4344 1196.89 49.4422C1205.31 44.4215 1214.53 39.3257 1224.31 34.2983C1256.77 17.5976 1294.28 2.46044 1345.95 -14.7843C1400.18 -33.1447 1455.8 -53.6299 1487.65 -84.2951C1518.95 -114.482 1532.82 -156.129 1528.88 -208.077C1524.49 -272.111 1499.18 -334.203 1455.7 -387.638C1430.86 -420.473 1399.07 -452.394 1361.22 -482.536C1347.34 -494.216 1332.88 -504.619 1318.22 -513.458C1275.78 -539.046 1229.52 -553.37 1172.64 -558.538C1157.37 -559.767 1141.31 -560.256 1123.51 -560.041C1075.01 -560.721 1020.93 -559.605 963.659 -558.424C913.409 -558.007 854.752 -555.865 800.661 -543.147C790.043 -540.679 779.8 -537.875 770.2 -534.807C713.712 -517.2 674.542 -481.924 659.911 -435.477C645.829 -391.003 647.61 -332.859 665.201 -262.663C675.879 -213.616 695.209 -168.126 727.876 -115.15C745.409 -85.478 766.089 -55.9771 792.949 -22.3097C817.673 8.50593 839.848 28.5575 867.926 53.9515L869.73 55.5794C886.396 70.7344 903.914 83.8824 921.797 94.666ZM1318.77 -514.377C1333.49 -505.499 1348.02 -495.058 1361.94 -483.337C1399.87 -453.136 1431.73 -421.132 1456.63 -388.228C1500.26 -334.613 1525.66 -272.292 1530.07 -208.019C1534.03 -155.769 1520.06 -113.862 1488.55 -83.4715C1456.55 -52.6646 1400.81 -32.1249 1346.47 -13.7286C1294.85 3.49834 1257.38 18.6154 1224.97 35.2888C1215.22 40.3115 1206.01 45.3931 1197.62 50.4003C1183.02 59.3747 1169.62 68.4807 1156.65 77.2875C1135.16 91.8853 1114.85 105.677 1092.38 116.667C1044.94 140.246 982.56 132.56 921.242 95.5846C903.281 84.7545 885.689 71.5529 868.957 56.3367L867.155 54.71C839.035 29.2775 816.826 9.19216 792.029 -21.7112C765.126 -55.4285 744.42 -84.9719 726.861 -114.69C694.118 -167.782 674.749 -213.385 664.042 -262.549C646.406 -332.921 644.634 -391.25 658.769 -435.909C673.498 -482.662 712.898 -518.161 769.705 -535.872C779.33 -538.944 789.612 -541.755 800.251 -544.234C854.451 -556.979 913.187 -559.122 963.501 -559.537C1020.77 -560.721 1074.87 -561.835 1123.38 -561.148C1141.19 -561.37 1157.3 -560.884 1172.61 -559.651C1229.71 -554.464 1276.15 -540.075 1318.77 -514.377Z" fill="#EDE9F7"/>
<path d="M930.534 84.1914C990.939 120.615 1051.17 128.922 1095.78 106.983C1119.28 95.6606 1139.92 81.4389 1161.78 66.3809C1173.08 58.5905 1184.77 50.5361 1197.46 42.4521C1205.63 37.4417 1214.23 32.5326 1223.74 27.4331C1254.96 10.7173 1290.84 -4.55849 1340.07 -22.0932C1391.67 -40.7803 1444.59 -61.5676 1475.07 -91.9102C1504.94 -121.687 1518.23 -162.187 1514.56 -212.278C1510.52 -275.554 1485.11 -335.494 1441.06 -385.62C1416.73 -415.934 1385.97 -445.15 1347.02 -474.957C1333.88 -485.743 1320.2 -495.439 1306.35 -503.793C1264.81 -528.838 1219.48 -543.589 1163.69 -550.211C1148.85 -551.782 1133.32 -552.662 1116.21 -552.914C1073.89 -554.94 1026.13 -555.645 961.349 -555.198C896.359 -555.751 846.074 -550.997 803.096 -540.228C792.877 -537.705 783.004 -534.842 773.736 -531.721C719.633 -514.044 681.873 -479.433 667.4 -434.261C653.522 -391.218 654.73 -333.229 670.895 -266.569C683.313 -205.276 711.398 -156.792 734.476 -121.404C756.507 -85.9128 781.52 -54.3836 800.85 -30.8837C822.567 -4.65531 842.09 12.7553 864.695 32.9093C869.022 36.7676 873.488 40.7499 878.134 44.9381C894.822 60.0809 912.451 73.2873 930.534 84.1914ZM1306.9 -504.713C1320.81 -496.323 1334.55 -486.588 1347.72 -475.775C1386.74 -445.91 1417.57 -416.619 1441.96 -386.246C1486.17 -335.932 1511.69 -275.746 1515.75 -212.221C1519.44 -161.831 1506.05 -121.073 1475.98 -91.0965C1445.36 -60.6109 1392.31 -39.7759 1340.61 -21.0455C1291.42 -3.52579 1255.59 11.7267 1224.42 28.4173C1214.93 33.5057 1206.34 38.4058 1198.2 43.4036C1185.53 51.4731 1173.85 59.5215 1162.55 67.3043C1140.66 82.3876 1119.99 96.6351 1096.42 107.987C1051.45 130.106 990.776 121.768 929.98 85.1089C911.819 74.1583 894.115 60.8983 877.366 45.6947C872.721 41.5097 868.256 37.5306 863.936 33.6738C841.288 13.4802 821.728 -3.95828 799.947 -30.2685C780.587 -53.8049 755.537 -85.3752 733.473 -120.918C710.344 -156.389 682.19 -204.995 669.732 -266.466C653.522 -333.299 652.322 -391.474 666.261 -434.694C680.822 -480.167 718.812 -515.003 773.224 -532.777C782.516 -535.902 792.419 -538.778 802.665 -541.311C845.745 -552.096 896.118 -556.871 961.211 -556.309C1026.01 -556.762 1073.78 -556.058 1116.11 -554.027C1133.24 -553.779 1148.81 -552.894 1163.68 -551.32C1219.69 -544.67 1265.19 -529.862 1306.9 -504.713Z" fill="#EDE9F7"/>
<path d="M939.749 74.001C998.595 109.483 1058.53 118.572 1100.07 98.3215C1124.72 86.6015 1145.69 71.8636 1167.89 56.2625C1177.54 49.4854 1187.51 42.4804 1198.29 35.3393C1206.07 30.4148 1214.3 25.5355 1223.44 20.4118C1253.01 3.86605 1288.28 -12.0604 1334.45 -29.7073C1383.41 -48.7765 1433.64 -69.9199 1462.76 -100.008C1491.22 -129.426 1503.97 -168.816 1500.63 -217.082C1497 -279.626 1471.55 -337.429 1427.02 -384.243C1403.41 -411.878 1373.71 -438.478 1333.54 -467.978C1321.21 -477.835 1308.39 -486.791 1295.42 -494.616C1254.79 -519.114 1210.36 -534.278 1155.6 -542.353C1141.22 -544.25 1126.23 -545.516 1109.79 -546.209C1065.27 -549.884 1016.29 -551.851 960.002 -552.23C900.47 -553.731 848.846 -548.746 806.552 -537.401C796.743 -534.812 787.234 -531.881 778.294 -528.695C726.58 -510.886 690.209 -476.879 675.869 -432.925C661.945 -390.649 662.471 -334.399 677.392 -270.255C688.502 -210.624 716.141 -164.58 741.711 -127.409C762.503 -95.4599 786.464 -66.1408 809.256 -39.2208C828.943 -16.1373 846.017 -1.2964 865.782 15.8877C872.49 21.7156 879.421 27.7455 886.932 34.4977C903.656 49.6621 921.424 62.9522 939.749 74.001ZM1295.97 -495.535C1309 -487.677 1321.87 -478.686 1334.23 -468.808C1374.46 -439.262 1404.23 -412.592 1427.88 -384.901C1472.6 -337.899 1498.17 -279.833 1501.82 -217.017C1505.17 -168.466 1492.34 -128.83 1463.68 -99.2067C1434.42 -68.9787 1384.07 -47.7832 1335.01 -28.6687C1288.89 -11.0388 1253.66 4.86718 1224.14 21.3885C1215.01 26.4999 1206.8 31.3721 1199.04 36.2801C1188.28 43.4062 1178.31 50.4095 1168.67 57.1819C1146.44 72.8102 1125.43 87.5703 1100.71 99.3258C1079.26 109.78 1053.77 112.727 1024.94 108.086C997.509 103.672 967.858 92.202 939.194 74.9185C920.793 63.8232 902.949 50.4796 886.165 35.2576C878.658 28.5078 871.731 22.4854 865.031 16.6623C845.223 -0.558325 828.113 -15.429 808.363 -38.591C785.538 -65.5499 761.551 -94.9031 740.726 -126.899C715.092 -164.166 687.376 -210.345 676.233 -270.167C661.27 -334.473 660.751 -390.913 674.731 -433.362C689.165 -477.611 725.756 -511.839 777.766 -529.742C786.731 -532.937 796.273 -535.877 806.106 -538.474C848.503 -549.846 900.248 -554.85 959.877 -553.347C1016.19 -552.966 1065.21 -550.995 1109.72 -547.323C1126.18 -546.627 1141.21 -545.356 1155.64 -543.453C1210.59 -535.353 1255.18 -520.131 1295.97 -495.535Z" fill="#EDE9F7"/>
<path d="M948.807 63.7174C1006.93 98.7626 1065 108.41 1104.16 89.5276C1130.03 77.4049 1150.29 62.8406 1173.75 45.9769C1181.77 40.2161 1190.05 34.2563 1198.96 28.1268C1206.39 23.2677 1214.25 18.4221 1223 13.2976C1251.34 -3.28789 1284.94 -19.388 1328.75 -37.3755C1375.09 -56.8042 1422.65 -78.271 1450.44 -108.115C1477.5 -137.179 1489.69 -175.462 1486.65 -221.908C1483.41 -283.736 1457.86 -339.428 1412.79 -382.958C1383.75 -414.731 1347.83 -441.443 1319.78 -461.17C1308.32 -470.065 1296.42 -478.247 1284.39 -485.504C1244.57 -509.51 1200.94 -525.157 1147.06 -534.756C1133.11 -536.993 1118.66 -538.645 1102.88 -539.798C1056.98 -545.279 1009.62 -548.492 958.051 -549.626C902.511 -552.034 851.081 -546.976 809.298 -535.001C799.884 -532.345 790.744 -529.349 782.122 -526.103C732.78 -508.195 697.78 -474.793 683.578 -432.05C665.936 -379.594 673.647 -317.342 683.21 -274.363C693.16 -216.016 720.411 -172.309 748.372 -133.766C768.823 -103.847 791.635 -77.1614 817.182 -47.8634C835.493 -27.0266 850.899 -14.082 868.739 0.910204C877.064 7.90453 885.674 15.141 895.345 23.8132C912.17 39.0484 930.158 52.4735 948.807 63.7174ZM1284.94 -486.417C1297.02 -479.132 1308.97 -470.924 1320.45 -462.017C1348.53 -442.267 1384.53 -415.496 1413.63 -383.651C1458.9 -339.925 1484.58 -283.959 1487.84 -221.837C1490.89 -175.116 1478.62 -136.587 1451.37 -107.326C1423.45 -77.3427 1375.78 -55.8164 1329.34 -36.3451C1285.57 -18.3781 1252.01 -2.29651 1223.71 14.2614C1214.97 19.3795 1207.13 24.218 1199.72 29.0574C1190.84 35.1759 1182.55 41.1317 1174.54 46.8897C1151.04 63.7835 1130.74 78.3761 1104.79 90.5315C1065.28 109.593 1006.76 99.9115 948.252 64.6349C929.525 53.3434 911.466 39.865 894.577 24.5719C884.923 15.9156 876.322 8.6902 868.005 1.70065C850.12 -13.3293 834.678 -26.3068 816.303 -47.217C790.72 -76.5531 767.886 -103.271 747.405 -133.232C719.366 -171.884 692.03 -215.732 682.043 -274.289C672.45 -317.376 664.73 -379.822 682.435 -432.499C696.735 -475.523 731.943 -509.137 781.574 -527.148C790.223 -530.408 799.398 -533.407 808.835 -536.073C850.731 -548.08 902.296 -553.151 957.953 -550.737C1009.54 -549.607 1056.95 -546.39 1102.86 -540.907C1118.64 -539.752 1133.14 -538.099 1147.14 -535.856C1201.19 -526.223 1244.97 -510.513 1284.94 -486.417Z" fill="#EDE9F7"/>
<path d="M958.074 54.6085C1015.4 89.1732 1071.59 99.3539 1108.37 81.8401C1135.51 69.3384 1155.95 54.2584 1179.61 36.7997C1186.05 32.049 1192.71 27.1386 1199.8 22.0526C1206.87 17.2739 1214.37 12.4615 1222.74 7.32904C1249.85 -9.27434 1281.8 -25.5384 1323.29 -43.8599C1367.02 -63.613 1411.94 -85.379 1438.39 -114.993C1464.07 -143.695 1475.69 -180.885 1472.93 -225.518C1470.04 -286.645 1444.36 -340.245 1398.69 -380.531C1373.34 -406.299 1343.32 -428.248 1306.03 -453.283C1295.53 -461.174 1284.64 -468.529 1273.65 -475.158C1234.54 -498.734 1191.55 -514.95 1138.37 -526.191C1124.83 -528.785 1110.89 -530.826 1095.77 -532.434C1049.41 -539.802 1003.64 -544.284 955.788 -546.14C903.036 -549.469 853.192 -544.51 811.624 -531.796C802.598 -529.08 793.822 -526.029 785.525 -522.719C738.516 -504.734 704.882 -471.956 690.824 -430.411C673.143 -378.902 679.878 -318.917 688.642 -277.663C697.062 -223.494 721.171 -183.159 754.773 -139.256C774.937 -111.206 797.593 -86.0026 821.581 -59.3188L824.946 -55.577C842.304 -36.4136 856.533 -24.9297 873.012 -11.6327C882.5 -3.97508 892.312 3.93924 903.693 14.114C920.7 29.4828 938.995 43.1056 958.074 54.6085ZM1274.2 -476.073C1285.23 -469.42 1296.16 -462.042 1306.67 -454.141C1344 -429.082 1374.08 -407.084 1399.48 -381.27C1445.39 -340.779 1471.21 -286.885 1474.12 -225.442C1476.89 -180.543 1465.19 -143.117 1439.34 -114.22C1412.76 -84.463 1367.73 -62.6414 1323.9 -42.8415C1282.45 -24.5384 1250.54 -8.29214 1223.47 8.28442C1215.11 13.4074 1207.63 18.2139 1200.59 22.9748C1193.5 28.0486 1186.84 32.9579 1180.41 37.707C1156.7 55.1992 1136.23 70.3065 1109 82.8506C1071.86 100.535 1015.23 90.3211 957.519 55.5259C938.365 43.9777 919.998 30.3005 902.924 14.8756C891.575 4.72826 881.78 -3.17652 872.303 -10.8218C855.779 -24.1565 841.505 -35.6763 824.078 -54.9134L820.71 -58.6648C796.696 -85.3755 774.015 -110.607 753.829 -138.695C720.113 -182.736 695.919 -223.22 687.471 -277.603C678.685 -318.954 671.937 -379.141 689.684 -430.863C703.84 -472.676 737.675 -505.667 784.96 -523.756C793.279 -527.074 802.088 -530.14 811.14 -532.859C852.834 -545.616 902.826 -550.591 955.712 -547.257C1003.59 -545.397 1049.42 -540.909 1095.8 -533.539C1110.92 -531.928 1124.9 -529.879 1138.48 -527.284C1191.84 -515.999 1234.96 -499.732 1274.2 -476.073Z" fill="#EDE9F7"/>
<path d="M967.904 44.7886C1024.15 78.701 1078.26 89.2882 1112.63 73.0996C1140.99 60.2291 1161.45 44.628 1185.15 26.566C1190.09 22.8043 1195.2 18.9084 1200.59 14.8737C1207.29 10.1681 1214.42 5.38556 1222.4 0.24582C1248.23 -16.3759 1278.48 -32.8263 1317.62 -51.5182C1358.69 -71.6185 1400.91 -93.7046 1426.03 -123.119C1450.3 -151.472 1461.37 -187.545 1458.93 -230.331C1456.45 -290.713 1430.74 -342.168 1384.59 -379.143C1359.04 -403.136 1329.05 -422.918 1292.51 -446.294C1283.13 -453.09 1273.44 -459.505 1263.67 -465.397C1225.27 -488.545 1182.88 -505.362 1130.24 -518.314C1117.14 -521.247 1103.75 -523.671 1089.32 -525.717C1043.13 -534.95 999.011 -540.652 954.426 -543.157C905.007 -547.265 855.528 -542.218 815.079 -528.956C806.454 -526.176 798.046 -523.056 790.088 -519.682C745.483 -501.599 713.243 -469.422 699.301 -429.086C681.556 -378.535 687.254 -320.859 695.158 -281.377C702.577 -228.098 727.253 -188.453 762.02 -145.312C780.441 -120.924 800.912 -98.8983 822.589 -75.5794C826.15 -71.7466 829.738 -67.8868 833.354 -63.975C849.993 -46.1317 863.973 -35.349 878.77 -23.938C889.083 -15.9834 899.747 -7.76075 912.488 3.6055C929.71 19.1457 948.352 33.0011 967.904 44.7886ZM1264.23 -466.318C1274.03 -460.407 1283.75 -453.961 1293.13 -447.167C1329.7 -423.777 1359.74 -403.958 1385.34 -379.92C1431.75 -342.738 1457.62 -290.971 1460.12 -230.252C1462.57 -187.207 1451.42 -150.905 1426.99 -122.358C1401.75 -92.8062 1359.44 -70.6637 1318.26 -50.5126C1279.16 -31.8404 1248.94 -15.4093 1223.15 1.18954C1215.18 6.32219 1208.06 11.0961 1201.39 15.789C1196.01 19.8083 1190.91 23.7046 1185.97 27.4663C1162.22 45.5651 1141.71 61.1938 1113.25 74.1135C1078.53 90.4664 1023.98 79.8473 967.35 45.706C947.722 33.8732 929.005 19.9641 911.722 4.36835C899.02 -6.9606 888.376 -15.1713 878.086 -23.1096C863.241 -34.5576 849.217 -45.3748 832.502 -63.3019C828.881 -67.214 825.298 -71.0734 821.736 -74.9043C800.035 -98.2509 779.533 -120.303 761.089 -144.724C726.203 -188.016 701.435 -227.821 693.991 -281.33C686.063 -320.908 680.349 -378.78 698.165 -429.542C712.198 -470.141 744.634 -502.52 789.501 -520.711C797.48 -524.098 805.921 -527.226 814.577 -530.011C855.165 -543.322 904.809 -548.388 954.377 -544.268C999.007 -541.76 1043.18 -536.05 1089.4 -526.812C1103.82 -524.766 1117.25 -522.339 1130.4 -519.392C1183.19 -506.405 1225.71 -489.54 1264.23 -466.318Z" fill="#EDE9F7"/>
<path d="M977.72 34.9613C1033.58 68.6375 1084.24 79.3053 1116.71 64.2259C1146.23 51.0443 1165.61 35.7274 1190.15 16.3334C1193.72 13.5096 1197.4 10.6025 1201.24 7.59605C1207.59 2.95088 1214.36 -1.79742 1221.93 -6.92854C1246.46 -23.5462 1275.04 -40.1665 1311.87 -59.2308C1348.62 -78.7408 1389.83 -102.01 1413.63 -131.251C1436.5 -159.251 1447.01 -194.214 1444.87 -235.164C1442.77 -294.807 1416.98 -344.138 1370.29 -377.839C1346.22 -398.535 1317.43 -415.981 1286.94 -434.445L1278.67 -439.455C1270.65 -445.044 1262.39 -450.407 1254.08 -455.417C1216.2 -478.248 1174.12 -495.814 1121.64 -510.691C1108.96 -513.98 1096.1 -516.793 1082.36 -519.272C1035.99 -530.577 994.714 -537.33 952.435 -540.523C905.347 -545.461 857.544 -540.494 817.813 -526.542C809.583 -523.701 801.539 -520.525 793.906 -517.079C751.683 -498.92 720.825 -467.365 707.009 -428.225C689.206 -378.627 693.909 -323.247 700.995 -285.525C708.203 -227.184 738.394 -187.444 768.694 -151.74C785.734 -130.306 804.497 -110.88 824.354 -90.3172C829.94 -84.5363 835.594 -78.6816 841.301 -72.6903C857.44 -55.8793 870.722 -46.1406 884.783 -35.8275C895.719 -27.8109 907.025 -19.5173 920.913 -7.16225C938.208 8.41794 957.853 22.9841 977.72 34.9613ZM1254.63 -456.335C1262.97 -451.309 1271.26 -445.931 1279.27 -440.344L1287.49 -435.361C1318.03 -416.861 1346.88 -399.39 1370.99 -378.652C1417.97 -344.749 1443.94 -295.089 1446.06 -235.074C1448.21 -193.883 1437.63 -158.702 1414.61 -130.511C1390.69 -101.134 1349.38 -77.8019 1312.54 -58.2407C1275.74 -39.1913 1247.2 -22.5922 1222.7 -5.99625C1215.14 -0.87621 1208.38 3.86576 1202.05 8.49635C1198.22 11.4902 1194.55 14.3984 1190.98 17.2203C1166.38 36.6546 1146.96 52.0093 1117.33 65.2393C1084.5 80.4845 1033.41 69.786 977.166 35.8784C957.223 23.8559 937.504 9.23411 920.147 -6.39969C906.315 -18.7079 895.032 -26.982 884.12 -34.9844C870.009 -45.3304 856.683 -55.1056 840.459 -72.0031C834.749 -77.9969 829.1 -83.8479 823.519 -89.6232C803.633 -110.214 784.849 -129.664 767.792 -151.122C737.376 -186.963 707.062 -226.869 699.819 -285.495C692.717 -323.311 688.002 -378.881 705.879 -428.687C719.781 -468.078 750.83 -499.831 793.299 -518.103C800.958 -521.552 809.028 -524.748 817.286 -527.59C857.171 -541.6 905.16 -546.588 952.407 -541.638C994.741 -538.433 1036.08 -531.675 1082.48 -520.362C1096.22 -517.874 1109.11 -515.061 1121.84 -511.757C1174.46 -496.841 1216.65 -479.233 1254.63 -456.335Z" fill="#EDE9F7"/>
<path d="M987.714 26.2883C1042.04 59.0348 1090.44 69.8998 1120.5 56.0953C1151.06 42.6342 1169.22 27.6536 1194.35 6.91597C1196.71 4.96602 1199.13 2.9666 1201.64 0.91224C1207.65 -3.6931 1214.05 -8.41914 1221.21 -13.5459C1244.42 -30.1713 1271.33 -47.0093 1305.89 -66.5436C1348.36 -91.1672 1380.8 -112.947 1401.06 -139.168C1422.55 -166.886 1432.54 -200.775 1430.75 -239.904C1429.1 -298.855 1403.3 -346.08 1356.15 -376.477C1345.81 -384.548 1333.94 -392.558 1318.74 -401.718C1307.74 -408.352 1296.38 -414.769 1284.34 -421.561C1278.02 -425.135 1271.6 -428.761 1265.11 -432.489C1258.84 -436.678 1252.4 -440.762 1245.96 -444.646C1207.93 -467.57 1167.08 -485.505 1113.49 -502.803C1101.39 -506.399 1088.73 -509.671 1075.86 -512.529C1030.22 -525.75 990.554 -533.666 951.008 -537.447C906.112 -543.145 860.005 -538.189 821.151 -523.501C813.293 -520.582 805.617 -517.321 798.339 -513.814C758.497 -495.528 728.999 -464.527 715.258 -426.517C697.333 -377.789 700.976 -324.671 707.186 -288.694C713.329 -231.102 743.02 -193.613 775.538 -157.155C791.392 -138.183 808.725 -120.948 827.08 -102.695C834.299 -95.5127 841.773 -88.0826 849.266 -80.425C865.026 -64.4595 877.752 -55.624 891.221 -46.2734C902.619 -38.3598 914.401 -30.1829 929.237 -16.997C946.94 -1.06999 967.157 13.8961 987.714 26.2883ZM1319.3 -402.636C1334.54 -393.447 1346.46 -385.407 1356.8 -377.337C1404.27 -346.729 1430.28 -299.166 1431.94 -239.814C1433.73 -200.452 1423.68 -166.345 1402.05 -138.45C1381.69 -112.101 1349.17 -90.26 1306.59 -65.5724C1272.06 -46.0547 1245.18 -29.2354 1222 -12.632C1214.85 -7.51082 1208.46 -2.79067 1202.46 1.79885C1199.98 3.84016 1197.55 5.84114 1195.19 7.79228C1170 28.5789 1151.8 43.5963 1121.11 57.1112C1090.69 71.0804 1041.86 60.1819 987.159 27.2067C966.527 14.7692 946.235 -0.252447 928.473 -16.2338C913.701 -29.3598 901.955 -37.5152 890.593 -45.4042C877.067 -54.7946 864.291 -63.663 848.438 -79.7249C840.945 -87.3774 833.479 -94.8027 826.262 -101.981C807.884 -120.256 790.528 -137.516 774.649 -156.518C742.003 -193.117 712.179 -230.779 706.005 -288.68C699.786 -324.746 696.133 -378.053 714.13 -426.984C727.957 -465.23 757.636 -496.43 797.71 -514.825C805.01 -518.343 812.715 -521.614 820.606 -524.543C859.628 -539.297 905.939 -544.272 951.015 -538.551C990.622 -534.764 1030.36 -526.838 1076.04 -513.604C1088.9 -510.751 1101.59 -507.471 1113.73 -503.862C1167.44 -486.522 1208.39 -468.545 1246.51 -445.563C1252.98 -441.666 1259.43 -437.573 1265.68 -433.396C1272.13 -429.695 1278.54 -426.068 1284.87 -422.5C1296.91 -415.701 1308.28 -409.281 1319.3 -402.636Z" fill="#EDE9F7"/>
<path d="M1342.08 -374.304C1336.96 -377.889 1331.53 -381.4 1325.43 -385.076C1311.31 -393.588 1296.04 -401.493 1279.88 -409.864C1270.65 -414.65 1261.09 -419.596 1251.41 -424.837C1247.58 -427.27 1243.71 -429.67 1239.84 -432C1201.72 -454.976 1160.1 -474.245 1104.9 -494.478C1093.19 -498.451 1081.07 -502.134 1068.88 -505.414C1023.42 -520.866 986.438 -529.756 948.936 -534.238C906.045 -540.779 861.604 -535.952 823.775 -520.652C816.304 -517.687 808.997 -514.375 802.051 -510.816C764.072 -492.263 736.712 -462.732 722.93 -425.399C704.969 -377.656 707.677 -326.883 713.107 -292.696C718.344 -235.855 747.615 -200.54 782.464 -163.462C797.384 -146.552 813.589 -131.16 830.736 -114.865C839.461 -106.576 848.478 -98.0051 857.564 -89.0012C873.108 -73.7163 885.427 -65.6652 898.463 -57.1441C910.235 -49.4522 922.407 -41.4977 938.113 -27.5843C956.404 -11.1773 977.394 4.32264 998.815 17.235C1051.44 48.9577 1097.5 59.9995 1125.17 47.5347C1156.57 33.9901 1173.33 19.5311 1198.7 -2.35609L1202.84 -5.92694C1208.54 -10.4834 1214.57 -15.1644 1221.29 -20.251C1243.41 -36.9822 1267.88 -53.4514 1300.66 -73.6581C1339.97 -98.5351 1370.07 -120.455 1389.15 -146.558C1409.21 -173.895 1418.61 -206.64 1417.08 -243.887C1415.78 -300.463 1391.12 -344.809 1345.76 -372.152C1344.54 -372.882 1343.32 -373.604 1342.08 -374.304ZM1325.98 -385.995C1332.11 -382.303 1337.57 -378.771 1342.66 -375.206C1343.85 -374.526 1345.09 -373.805 1346.31 -373.069C1392.07 -345.483 1416.96 -300.782 1418.27 -243.79C1419.8 -206.324 1410.35 -173.374 1390.15 -145.857C1370.98 -119.631 1340.81 -97.6495 1301.4 -72.7071C1268.64 -52.5161 1244.19 -36.0616 1222.1 -19.3532C1215.38 -14.2702 1209.36 -9.59583 1203.69 -5.05438L1199.56 -1.49377C1174.12 20.4522 1157.32 34.9511 1125.78 48.5531C1097.75 61.1821 1051.26 50.1012 998.261 18.1519C976.765 5.19421 955.703 -10.357 937.348 -26.8239C921.722 -40.6647 909.595 -48.5898 897.868 -56.2542C884.766 -64.8179 872.395 -72.9031 856.751 -88.2861C847.675 -97.2808 838.662 -105.844 829.939 -114.132C812.768 -130.45 796.546 -145.866 781.602 -162.8C747.898 -198.663 717.191 -235.596 711.929 -292.699C706.487 -326.97 703.769 -377.932 721.8 -425.878C735.67 -463.438 763.201 -493.153 801.396 -511.812C808.362 -515.383 815.701 -518.709 823.197 -521.688C861.216 -537.059 905.882 -541.91 948.968 -535.34C986.541 -530.851 1023.61 -521.941 1069.12 -506.468C1081.29 -503.197 1093.44 -499.505 1105.2 -495.515C1160.51 -475.246 1202.2 -455.941 1240.4 -432.917C1244.27 -430.582 1248.16 -428.173 1251.96 -425.763C1261.58 -420.55 1271.12 -415.607 1280.36 -410.827C1296.54 -402.446 1311.82 -394.526 1325.98 -385.995Z" fill="#EDE9F7"/>
<path d="M1009.41 8.92551C1059.94 39.3824 1103.44 50.4204 1128.76 39.2107C1160.77 25.6427 1176.02 11.7973 1201.29 -11.1354L1203.02 -12.7063C1208.41 -17.2457 1214.08 -21.898 1220.35 -26.9413C1240.99 -43.5195 1263.84 -60.1713 1294.46 -80.9329C1325.75 -102.72 1357.33 -126.691 1376.32 -154.325C1395 -181.362 1403.85 -213.012 1402.63 -248.41C1401.77 -301.019 1379.65 -341.886 1338.64 -366.603C1335.07 -368.758 1331.3 -370.817 1327.45 -372.719C1326.66 -373.211 1325.91 -373.662 1325.16 -374.116C1309.63 -383.48 1292.1 -391.646 1273.54 -400.286C1261.81 -405.749 1249.68 -411.395 1237.27 -417.706C1187.96 -447.342 1138.19 -469.126 1096.01 -486.538C1084.67 -490.897 1073.1 -494.977 1061.62 -498.644C1031.65 -510.412 991.531 -524.747 946.669 -531.241C906.286 -538.447 862.394 -533.551 826.223 -517.819C819.14 -514.787 812.2 -511.41 805.597 -507.778C770.045 -489.181 744.024 -460.223 730.325 -424.038C712.263 -377.181 713.968 -328.698 718.581 -296.278C722.848 -240.166 752.875 -205.576 788.733 -169.294C802.819 -154.16 818.031 -140.365 834.135 -125.76C844.183 -116.648 854.571 -107.226 865.067 -97.1174C880.451 -82.415 892.431 -75.0779 905.113 -67.3093C917.156 -59.9341 929.618 -52.3041 946.075 -37.7611C964.839 -20.962 987.329 -4.38262 1009.41 8.92551ZM1339.19 -367.52C1380.61 -342.558 1402.95 -301.331 1403.82 -248.303C1405.05 -212.705 1396.14 -180.852 1377.34 -153.642C1358.26 -125.889 1326.61 -101.852 1295.23 -80.0066C1264.63 -59.2584 1241.8 -42.6184 1221.18 -26.0572C1214.91 -21.0226 1209.25 -16.3751 1203.88 -11.8495L1202.17 -10.292C1176.82 12.7129 1161.53 26.5994 1129.36 40.2296C1103.68 51.5996 1059.76 40.525 1008.85 9.84276C986.701 -3.50949 964.136 -20.1425 945.313 -36.9961C928.954 -51.4556 916.548 -59.0522 904.552 -66.3988C891.801 -74.206 879.763 -81.5808 864.263 -96.3907C853.784 -106.486 843.407 -115.899 833.364 -125.003C817.24 -139.629 802.009 -153.44 787.891 -168.604C751.872 -205.05 721.695 -239.825 717.394 -296.297C712.769 -328.803 711.062 -377.467 729.207 -424.518C742.983 -460.921 769.166 -490.053 804.915 -508.767C811.542 -512.402 818.513 -515.798 825.631 -518.839C861.994 -534.666 906.136 -539.584 946.733 -532.338C991.708 -525.83 1031.92 -511.462 1061.93 -499.679C1073.38 -496.02 1084.98 -491.935 1096.36 -487.555C1138.61 -470.121 1188.44 -448.307 1237.78 -418.65C1250.13 -412.375 1262.24 -406.731 1273.96 -401.274C1293.45 -392.198 1311.81 -383.646 1327.97 -373.66C1331.79 -371.769 1335.59 -369.695 1339.19 -367.52Z" fill="#EDE9F7"/>
<path d="M1021.76 0.621553C1049.99 17.6419 1102.07 44.1509 1133.55 30.4772C1165.89 17.0167 1179.53 3.94304 1204.3 -19.7934C1209.5 -24.4355 1214.8 -29.0541 1220.58 -34.0014C1244.87 -54.8002 1270.13 -74.0778 1289.41 -88.5571C1317.95 -110.544 1346.82 -134.714 1364.62 -162.394C1381.9 -189.138 1390.2 -219.687 1389.29 -253.202C1388.82 -302.205 1368.95 -339.927 1331.83 -362.301C1326.26 -365.654 1320.25 -368.711 1313.94 -371.377C1299.8 -378.948 1283.98 -385.415 1267.23 -392.262C1253.37 -397.922 1239.05 -403.78 1224.24 -410.806C1182.35 -434.435 1139.59 -455.085 1088.27 -478.828C1077.28 -483.599 1066.25 -488.068 1055.52 -492.102C1024.42 -506.08 987.074 -521.305 945.575 -528.474C906.986 -536.445 864.824 -531.614 829.884 -515.234C823.19 -512.143 816.614 -508.702 810.342 -505.001C777.256 -486.381 752.575 -458.018 738.961 -422.964C720.781 -376.997 721.497 -330.832 725.3 -300.195C728.646 -244.7 758.096 -212.21 796.244 -175.5C809.62 -161.904 823.974 -149.508 839.177 -136.38C850.42 -126.674 862.042 -116.637 873.809 -105.629C885.758 -94.5206 895.422 -88.1751 903.296 -83.4295C906.61 -81.4316 909.807 -79.6045 913.199 -77.6678C916.552 -75.7549 920.031 -73.7709 923.587 -71.6276C931.336 -66.957 941.941 -60.0877 955.268 -48.3353C974.985 -30.7222 998.599 -13.3364 1021.76 0.621553ZM1332.38 -363.22C1369.91 -340.598 1390 -302.519 1390.48 -253.087C1391.38 -219.856 1382.8 -188.266 1365.66 -161.738C1347.78 -133.936 1318.84 -109.704 1290.22 -87.6582C1270.94 -73.1868 1245.71 -53.923 1221.43 -33.1373C1215.66 -28.1979 1210.37 -23.5833 1205.25 -19.0229C1180.35 4.85339 1166.66 17.9729 1134.14 31.5019C1102.17 45.3895 1049.66 18.6903 1021.2 1.5388C997.971 -12.4633 974.285 -29.9035 954.506 -47.5702C941.266 -59.2483 930.735 -66.0704 923.034 -70.7123C919.49 -72.8485 916.025 -74.821 912.67 -76.7351C909.427 -78.5876 906.068 -80.504 902.74 -82.5103C894.803 -87.294 885.072 -93.6883 873.023 -104.886C861.279 -115.878 849.663 -125.909 838.426 -135.608C823.208 -148.745 808.828 -161.162 795.432 -174.787C757.09 -211.675 727.488 -244.352 724.112 -300.234C720.299 -330.953 719.588 -377.301 737.839 -423.456C751.532 -458.712 776.358 -487.249 809.639 -505.972C815.928 -509.688 822.533 -513.14 829.259 -516.245C864.419 -532.729 906.851 -537.586 945.672 -529.558C987.306 -522.376 1024.75 -507.106 1055.88 -493.116C1066.6 -489.09 1077.64 -484.606 1088.67 -479.824C1140.04 -456.059 1182.83 -435.392 1224.72 -411.769C1239.45 -404.779 1253.75 -398.932 1267.59 -393.276C1284.37 -386.414 1300.23 -379.936 1314.37 -372.358C1320.68 -369.689 1326.76 -366.608 1332.38 -363.22Z" fill="#EDE9F7"/>
<path d="M1033.95 -6.72787C1079.82 20.9243 1116.68 31.2279 1137.73 22.2861C1170.16 9.05118 1182.6 -3.58368 1205.17 -26.5144C1210.11 -31.1905 1215.05 -35.7819 1220.28 -40.5679C1241.69 -60.1799 1263.5 -78.6681 1283.88 -95.726C1308.46 -116.816 1335.85 -142.155 1352.53 -170.083C1368.2 -196.198 1376.17 -226.491 1375.57 -257.694C1375.43 -304.117 1358.03 -338.095 1323.86 -358.692C1316.63 -363.051 1308.58 -366.805 1299.95 -369.85C1287.58 -375.439 1273.95 -380.179 1259.51 -385.198C1243.81 -390.656 1227.58 -396.302 1210.63 -403.768C1185.42 -416.976 1160.35 -429.787 1133.81 -443.348C1116.23 -452.331 1098.05 -461.623 1079.79 -471.055C1069.08 -476.29 1058.6 -481.157 1048.64 -485.525C1016.77 -501.779 982.021 -517.88 943.593 -525.708C906.681 -534.455 866.206 -529.693 832.538 -512.655C826.213 -509.503 820.001 -505.996 814.069 -502.225C783.426 -483.606 760.059 -455.802 746.504 -421.827C728.188 -376.677 727.921 -332.798 730.928 -303.933C733.38 -248.969 762.251 -218.477 802.764 -181.401C815.509 -169.146 829.141 -157.968 843.569 -146.138C855.922 -136.006 868.7 -125.529 881.654 -113.754C889.684 -106.495 897.435 -100.7 906.031 -95.5194C910.984 -92.5342 915.648 -90.0683 920.584 -87.4607C925.52 -84.8551 930.632 -82.1548 936.058 -78.8844C945.568 -73.1526 954.338 -66.6656 963.648 -58.468C984.328 -40.0482 1009.95 -21.1911 1033.95 -6.72787ZM1324.42 -359.612C1359.01 -338.761 1376.62 -304.428 1376.75 -257.569C1377.36 -226.196 1369.35 -195.72 1353.58 -169.453C1336.83 -141.404 1309.38 -116.005 1284.73 -94.8544C1264.36 -77.8052 1242.56 -59.3257 1221.16 -39.7271C1215.93 -34.9438 1211 -30.3533 1206.08 -25.6986C1183.42 -2.68005 1170.94 10.0039 1138.31 23.3141C1116.91 32.4112 1079.64 22.0678 1033.39 -5.80982C1009.32 -20.3148 983.627 -39.2288 962.888 -57.703C953.642 -65.8374 944.943 -72.2795 935.504 -77.9684C930.116 -81.2161 925.022 -83.9056 920.098 -86.5061C915.146 -89.1212 910.461 -91.5939 905.474 -94.5994C896.798 -99.8289 888.985 -105.674 880.883 -112.998C867.953 -124.749 855.191 -135.216 842.852 -145.333C828.397 -157.185 814.748 -168.379 801.972 -180.658C761.247 -217.932 732.215 -248.605 729.741 -303.989C726.729 -332.935 726.995 -376.992 745.391 -422.322C759.021 -456.493 782.516 -484.451 813.335 -503.178C819.287 -506.96 825.529 -510.485 831.878 -513.658C865.789 -530.808 906.555 -535.6 943.731 -526.799C982.297 -518.934 1017.15 -502.788 1049.07 -486.512C1059.01 -482.154 1069.51 -477.276 1080.25 -472.027C1098.52 -462.585 1116.71 -453.294 1134.28 -444.315C1160.82 -430.75 1185.89 -417.942 1211.07 -404.747C1227.93 -397.324 1244.13 -391.69 1259.8 -386.237C1274.27 -381.208 1287.93 -376.458 1300.3 -370.868C1308.97 -367.816 1317.1 -364.022 1324.42 -359.612Z" fill="#EDE9F7"/>
</svg>
