<svg width="1262" height="588" viewBox="0 0 1262 588" fill="none" xmlns="http://www.w3.org/2000/svg">
<path d="M-196.119 1031.4C-194.433 1078.5 -189.379 1112.17 -179.728 1140.58C-140.994 1248.74 1.22569 1324.53 182.598 1333.66C273.3 1337.46 357.63 1320.67 426.466 1285.11C486.434 1253.55 543.477 1202.14 605.984 1123.31C648.649 1068.85 685.408 1006.01 721.663 925.561C758.069 843.976 774.345 779.351 774.434 716.025C774.413 713.148 774.352 710.273 774.243 707.235C771.667 635.268 744.532 521.993 701.654 404.225C658.075 284.528 606.116 183.062 562.662 132.802C483.739 -4.90057 412.092 16.1192 303.64 47.9264C255.533 62.0386 201.007 78.0263 134.658 84.4234C86.777 89.0273 43.9954 92.4075 6.2463 95.3896C-175.027 109.703 -257.761 116.23 -345.832 216.07C-366.234 240.326 -375.883 272.117 -374.508 310.539C-373.424 340.825 -365.492 375.496 -350.93 413.591C-337.59 448.144 -321.206 483.706 -303.858 521.356C-281.04 570.874 -257.445 622.075 -237.326 678.185C-213.672 744.978 -200.703 818.576 -197.675 903.19C-197.225 915.75 -196.982 928.929 -196.951 942.36C-196.939 948.396 -196.938 954.385 -196.935 960.317C-196.933 985.218 -196.93 1008.74 -196.119 1031.4ZM775.258 707.193C775.367 710.246 775.431 713.137 775.456 716.036C775.367 779.6 759.049 844.415 722.551 926.206C686.251 1006.76 649.441 1069.68 606.714 1124.22C544.109 1203.18 486.963 1254.67 426.867 1286.3C357.891 1321.94 273.417 1338.76 182.571 1334.95C0.811001 1325.8 -141.765 1249.7 -180.661 1141.09C-190.368 1112.52 -195.447 1078.71 -197.139 1031.45C-197.951 1008.75 -197.954 985.219 -197.957 960.301C-197.956 954.369 -197.956 948.385 -197.97 942.349C-198.003 928.935 -198.245 915.775 -198.694 903.233C-201.717 818.783 -214.656 745.339 -238.254 678.695C-258.353 622.656 -281.932 571.486 -304.738 521.992C-322.097 484.323 -338.491 448.744 -351.845 414.144C-366.471 375.884 -374.437 341.042 -375.527 310.581C-376.916 271.769 -367.16 239.654 -346.526 215.119C-303.702 166.57 -261.626 138.864 -205.822 122.478C-151.642 106.563 -85.4469 101.337 6.16943 94.102C43.9142 91.1201 86.6959 87.7447 134.57 83.1337C200.836 76.7523 255.327 60.7686 303.399 46.6699C359.375 30.2532 403.592 17.2802 444.928 25.3493C489.621 34.0648 526.162 66.9455 563.418 131.963C606.898 182.226 658.946 283.852 702.583 403.699C745.509 521.612 772.677 635.068 775.258 707.193Z" fill="#EDE9F7"/>
<path d="M763.246 708.418C763.213 706.711 763.164 705.019 763.101 703.276C760.641 634.52 734.223 525.43 692.422 411.477C649.891 295.504 599.165 196.837 556.729 147.539C479.784 13.8224 409.835 32.6876 303.953 61.2494C258.167 73.5971 206.271 87.5923 143.544 92.8219C97.8231 96.7781 56.8582 99.6133 20.7167 102.117C-154.607 114.259 -234.627 119.802 -320.432 215.305C-342.604 240.447 -353.097 274.181 -351.616 315.586C-350.622 343.353 -344.223 374.738 -332.597 408.865C-319.875 451.02 -302.557 494.901 -284.221 541.356C-266.991 585.006 -249.175 630.149 -233.303 678.42C-200.989 778.633 -193.555 876.349 -190.775 941.131L-190.489 952.564C-190.14 966.443 -189.812 979.555 -189.345 992.595C-187.361 1048.06 -183.048 1093.06 -168.445 1132.37C-129.371 1236.22 8.49142 1310.44 182.773 1321.44C271.973 1327.67 354.538 1313.61 421.538 1280.78C480.93 1251.34 537.251 1201.96 598.78 1125.39C643.829 1069.58 681.406 1004.66 717.028 921.083C751.343 839.675 765.606 774.306 763.271 709.132L763.246 708.418ZM764.123 703.234C764.186 704.983 764.236 706.685 764.262 708.388L764.291 709.09C766.632 774.506 752.333 840.08 717.926 921.703C682.256 1005.4 644.625 1070.42 599.504 1126.31C537.874 1203 481.446 1252.47 421.92 1281.99C354.786 1314.88 272.077 1328.97 182.733 1322.73C8.07662 1311.71 -130.131 1237.2 -169.37 1132.9C-184.041 1093.4 -188.377 1048.26 -190.367 992.637C-190.834 979.587 -191.16 966.473 -191.51 952.587L-191.797 941.171C-194.573 876.495 -201.993 778.925 -234.243 678.897C-250.105 630.672 -267.911 585.551 -285.132 541.915C-303.48 495.434 -320.81 451.526 -333.539 409.342C-345.208 375.091 -351.634 343.555 -352.633 315.628C-354.129 273.831 -343.527 239.748 -321.113 214.347C-235.046 118.54 -154.917 112.99 20.6487 100.831C56.7879 98.3267 97.7463 95.4917 143.467 91.538C206.12 86.3164 257.979 72.3277 303.727 59.9887C358.378 45.2467 401.544 33.6039 441.893 42.111C485.511 51.3064 521.162 83.5657 557.484 146.694C599.945 196.005 650.763 294.835 693.347 410.944C735.202 525.048 761.658 634.318 764.123 703.234Z" fill="#EDE9F7"/>
<path d="M-328.669 321.05C-327.774 346.061 -322.805 373.93 -313.907 403.876C-302.538 455.348 -284.319 509.637 -265.029 567.115C-252.992 602.989 -240.543 640.082 -228.962 678.802C-201.171 774.3 -190.791 864.66 -184.301 940.459L-184.072 944.902C-180.514 1014.24 -177.439 1074.12 -156.865 1125.01C-117.468 1224.75 15.9452 1297.52 183.032 1310.41C271.925 1319.23 350.478 1308.19 416.525 1277.61C474.477 1250.63 531.659 1201.82 591.35 1128.39C638.114 1071.96 677.599 1002.89 712.06 917.224C744.366 835.966 756.827 767.938 751.689 701.104L751.637 699.605C749.289 633.962 723.584 528.9 682.883 418.575C641.405 306.148 591.925 210.111 550.523 161.668C475.579 31.6936 407.352 48.4119 304.077 73.7196C260.673 84.3535 211.479 96.4041 152.436 100.507C108.964 103.808 69.898 106.101 35.4305 108.129C-133.916 118.086 -211.207 122.629 -294.708 213.984C-318.848 240.112 -330.276 276.135 -328.669 321.05ZM753.571 716.473C755.793 778.581 742.891 842.56 712.972 917.815C678.457 1003.61 638.907 1072.79 592.067 1129.32C532.275 1202.87 474.973 1251.77 416.887 1278.82C350.704 1309.47 272.002 1320.53 182.977 1311.7C100.559 1305.34 25.0091 1284.51 -35.5037 1251.46C-96.0211 1218.41 -138.303 1174.88 -157.773 1125.58C-178.443 1074.45 -181.522 1014.45 -185.09 944.969L-185.316 940.555C-191.797 864.864 -202.165 774.598 -229.916 679.236C-241.489 640.555 -253.933 603.467 -265.971 567.603C-285.271 510.087 -303.505 455.757 -314.874 404.262C-323.8 374.235 -328.788 346.242 -329.688 321.092C-331.31 275.758 -319.766 239.393 -295.379 213.003C-211.617 121.365 -134.217 116.816 35.3693 106.849C69.8346 104.819 108.898 102.525 152.366 99.2195C211.341 95.1245 260.5 83.0852 303.868 72.4503C357.174 59.3926 399.272 49.0772 438.615 58.0606C481.154 67.765 515.898 99.4607 551.278 160.825C592.704 209.279 642.274 305.471 683.805 418.049C724.565 528.517 750.303 633.76 752.656 699.563L752.707 701.032C753.096 706.126 753.387 711.333 753.571 716.473Z" fill="#EDE9F7"/>
<path d="M-305.682 328.163C-304.901 349.993 -301.247 373.949 -294.821 399.353C-285.795 462.102 -266.616 529.27 -246.311 600.385C-239.028 625.881 -231.5 652.246 -224.232 679.13C-198.641 777.175 -186.4 870.842 -177.459 939.234C-172.314 1004.21 -167.461 1065.53 -144.938 1116.76C-125.383 1163.78 -84.311 1205.61 -26.1554 1237.76C32.1189 1269.97 104.647 1290.84 183.59 1298.12C270.895 1309.43 347.672 1301.05 411.788 1273.2C469.097 1248.36 525.492 1201.65 584.197 1130.42C633.296 1072.71 673.583 1001.52 707.359 912.79C733.589 843.02 744.82 783.057 742.711 724.085C742.35 713.975 741.579 703.727 740.413 693.626C737.66 630.655 712.481 530.031 673.046 424.375C632.166 314.849 585.371 224.556 544.651 176.65C471.694 50.6297 405.169 65.1413 304.473 87.1085C263.483 96.051 217.023 106.187 161.688 109.183C120.546 111.833 83.4349 113.587 50.6915 115.14C-112.763 122.879 -187.364 126.409 -268.586 213.479C-294.955 240.643 -307.432 279.23 -305.682 328.163ZM743.732 724.042C745.848 783.233 734.582 843.385 708.285 913.354C674.448 1002.24 634.091 1073.54 584.901 1131.35C526.094 1202.72 469.578 1249.52 412.131 1274.41C347.872 1302.33 270.952 1310.73 183.515 1299.4C104.47 1292.11 31.8247 1271.21 -26.555 1238.94C-84.9281 1206.67 -126.172 1164.63 -145.833 1117.36C-168.454 1065.91 -173.318 1004.46 -178.468 939.388C-187.398 871.077 -199.637 777.468 -225.198 679.524C-232.461 652.661 -239.989 626.301 -247.269 600.805C-267.589 529.642 -286.782 462.419 -295.808 399.653C-302.244 374.216 -305.915 350.152 -306.7 328.205C-308.465 278.849 -295.864 239.913 -269.246 212.485C-187.763 125.147 -113.052 121.605 50.6411 113.854C83.3825 112.306 120.487 110.55 161.627 107.903C216.902 104.903 263.325 94.7764 304.287 85.8425C356.255 74.5095 397.306 65.55 435.655 75.001C477.117 85.2164 510.966 116.31 545.403 175.806C586.152 223.73 633.034 314.173 673.97 423.845C713.451 529.63 738.668 630.449 741.427 693.514C742.587 703.598 743.368 713.889 743.732 724.042Z" fill="#EDE9F7"/>
<path d="M-284.414 336.066C-283.763 354.274 -281.276 373.915 -277.018 394.467C-271.631 471.202 -251.188 554.668 -229.546 643.018C-226.606 655.016 -223.64 667.117 -220.681 679.339C-203.402 753.845 -191.442 823.702 -180.892 885.333C-177.72 903.874 -174.719 921.386 -171.732 938.132C-164.356 1005.62 -156.909 1061.01 -134.085 1108.82C-114.308 1153.87 -74.2012 1194.27 -18.0996 1225.66C38.1389 1257.13 107.872 1278.09 183.567 1286.29C269.422 1300.15 344.527 1294.41 406.813 1269.22C463.54 1246.52 519.229 1201.87 577.053 1132.73C627.866 1074.52 670.186 999.063 702.859 908.44C725.911 843.663 735.716 787.476 733.719 731.625C733.179 716.519 731.718 701.18 729.391 686.031C725.887 625.368 701.058 529.187 662.958 428.671C623.33 324.126 578.059 237.49 538.748 190.988C467.644 68.7593 402.693 81.0455 304.374 99.6549C265.771 106.962 222.021 115.241 170.341 117.183C131.546 119.18 96.4005 120.412 65.3917 121.488C-92.5257 126.999 -164.596 129.516 -243.71 212.407C-272.644 240.76 -286.335 282.357 -284.414 336.066ZM734.74 731.583C736.744 787.644 726.908 844.009 703.787 908.982C671.062 999.765 628.653 1075.36 577.751 1133.67C519.824 1202.94 464.013 1247.69 407.132 1270.45C344.706 1295.69 269.456 1301.45 183.472 1287.57C107.686 1279.36 37.8354 1258.36 -18.5019 1226.83C-74.8144 1195.32 -115.088 1154.73 -134.964 1109.45C-157.881 1061.45 -165.352 1005.93 -172.734 938.345C-175.714 921.65 -178.715 904.136 -181.89 885.59C-192.435 823.98 -204.391 754.148 -221.658 679.692C-224.617 667.484 -227.58 655.381 -230.518 643.388C-252.178 554.966 -272.637 471.439 -278.018 394.668C-282.281 374.146 -284.779 354.403 -285.433 336.108C-287.369 281.965 -273.548 240.01 -244.355 211.402C-164.989 128.24 -92.8065 125.726 65.3505 120.212C96.3567 119.126 131.498 117.904 170.291 115.9C221.918 113.955 265.638 105.687 304.208 98.3812C354.951 88.7809 395.031 81.199 432.461 91.1482C472.928 101.906 505.944 132.432 539.503 190.146C578.843 236.671 624.194 323.439 663.875 428.127C702.026 528.784 726.894 625.135 730.401 685.878C732.734 701.012 734.197 716.416 734.74 731.583Z" fill="#EDE9F7"/>
<path d="M-257.348 412.296C-254.457 493.171 -236.803 581.081 -215.76 679.336C-207.587 719.578 -200.339 757.781 -193.332 794.725C-183.513 846.491 -174.234 895.388 -164.715 937.046C-156.029 998.347 -146.827 1052.95 -122.001 1101.03C-102.037 1144.17 -62.9788 1183.17 -9.03494 1213.84C45.0525 1244.6 111.854 1265.68 184.148 1274.83C268.378 1291.28 341.661 1288.17 401.984 1265.61C458.003 1245.06 512.861 1202.43 569.692 1135.31C622.797 1075.77 665.914 998.012 697.862 904.191C717.781 844.878 726.563 790.802 724.707 738.885C723.992 718.895 721.668 698.529 717.798 678.348C709.179 560.086 616.053 304.377 532.613 204.8C463.461 86.1999 400.172 96.2316 304.369 111.412C268.279 117.138 227.375 123.62 179.496 124.544C143.218 125.909 110.183 126.604 81.0378 127.225C-71.1492 130.446 -140.609 131.912 -217.478 210.745C-249.287 240.415 -264.326 285.579 -262.202 344.985C-261.702 358.986 -260.209 373.836 -257.772 389.124C-257.766 396.732 -257.627 404.488 -257.348 412.296ZM725.726 738.843C727.589 790.956 718.779 845.212 698.796 904.709C666.793 998.704 623.587 1076.61 570.383 1136.26C513.445 1203.52 458.458 1246.24 402.283 1266.85C341.813 1289.46 268.383 1292.58 184.031 1276.1C111.656 1266.95 44.7451 1245.82 -9.44536 1215.01C-63.5843 1184.23 -102.805 1145.04 -122.866 1101.7C-147.785 1053.44 -157.011 998.7 -165.707 937.322C-175.22 895.7 -184.497 846.788 -194.323 795.01C-201.33 758.067 -208.578 719.874 -216.746 679.651C-237.8 581.328 -255.467 493.344 -258.363 412.338C-258.643 404.513 -258.782 396.738 -258.778 389.234C-261.22 374.009 -262.715 359.091 -263.217 345.027C-265.357 285.167 -250.183 239.646 -218.11 209.723C-180.877 171.541 -144.312 150.491 -95.8589 139.359C-49.4877 128.699 5.24814 127.537 81.0071 125.936C110.15 125.32 143.183 124.62 179.462 123.262C227.289 122.331 268.165 115.854 304.233 110.139C353.676 102.307 392.728 96.1118 429.178 106.598C468.594 117.94 500.722 147.964 533.367 203.955C571.221 249.124 614.966 332.307 653.317 432.108C690.061 527.704 714.539 619.687 718.803 678.156C722.673 698.323 725.009 718.768 725.726 738.843Z" fill="#EDE9F7"/>
<path d="M-240.76 456.842C-238.048 532.723 -224.736 612.139 -212.072 679.814C-196.134 770.562 -178.902 865.095 -158.879 936.075C-147.393 1000.79 -135.396 1049.6 -111.051 1093.14C-69.7412 1177.39 43.3484 1242.45 184.096 1262.97C266.848 1282.01 338.43 1281.55 396.884 1261.6C452.284 1243.24 506.403 1202.69 562.359 1137.64C617.077 1077.7 662.287 995.527 693.116 899.994C710.619 844.99 718.28 794.586 716.54 745.911C715.648 720.942 712.372 696.448 706.527 671.032C701.502 614.945 677.421 527.624 642.088 437.336C605.057 342.703 562.938 263.355 526.534 219.637C459.191 104.774 397.411 112.491 303.891 124.166C270.302 128.366 232.233 133.122 188.127 133.097C154.403 133.835 123.509 134.024 96.2514 134.18C-46.1581 135.055 -117.64 135.49 -192.462 210.202C-227.136 240.877 -244.218 291.526 -241.889 356.682C-241.566 365.721 -240.87 375.13 -239.813 384.664C-241.345 407.308 -241.664 431.543 -240.76 456.842ZM717.558 745.868C719.304 794.732 711.619 845.306 694.063 900.489C663.172 996.209 617.864 1078.55 563.041 1138.6C506.978 1203.78 452.711 1244.43 397.164 1262.84C338.557 1282.84 266.829 1283.31 183.957 1264.24C42.9355 1243.68 -70.4412 1178.38 -111.9 1093.84C-138.969 1045.42 -150.433 989.523 -159.853 936.417C-179.878 865.44 -197.12 770.866 -213.066 680.083C-225.738 612.36 -239.061 532.877 -241.778 456.885C-242.684 431.537 -242.362 407.239 -240.823 384.684C-241.882 375.254 -242.584 365.807 -242.909 356.724C-245.255 291.105 -228.023 240.082 -193.076 209.168C-118.004 134.211 -46.4059 133.773 96.2343 132.903C123.489 132.738 154.379 132.547 188.107 131.808C232.165 131.838 270.212 127.085 303.777 122.893C352.046 116.865 390.167 112.102 425.73 123.134C464.178 135.062 495.498 164.567 527.292 218.8C563.721 262.531 605.919 342.016 643.002 436.78C678.381 527.193 702.505 614.673 707.522 670.795C713.374 696.203 716.662 720.796 717.558 745.868Z" fill="#EDE9F7"/>
<path d="M-226.837 505.211C-225.014 556.215 -218.916 613.497 -208.191 680.325C-191.837 790.271 -173.731 873.685 -152.835 935.348C-140.138 993.994 -126.287 1041.95 -99.8833 1085.62C-58.2207 1165.7 50.6544 1229.3 184.277 1251.63C265.558 1273.33 335.442 1275.5 392.029 1258.1C446.78 1241.93 500.177 1203.43 555.269 1140.39C627.398 1063.06 667.599 964.831 688.624 896.04C704.019 844.936 710.713 797.935 709.084 752.358C708.034 722.963 703.589 693.99 695.495 663.781C683.693 554.22 596.812 326.282 520.678 234.168C455.078 122.864 394.739 128.212 303.408 136.312C272.39 139.062 237.233 142.18 196.958 141.263C165.911 141.402 137.261 141.1 111.985 140.831C-25.432 139.368 -94.4086 138.635 -167.249 209.332C-205.771 241.636 -224.74 297.317 -222.129 370.383C-222.015 373.554 -221.857 376.801 -221.663 380.034C-226.782 418.559 -228.472 459.458 -226.837 505.211ZM710.102 752.316C711.737 798.074 705.023 845.24 689.574 896.513C668.507 965.444 628.22 1063.87 555.943 1141.36C500.737 1204.53 447.201 1243.13 392.278 1259.34C335.548 1276.79 265.505 1274.63 184.116 1252.9C50.2435 1230.52 -58.9121 1166.7 -100.712 1086.36C-127.195 1042.55 -141.087 994.466 -153.796 935.755C-174.696 874.088 -192.823 790.585 -209.188 680.562C-219.922 613.674 -226.029 556.327 -227.855 505.254C-229.493 459.406 -227.797 418.423 -222.674 379.957C-222.874 376.872 -223.032 373.611 -223.146 370.425C-225.775 296.89 -206.653 240.821 -167.848 208.29C-94.7599 137.349 -25.6692 138.081 111.981 139.544C137.253 139.812 165.896 140.12 196.952 139.986C237.193 140.894 272.326 137.78 303.325 135.031C394.993 126.903 455.556 121.538 521.433 233.329C597.648 325.524 684.682 553.862 696.487 663.508C704.58 693.707 709.047 722.798 710.102 752.316Z" fill="#EDE9F7"/>
<path d="M-214.671 552.886C-213.242 592.868 -209.553 634.639 -203.397 680.568C-190.528 785.729 -171.202 871.186 -145.952 934.575C-133.758 981.667 -118.313 1031.59 -87.9501 1078.19C-45.9929 1154.19 58.5112 1216.39 184.805 1240.56C265.616 1265.32 331.803 1270 387.199 1254.89C441.216 1240.94 493.79 1204.46 547.942 1143.34C606.476 1081.72 654.669 992.49 683.656 892.089C697.204 844.489 703.046 800.594 701.52 757.901C700.321 724.353 694.582 691.131 683.973 656.33C670.58 551.251 588.143 338.07 514.552 248.106C450.728 140.167 391.848 143.072 302.716 147.471C274.406 148.868 242.314 150.451 206.015 148.728C177.817 148.293 151.587 147.529 128.439 146.846C-3.96926 142.943 -70.4314 140.987 -141.253 207.785C-192.791 248.766 -203.068 321.253 -202.625 374.849L-202.639 375.012C-213.097 428.6 -217.033 486.786 -214.671 552.886ZM702.535 757.859C704.066 800.724 698.206 844.777 684.617 892.541C655.564 993.15 607.268 1082.57 548.613 1144.32C494.337 1205.58 441.612 1242.15 387.424 1256.14C331.88 1271.3 265.537 1266.61 184.622 1241.82C58.1028 1217.61 -46.6654 1155.2 -88.7585 1078.96C-119.203 1032.23 -134.692 982.175 -146.889 935.049C-172.158 871.627 -191.519 786.043 -204.401 680.762C-210.564 634.788 -214.254 592.973 -215.685 552.929C-218.051 486.731 -214.111 428.454 -203.641 374.765C-204.08 320.852 -193.704 247.969 -141.837 206.72C-70.7693 139.694 -4.1908 141.655 128.45 145.558C151.591 146.239 177.822 147.015 206.024 147.44C242.304 149.169 274.369 147.585 302.666 146.183C392.12 141.778 451.217 138.859 515.312 247.269C588.974 337.317 671.556 550.874 684.951 656.011C695.569 690.812 701.331 724.173 702.535 757.859Z" fill="#EDE9F7"/>
<path d="M-206.208 596.467C-205.233 623.775 -203.141 652.315 -199.998 681.302C-190.057 783.839 -169.438 871.218 -140.376 934.008C-122.447 992.484 -103.569 1033.37 -77.2199 1070.8C-56.3806 1106.17 -21.2873 1139.47 24.297 1167.13C70.1551 1194.96 125.616 1216.46 184.685 1229.3C264.05 1256.83 328.622 1264.07 382.149 1251.45C435.519 1239.76 487.394 1205.33 540.738 1146.18C601.668 1083.32 650.808 991.737 679.121 888.278C691.093 843.892 696.221 802.886 694.792 762.916C693.457 725.546 686.3 688.377 672.91 649.276C657.72 547.733 578.934 349.602 508.583 262.928C446.321 158.354 388.669 158.725 301.399 159.289C275.846 159.451 246.883 159.641 214.579 157.224C189.343 156.277 166.644 155.133 144.7 154.025C16.7836 147.585 -47.422 144.35 -116.486 207.244C-168.713 246.453 -182.542 317.668 -184.955 370.503L-184.978 370.667C-202.032 437.469 -209.175 513.439 -206.208 596.467ZM695.81 762.874C697.244 803.006 692.099 844.167 680.085 888.708C651.713 992.389 602.461 1084.17 541.403 1147.16C487.929 1206.45 435.895 1240.98 382.343 1252.72C328.666 1265.37 263.942 1258.12 184.475 1230.56C125.362 1217.71 69.8075 1196.17 23.8662 1168.28C-21.8684 1140.53 -57.094 1107.1 -78.0059 1071.6C-104.415 1034.09 -123.35 993.087 -141.289 934.552C-170.387 871.703 -191.049 784.151 -201.009 681.45C-204.153 652.439 -206.246 623.856 -207.223 596.509C-210.195 513.362 -203.043 437.267 -185.969 370.333C-183.532 317.199 -169.594 245.617 -117.051 206.174C-47.7428 143.052 16.5814 146.289 144.726 152.742C166.673 153.85 189.363 154.994 214.613 155.943C246.899 158.358 275.844 158.169 301.386 158.002C388.961 157.438 446.82 157.065 509.341 262.089C541.48 301.675 579.01 370.297 612.257 450.277C643.478 525.386 666.513 599.644 673.877 648.921C687.286 688.026 694.468 725.345 695.81 762.874Z" fill="#EDE9F7"/>
<path d="M-198.911 632.069C-198.333 648.248 -197.341 664.811 -195.971 681.303C-188.583 783.695 -167.23 870.663 -134.221 932.822C-115.302 985.509 -94.2663 1025.58 -65.9717 1062.86C-22.6347 1131.68 71.0987 1189.5 184.802 1217.58C262.627 1247.94 325.511 1257.75 377.103 1247.58C429.761 1238.15 480.87 1205.75 533.356 1148.53C596.62 1084.43 646.647 990.445 674.245 883.883C684.837 842.381 689.332 803.985 687.992 766.499C686.53 725.558 677.864 684.684 661.496 641.533C644.826 545.71 568.179 358.712 502.427 276.871C441.675 175.444 385.172 173.154 299.652 169.707C277.039 168.791 251.409 167.761 223.28 164.776C201.223 163.393 181.149 161.9 161.737 160.455C42.0722 151.575 -23.8451 146.68 -91.1961 205.775C-144.024 243.202 -161.404 313.178 -166.685 365.298C-191.561 444.893 -202.394 534.596 -198.911 632.069ZM689.011 766.457C690.356 804.095 685.843 842.642 675.212 884.29C647.557 991.087 597.414 1085.28 534.015 1149.52C481.391 1206.89 430.112 1239.39 377.266 1248.84C325.529 1259.05 262.491 1249.23 184.561 1218.82C70.6807 1190.7 -23.2827 1132.71 -66.734 1063.69C-95.0837 1026.36 -116.178 986.167 -135.107 933.435C-168.17 871.193 -189.581 784.012 -196.983 681.418C-198.356 664.902 -199.349 648.307 -199.927 632.111C-203.417 534.457 -192.562 444.581 -167.665 364.964C-162.381 312.713 -144.893 242.338 -91.7442 204.685C-24.1463 145.374 41.8941 150.275 161.784 159.174C181.195 160.616 201.265 162.106 223.339 163.501C251.454 166.482 277.068 167.513 299.672 168.421C385.489 171.888 442.183 174.179 503.187 276.034C534.338 314.802 569.382 378.131 601.812 454.289C631.614 524.277 654.282 594.129 662.452 641.135C678.842 684.302 687.542 725.34 689.011 766.457Z" fill="#EDE9F7"/>
<path d="M-192.735 661.256C-192.488 668.182 -192.156 675.21 -191.75 682.144C-186.822 784.824 -164.75 871.325 -127.914 932.295C-108.317 979.204 -85.0395 1018.31 -54.6123 1055.48C-10.9216 1120.17 78.6052 1176.54 184.905 1206.31C262.222 1239.99 321.644 1252 371.956 1244.11C423.861 1236.99 474.177 1206.65 525.793 1151.37C590.416 1087.02 642.646 988.176 669.112 880.171C678.497 841.31 682.445 805.31 681.188 770.118C679.585 725.254 669.624 682.212 649.841 634.659C631.617 544.05 559.01 371.071 496.112 291.95C436.731 193.494 381.221 188.41 297.192 180.713C277.741 178.928 255.698 176.908 231.957 173.555C213.322 171.833 196.12 170.09 179.486 168.396C63.7431 156.635 -0.011453 150.15 -65.7932 205.5C-119.152 241.096 -140.084 309.799 -148.257 361.169C-181.186 450.676 -196.553 554.406 -192.735 661.256ZM682.206 770.076C683.469 805.418 679.506 841.559 670.085 880.561C643.562 988.807 591.201 1087.87 526.437 1152.37C474.683 1207.8 424.19 1238.23 372.087 1245.39C321.622 1253.3 262.053 1241.27 184.639 1207.54C78.1874 1177.73 -11.5513 1121.2 -55.3487 1056.35C-85.8237 1019.14 -109.162 979.918 -128.764 932.976C-165.677 871.888 -187.826 785.144 -192.765 682.218C-193.171 675.279 -193.501 668.238 -193.749 661.298C-197.575 554.238 -182.177 450.316 -149.214 360.764C-141.04 309.261 -119.983 240.19 -66.3218 204.393C-0.292934 148.84 63.5868 155.329 179.554 167.117C196.186 168.808 213.386 170.558 232.034 172.275C255.777 175.628 277.813 177.649 297.251 179.432C340.687 183.411 374.992 186.551 406.753 201.132C441.044 216.875 468.841 244.622 496.873 291.111C526.55 328.441 560.052 388.191 591.157 459.301C619.509 524.119 641.798 589.505 650.783 634.211C670.596 681.8 680.596 725.016 682.206 770.076Z" fill="#EDE9F7"/>
<path d="M-188.294 690.937C-184.738 790.467 -161.994 873.609 -122.516 931.374C-102.029 973.668 -77.8403 1009.54 -44.0346 1047.76C0.131821 1108.4 85.6129 1163.34 184.668 1194.75C260.534 1231.41 318.394 1245.89 366.812 1240.37C417.332 1235.61 468.364 1206.51 518.52 1153.86C585.545 1088.31 638.764 987.037 664.542 875.997C672.896 839.509 676.378 805.668 675.194 772.545C673.478 724.511 661.893 678.328 638.729 627.215C618.229 538.802 550.325 382.858 490.069 306.288C431.738 210.43 379.774 202.767 293.681 190.069C276.889 187.59 259.531 185.03 240.421 181.566C225.471 179.682 211.428 177.807 197.847 176.006C85.3699 161.017 23.4148 152.763 -41.1468 204.503C-95.0967 238.271 -119.645 305.744 -130.75 356.405C-172.481 455.341 -192.452 568.056 -188.55 682.488C-188.477 685.328 -188.394 688.135 -188.294 690.937ZM676.215 772.503C677.404 805.768 673.905 839.745 665.521 876.367C639.684 987.661 586.337 1089.17 519.162 1154.87C468.86 1207.67 417.631 1236.87 366.908 1241.65C318.337 1247.19 260.333 1232.68 184.372 1195.98C85.1899 1164.52 -0.482914 1109.44 -44.7441 1048.66C-78.5931 1010.4 -102.842 974.442 -123.335 932.121C-162.914 874.218 -185.746 790.803 -189.313 690.979C-189.413 688.172 -189.496 685.36 -189.565 682.521C-193.477 567.866 -173.464 454.927 -131.69 355.92C-120.571 305.134 -95.8898 237.33 -41.6564 203.388C23.1568 151.442 85.2401 159.717 197.942 174.724C211.523 176.536 225.561 178.405 240.529 180.293C259.65 183.761 277.003 186.314 293.785 188.794C336.801 195.138 370.775 200.151 402.121 215.723C435.927 232.51 463.284 260.183 490.834 305.457C519.091 341.357 551.11 397.563 580.944 463.658C607.875 523.319 629.826 584.283 639.658 626.729C662.858 677.887 674.492 724.256 676.215 772.503Z" fill="#EDE9F7"/>
<path d="M-184.395 705.077C-181.032 799.19 -157.596 877.167 -116.621 930.575C-96.0141 967.443 -70.2434 1001.26 -33.0093 1040.29C11.6656 1097.05 93.0298 1150.62 184.677 1183.64C260.041 1223.92 314.629 1240.41 361.749 1237.14C411.544 1234.67 461.815 1207.64 511.186 1156.78C580.563 1089.96 634.719 986.152 659.773 871.942C667.212 837.575 670.283 805.664 669.165 774.393C667.339 723.284 654.07 674.099 627.411 619.606C605.405 536.936 541.101 393.692 483.929 320.1C426.339 226.21 374.555 215.392 288.763 197.458C276.118 194.809 263.032 192.081 249.011 188.887C238.152 187.078 227.705 185.29 217.655 183.573C107.936 164.812 47.5007 154.481 -16.1071 202.814C-70.5425 234.763 -98.7109 301.085 -112.765 351.093C-161.084 453.283 -185.979 567.892 -184.807 682.661C-184.797 690.184 -184.658 697.725 -184.395 705.077ZM670.182 774.35C671.304 805.757 668.221 837.795 660.754 872.298C635.639 986.769 581.358 1090.83 511.822 1157.79C462.3 1208.81 411.82 1235.94 361.813 1238.42C314.537 1241.7 259.805 1225.18 184.347 1184.84C92.5998 1151.8 11.0665 1098.1 -33.6892 1041.23C-70.9617 1002.17 -96.7879 968.274 -117.398 931.384C-158.501 877.821 -182.036 799.554 -185.41 705.119C-185.673 697.748 -185.814 690.19 -185.824 682.648C-187.002 567.661 -162.053 452.812 -113.68 350.543C-99.6065 300.411 -71.2952 233.788 -16.5911 201.68C47.2707 153.143 107.834 163.5 217.778 182.298C227.83 184.015 238.273 185.803 249.156 187.618C263.195 190.816 276.273 193.549 288.92 196.189C331.859 205.17 365.769 212.252 396.891 229.021C430.413 247.091 457.493 274.92 484.692 319.267C541.917 392.923 606.332 536.407 628.327 619.077C655.032 673.631 668.348 723.015 670.182 774.35Z" fill="#EDE9F7"/>
<path d="M-180.61 716.145C-177.393 806.178 -153.164 880.025 -110.534 929.707C-86.53 966.957 -57.7236 997.782 -21.8369 1032.62C24.1303 1086.36 99.411 1137.2 184.736 1172.15C234.426 1201.39 298.815 1234.76 356.656 1233.46C405.691 1233.32 455.181 1208.39 503.752 1159.36C574.406 1092.35 630.885 983.388 654.84 867.86C661.475 835.46 664.184 805.345 663.129 775.8C661.173 721.066 646.63 670.624 615.955 612.252C592.053 534.004 530.836 403.804 477.728 334.525C420.342 241.871 368.055 227.457 281.424 203.574C273.766 201.456 265.85 199.277 257.648 196.967C251.398 195.623 245.274 194.29 239.288 193.001C135.08 170.429 72.1806 156.811 9.09104 201.873C-45.7535 231.959 -77.5518 297.054 -94.5787 346.373C-148.718 449.994 -179.335 569.529 -180.838 683.045C-181.073 694.222 -180.995 705.359 -180.61 716.145ZM664.145 775.758C665.206 805.433 662.487 835.672 655.828 868.196C644.592 922.363 625.757 976.781 601.345 1025.58C574.295 1079.66 541.677 1125.01 504.386 1160.37C455.64 1209.58 405.941 1234.6 356.682 1234.75C298.635 1236.05 234.105 1202.62 184.373 1173.34C98.9698 1138.36 23.5515 1087.41 -22.4866 1033.6C-58.396 998.738 -87.2549 967.858 -111.269 930.576C-154.052 880.725 -178.398 806.568 -181.627 716.187C-182.013 705.372 -182.09 694.203 -181.856 683C-181.109 626.398 -173.373 568.779 -158.862 511.749C-144.164 453.962 -122.834 398.115 -95.4721 345.752C-78.4162 296.323 -46.4657 230.944 8.62874 200.727C71.9834 155.468 135.018 169.116 239.448 191.729C245.433 193.033 251.555 194.356 257.829 195.704C266.058 198.028 273.974 200.205 281.627 202.318C368.484 226.262 420.912 240.715 478.493 333.691C531.649 403.04 592.963 533.434 616.856 611.677C647.578 670.135 662.181 720.775 664.145 775.758Z" fill="#EDE9F7"/>
<path d="M-176.876 725.534C-173.771 812.441 -148.671 882.921 -104.294 929.347C-77.7994 965.032 -45.1341 994.395 -10.55 1025.48C36.2963 1075.59 107.503 1125.04 184.847 1161.19C236.463 1194.56 296.589 1228.84 351.551 1230.33C399.792 1232.52 448.479 1209.69 496.254 1162.46C569.179 1094.29 626.565 982.832 649.776 864.3C655.691 833.705 658.082 805.239 657.083 777.268C655.027 719.717 638.774 666.712 604.385 605.412C578.667 532.047 521.945 416.307 471.452 349.438C413.278 256.504 359.169 237.742 269.518 206.653L266.268 205.524L263.608 204.795C160.109 176.452 97.636 159.339 34.3613 201.427C-20.805 229.623 -56.2481 293.506 -76.2767 342.136C-136.91 448.512 -172.556 569.868 -176.694 683.928C-177.296 698.059 -177.357 712.054 -176.876 725.534ZM658.101 777.226C659.105 805.32 656.703 833.905 650.761 864.622C627.499 983.432 569.971 1095.16 496.878 1163.49C448.915 1210.89 400.016 1233.81 351.535 1231.61C296.367 1230.11 236.113 1195.77 184.443 1162.37C107.051 1126.2 35.7336 1076.66 -11.1697 1026.49C-45.7605 995.397 -78.4665 966 -104.984 930.278C-149.548 883.663 -174.773 812.86 -177.892 725.576C-178.375 712.055 -178.313 698.017 -177.707 683.846C-173.566 569.548 -137.847 447.949 -77.1408 341.456C-57.0744 292.718 -21.4804 228.58 33.9227 200.26C97.4781 157.987 160.089 175.135 263.811 203.544L266.497 204.281L269.779 205.419C359.634 236.577 413.863 255.383 472.214 348.601C522.753 415.538 579.561 531.437 605.264 604.795C639.72 666.191 656.035 719.409 658.101 777.226Z" fill="#EDE9F7"/>
<path d="M-174.123 732.46C-171.108 816.867 -145.071 884.47 -98.8285 927.967C-75.4342 955.238 -47.231 978.399 -17.376 1002.92C-11.6739 1007.6 -5.87227 1012.37 0.0237799 1017.26C48.4399 1064.27 115.631 1112.32 184.394 1149.11C234.893 1184.81 293.538 1221.84 346.013 1226.01C393.489 1230.54 441.408 1209.82 488.439 1164.4C563.696 1095.09 622.045 981.19 644.521 859.709C649.81 830.785 651.924 803.841 650.978 777.342C648.824 717.074 630.821 661.655 592.605 597.66C565.291 529.932 512.679 427.825 464.873 363.536C408.683 274.958 355.44 247.712 274.427 213.352C180.79 180.864 120.27 162.843 58.9803 200.259C3.50597 226.56 -35.6332 289.209 -58.707 337.136C-125.896 446.099 -166.603 569.221 -173.365 683.897C-174.428 700.48 -174.682 716.819 -174.123 732.46ZM651.993 777.3C652.944 803.917 650.826 830.97 645.517 860.013C622.978 981.787 564.49 1095.96 489.055 1165.43C441.829 1211.03 393.68 1231.85 345.956 1227.29C293.281 1223.11 234.506 1186 183.955 1150.26C115.165 1113.46 47.893 1065.35 -0.561876 1018.3C-6.42177 1013.44 -12.2233 1008.67 -17.9232 1003.99C-47.8187 979.44 -76.0516 956.25 -99.4731 928.951C-121.785 907.964 -139.627 880.937 -152.46 848.657C-165.967 814.678 -173.598 775.597 -175.137 732.502C-175.698 716.808 -175.441 700.418 -174.378 683.782C-167.605 568.864 -126.821 445.498 -59.5469 336.4C-36.4242 288.367 2.87129 225.49 58.5676 199.08C120.143 161.486 180.818 179.549 274.712 212.127C355.932 246.565 409.296 273.884 465.64 362.707C513.484 427.042 566.167 529.279 593.462 596.994C631.762 661.116 649.83 716.755 651.993 777.3Z" fill="#EDE9F7"/>
<path d="M-170.456 739.011C-167.508 821.507 -140.498 886.726 -92.3437 927.606C-71.1033 949.003 -46.3121 967.247 -20.0643 986.565C-9.80645 994.115 0.802593 1001.92 11.5951 1010.2C49.0626 1043.01 109.517 1091.85 184.904 1138.37C236.743 1178.45 291.548 1216.44 341.395 1223.16C388.077 1230.06 435.216 1211.42 481.495 1167.73C559.069 1097.2 618.352 980.704 640.076 856.091C644.74 829.054 646.657 802.749 645.77 777.918C643.519 714.922 623.739 657.125 581.637 590.511C555.23 533.673 507.337 443.955 459.128 377.904C406.02 295.324 356.42 259.131 283.452 221.22C195.405 182.349 140.455 168.256 84.5209 199.111C28.8327 223.546 -14.0221 285.037 -40.1704 332.327C-113.89 443.918 -159.636 568.981 -169.008 684.529C-170.594 703.238 -171.079 721.568 -170.456 739.011ZM646.785 777.875C647.677 802.818 645.753 829.232 641.069 856.379C630.991 914.185 611.964 972.687 586.049 1025.56C557.877 1083.04 521.93 1132.56 482.107 1168.77C435.617 1212.65 388.24 1231.38 341.292 1224.44C291.253 1217.69 236.327 1179.62 184.426 1139.49C109.022 1092.97 48.5201 1044.08 11.048 1011.28C0.289414 1003.02 -10.3151 995.219 -20.5685 987.669C-46.8478 968.331 -71.6704 950.063 -92.9381 928.639C-116.173 908.913 -134.73 883.112 -148.053 851.975C-162.087 819.181 -169.966 781.191 -171.471 739.054C-172.097 721.545 -171.607 703.152 -170.02 684.382C-160.628 568.584 -114.8 443.282 -40.9811 331.541C-14.7709 284.145 28.2366 222.444 84.1409 197.922C111.887 182.606 140.851 177.962 175.248 183.322C209.803 188.712 247.84 204.145 283.802 220.021C356.953 258.028 406.666 294.309 459.892 377.077C508.133 443.166 556.08 532.977 582.466 589.797C624.676 656.559 644.525 714.59 646.785 777.875Z" fill="#EDE9F7"/>
<path d="M-167.748 744.307C-164.861 825.131 -136.853 888.146 -86.7479 926.545C-67.1045 943.545 -44.6787 958.076 -20.9383 973.459C-6.94264 982.529 7.53523 991.908 22.2469 1002.31C32.0301 1009.95 42.2216 1017.97 52.801 1026.31C92.1625 1057.31 136.775 1092.44 184.472 1126.61C242.964 1175.91 291.07 1210.5 335.802 1219.15C381.671 1228.42 428.02 1211.88 473.556 1169.97C552.245 1099.39 613.959 977.487 634.624 851.835C638.793 826.214 640.482 801.258 639.64 777.667C637.265 711.202 616.341 653.02 569.682 583.12C555.91 557.542 506.853 468.366 452.422 392.351C404.345 318.881 357.741 271.68 291.545 229.401C232.459 195.949 169.454 169.023 109.155 198.328C64.9622 216.166 19.4399 260.893 -22.5175 327.691C-102.755 441.667 -153.535 568.497 -165.519 684.828C-167.673 705.36 -168.424 725.37 -167.748 744.307ZM640.657 777.624C641.504 801.32 639.807 826.382 635.615 852.107C625.918 911.087 606.829 970.905 580.412 1025.1C551.745 1083.92 515.002 1134.38 474.156 1171.01C428.4 1213.12 381.799 1229.74 335.656 1220.41C290.739 1211.73 242.526 1177.07 183.945 1127.7C136.262 1093.55 91.6406 1058.4 52.27 1027.39C41.6929 1019.06 31.5014 1011.04 21.7407 1003.41C7.06287 993.039 -7.40389 983.665 -21.3929 974.599C-45.1647 959.192 -67.6174 944.644 -87.2924 927.618C-111.472 909.091 -130.751 884.432 -144.582 854.34C-159.154 822.638 -167.288 785.633 -168.763 744.349C-169.442 725.338 -168.69 705.25 -166.527 684.645C-154.517 568.067 -103.651 440.999 -23.2986 326.863C18.7645 259.897 64.4522 215.015 108.807 197.118C135.292 184.247 163.473 181.127 194.927 187.613C222.044 193.2 252.882 206.108 291.973 228.245C358.33 270.627 405.03 317.923 453.195 391.522C507.647 467.573 556.736 556.815 570.486 582.355C617.274 652.436 638.272 710.853 640.657 777.624Z" fill="#EDE9F7"/>
<path d="M-165.024 749.067C-162.224 827.434 -132.383 890.194 -80.9983 925.785C-62.5863 939.378 -41.9098 951.005 -20.0163 963.317C-2.74703 973.029 15.115 983.072 33.1555 994.799C76.5551 1024.65 123.73 1064.32 173.675 1106.31L184.436 1115.36C232.594 1159.55 283.55 1203.69 330.737 1215.74C375.822 1227.41 421.423 1212.95 466.268 1172.76C547.306 1101.01 610.028 976.492 629.958 847.807C633.695 823.476 635.18 799.753 634.378 777.295C631.274 690.414 594.26 626.62 558.462 575.681C537.795 542.77 495.779 477.072 446.351 406.542C406.922 347.51 361.928 286.142 300.12 237.156C235.824 189.574 183.072 176.844 134.116 197.103C89.1946 213.688 42.5114 255.958 -4.65297 322.743C-91.477 439.143 -147.334 567.856 -161.942 685.173C-164.71 707.34 -165.746 728.835 -165.024 749.067ZM635.393 777.253C636.199 799.81 634.707 823.637 630.958 848.067C610.975 977.062 548.1 1101.88 466.861 1173.81C421.784 1214.21 375.916 1228.74 330.548 1216.99C283.157 1204.89 232.097 1160.67 183.862 1116.41L173.117 1107.38C123.194 1065.4 76.0375 1025.75 32.6874 995.932C14.6827 984.225 -3.16368 974.191 -20.4216 964.488C-42.34 952.159 -63.0433 940.518 -81.4913 926.897C-106.648 909.473 -126.688 885.838 -141.051 856.652C-156.182 825.896 -164.591 789.715 -166.041 749.109C-166.767 728.796 -165.725 707.21 -162.947 684.961C-148.304 567.396 -92.3548 438.443 -5.40767 321.868C41.8758 254.919 88.7166 212.522 133.803 195.871C183.039 175.504 236.058 188.27 300.64 236.064C362.581 285.153 407.646 346.605 447.117 405.711C496.55 476.255 538.58 541.971 559.235 574.861C595.14 625.946 632.275 689.964 635.393 777.253Z" fill="#EDE9F7"/>
<path d="M-162.326 753.213C-159.567 830.461 -128.635 891.416 -75.2283 924.851C-57.8411 935.695 -38.5563 944.96 -18.1424 954.771C2.12847 964.507 23.0889 974.577 44.0686 987.089C84.7733 1011.37 126.738 1046.3 184.382 1103.88C233.31 1152.7 280.93 1197.7 325.629 1212.05C369.914 1226.12 414.757 1213.76 458.92 1175.28C542.302 1102.38 606.018 975.3 625.209 843.624C628.556 820.513 629.862 797.951 629.098 776.559C625.878 686.425 585.873 620.642 547.166 568.184C540.859 559.652 534.374 550.934 527.724 542C501.231 506.385 471.199 466.022 440.218 420.745C432.881 410.021 425.386 398.861 418.136 388.066C384.274 337.649 349.263 285.519 308.663 244.966C260.785 197.177 207.662 179.769 159.082 195.951C114.126 211.043 65.0562 252.044 13.2331 317.82C-80.1603 436.564 -141.093 567.114 -158.337 685.434C-161.748 709.062 -163.089 731.867 -162.326 753.213ZM630.116 776.517C630.884 798.003 629.571 820.665 626.213 843.87C606.973 975.864 543.096 1103.26 459.503 1176.34C415.094 1215.03 369.973 1227.46 325.393 1213.29C280.499 1198.88 232.774 1153.79 183.758 1104.88C126.175 1047.36 84.2736 1012.48 43.643 988.249C22.6991 975.758 1.75868 965.696 -18.4945 955.966C-38.9328 946.148 -58.2377 936.871 -75.6721 925.995C-101.82 909.625 -122.63 886.952 -137.531 858.596C-153.226 828.715 -161.913 793.275 -163.342 753.256C-164.108 731.813 -162.76 708.91 -159.34 685.188C-150.751 626.272 -131.282 564.1 -101.468 500.391C-71.8922 437.195 -33.5449 375.468 12.5076 316.91C64.4567 250.977 113.681 209.863 158.81 194.708C207.706 178.421 261.153 195.912 309.292 243.966C349.967 284.596 385.017 336.78 418.912 387.244C426.157 398.037 433.649 409.192 440.986 419.906C471.95 465.174 501.972 505.523 528.463 541.132C535.109 550.058 541.598 558.786 547.907 567.316C586.748 619.951 626.882 685.963 630.116 776.517Z" fill="#EDE9F7"/>
<path d="M-149.376 754.52C-146.63 831.408 -117.056 891.435 -66.0982 923.543C-48.0538 934.928 -28.2549 944.363 -7.29602 954.348C11.3609 963.238 30.6535 972.431 50.1516 983.695C59.2766 989.011 68.777 995.077 78.3902 1001.72C110.267 1023.76 143.911 1052.42 187.48 1094.63C235.317 1140.84 281.873 1183.41 325.599 1196.74C368.846 1209.81 412.517 1197.58 455.4 1160.42C504.856 1117.61 545.96 1056.44 574.272 983.515C592.779 936.942 606.018 885.829 612.57 835.688C615.579 813.611 616.732 791.987 615.998 771.426C614.024 716.176 598.832 665.554 568.187 612.125C559.746 597.502 550.012 582.437 538.43 566.078C529.395 553.154 520.055 539.981 510.17 526.031C488.016 494.758 462.903 459.325 437.104 420.811C432.903 414.499 428.689 408.131 424.452 401.726C395.631 358.173 365.829 313.13 332.312 275.132C324.355 266.103 316.375 257.681 308.593 250.108C261.852 204.451 209.938 187.902 162.417 203.501C118.079 218.122 70.0129 257.609 19.5518 320.849C-14.5894 362.975 -45.1251 410.459 -71.2103 461.982C-89.5541 497.766 -105.356 535.047 -118.174 572.784C-131.014 610.683 -139.678 646.931 -145.437 686.869C-148.814 710.36 -150.141 733.124 -149.376 754.52ZM617.011 771.384C617.749 792.037 616.595 813.752 613.572 835.917C607.009 886.177 593.73 937.418 575.183 984.094C546.797 1057.2 505.578 1118.55 455.983 1161.48C412.858 1198.86 368.913 1211.14 325.373 1197.99C281.448 1184.6 234.795 1141.94 186.868 1095.65C143.339 1053.47 109.736 1024.85 77.9106 1002.84C68.3177 996.214 58.8397 990.162 49.7371 984.857C30.2704 973.614 10.9956 964.43 -7.64341 955.549C-28.6312 945.55 -48.4504 936.104 -66.5441 924.688C-117.849 892.359 -147.628 831.939 -150.392 754.562C-151.16 733.069 -149.828 710.214 -146.438 686.63C-140.663 646.595 -131.978 610.252 -119.109 572.267C-106.269 534.464 -90.4409 497.124 -72.0664 461.278C-45.9423 409.681 -15.3589 362.12 18.8325 319.927C69.4174 256.532 117.638 216.942 162.151 202.258C209.984 186.561 262.213 203.19 309.21 249.095C317.011 256.691 325.011 265.131 332.982 274.181C366.558 312.24 396.383 357.315 425.23 400.911C429.465 407.316 433.679 413.686 437.881 419.991C463.67 458.491 487.693 492.395 510.925 525.186C520.812 539.133 530.152 552.306 539.187 565.233C550.793 581.626 560.545 596.72 569.002 611.379C599.776 665.025 615.028 715.866 617.011 771.384Z" fill="#EDE9F7"/>
<path d="M-136.432 756.33C-133.703 832.718 -105.516 891.725 -57.0616 922.478C-38.3326 934.435 -18.0266 944.013 3.47329 954.154C20.4808 962.176 38.0672 970.469 56.0087 980.487C64.8641 985.515 74.1284 991.263 83.5509 997.578C114.802 1018.52 147.695 1045.62 190.196 1085.48C236.877 1129.03 282.313 1169.14 325.025 1181.43C367.194 1193.47 409.643 1181.41 451.199 1145.58C500.233 1103.56 539.566 1043.59 564.954 972.167C581.772 927.126 593.249 878.657 599.061 828.094C601.736 807.09 602.733 786.46 602.03 766.776C600.101 712.763 585.741 662.891 556.843 609.815C548.905 595.4 539.769 580.6 528.911 564.564C516.452 545.659 503.209 526.036 489.186 505.268C471.348 478.846 452.905 451.53 433.315 421.609L431.243 418.41C400.273 370.497 368.245 320.961 331.263 280.072C323.488 271.46 315.656 263.402 307.998 256.144C262.444 212.668 211.802 196.983 165.397 211.989C121.724 226.128 74.7156 264.05 25.6746 324.692C-7.8818 364.885 -36.799 410.816 -62.7438 465.109C-79.8567 500.05 -94.3912 536.185 -107.187 575.574C-118.735 611.318 -126.32 645.176 -132.543 688.779C-135.891 712.135 -137.199 734.861 -136.432 756.33ZM603.047 766.734C603.753 786.504 602.75 807.219 600.069 828.303C594.24 878.98 582.734 927.571 565.874 972.713C540.419 1044.34 500.967 1104.49 451.778 1146.64C409.984 1182.68 367.268 1194.8 324.811 1182.68C281.911 1170.33 236.374 1130.14 189.597 1086.5C147.139 1046.69 114.287 1019.61 83.0832 998.707C73.6809 992.407 64.4346 986.672 55.6016 981.656C37.6914 971.655 20.1204 963.367 3.12858 955.353C-18.3957 945.203 -38.7308 935.61 -57.5091 923.621C-81.335 908.498 -100.396 886.449 -114.162 858.083C-128.238 829.079 -136.072 794.858 -137.446 756.372C-138.217 734.809 -136.901 711.986 -133.541 688.536C-127.304 644.838 -119.705 610.904 -108.124 575.077C-95.3091 535.622 -80.7505 499.428 -63.6133 464.431C-37.6258 410.044 -8.65033 364.029 24.9649 323.766C74.1274 262.969 121.287 224.94 165.131 210.747C211.844 195.642 262.797 211.401 308.603 255.124C316.286 262.403 324.127 270.477 331.927 279.115C368.971 320.072 401.026 369.655 432.029 417.612L434.094 420.799C453.677 450.706 472.123 478.025 489.956 504.444C503.981 525.217 517.227 544.838 529.687 563.747C540.557 579.805 549.715 594.638 557.676 609.092C586.691 662.379 601.108 712.471 603.047 766.734Z" fill="#EDE9F7"/>
<path d="M-123.446 758.329C-120.771 833.196 -93.2311 892.778 -47.8853 921.802C-28.3957 934.409 -7.54271 944.123 14.5348 954.41C29.9003 961.569 45.7821 968.967 62.1304 977.778C70.7354 982.538 79.7785 987.983 89.0072 993.963C119.667 1013.83 151.841 1039.45 193.329 1077.01C238.904 1118 283.267 1155.72 325.022 1167C366.159 1178.04 407.435 1166.12 447.701 1131.57C496.364 1090.26 533.97 1031.39 556.461 961.324C571.375 918.46 581.453 871.164 586.431 820.733C588.775 800.792 589.617 781.147 588.945 762.334C587.055 709.443 573.509 660.19 546.318 607.323C538.861 593.083 530.313 578.513 520.18 562.787C503.003 534.988 483.931 505.407 463.745 474.089C452.94 457.335 441.772 440.012 430.191 421.874C400.447 374.374 368.275 324.622 330.769 284.219C323.143 275.974 315.46 268.275 307.924 261.326C263.512 219.946 214.08 205.103 168.739 219.539C125.68 233.222 79.68 269.652 32.0106 327.813C-1.26534 366.533 -28.6442 410.998 -54.1564 467.765C-69.7826 501.293 -83.507 537.377 -96.1219 578.107C-107.873 616.308 -113.628 648.292 -119.603 690.633C-122.926 713.931 -124.218 736.706 -123.446 758.329ZM589.959 762.292C590.634 781.185 589.784 800.912 587.434 820.925C582.446 871.458 572.34 918.874 557.397 961.836C534.839 1032.12 497.104 1091.19 448.275 1132.64C407.777 1167.39 366.239 1179.37 324.821 1168.25C282.877 1156.93 238.411 1119.13 192.746 1078.06C151.298 1040.53 119.164 1014.94 88.5554 995.103C79.3424 989.134 70.3195 983.703 61.7367 978.952C45.4154 970.161 29.5445 962.762 14.1969 955.612C-7.91397 945.312 -28.796 935.583 -48.3371 922.944C-94.0234 893.702 -121.771 833.718 -124.462 758.371C-125.238 736.654 -123.938 713.782 -120.603 690.392C-114.618 647.978 -108.847 615.926 -97.0695 577.627C-84.4326 536.836 -70.6864 500.688 -55.0354 467.118C-29.4769 410.24 -2.03799 365.679 31.3095 326.878C79.0939 268.566 125.248 232.034 168.48 218.296C214.124 203.77 263.858 218.68 308.522 260.296C316.072 267.259 323.778 274.984 331.422 283.248C368.998 323.73 401.209 373.536 430.982 421.083C442.558 439.211 453.726 456.537 464.526 473.291C484.722 504.61 503.793 534.197 520.966 561.996C531.12 577.751 539.687 592.355 547.165 606.629C574.464 659.701 588.061 709.162 589.959 762.292Z" fill="#EDE9F7"/>
<path d="M-111.371 760.401C-108.72 834.631 -82.5411 893.076 -39.5419 920.75C-19.2108 934.026 2.23013 943.828 24.9299 954.209C38.6491 960.482 52.8384 966.97 67.5561 974.572C75.9099 979.046 84.7384 984.172 93.8003 989.821C123.9 1008.58 155.394 1032.64 195.923 1067.86C238.666 1104.66 283.807 1141.46 324.636 1151.68C364.797 1161.7 404.952 1149.94 443.986 1116.73C492.342 1076.2 528.278 1018.52 547.909 949.952C560.946 909.448 569.65 863.413 573.789 813.103C575.804 794.296 576.503 775.71 575.865 757.85C574.019 706.152 561.273 657.569 535.757 604.962C528.784 590.933 520.809 576.63 511.379 561.224C486.678 518.508 457.648 471.941 426.911 422.638C400.431 379.021 368.211 329.056 330.003 289.136C322.526 281.285 314.978 273.952 307.555 267.331C264.234 228.123 215.952 214.154 171.605 228.005C129.104 241.203 84.048 276.081 37.6873 331.665C4.45601 369.093 -21.4605 412.035 -46.3565 470.907C-60.6983 503.214 -73.2669 538.171 -85.9147 580.908C-97.4186 620.147 -101.736 650.992 -107.207 690.051L-107.556 692.559C-110.868 715.79 -112.15 738.614 -111.371 760.401ZM576.881 757.808C577.521 775.745 576.823 794.406 574.797 813.272C570.65 863.681 561.922 909.832 548.858 950.422C529.164 1019.23 493.093 1077.11 444.557 1117.8C405.298 1151.2 364.887 1163.03 324.453 1152.94C283.434 1142.67 238.184 1105.79 195.356 1068.91C154.867 1033.73 123.414 1009.7 93.3613 990.966C84.313 985.332 75.5044 980.211 67.1754 975.754C52.4843 968.162 38.3062 961.681 24.5938 955.412C1.86288 945.019 -19.6115 935.201 -39.9965 921.889C-83.3344 893.996 -109.718 835.151 -112.387 760.443C-113.168 738.562 -111.883 715.641 -108.557 692.318L-108.208 689.813C-102.729 650.695 -98.4018 619.802 -86.8669 580.448C-74.2017 537.645 -61.6129 502.642 -47.2487 470.285C-22.3005 411.28 3.68477 368.239 36.9939 330.718C83.47 274.995 128.678 240.019 171.352 226.761C215.992 212.82 264.57 226.861 308.14 266.289C315.579 272.928 323.152 280.291 330.65 288.156C368.935 328.155 401.197 378.188 427.709 421.862C458.448 471.165 487.486 517.746 512.187 560.476C521.628 575.889 529.627 590.225 536.62 604.296C562.236 657.107 575.026 705.886 576.881 757.808Z" fill="#EDE9F7"/>
<path d="M-98.4217 762.175C-95.7937 835.74 -71.0307 893.044 -30.4795 919.398C-9.30664 933.408 12.6742 943.27 35.9469 953.709C47.9857 959.108 60.4314 964.688 73.4265 971.133C81.637 975.389 89.9898 980.077 98.9713 985.457C128.423 1003.11 159.162 1025.66 198.635 1058.57C240.247 1092.87 284.211 1127.14 324.051 1136.34C363.129 1145.34 402.059 1133.73 439.751 1101.84C487.67 1062.06 521.834 1005.55 538.55 938.406C549.855 899.808 556.952 856.237 560.253 805.178C561.946 787.537 562.494 770.048 561.891 753.173C560.084 702.59 548.165 654.59 524.377 602.123C517.903 588.283 510.52 574.23 501.815 559.153C481.404 521.074 457.12 479.007 423.066 422.745C389.697 365.731 359.781 324.585 328.911 293.26C321.601 285.791 314.202 278.818 306.914 272.52C264.796 235.448 217.793 222.335 174.554 235.588C133.308 248.141 88.0938 282.417 43.8056 334.71C1.81146 380.658 -21.9076 432.937 -37.8786 473.345C-54.4752 512.898 -66.3885 552.783 -74.9105 583.11C-84.3482 617.083 -87.9563 644.09 -92.13 675.357C-92.9292 681.342 -93.7544 687.52 -94.6486 693.972C-97.9386 717.207 -99.2084 740.152 -98.4217 762.175ZM562.907 753.131C563.512 770.076 562.96 787.635 561.264 805.321C557.954 856.476 550.837 900.153 539.513 938.832C522.733 1006.22 488.431 1062.97 440.323 1102.91C402.404 1134.99 363.222 1146.66 323.88 1137.6C283.852 1128.35 239.788 1094.01 198.087 1059.64C158.65 1026.76 127.953 1004.24 98.5466 986.614C89.5829 981.242 81.2457 976.564 73.0576 972.321C60.087 965.889 47.6479 960.309 35.6202 954.915C12.3097 944.46 -9.70649 934.588 -30.9401 920.531C-71.8227 893.964 -96.7904 836.259 -99.4354 762.217C-100.226 740.1 -98.9526 717.058 -95.646 693.736C-94.7539 687.286 -93.9308 681.111 -93.1292 675.133C-88.9467 643.805 -85.3359 616.75 -75.8669 582.675C-67.3312 552.301 -55.4046 512.36 -38.7839 472.748C-22.7746 432.249 1.00547 379.84 43.1195 333.754C87.5208 281.323 132.887 246.947 174.304 234.346C217.826 220.997 265.127 234.182 307.482 271.469C314.786 277.785 322.211 284.777 329.543 292.264C360.479 323.668 390.457 364.879 423.873 421.988C457.94 478.262 482.231 520.338 502.643 558.426C511.358 573.515 518.758 587.606 525.252 601.484C549.127 654.153 561.093 702.336 562.907 753.131Z" fill="#EDE9F7"/>
<path d="M-85.4499 764.509C-82.8904 836.151 -58.9095 893.623 -21.3047 918.255C0.775015 933.04 23.3257 942.888 47.1986 953.314C57.5685 957.842 68.2896 962.528 79.5384 967.839C87.4779 971.808 95.6115 976.188 104.416 981.229C132.865 997.537 163.792 1019.18 201.745 1049.34C242.269 1081.11 285.098 1112.81 324.018 1120.97C362.066 1128.94 399.819 1117.5 436.227 1086.94C483.764 1047.96 516.208 992.654 530.048 927.009C539.609 890.59 545.19 849.46 547.615 797.533C548.994 781.136 549.404 764.824 548.839 749.025C547.072 699.562 535.955 652.133 513.864 599.756C507.883 586.124 501.09 572.327 493.088 557.591C472.846 516.666 448.927 472.817 419.96 423.514C390.191 370.736 359.407 328.571 328.45 298.183C321.303 291.111 314.043 284.497 306.876 278.525C265.912 243.625 220.126 231.382 177.935 244.051C137.286 256.12 93.1084 288.794 50.1773 338.543C8.83088 382.385 -13.1834 432.859 -29.2624 476.448C-43.6985 512.878 -54.4085 550.567 -63.8303 585.862C-71.8351 616.251 -74.6851 639.641 -77.9873 666.72C-79.1048 675.908 -80.266 685.406 -81.6961 695.823C-84.9835 719.094 -86.2468 742.201 -85.4499 764.509ZM549.855 748.983C550.422 764.85 550.009 781.224 548.626 797.653C546.199 849.664 540.6 890.898 531.018 927.386C517.128 993.305 484.538 1048.86 436.792 1088.02C400.17 1118.75 362.177 1130.26 323.864 1122.23C284.761 1114.03 241.831 1082.26 201.215 1050.42C163.3 1020.29 132.411 998.677 104.005 982.393C95.218 977.358 87.0979 972.987 79.1851 969.032C67.9586 963.729 57.242 959.049 46.8787 954.523C22.9659 944.081 0.379567 934.216 -21.7674 919.385C-41.1789 906.672 -56.7647 886.125 -68.0886 858.324C-78.8632 831.876 -85.2165 799.448 -86.4632 764.551C-87.2636 742.149 -85.9971 718.945 -82.6953 695.59C-81.265 685.177 -80.108 675.686 -78.99 666.508C-75.6812 639.371 -72.8263 615.933 -64.7924 585.443C-55.357 550.097 -44.6332 512.367 -30.1772 475.881C-14.0563 432.182 8.02503 381.562 49.5043 337.583C92.5424 287.704 136.874 254.927 177.689 242.807C220.161 230.053 266.237 242.361 307.429 277.466C314.616 283.454 321.901 290.091 329.066 297.179C360.098 327.641 390.959 369.902 420.778 422.765C449.759 472.095 473.689 515.971 493.936 556.898C501.941 571.646 508.752 585.483 514.751 599.155C536.927 651.722 548.081 699.322 549.855 748.983Z" fill="#EDE9F7"/>
<path d="M-72.4768 766.664C-69.9495 837.397 -47.3868 893.546 -12.1222 916.865C10.9009 932.479 32.9363 941.804 58.4526 952.604C67.1682 956.292 76.1834 960.104 85.6538 964.358C93.3529 968.052 101.267 972.132 109.863 976.827C137.693 992.035 167.876 1012.11 204.854 1040C244.285 1069.27 285.963 1098.45 323.977 1105.58C361.003 1112.54 397.578 1101.24 432.688 1072.01C479.841 1033.78 510.557 979.63 521.515 915.415C531.522 871.912 533.952 825.306 534.955 789.559C536.023 774.471 536.303 759.416 535.78 744.77C534.049 696.317 523.729 649.32 503.312 596.861C497.829 583.42 491.618 569.87 484.33 555.458C464.803 512.307 442.723 469.177 416.818 423.577C389.854 373.781 359.128 331.843 327.951 302.274C320.961 295.588 313.844 289.335 306.798 283.677C267.007 250.916 222.431 239.528 181.286 251.618C130.681 266.27 85.5145 308.632 56.5345 341.575C15.6174 383.653 -4.74418 432.432 -20.6569 478.873C-33.6611 513.83 -42.8841 548.995 -52.749 588.039C-59.6912 615.931 -61.9092 636.772 -64.4795 660.907C-65.6775 672.168 -66.9187 683.817 -68.7423 697.213C-72.0324 720.602 -73.2876 743.97 -72.4768 766.664ZM536.788 744.729C537.314 759.432 537.038 774.545 535.969 789.652C534.965 825.44 532.528 872.148 522.498 915.748C511.489 980.249 480.625 1034.67 433.249 1073.08C397.931 1102.49 361.118 1113.85 323.839 1106.85C285.647 1099.68 243.863 1070.44 204.345 1041.1C167.405 1013.24 137.257 993.185 109.472 978C100.887 973.312 92.9865 969.241 85.3162 965.558C75.8636 961.313 66.8528 957.5 58.1417 953.815C32.581 942.997 10.5058 933.66 -12.5871 917.991C-48.1783 894.463 -70.9458 837.906 -73.4898 766.706C-74.3041 743.915 -73.0433 720.456 -69.7411 696.977C-67.921 683.606 -66.6838 671.971 -65.4853 660.72C-62.9085 636.524 -60.6836 615.632 -53.7164 587.643C-43.8403 548.545 -34.6033 513.344 -21.5813 478.336C-5.6229 431.765 14.8054 382.831 55.87 340.6C84.919 307.57 130.234 265.089 181.047 250.365C222.464 238.199 267.316 249.648 307.339 282.602C314.409 288.276 321.547 294.556 328.558 301.257C359.818 330.906 390.625 372.954 417.645 422.856C443.566 468.475 465.663 511.64 485.197 554.808C492.488 569.227 498.714 582.808 504.218 596.296C524.703 648.93 535.051 696.095 536.788 744.729Z" fill="#EDE9F7"/>
<path d="M-60.3653 769.639C-57.8733 839.374 -36.7227 894.159 -3.78897 916.184C20.1801 932.677 42.7033 941.856 68.779 952.482C75.8751 955.374 83.2106 958.366 90.9125 961.638C98.3552 965.059 106.051 968.841 114.454 973.201C141.644 987.319 171.081 1005.85 207.1 1031.52C245.416 1058.32 285.933 1085 323.057 1091.11C359.057 1097.05 394.457 1085.9 428.264 1057.95C475.02 1020.45 504.004 967.406 512.086 904.556C519.259 867.717 520.993 828.998 521.39 782.183C522.164 768.515 522.315 754.82 521.837 741.445C520.138 693.879 510.609 647.144 491.856 594.367C486.871 581.087 481.242 567.773 474.657 553.679C456.392 509.068 436.15 466.615 412.759 423.86C387.983 375.989 358.175 335.396 326.543 306.451C319.71 300.14 312.742 294.24 305.819 288.904C267.198 258.235 223.847 247.686 183.743 259.211C133.889 273.282 90.0285 313.477 62.0095 344.722C23.6151 383.059 4.29342 427.147 -12.9137 481.55C-24.5853 515.172 -32.715 549.337 -41.3214 585.509L-42.5277 590.583C-48.6404 616.674 -50.316 635.644 -52.2537 657.613C-53.3707 670.262 -54.5226 683.34 -56.6436 699.08C-59.9429 722.694 -61.1946 746.431 -60.3653 769.639ZM522.848 741.403C523.327 754.826 523.178 768.569 522.402 782.252C522.007 829.118 520.267 867.919 513.081 904.823C504.956 967.991 475.819 1021.33 428.82 1059.03C394.811 1087.14 359.185 1098.37 322.941 1092.38C285.636 1086.24 245.019 1059.5 206.613 1032.63C170.63 1006.99 141.227 988.482 114.079 974.384C105.689 970.028 98.0069 966.258 90.5908 962.848C82.9066 959.582 75.571 956.588 68.4794 953.7C42.3527 943.052 19.7896 933.858 -4.26008 917.31C-37.514 895.072 -58.8691 839.88 -61.3777 769.68C-62.2103 746.382 -60.9532 722.55 -57.644 698.846C-55.528 683.15 -54.3754 670.092 -53.2622 657.459C-51.3179 635.43 -49.6379 616.399 -43.5026 590.206L-42.29 585.125C-33.6763 548.914 -25.537 514.712 -13.8472 481.049C3.41036 426.468 22.805 382.219 61.3537 343.736C89.4377 312.417 133.451 272.094 183.508 257.959C223.874 246.366 267.498 256.968 306.344 287.819C313.285 293.168 320.282 299.089 327.132 305.421C358.862 334.451 388.76 375.164 413.601 423.155C437.006 465.94 457.27 508.44 475.545 553.071C482.128 567.17 487.768 580.517 492.777 593.84C511.584 646.79 521.142 693.671 522.848 741.403Z" fill="#EDE9F7"/>
<path d="M-47.3718 772.698C-44.9273 841.09 -25.1904 894.269 5.4315 914.945C30.3125 932.281 53.252 941.183 79.8126 951.495C85.3449 953.643 91.0742 955.868 97.0561 958.253C104.249 961.397 111.724 964.87 119.924 968.88C146.451 981.866 175.142 998.806 210.214 1022.2C247.405 1046.48 286.753 1070.61 323.01 1075.67C357.987 1080.58 392.203 1069.59 424.704 1043C471.065 1006.29 498.325 954.467 503.542 893.12C509.208 857.138 509.25 819.704 508.722 774.503C509.22 762.452 509.25 750.341 508.825 738.459C507.157 691.775 498.415 645.23 481.307 591.978C476.818 578.888 471.779 565.838 465.902 552.103C449.204 506.589 430.795 464.899 409.622 424.633C387.204 379.241 357.53 339.032 326.061 311.388C319.389 305.467 312.561 299.928 305.767 294.927C268.335 266.421 226.202 256.747 187.131 267.677C138.024 281.139 95.4655 319.094 68.4114 348.564C30.2176 385.503 11.7434 429.674 -4.25078 484.633C-13.9324 514.628 -20.6852 545.058 -27.8326 577.277C-29.0083 582.571 -30.1914 587.904 -31.4009 593.291C-36.8428 617.991 -38.0938 636.334 -39.4156 655.75C-40.3384 669.283 -41.2906 683.274 -43.6448 700.874C-46.9667 724.763 -48.2215 748.926 -47.3718 772.698ZM509.841 738.417C510.267 750.338 510.228 762.492 509.733 774.543C510.264 819.778 510.222 857.279 504.544 893.327C499.297 955.017 471.878 1007.17 425.258 1044.07C392.56 1070.83 358.123 1081.89 322.909 1076.94C286.481 1071.86 247.037 1047.67 209.752 1023.33C174.716 999.961 146.056 983.036 119.567 970.07C111.38 966.069 103.916 962.598 96.7457 959.468C90.7836 957.086 85.0566 954.866 79.5243 952.718C52.9107 942.387 29.9267 933.462 4.95632 916.07C-25.9813 895.176 -45.9227 841.594 -48.3837 772.74C-49.2366 748.876 -47.9787 724.617 -44.6446 700.643C-42.2993 683.099 -41.3462 669.132 -40.4245 655.628C-39.0984 636.15 -37.843 617.748 -32.3746 592.934C-31.1675 587.542 -29.982 582.214 -28.8084 576.92C-21.6514 544.664 -14.8936 514.193 -5.19809 484.159C10.8527 429.01 29.4059 384.667 67.7689 347.574C94.8858 318.03 137.59 279.948 186.901 266.427C226.227 255.426 268.622 265.155 306.274 293.827C313.09 298.839 319.941 304.401 326.633 310.348C358.213 338.084 387.987 378.426 410.473 423.955C431.668 464.261 450.098 506.003 466.804 551.538C472.68 565.276 477.736 578.357 482.24 591.499C499.399 644.903 508.167 691.584 509.841 738.417Z" fill="#EDE9F7"/>
<path d="M-34.3717 775.748C-31.9447 843.634 -14.0689 893.836 14.673 913.478C40.3899 931.64 62.5286 939.754 90.5603 950.028C94.6399 951.521 98.8435 953.064 103.207 954.687C110.169 957.563 117.425 960.738 125.398 964.39C151.239 976.25 179.178 991.624 213.327 1012.79C247.786 1033.62 287.526 1056.19 322.943 1060.2C356.894 1064.09 389.926 1053.25 421.119 1027.98C467.069 992.044 492.595 941.385 494.95 881.475C498.784 848.688 497.601 813.644 496.343 776.544L496.005 766.484C496.25 756.304 496.193 746.045 495.832 735.946C494.186 689.922 486.204 643.245 470.704 589.052C466.718 576.133 462.262 563.328 457.086 549.946C441.938 503.113 425.846 463.322 406.425 424.69C385.883 380.874 357.158 342.099 325.535 315.489C319.024 309.948 312.344 304.761 305.665 300.087C269.431 273.713 228.528 264.89 190.486 275.242C142.127 288.103 100.886 323.862 74.8091 351.599C32.533 391.231 16.8553 440.236 4.41781 487.029C-3.64605 514.118 -9.23136 541.56 -15.1456 570.604C-16.8067 578.772 -18.4904 587.042 -20.2547 595.435C-25.1394 619.097 -25.9279 636.229 -26.7656 654.366C-27.4136 668.47 -28.088 683.055 -30.6264 702.209C-33.9399 726.174 -35.2348 751.604 -34.3717 775.748ZM496.843 735.904C497.205 746.035 497.265 756.327 497.016 766.495L497.354 776.504C498.61 813.67 499.8 848.772 495.955 881.619C493.591 941.898 467.9 992.905 421.664 1029.07C390.288 1054.49 357.048 1065.39 322.867 1061.47C287.283 1057.44 247.443 1034.82 212.893 1013.93C178.772 992.792 150.867 977.433 125.064 965.596C117.101 961.94 109.856 958.773 102.919 955.91C98.5709 954.289 94.3673 952.748 90.2899 951.255C62.1985 940.957 40.0067 932.826 14.1959 914.598C-14.8661 894.734 -32.9391 844.142 -35.3827 775.79C-36.2492 751.554 -34.949 726.028 -31.6254 701.978C-29.0952 682.899 -28.424 668.346 -27.775 654.271C-26.9374 636.07 -26.1422 618.881 -21.2336 595.095C-19.4694 586.697 -17.7856 578.434 -16.1264 570.274C-10.2048 541.188 -4.61192 513.715 3.46181 486.597C15.9475 439.626 31.6921 390.418 74.1752 350.592C100.317 322.788 141.702 286.909 190.265 273.995C228.548 263.575 269.706 272.449 306.158 298.973C312.853 303.669 319.561 308.866 326.089 314.431C357.837 341.142 386.675 380.066 407.289 424.028C426.73 462.715 442.852 502.567 458.01 549.431C463.178 562.816 467.648 575.645 471.649 588.618C487.189 642.952 495.193 689.743 496.843 735.904Z" fill="#EDE9F7"/>
<path d="M-22.2277 779.595C-19.868 845.583 -3.32773 893.913 23.1512 912.186C49.6154 931.085 70.8438 938.322 100.227 948.336C102.992 949.28 105.824 950.244 108.741 951.247C115.495 953.853 122.539 956.718 130.293 960.016C155.442 970.714 182.674 984.504 216.004 1003.42C257.444 1026.3 291.444 1042.08 322.626 1044.73C355.624 1047.58 387.525 1036.9 417.449 1012.99C463.069 977.854 486.921 928.415 486.429 870.011C487.426 856.394 487.585 841.488 486.925 823.031C486.447 809.663 485.613 796.108 484.726 781.754C484.264 774.208 483.794 766.551 483.365 758.77C483.414 750.917 483.296 742.984 483.016 735.156C481.364 688.962 474.314 643.161 460.154 586.639C456.716 574.059 452.727 561.17 448.304 548.335C435.051 501.06 420.72 462.022 403.189 425.448C384.393 383.123 356.57 345.832 324.835 320.417C318.458 315.247 311.905 310.431 305.366 306.102C270.282 281.883 230.54 273.932 193.445 283.699C145.729 295.951 105.74 329.481 80.5965 355.448C38.3762 393.71 24.2212 440.975 12.3436 490.11C5.6101 514.75 1.01246 539.684 -3.85805 566.089C-5.77578 576.476 -7.75697 587.227 -9.90768 598.124C-14.3203 620.964 -14.6851 637.088 -15.0709 654.153C-15.3977 668.595 -15.7333 683.521 -18.4337 703.968C-21.808 728.476 -23.1207 754.624 -22.2277 779.595ZM487.937 822.989C488.599 841.506 488.44 856.468 487.441 870.08C487.934 928.885 463.925 978.701 417.993 1014.07C387.89 1038.13 355.784 1048.87 322.573 1046C291.238 1043.34 257.149 1027.52 215.602 1004.58C182.298 985.683 155.096 971.906 129.983 961.226C122.237 957.933 115.199 955.067 108.471 952.472C105.573 951.478 102.736 950.509 99.9722 949.568C70.5178 939.528 49.2362 932.272 22.6667 913.298C-4.12802 894.807 -20.8636 846.086 -23.2398 779.637C-24.136 754.574 -22.818 728.331 -19.4314 703.74C-16.7452 683.383 -16.4081 668.5 -16.0819 654.104C-15.6943 636.966 -15.3295 620.78 -10.889 597.804C-8.74254 586.91 -6.76099 576.169 -4.84526 565.786C0.0305798 539.348 4.63571 514.38 11.3809 489.701C23.3019 440.374 37.5257 392.895 79.9725 354.428C105.182 328.403 145.315 294.756 193.228 282.451C230.554 272.623 270.547 280.617 305.837 304.976C312.396 309.319 318.972 314.153 325.374 319.346C357.247 344.871 385.192 382.328 404.062 424.823C421.621 461.453 435.984 500.562 449.246 547.88C453.667 560.701 457.663 573.619 461.116 586.248C475.305 642.897 482.37 688.802 484.026 735.114C484.307 742.966 484.425 750.918 484.375 758.748C484.802 766.473 485.27 774.13 485.737 781.671C486.622 796.035 487.458 809.599 487.937 822.989Z" fill="#EDE9F7"/>
<path d="M477.374 859.072C477.542 852.568 477.493 845.837 477.228 838.433C476.615 821.288 474.93 803.493 473.149 784.654C472.131 773.885 471.075 762.747 470.189 751.338C470.12 746.616 470.001 741.873 469.833 737.179C468.178 690.899 461.785 643.688 449.11 584.114C446.167 571.652 442.785 559.006 439.054 546.535C427.658 498.16 415.493 460.916 399.582 425.736C382.501 384.692 355.657 348.794 323.988 324.63C317.779 319.825 311.381 315.362 304.975 311.354C270.665 288.918 233.209 281.991 196.645 291.333C149.711 302.986 111.105 334.348 86.9797 358.603C44.9034 395.632 32.2498 441.268 21.0984 492.763C15.5084 515.402 11.7803 538.291 7.82956 562.515C5.8204 574.84 3.74105 587.579 1.35668 600.627C-2.62968 622.88 -2.58755 638.194 -2.54402 654.401C-2.50228 669.035 -2.46016 684.167 -5.28153 705.778C-8.7279 731.061 -10.0598 758.174 -9.12947 784.183C-6.84374 848.083 8.33142 894.45 32.503 911.403C59.4537 930.974 79.5372 937.293 109.938 946.856L114.898 948.417C121.441 950.767 128.255 953.336 135.75 956.28C160.4 965.958 186.069 977.841 218.986 994.808C258.969 1014.79 291.844 1028.44 322.305 1030.12C354.249 1031.96 384.925 1021.42 413.484 998.815C457.392 965.36 479.552 918.574 477.582 863.497C477.529 862.027 477.463 860.548 477.374 859.072ZM478.24 838.392C478.506 845.828 478.552 852.591 478.385 859.062C478.466 860.485 478.539 861.973 478.592 863.455C480.58 919.022 458.255 966.205 414.024 999.905C385.295 1022.64 354.428 1033.24 322.274 1031.4C291.669 1029.71 258.705 1016.02 218.618 995.992C185.726 979.036 160.081 967.166 135.462 957.497C127.974 954.558 121.169 951.991 114.648 949.65L109.703 948.095C79.221 938.506 59.0824 932.171 32.0153 912.513C7.52851 895.342 -7.83733 848.581 -10.1394 784.225C-11.073 758.124 -9.73781 730.92 -6.27721 705.547C-3.47148 684.048 -3.51379 668.971 -3.55355 654.393C-3.59782 638.104 -3.64011 622.724 0.371643 600.328C2.75436 587.295 4.82963 574.563 6.83887 562.241C10.7949 537.983 14.533 515.065 20.1304 492.392C30.9172 442.586 44.1012 394.777 86.3718 357.577C110.556 333.264 149.306 301.785 196.436 290.076C233.226 280.682 270.914 287.652 305.42 310.215C311.846 314.234 318.271 318.718 324.505 323.536C356.328 347.823 383.307 383.903 400.467 425.134C416.409 460.38 428.606 497.714 440.005 546.135C443.74 558.596 447.13 571.273 450.079 583.776C462.782 643.466 469.184 690.759 470.843 737.137C471.011 741.841 471.129 746.599 471.198 751.28C472.08 762.627 473.134 773.755 474.153 784.516C475.939 803.382 477.621 821.198 478.24 838.392Z" fill="#EDE9F7"/>
<path d="M3.09656 788.785C5.29099 850.118 19.1427 894.253 41.0969 909.87C68.3728 929.952 87.1848 935.308 118.343 944.178L120.477 944.785C126.847 946.881 133.449 949.151 140.673 951.726C164.428 960.202 189.392 970.568 221.613 985.331C254.994 1000.1 290.243 1013.87 321.855 1014.6C352.831 1015.4 382.35 1005.01 409.607 983.743C450.603 952.945 471.329 910.364 469.548 860.59C469.393 856.251 469.066 851.804 468.57 847.371C468.543 846.395 468.513 845.492 468.481 844.578C467.806 825.721 465.154 805.814 462.342 784.742C460.566 771.421 458.728 757.65 457.267 743.253C455.062 683.455 446.429 627.736 438.284 581.112C435.841 568.762 433.057 556.367 429.998 544.294C423.735 511.509 414.235 468.436 396.1 425.717C380.848 386.485 354.244 351.115 323.105 328.648C317.046 324.221 310.788 320.114 304.506 316.447C271.43 296.154 235.134 290.067 199.529 298.822C153.256 309.878 115.947 339.052 92.7984 361.579C50.8074 397.338 39.1208 443.204 29.1236 495.106C24.5021 515.999 21.5188 537.105 18.3597 559.451C16.3887 573.393 14.3496 587.806 11.8265 602.707C8.21754 624.481 8.64647 639.089 9.09953 654.554C9.53119 669.239 9.97888 684.432 7.05179 707.049C3.54283 732.961 2.1377 761.986 3.09656 788.785ZM470.558 860.548C472.357 910.817 451.462 953.795 410.137 984.834C382.73 1006.23 353.021 1016.68 321.846 1015.88C290.094 1015.14 254.753 1001.34 221.286 986.535C189.082 971.776 164.138 961.421 140.408 952.954C133.194 950.38 126.599 948.113 120.251 946.028L118.135 945.425C86.8774 936.526 68.0103 931.155 40.6045 910.972C18.3395 895.137 4.29724 850.614 2.08658 788.827C1.12454 761.938 2.53278 732.817 6.05406 706.823C8.96628 684.34 8.52097 669.213 8.09137 654.586C7.63321 639.039 7.20393 624.359 10.8377 602.423C13.3593 587.544 15.3967 573.145 17.3637 559.213C20.5283 536.839 23.5151 515.705 28.1437 494.769C38.1869 442.632 49.9414 396.53 92.1987 360.536C115.408 337.949 152.859 308.67 199.327 297.575C235.144 288.763 271.662 294.892 304.931 315.289C311.229 318.976 317.518 323.098 323.602 327.55C354.915 350.13 381.666 385.706 396.998 425.146C415.18 467.971 424.703 511.147 430.972 543.968C434.025 556.017 436.817 568.435 439.266 580.834C447.426 627.526 456.067 683.315 458.275 743.156C459.732 757.479 461.564 771.238 463.34 784.544C466.292 806.678 469.069 827.525 469.576 847.279C470.067 851.681 470.402 856.168 470.558 860.548Z" fill="#EDE9F7"/>
<path d="M16.2905 794.886C17.5168 829.153 23.6185 889.557 50.6977 909.117C78.0566 929.551 95.4185 933.943 126.941 941.916C133.295 943.793 139.676 945.76 146.565 947.956C175.532 957.203 203.796 968.146 225.188 976.64C257.291 988.899 291.285 1000.2 322.305 999.868C352.319 999.618 380.677 989.39 406.598 969.461C444.943 941.068 464.354 902.254 462.742 857.209C462.501 850.458 461.791 843.483 460.623 836.477C459.259 819.863 456.155 802.416 452.868 783.944C450.148 768.669 447.341 752.873 445.2 735.985C442.107 686.079 436.216 637.117 428.322 578.941C426.386 566.662 424.193 554.526 421.809 542.893C416.705 507.878 409.346 466.718 393.491 426.548C379.776 388.451 354.127 354.557 323.126 333.535C317.223 329.481 311.107 325.729 304.942 322.39C273.137 304.259 238.014 298.999 203.355 307.18C157.737 317.622 121.752 344.605 99.5949 365.405C57.626 400.001 47.2967 444.154 38.1524 498.279C34.3747 517.67 32.0498 537.227 29.5876 557.938C27.7691 573.254 25.8864 589.089 23.3132 605.604C20.7564 622.335 20.7662 634.359 21.1081 643.913C21.252 647.936 21.4694 651.758 21.7017 655.813C21.9323 659.819 22.1726 663.977 22.327 668.292C22.6635 677.695 22.7481 690.837 20.3977 709.133C16.7424 736.33 15.2848 766.785 16.2905 794.886ZM463.754 857.167C465.384 902.711 445.803 941.917 407.121 970.557C381.421 990.318 352.097 1000.9 322.327 1001.15C291.17 1001.48 257.089 990.15 224.9 977.859C203.517 969.364 175.276 958.432 146.328 949.194C139.448 946.998 133.071 945.03 126.829 943.187C95.1225 935.169 77.6989 930.76 50.1989 910.22C22.6968 890.354 16.5166 829.459 15.2808 794.928C14.272 766.738 15.735 736.189 19.4003 708.907C21.7375 690.729 21.654 677.679 21.3195 668.334C21.1656 664.033 20.9238 659.895 20.6932 655.885C20.4716 652.008 20.2408 647.994 20.0963 643.955C19.7516 634.324 19.7453 622.213 22.3211 605.345C24.8931 588.859 26.774 573.033 28.5907 557.727C31.0522 536.996 33.3802 517.406 37.1698 497.98C46.3546 443.585 56.7515 399.194 99.0102 364.35C121.226 343.495 157.358 316.412 203.162 305.924C238.02 297.696 273.355 302.984 305.343 321.225C311.527 324.57 317.668 328.34 323.598 332.415C354.796 353.568 380.605 387.681 394.396 426.013C410.31 466.308 417.684 507.578 422.795 542.629C425.181 554.25 427.368 566.406 429.315 578.723C437.217 636.953 443.109 685.949 446.206 735.85C448.333 752.647 451.14 768.421 453.854 783.68C457.147 802.19 460.261 819.675 461.621 836.297C462.787 843.303 463.51 850.347 463.754 857.167Z" fill="#EDE9F7"/>
<path d="M28.6204 801.404C30.6126 857.062 41.5899 894.975 59.5294 908.16C86.7496 928.797 103.138 932.393 132.882 938.921C139.121 940.544 145.293 942.214 151.768 944.025C178.299 951.441 204.15 959.841 228.135 967.816C257.471 977.141 291.602 986.476 322.227 985.028C350.906 983.745 378.881 973.376 403.134 955.04C439.61 928.421 457.349 893.905 455.865 852.448C455.551 843.673 454.339 834.538 452.264 825.294C450.26 811.36 446.931 796.805 443.405 781.394C439.572 764.635 435.609 747.304 432.709 728.313C430.048 698.859 427.151 669.762 424.081 638.955C422.044 618.542 419.944 597.438 417.912 576.184C416.491 563.895 414.894 552.008 413.171 540.854C409.463 503.88 404.141 464.488 390.4 426.622C378.169 389.549 353.456 357.092 322.606 337.557C316.848 333.86 310.87 330.462 304.829 327.46C274.299 311.457 240.309 307.021 206.54 314.635C161.509 324.49 126.826 349.307 105.659 368.398C63.657 401.905 54.6053 444.402 46.3991 500.776C43.3523 518.848 41.6128 537.076 39.7719 556.368C38.1937 572.889 36.5638 589.974 34.0022 607.954C32.4466 619.077 31.8991 629.121 32.2724 639.549C32.4874 645.557 32.9621 651.019 33.4654 656.797C33.971 662.575 34.4926 668.559 34.7282 675.141C35.1412 686.678 34.5763 698.003 32.9445 710.774C29.1542 739.261 27.5783 772.293 28.6204 801.404ZM456.878 852.406C458.38 894.375 440.47 929.275 403.648 956.14C379.266 974.581 351.122 985.011 322.277 986.303C291.522 987.761 257.307 978.401 227.889 969.053C203.916 961.08 178.076 952.681 151.562 945.27C145.091 943.461 138.922 941.794 132.709 940.174C102.853 933.624 86.4007 930.014 59.0235 909.256C40.7774 895.85 29.6186 857.557 27.6101 801.446C26.565 772.25 28.1461 739.12 31.9488 710.55C33.5642 697.871 34.13 686.633 33.7201 675.183C33.4861 668.646 32.9653 662.683 32.4624 656.92C31.9562 651.123 31.4765 645.64 31.26 639.591C30.8832 629.065 31.4387 618.938 33.0081 607.716C35.5622 589.77 37.1928 572.704 38.7674 556.205C40.6114 536.877 42.3544 518.625 45.4041 500.512C53.6563 443.84 62.7669 401.1 105.089 367.334C126.317 348.193 161.138 323.274 206.354 313.385C240.315 305.724 274.493 310.184 305.199 326.278C311.259 329.292 317.267 332.705 323.053 336.411C354.118 356.093 379.005 388.786 391.331 426.119C405.113 464.126 410.455 503.635 414.172 540.666C415.892 551.796 417.489 563.705 418.916 576.03C420.946 597.301 423.051 618.41 425.083 638.807C428.153 669.622 431.055 698.722 433.708 728.137C436.593 747.02 440.55 764.32 444.374 781.053C447.908 796.497 451.245 811.084 453.248 825.02C455.335 834.297 456.56 843.53 456.878 852.406Z" fill="#EDE9F7"/>
</svg>
